<svg height="512" viewBox="0 0 64 64" width="512" xmlns="http://www.w3.org/2000/svg"><g id="Fill_Outline" data-name="Fill Outline"><g id="Color"><circle cx="27" cy="27" fill="#fcbc04" r="8"/><path d="m35 27a8 8 0 0 1 -16 0 7.87 7.87 0 0 1 .95-3.77 7.969 7.969 0 0 0 8.02 2.52l-3.78-5.45a4.6 4.6 0 0 1 -.37-.64 7.87 7.87 0 0 1 3.18-.66 8 8 0 0 1 8 8z" fill="#e59730"/><path d="m16 22h2a4 4 0 0 1 4 4 0 0 0 0 1 0 0h-2a4 4 0 0 1 -4-4 0 0 0 0 1 0 0z" fill="#7ab92d" transform="matrix(.35 -.937 .937 .35 -10.133 33.396)"/><path d="m21.92 21.89-.7 1.87a4 4 0 0 1 -5.14 2.35l.68-1.81a4 4 0 0 0 4.46-2.54l.02-.06a5.267 5.267 0 0 1 .68.19z" fill="#5ba006"/><path d="m29.304 16.794-7.464-4.928 2.964-2.866 5.732 5.928z" fill="#7ab92d"/><path d="m30.54 14.93-1.24 1.86-7.46-4.92 1.03-1 2.57 1.69a2.2 2.2 0 0 0 1.5.35l-.69-2.41z" fill="#5ba006"/><path d="m31.036 15.794-.536-8.928-3.964 1.134 2.268 7.928z" fill="#a1d51c"/><path d="m31.04 15.79-2.24.14-2.26-7.93 1.54-.44.61 2.14a2.771 2.771 0 0 0 2.1 1.96z" fill="#7ab92d"/><path d="m40.67 34.481a3.261 3.261 0 0 1 -4.309-.965l-9.17-13.216a4.6 4.6 0 0 1 1.479-6.6 4.6 4.6 0 0 1 6.462 2.023l6.857 14.548a3.261 3.261 0 0 1 -1.319 4.21z" fill="#f9e109"/><path d="m40.67 34.48a3.262 3.262 0 0 1 -4.31-.96l-9.17-13.22a4.586 4.586 0 0 1 .82-6.13l6.36 10.39a3.273 3.273 0 0 0 4.25 1.21 3.074 3.074 0 0 0 .92-.7l2.45 5.2a3.26 3.26 0 0 1 -1.32 4.21z" fill="#fcbc04"/><circle cx="48.012" cy="21.783" fill="#5ba006" r="5"/><circle cx="40.543" cy="18.746" fill="#5ba006" r="3"/><path d="m60.9 20.059a3 3 0 0 0 -5.8-1.553 2.969 2.969 0 0 0 .006 1.524 3.012 3.012 0 1 0 3.783 2.11 2.993 2.993 0 0 0 2.011-2.081z" fill="#5ba006"/><path d="m52.721 15.798-4.779 10.107-2.241-10.953-4.381.896 2.215 11.049-2.044 7.632 7.727 2.071 2.083-7.773 5.284-11.994z" fill="#c4f236"/><path d="m49.29 35.08.31.08-.38 1.44-7.73-2.07 2.05-7.63-2.22-11.05 4.38-.9 1.33 6.49a3.87 3.87 0 0 1 -1.43-.11 3.655 3.655 0 0 1 -1.08-.49l.64 3.19a7.976 7.976 0 0 1 -.12 3.7 6.014 6.014 0 0 0 4.25 7.35z" fill="#a1d51c"/><path d="m56.59 16.83-3.05 6.91a3.945 3.945 0 0 1 -2.41.11 3.836 3.836 0 0 1 -1.74-1l3.33-7.05z" fill="#a1d51c"/><path d="m60.259 14.712a4.975 4.975 0 0 0 -4.619-6.284 4.988 4.988 0 0 0 -9.477-2.575 4.994 4.994 0 0 0 -5.222 3.682 4.727 4.727 0 0 0 -.085.522 3.986 3.986 0 1 0 3.2 7.167 3.941 3.941 0 0 0 5.277 1.846 3.982 3.982 0 0 0 7.825-.971 4.983 4.983 0 0 0 3.101-3.387z" fill="#a1d51c"/><path d="m60.41 13.05a4.727 4.727 0 0 1 -.15 1.66 4.982 4.982 0 0 1 -3.1 3.39 3.647 3.647 0 0 1 -.13.92 3.99 3.99 0 0 1 -7.7.05 3.924 3.924 0 0 1 -2.73.26 3.969 3.969 0 0 1 -2.54-2.11 3.985 3.985 0 1 1 -3.2-7.16 2.966 2.966 0 0 1 .08-.52 4.963 4.963 0 0 1 4.17-3.66 5.908 5.908 0 0 0 -.11 1.12 6 6 0 0 0 6 6 4.236 4.236 0 0 0 .51-.03 5.971 5.971 0 0 0 8.9.08z" fill="#7ab92d"/><path d="m47.8 61h-31.6a6 6 0 0 1 -5.94-5.151l-3.26-22.849h50l-3.264 22.849a6 6 0 0 1 -5.936 5.151z" fill="#57b7eb"/><path d="m24.89 35h-11.46l.12.83a19.991 19.991 0 0 0 19.8 17.17h19.45a5.646 5.646 0 0 0 1.37-.16l-.43 3.01a6.015 6.015 0 0 1 -5.94 5.15h-31.6a6.015 6.015 0 0 1 -5.94-5.15l-3.26-22.85h50l-.29 2h-23.26a1.886 1.886 0 0 1 -.1.81 2 2 0 0 1 -2.54 1.24z" fill="#4891d3"/><rect fill="#84d2f4" height="4" rx="2" width="58" x="3" y="29"/><g fill="#2d72bc"><rect height="16" rx="2" width="4" x="30" y="41"/><rect height="16" rx="2" width="4" x="38" y="41"/><rect height="16" rx="2" width="4" x="14" y="41"/><rect height="16" rx="2" width="4" x="22" y="41"/></g><path d="m61 31a2.015 2.015 0 0 1 -2 2h-54a2.006 2.006 0 0 1 -2-2 2.015 2.015 0 0 1 2-2h.31a2.009 2.009 0 0 0 1.99 1.83h10.31l-5.29-1.83h20.23l.2.07a32.185 32.185 0 0 0 10.47 1.76h17.77a.915.915 0 0 1 .01.17z" fill="#57b7eb"/><rect fill="#84d2f4" height="32" rx="2" transform="matrix(.327 -.945 .945 .327 -14.068 37.404)" width="4" x="17.23" y="12.58"/><path d="m34.35 33.81a2 2 0 0 1 -2.54 1.24l-26.46-9.16a1.989 1.989 0 0 1 -1.33-2.15 1.658 1.658 0 0 0 .33.15l26.46 9.16a2 2 0 0 0 2.54-1.24 2.744 2.744 0 0 0 .09-.39 1.988 1.988 0 0 1 .91 2.39z" fill="#57b7eb"/><path d="m54 43a6.962 6.962 0 0 0 -3 .683 6.987 6.987 0 0 0 -10 6.317c0 3.866 3.134 11 7 11a6.962 6.962 0 0 0 3-.683 6.962 6.962 0 0 0 3 .683c3.866 0 7-7.134 7-11a7 7 0 0 0 -7-7z" fill="#f8664f"/><path d="m51 45a1.133 1.133 0 0 1 -1.124-.992l-.628-5.023a1.766 1.766 0 0 1 1.752-1.985 1.766 1.766 0 0 1 1.752 1.985l-.628 5.023a1.133 1.133 0 0 1 -1.124.992z" fill="#a1d51c"/><path d="m57 39h2a0 0 0 0 1 0 0 4 4 0 0 1 -4 4h-2a0 0 0 0 1 0 0 4 4 0 0 1 4-4z" fill="#a1d51c"/><path d="m59.14 56.58c-1.27 2.44-3.1 4.42-5.14 4.42a6.986 6.986 0 0 1 -3-.68 6.986 6.986 0 0 1 -3 .68c-3.87 0-7-7.13-7-11a6.968 6.968 0 0 1 3.03-5.76c-.02.25-.03.5-.03.76a12 12 0 0 0 12 12 11.61 11.61 0 0 0 3.14-.42z" fill="#cc5144"/><path d="m52.25 42.97-.13 1.04a1.129 1.129 0 0 1 -2.24 0l-.63-5.03a1.757 1.757 0 0 1 1.02-1.82l.61 4.85a1.133 1.133 0 0 0 1.12.99 1.007 1.007 0 0 0 .25-.03z" fill="#7ab92d"/><path d="m59 39a3.995 3.995 0 0 1 -4 4h-2a3.989 3.989 0 0 1 .54-2h1.46a4.025 4.025 0 0 0 2.83-1.17 4.225 4.225 0 0 0 .63-.83z" fill="#7ab92d"/></g><g id="Outline_copy" fill="#464a51" data-name="Outline copy"><path d="m18 60h-1.8a5.026 5.026 0 0 1 -4.95-4.293l-2.688-18.849a1 1 0 0 0 -1.981.284l2.692 18.848a7.036 7.036 0 0 0 6.927 6.01h1.8a1 1 0 0 0 0-2z"/><path d="m30 50a1 1 0 0 0 -1 1v4a3 3 0 0 0 6 0v-12a3 3 0 0 0 -6 0v4a1 1 0 0 0 2 0v-4a1 1 0 0 1 2 0v12a1 1 0 0 1 -2 0v-4a1 1 0 0 0 -1-1z"/><path d="m16 40a3 3 0 0 0 -3 3v12a3 3 0 0 0 6 0v-12a3 3 0 0 0 -3-3zm1 15a1 1 0 0 1 -2 0v-12a1 1 0 0 1 2 0z"/><path d="m21 43v12a3 3 0 0 0 6 0v-12a3 3 0 0 0 -6 0zm4 0v12a1 1 0 0 1 -2 0v-12a1 1 0 0 1 2 0z"/><path d="m46 38a1 1 0 0 0 0-2h-7a1 1 0 0 0 0 2z"/><path d="m25 36h-12a1 1 0 0 0 0 2h12a1 1 0 0 0 0-2z"/><path d="m57.925 43.037a4.987 4.987 0 0 0 2.075-4.037 1 1 0 0 0 -1-1h-1.7l.572-4h1.128a3 3 0 0 0 0-6h-6.228l.843-1.924a3.855 3.855 0 0 0 2.385.812 4.006 4.006 0 0 0 3.864-2.965 3.825 3.825 0 0 0 .128-1.177 3.974 3.974 0 0 0 .678-6.421 5.9 5.9 0 0 0 .558-1.355 6.032 6.032 0 0 0 -1.51-5.753 1 1 0 1 0 -1.43 1.4 3.991 3.991 0 0 1 -1.473 6.546 1 1 0 0 0 -.654.913 2.892 2.892 0 0 1 -.091.691 2.989 2.989 0 0 1 -5.77.033c0-.008-.01-.014-.013-.023a3 3 0 0 1 1.383-3.387 1 1 0 0 0 -1-1.732 5.007 5.007 0 0 0 -2.47 4.736 2.822 2.822 0 0 1 -1.347-.027 2.951 2.951 0 0 1 -1.9-1.584c-.007-.015-.022-.024-.03-.038a2.982 2.982 0 0 1 -.291-1.341 1 1 0 0 0 -.979-1.022 1.023 1.023 0 0 0 -1.021.978 5.015 5.015 0 0 0 .17 1.374 2.9 2.9 0 0 1 -1.742.08 2.965 2.965 0 0 1 -1.56-1.028l-.006-.012-.007-.006a2.968 2.968 0 0 1 1.613-4.742 1 1 0 0 0 .74-.814l.026-.191a1.852 1.852 0 0 1 .036-.227 3.992 3.992 0 0 1 2.865-2.824 5.951 5.951 0 0 0 .706 4.03 1 1 0 1 0 1.732-1 3.975 3.975 0 0 1 -.144-3.711l.005-.008a3.989 3.989 0 0 1 7.578 2.06 1 1 0 0 0 1.992.173 5.988 5.988 0 0 0 -11.058-3.674 5.993 5.993 0 0 0 -5.6 4.44v.017a4.951 4.951 0 0 0 -2.532 6.959 3.92 3.92 0 0 0 -.543.856l-.858-1.82a5.611 5.611 0 0 0 -3.392-2.956 5.481 5.481 0 0 0 -.825-.183l-.328-5.347a1 1 0 0 0 -2 .12l.316 5.277a5.58 5.58 0 0 0 -.955.3l-1.361-4.778a1 1 0 0 0 -1.924.55l.034.118-.086-.088a1 1 0 0 0 -1.414-.024l-2.963 2.866a1 1 0 0 0 .144 1.554l4.47 2.951a5.417 5.417 0 0 0 -.254.805 5.577 5.577 0 0 0 -.112 1.706 9.038 9.038 0 0 0 -4 1.817l-.687-.687a1 1 0 0 0 -1.414 1.414l.069.069a5 5 0 0 0 -3.522 3.11l-.115.306-2.386-.826a1 1 0 1 0 -.654 1.89l20.1 6.958a1 1 0 0 1 -.654 1.891l-26.458-9.159a1 1 0 0 1 -.111-1.846.989.989 0 0 1 .764-.046l2.577.892a1 1 0 1 0 .655-1.889l-2.578-.892a3 3 0 1 0 -1.961 5.67l3.364 1.165h-3.384a3 3 0 0 0 0 6h20.716l5.763 1.995a3 3 0 1 0 1.962-5.67l-.941-.325h26.5a1 1 0 0 1 0 2h-20.548a1 1 0 0 0 0 2h17.4l-.621 4.341a4.965 4.965 0 0 0 -1.5.911l.018-.144a2.761 2.761 0 0 0 -.671-2.172 2.854 2.854 0 0 0 -4.146 0 2.761 2.761 0 0 0 -.671 2.172l.367 2.935c-.214-.018-.423-.043-.628-.043a7.956 7.956 0 0 0 -5 1.765v-.765a3 3 0 0 0 -6 0v12a2.989 2.989 0 0 0 5.032 2.193 12.963 12.963 0 0 0 1.968 2.807h-22a1 1 0 0 0 0 2h25.8a.948.948 0 0 0 .1 0c.036 0 .073.005.1.005a7.89 7.89 0 0 0 3-.59 7.89 7.89 0 0 0 3 .585c1.8 0 3.562-1.173 5.089-3.392a1 1 0 0 0 -1.649-1.133c-1.119 1.625-2.34 2.525-3.44 2.525a5.943 5.943 0 0 1 -2.57-.585 1 1 0 0 0 -.86 0 5.944 5.944 0 0 1 -2.549.585c-.027 0-.052-.005-.078-.006-3.015-.079-5.943-6.344-5.943-9.994a6.006 6.006 0 0 1 6-6 5.578 5.578 0 0 1 .877.077l.007.056a2.133 2.133 0 0 0 4.232 0l.007-.055a5.578 5.578 0 0 1 .877-.078 6.006 6.006 0 0 1 6 6 12.874 12.874 0 0 1 -.864 4.13 1 1 0 1 0 1.877.688 14.688 14.688 0 0 0 .987-4.818 8 8 0 0 0 -4.075-6.963zm-52.925-11.037a1 1 0 0 1 0-2h9.161l5.778 2zm53-12.717a4.7 4.7 0 0 0 .1-.505 6.019 6.019 0 0 0 1.314-.9 1.987 1.987 0 0 1 -.826 3.306 1 1 0 0 0 -.67 1.206 1.971 1.971 0 0 1 .008 1.014 2 2 0 0 1 -2.45 1.414 1.946 1.946 0 0 1 -1.021-.669l.69-1.574a5.041 5.041 0 0 0 .521-.258 4.971 4.971 0 0 0 2.334-3.034zm-5.208 3.682-2.219 5.035h-6.3l.226-.844a1 1 0 0 0 .015-.455l-1.588-7.916a5.063 5.063 0 0 0 .776-.245 4.971 4.971 0 0 0 2.026 1.54l1.233 6.026a1 1 0 0 0 .86.792.961.961 0 0 0 .119.007 1 1 0 0 0 .905-.572l1.888-3.995a4.542 4.542 0 0 0 2.056.627zm-4.027-2.636a5.03 5.03 0 0 0 .413.624l-.857 1.812-.473-2.313a4.929 4.929 0 0 0 .916-.123zm-7.872-1.519.359 1.787a1.953 1.953 0 0 1 -1.227.081 2 2 0 0 1 -1.414-2.45 1.919 1.919 0 0 1 .165-.36 4.952 4.952 0 0 0 1.767.878c.116.031.234.041.35.064zm-1.385 3.8a4 4 0 0 0 1.03.136 3.942 3.942 0 0 0 1.11-.171l.861 4.29-.304 1.135h-.179l-2.546-5.4zm.307 5.39h-1.975a1 1 0 0 0 .2-.081l1.369-.79zm-6.866-13.31-1.047.6a1 1 0 1 0 1 1.732l1.369-.79 1.283 2.723-1.152.665a1 1 0 1 0 1 1.732l1.008-.581 2.139 4.538-1.513.874a.994.994 0 0 0 .2 1.813h-3.486l-1.1-1.589 2.523-1.456a1 1 0 0 0 -1-1.733l-2.673 1.544-1.714-2.472 2.014-1.165a1 1 0 0 0 -1-1.733l-2.163 1.249-.629-.908a3.6 3.6 0 0 1 4.034-5.489 3.6 3.6 0 0 1 .907.446zm-9.518-2.971 1.349-1.3 2 2.064.331 1.157c-.105.1-.209.2-.3.309zm-5.718 12.867a2.991 2.991 0 0 1 2.864-1.949l-.29.776a2.948 2.948 0 0 1 -1.786 1.74l-.885-.306zm3.194 1.4a4.951 4.951 0 0 0 1.253-1.872l.148-.4a1 1 0 0 0 1.4-1.424l-.876-.876a6.856 6.856 0 0 1 3.1-1.3 5.512 5.512 0 0 0 .434.76l4.949 7.126h-4.589zm20.093 29.014a1 1 0 0 1 -2 0v-12a1 1 0 0 1 2 0v3.136a7.939 7.939 0 0 0 -1 3.864 15.109 15.109 0 0 0 1.043 5zm16-15h.829a3.006 3.006 0 0 1 -2.829 2h-.829a3.006 3.006 0 0 1 2.829-2zm-6.132 3.884-.628-5.024a.766.766 0 1 1 1.52 0l-.628 5.023a.137.137 0 0 1 -.264.001z"/><path d="m55.4 46.188a1 1 0 0 0 -.936 1.768 2.73 2.73 0 0 1 1.292 1.484 1 1 0 1 0 1.879-.683 4.729 4.729 0 0 0 -2.235-2.569z"/></g></g></svg>