<svg height="512" viewBox="0 0 512 512" width="512" xmlns="http://www.w3.org/2000/svg" xmlns:xlink="http://www.w3.org/1999/xlink"><linearGradient id="New_Gradient_Swatch_copy_5" gradientUnits="userSpaceOnUse" x1="288" x2="288" y1="332" y2="7.924"><stop offset="0" stop-color="#decba0"/><stop offset="1" stop-color="#ab9665"/></linearGradient><linearGradient id="New_Gradient_Swatch_copy_5-2" x1="401.742" x2="401.742" xlink:href="#New_Gradient_Swatch_copy_5" y1="392.887" y2="51.845"/><linearGradient id="New_Gradient_Swatch_copy_7" gradientUnits="userSpaceOnUse" x1="240" x2="240" y1="200" y2="328"><stop offset="0" stop-color="#f48f63"/><stop offset=".171" stop-color="#f4a36f"/><stop offset=".366" stop-color="#f4b178"/><stop offset=".604" stop-color="#f4b97d"/><stop offset="1" stop-color="#f4bc7f"/></linearGradient><linearGradient id="New_Gradient_Swatch_copy_3" gradientUnits="userSpaceOnUse" x1="128" x2="128" y1="328" y2="200"><stop offset="0" stop-color="#fbeeab"/><stop offset="1" stop-color="#efd97b"/></linearGradient><linearGradient id="New_Gradient_Swatch_copy" gradientUnits="userSpaceOnUse" x1="256" x2="256" y1="504" y2="348"><stop offset="0" stop-color="#ad755f"/><stop offset="1" stop-color="#8f5a45"/></linearGradient><linearGradient id="linear-gradient" gradientUnits="userSpaceOnUse" x1="256" x2="256" y1="360" y2="328"><stop offset="0" stop-color="#ad755f"/><stop offset=".463" stop-color="#ab735d"/><stop offset=".726" stop-color="#a26b56"/><stop offset=".94" stop-color="#955f4a"/><stop offset="1" stop-color="#8f5a45"/></linearGradient><linearGradient id="linear-gradient-2" gradientUnits="userSpaceOnUse" x1="340" x2="340" y1="448" y2="312"><stop offset="0" stop-color="#f2a394"/><stop offset=".366" stop-color="#ef877b"/><stop offset=".756" stop-color="#ec7066"/><stop offset="1" stop-color="#eb675e"/></linearGradient><g id="_18_Bakery" data-name="18 Bakery"><g id="Filled"><path d="m232 332v-244c0-80.978 112-106.957 112-48v292z" fill="url(#New_Gradient_Swatch_copy_5)"/><path d="m299.1 358.123 81.942-250.961c25.136-76.978 139.668-66.911 121.369-10.862l-96.84 296.591z" fill="url(#New_Gradient_Swatch_copy_5-2)"/><path d="m280 328v-81.371a24.006 24.006 0 0 0 16-22.629 24 24 0 0 0 -24-24h-88v128z" fill="url(#New_Gradient_Swatch_copy_7)"/><path d="m200 328v-81.371c25.722-9.094 18.532-46.629-8-46.629h-128c-26.531 0-33.722 37.535-8 46.629v81.371z" fill="url(#New_Gradient_Swatch_copy_3)"/><path d="m480 360-12.442 111.976a36 36 0 0 1 -35.78 32.024h-351.556a36 36 0 0 1 -35.78-32.024l-12.442-111.976v-12h448z" fill="url(#New_Gradient_Swatch_copy)"/><path d="m8 328h496a0 0 0 0 1 0 0 32 32 0 0 1 -32 32h-432a32 32 0 0 1 -32-32 0 0 0 0 1 0 0z" fill="url(#linear-gradient)"/><path d="m442.62 338.966-102.62 109.034-102.62-109.034a16 16 0 0 1 11.651-26.966h181.938a16 16 0 0 1 11.651 26.966z" fill="url(#linear-gradient-2)"/><g id="Outline"><g fill="#fff"><path d="m352 336h84v16h-84z"/><path d="m320 336h16v16h-16z"/><path d="m368 368h40v16h-40z"/><path d="m400.019 107.174h15.999v72h-15.999z" transform="matrix(.31 -.951 .951 .31 145.274 486.603)"/><path d="m385.121 152.803h15.999v72.001h-15.999z" transform="matrix(.31 -.951 .951 .31 91.62 503.903)"/><path d="m370.222 198.432h15.999v72h-15.999z" transform="matrix(.31 -.951 .951 .31 37.974 521.211)"/><path d="m232 80h72v16h-72z"/><path d="m232 128h72v16h-72z"/></g><path d="m340 459.673-108.446-115.224c-14.43-15.333-3.545-40.449 17.477-40.449h181.938c21.059 0 31.882 25.143 17.476 40.449zm-90.969-139.673a8 8 0 0 0 -5.826 13.483l96.795 102.844 96.8-102.845a8 8 0 0 0 -5.831-13.482z"/><path d="m272 192h-208c-32.675 0-44.158 43.434-16 59.713v52.287h16v-63.028l-5.333-1.886c-16.875-5.964-12.567-31.086 5.333-31.086h128c17.89 0 22.218 25.118 5.333 31.086l-5.333 1.886v63.028h16v-52.287a32 32 0 0 0 11.7-43.713h52.3c17.89 0 22.218 25.119 5.334 31.086l-5.334 1.886v47.028h16v-36.287c28.216-16.313 16.628-59.713-16-59.713z"/><path d="m450.034 282.483-15.209-4.966 59.981-183.7c14.464-44.205-84.083-51.76-106.161 15.829l-56.43 172.837-15.209-4.964 56.43-172.84c28.543-87.385 158.36-72.461 136.578-5.89z"/><path d="m240 176h-16v-88a88.1 88.1 0 0 1 88-88 40.045 40.045 0 0 1 40 40v96h-16v-96c0-45.98-96-23.326-96 48z"/><path d="m472 320v16h22.643a24 24 0 0 1 -22.643 16h-24v16h13.885l-37.685 37.685-.053-.052-11.314 11.314.052.053-79 79h-44.971l-22.6-22.6 27.813-27.813-11.315-11.315-27.812 27.814-45.086-45.086 29.513-29.513-11.314-11.314-29.513 29.513-37.686-37.686h63.086v-16h-184a24.042 24.042 0 0 1 -22.629-16h190.629v-16h-208v8a40.063 40.063 0 0 0 24.492 36.87l12 107.989a43.954 43.954 0 0 0 43.73 39.141h351.556a43.957 43.957 0 0 0 43.732-39.141l12-107.966c28.896-12.143 24.257-43.282 24.49-44.893zm-2.62 63.133-6.773 60.96-27.093-27.093zm-101.58 101.582 11.286 11.285h-22.571zm-101.515 11.285h-22.571l11.286-11.286zm-22.6-22.6-22.6 22.6h-44.971l-22.6-22.6 45.086-45.086zm-90.2 22.6h-22.571l11.286-11.286zm-11.285-33.914-45.086-45.086 45.086-45.086 45.086 45.086zm-94.086-94.086h75.372l-37.686 37.686zm26.372 49-25.293 25.293-6.323-56.909zm-22.093 54.092-.937-8.434 34.344-34.344 45.086 45.086-22.6 22.6h-28.064a27.971 27.971 0 0 1 -27.829-24.908zm379.385 24.908h-30.063l-22.6-22.6 45.085-45.086 36.144 36.145-.737 6.633a27.972 27.972 0 0 1 -27.829 24.908z"/></g></g></g></svg>