<svg height="512pt" viewBox="0 -4 512 512" width="512pt" xmlns="http://www.w3.org/2000/svg"><path d="m509.113281 109.238281c0 60.328125-60.324219 68.820313-134.753906 68.820313-74.425781 0-134.761719-8.492188-134.761719-68.820313 0-60.335937 60.335938-109.238281 134.761719-109.238281 74.429687 0 134.753906 48.902344 134.753906 109.238281zm0 0" fill="#dbad5c"/><path d="m509.113281 109.238281c0 60.328125-60.324219 68.820313-134.753906 68.820313v-178.058594c74.429687 0 134.753906 48.902344 134.753906 109.238281zm0 0" fill="#d59f40"/><path d="m437.835938 110.496094c-7.007813 5.082031-16.820313 3.523437-21.914063-3.496094-10.117187-13.953125-25.421875-24.058594-41.183594-30.753906-.125.054687-.253906.105468-.378906.167968-15.824219 6.777344-30.867187 16.839844-40.816406 30.585938-5.082031 7.007812-14.882813 8.578125-21.914063 3.496094-7.007812-5.085938-8.578125-14.898438-3.492187-21.917969 5.972656-8.242187 13.429687-15.816406 22.121093-22.5625-3.011718-.144531-6.023437-.1875-9.027343-.113281-8.691407.207031-15.855469-6.632813-16.078125-15.292969-.21875-8.664063 6.632812-15.859375 15.292968-16.078125 18.078126-.460938 36.445313 2.332031 53.914063 8.085938.125.039062.253906.082031.378906.125 17.582031-5.835938 36.078125-8.671876 54.277344-8.210938 8.664063.21875 15.515625 7.414062 15.292969 16.078125-.207032 8.566406-7.300782 15.492187-16.066406 15.292969-3-.074219-6.015626-.023438-9.027344.125 8.683594 6.734375 16.140625 14.308594 22.113281 22.550781 5.09375 7.019531 3.527344 16.820313-3.492187 21.917969zm0 0" fill="#fad17f"/><path d="m437.835938 110.496094c-7.007813 5.082031-16.820313 3.523437-21.914063-3.496094-10.117187-13.953125-25.421875-24.058594-41.183594-30.753906-.125.054687-.253906.105468-.378906.167968v-33.796874c.125.039062.253906.082031.378906.125 17.582031-5.835938 36.078125-8.671876 54.277344-8.210938 8.664063.21875 15.515625 7.414062 15.292969 16.078125-.207032 8.566406-7.300782 15.492187-16.066406 15.292969-3-.074219-6.015626-.023438-9.027344.125 8.683594 6.734375 16.140625 14.308594 22.113281 22.550781 5.09375 7.019531 3.527344 16.820313-3.492187 21.917969zm0 0" fill="#edc472"/><path d="m307.433594 215.488281c0 68.703125-68.597656 78.472657-153.289063 78.503907h-.425781c-84.898438 0-153.71875-9.6875-153.71875-78.503907 0-68.578125 68.386719-124.605469 154.144531-124.605469 84.691407.1875 153.289063 55.910157 153.289063 124.605469zm0 0" fill="#fad17f"/><path d="m307.433594 215.488281c0 68.703125-68.597656 78.472657-153.289063 78.503907v-203.109376c84.691407.1875 153.289063 55.910157 153.289063 124.605469zm0 0" fill="#edc472"/><path d="m218.96875 209.148438c-7.144531 4.90625-16.902344 3.085937-21.808594-4.058594-10.441406-15.210938-26.214844-26.457032-43.015625-34.007813-16.828125 7.5625-32.59375 18.816407-43.011719 34.007813-4.90625 7.144531-14.675781 8.964844-21.820312 4.058594s-8.964844-14.667969-4.058594-21.8125c6.914063-10.082032 15.773438-19.257813 26.222656-27.257813-4.296874-.347656-8.597656-.472656-12.875-.367187-8.628906.25-15.871093-6.601563-16.097656-15.261719-.230468-8.671875 6.609375-15.878907 15.269532-16.097657 18.902343-.503906 38.117187 2.59375 56.371093 8.984376 18.253907-6.390626 37.480469-9.488282 56.363281-8.984376 8.660157.21875 15.5 7.425782 15.273438 16.097657-.222656 8.515625-7.199219 15.273437-15.683594 15.273437-1.042968 0-5.949218-.230468-13.292968.355469 10.449218 8 19.308593 17.175781 26.234374 27.257813 4.894532 7.144531 3.074219 16.90625-4.070312 21.8125zm0 0" fill="#dbad5c"/><path d="m218.96875 209.148438c-7.144531 4.90625-16.902344 3.085937-21.808594-4.058594-10.441406-15.210938-26.214844-26.457032-43.015625-34.007813v-33.746093c18.253907-6.390626 37.480469-9.488282 56.363281-8.984376 8.660157.21875 15.5 7.425782 15.273438 16.097657-.222656 8.515625-7.199219 15.273437-15.683594 15.273437-1.042968 0-5.949218-.230468-13.292968.355469 10.449218 8 19.308593 17.175781 26.234374 27.257813 4.894532 7.144531 3.074219 16.90625-4.070312 21.8125zm0 0" fill="#d59f40"/><path d="m512 399.234375c0 92.691406-92.691406 105.734375-207.035156 105.734375s-207.042969-13.042969-207.042969-105.734375c0-92.6875 92.699219-167.828125 207.042969-167.828125s207.035156 75.140625 207.035156 167.828125zm0 0" fill="#dbad5c"/><path d="m512 399.234375c0 92.691406-92.691406 105.734375-207.035156 105.734375v-273.5625c114.34375 0 207.035156 75.140625 207.035156 167.828125zm0 0" fill="#d59f40"/><path d="m388.710938 391.253906c-7.472657 4.292969-17.074219 1.75-21.421876-5.804687-13.15625-22.941407-34.078124-43.699219-61.75-58.203125-25.941406 14.433594-46.683593 31.941406-61.746093 58.203125-4.285157 7.472656-13.847657 10.136719-21.421875 5.804687-7.511719-4.308594-10.117188-13.902344-5.808594-21.414062 12.617188-21.996094 30.378906-41.273438 51.980469-56.609375-12.574219-3.023438-25.304688-4.394531-37.867188-4.007813-8.628906.261719-15.910156-6.515625-16.183593-15.1875-.269532-8.664062 6.527343-15.902344 15.1875-16.171875 25.265624-.785156 50.933593 4.171875 75.285156 14.433594.1875.074219.386718.15625.574218.242187 24.519532-10.429687 50.402344-15.472656 75.863282-14.675781 8.660156.269531 15.457031 7.507813 15.1875 16.171875-.273438 8.660156-7.492188 15.449219-16.183594 15.1875-12.574219-.386718-25.304688.984375-37.867188 3.996094 21.601563 15.347656 39.363282 34.613281 51.980469 56.621094 4.308594 7.511718 1.703125 17.105468-5.808593 21.414062zm0 0" fill="#fad17f"/><path d="m388.710938 391.253906c-7.472657 4.292969-17.074219 1.75-21.421876-5.804687-13.15625-22.941407-34.078124-43.699219-61.75-58.203125-.1875.105468-.386718.199218-.574218.304687v-35.253906c.1875.074219.386718.15625.574218.242187 24.519532-10.429687 50.402344-15.472656 75.863282-14.675781 8.660156.269531 15.457031 7.511719 15.1875 16.171875-.273438 8.660156-7.492188 15.449219-16.183594 15.1875-12.574219-.386718-25.304688.984375-37.867188 3.996094 21.601563 15.347656 39.363282 34.613281 51.980469 56.625 4.308594 7.507812 1.703125 17.101562-5.808593 21.410156zm0 0" fill="#edc472"/></svg>