<?xml version="1.0" encoding="iso-8859-1"?>
<!-- Generator: Adobe Illustrator 19.0.0, SVG Export Plug-In . SVG Version: 6.00 Build 0)  -->
<svg version="1.1" id="Capa_1" xmlns="http://www.w3.org/2000/svg" xmlns:xlink="http://www.w3.org/1999/xlink" x="0px" y="0px"
	 viewBox="0 0 512 512" style="enable-background:new 0 0 512 512;" xml:space="preserve">
<path style="fill:#B0E6FF;" d="M250.387,504.501H31.82c-9.497-9.497-14.822-14.822-24.32-24.32V260.13l34.252-33.092v-29.792
	h198.701v29.792l34.252,33.092v220.051C265.209,489.679,259.884,495.004,250.387,504.501z"/>
<g>
	<path style="fill:#00CFFF;" d="M67.263,347.668c25.902,0,25.902-20,51.805-20s25.902,20,51.805,20c25.899,0,25.899-20,51.797-20
		c25.9,0,25.9,20,51.799,20v120.087l-6.746,6.746H74.009l-6.746-6.746V347.668z"/>
	<path style="fill:#00CFFF;" d="M57.501,480.181V260.13l34.252-33.092v-29.792h-50v29.792L7.5,260.13v220.051
		c9.497,9.497,14.822,14.822,24.32,24.32h50C72.323,495.003,66.998,489.679,57.501,480.181z"/>
</g>
<path style="fill:#FFFFFF;" d="M37.501,347.668c25.902,0,25.902-20,51.805-20s25.902,20,51.805,20c25.899,0,25.899-20,51.797-20
	c25.9,0,25.9,20,51.799,20v120.087l-6.746,6.746H44.247l-6.746-6.746L37.501,347.668z"/>
<g>
	<path style="fill:#DFDFE1;" d="M174.907,347.668c18.592,0,23.838-10.306,34.899-16.122c-4.347-2.286-9.592-3.878-16.899-3.878
		c-18.592,0-23.838,10.307-34.9,16.122C162.354,346.075,167.599,347.668,174.907,347.668z"/>
	<path style="fill:#DFDFE1;" d="M71.298,347.668c18.596,0,23.842-10.307,34.906-16.123c-4.347-2.285-9.592-3.877-16.898-3.877
		c-25.902,0-25.902,20-51.805,20v120.087l6.746,6.746h33.797l-6.746-6.746C71.298,467.755,71.298,347.668,71.298,347.668z"/>
</g>
<rect x="27.854" y="153.67" style="fill:#FF395E;" width="226.5" height="43.578"/>
<rect x="27.854" y="153.67" style="fill:#D5243E;" width="68.48" height="43.578"/>
<path style="fill:#FFFFFF;" d="M139.881,64.037c1.699-10.114,1.327-21.308,7.198-29.191c6.045-8.117,17.182-10.911,26.294-15.5
	C182.179,14.911,190.96,7.5,201.495,7.5s19.316,7.412,28.122,11.846c9.111,4.589,20.248,7.383,26.294,15.499
	c5.873,7.886,5.499,19.074,7.2,29.191L139.881,64.037L139.881,64.037z"/>
<path style="fill:#DFDFE1;" d="M203.373,19.347c4.31-2.171,8.615-5.051,13.122-7.43c-4.701-2.482-9.622-4.417-15-4.417
	c-10.534,0-19.316,7.412-28.122,11.846c-9.111,4.589-20.248,7.383-26.294,15.5c-5.871,7.883-5.499,19.077-7.198,29.191h30
	c1.699-10.114,1.327-21.308,7.198-29.191C183.125,26.73,194.262,23.936,203.373,19.347z"/>
<path style="fill:#FF395E;" d="M122.961,64.037L122.961,64.037c0,37.189,30.147,67.336,67.336,67.336h22.397
	c26.836,0,49.999-15.701,60.819-38.416h220.503L504.5,82.472V64.037H122.961z"/>
<path style="fill:#D5243E;" d="M159.9,64.038L159.9,64.038h-36.94l0,0c0,37.189,30.147,67.336,67.336,67.336h22.397
	c2.466,0,4.9-0.135,7.298-0.393C186.211,127.365,159.9,98.778,159.9,64.038z"/>
<g>
	<rect x="191.1" y="257.98" style="fill:#FFFFFF;" width="50.34" height="15"/>
	<rect x="166.1" y="257.98" style="fill:#FFFFFF;" width="15" height="15"/>
	<rect x="141.1" y="257.98" style="fill:#FFFFFF;" width="15" height="15"/>
	<rect x="184.9" y="81.72" style="fill:#FFFFFF;" width="15" height="15"/>
	<rect x="159.9" y="81.72" style="fill:#FFFFFF;" width="15" height="15"/>
	<rect x="209.9" y="81.72" style="fill:#FFFFFF;" width="30.02" height="15"/>
	<rect x="50.44" y="167.96" style="fill:#FFFFFF;" width="15" height="15"/>
	<rect x="100.44" y="167.96" style="fill:#FFFFFF;" width="50.34" height="15"/>
	<rect x="75.44" y="167.96" style="fill:#FFFFFF;" width="15" height="15"/>
</g>
<g>
	<path style="fill:#1D1D1F;" d="M141.109,340.167c-10.393,0-15.214-3.723-21.319-8.437c-6.672-5.152-14.977-11.563-30.486-11.563
		c-15.51,0-23.813,6.412-30.486,11.563c-6.104,4.713-10.926,8.437-21.319,8.437H30V470.86L41.14,482h199.927l11.14-11.139V340.167
		h-7.5c-10.391,0-15.212-3.723-21.316-8.437c-6.672-5.152-14.975-11.563-30.483-11.563s-23.811,6.412-30.483,11.563
		C156.321,336.444,151.5,340.167,141.109,340.167z M192.907,335.167c10.391,0,15.212,3.723,21.315,8.436
		c5.506,4.251,12.123,9.361,22.984,11.017v110.027L234.853,467h-187.5L45,464.647V354.621c10.862-1.656,17.48-6.766,22.986-11.018
		c6.104-4.713,10.926-8.436,21.318-8.436s15.214,3.723,21.318,8.436c6.672,5.152,14.977,11.564,30.486,11.564
		c15.508,0,23.811-6.412,30.483-11.564C177.695,338.89,182.516,335.167,192.907,335.167z"/>
	<path style="fill:#1D1D1F;" d="M261.852,146.167H20.354v58.578h241.498V146.167z M246.852,189.745H35.354v-28.578h211.499
		L246.852,189.745L246.852,189.745z"/>
	<path style="fill:#1D1D1F;" d="M115.46,56.537v7.5c0,41.265,33.571,74.837,74.836,74.837h22.396
		c27.095,0,52.253-14.932,65.38-38.416H497.12L512,85.579V56.537H115.46z M497,79.365l-6.093,6.092h-222.13l-2.036,4.274
		c-9.88,20.74-31.096,34.142-54.048,34.142h-22.396c-30.454,0-55.667-22.869-59.368-52.337H497V79.365z"/>
	<path style="fill:#1D1D1F;" d="M153.095,39.326c3.253-4.369,9.337-6.968,15.778-9.719c2.594-1.108,5.277-2.254,7.874-3.562
		c2.531-1.275,4.997-2.736,7.382-4.149C190.115,18.35,195.769,15,201.494,15c5.726,0,11.38,3.35,17.366,6.896
		c2.385,1.413,4.851,2.874,7.382,4.149c2.596,1.308,5.279,2.453,7.873,3.562c6.441,2.751,12.525,5.35,15.779,9.72
		c1.268,1.702,2.205,3.808,2.951,6.627l14.501-3.833c-1.233-4.667-3.007-8.511-5.422-11.753
		c-5.67-7.614-14.301-11.301-21.917-14.554c-2.491-1.064-4.843-2.069-7.018-3.164c-2.073-1.044-4.215-2.313-6.483-3.657
		C219.393,4.777,211.33,0,201.494,0c-9.835,0-17.898,4.777-25.012,8.992c-2.268,1.344-4.41,2.613-6.483,3.657
		c-2.175,1.095-4.528,2.1-7.019,3.164c-7.615,3.253-16.246,6.94-21.916,14.553c-2.417,3.245-4.19,7.09-5.423,11.757l14.503,3.829
		C150.879,43.172,151.844,41.005,153.095,39.326z"/>
	<polygon style="fill:#1D1D1F;" points="247.954,217.245 232.954,217.245 232.954,230.22 267.206,263.312 267.206,477.074 
		247.279,497 34.927,497 15,477.074 15,263.312 49.252,230.22 49.252,217.245 34.252,217.245 34.252,223.855 0,256.947 0,483.287 
		28.713,512 253.493,512 282.206,483.287 282.206,256.947 247.954,223.855 	"/>
	<rect x="86.85" y="436" style="fill:#1D1D1F;" width="15" height="15"/>
	<rect x="61.853" y="436" style="fill:#1D1D1F;" width="14.999" height="15"/>
	<rect x="111.85" y="436" style="fill:#1D1D1F;" width="15" height="15"/>
	<rect x="133.85" y="374.5" style="fill:#1D1D1F;" width="14.999" height="15"/>
	<rect x="158.85" y="374.5" style="fill:#1D1D1F;" width="15" height="15"/>
	<rect x="208.85" y="374.5" style="fill:#1D1D1F;" width="15" height="15"/>
	<rect x="183.85" y="374.5" style="fill:#1D1D1F;" width="15" height="15"/>
</g>
<g>
</g>
<g>
</g>
<g>
</g>
<g>
</g>
<g>
</g>
<g>
</g>
<g>
</g>
<g>
</g>
<g>
</g>
<g>
</g>
<g>
</g>
<g>
</g>
<g>
</g>
<g>
</g>
<g>
</g>
</svg>
