<svg height="511pt" viewBox="-6 1 511 511.999" width="511pt" xmlns="http://www.w3.org/2000/svg"><path d="m270.636719 7.574219h161.578125c11.15625 0 20.195312 9.042969 20.195312 20.195312v40.394531h-201.96875v-40.394531c0-11.152343 9.042969-20.195312 20.195313-20.195312zm0 0" fill="#d7f1ff"/><path d="m432.214844 7.574219h-25.246094c11.152344 0 20.195312 9.042969 20.195312 20.195312v40.394531h25.246094v-40.394531c0-11.152343-9.039062-20.195312-20.195312-20.195312zm0 0" fill="#b8e9ff"/><path d="m452.410156 128.757812h40.394532l-40.394532-60.59375-40.390625 60.59375zm0 0" fill="#d7f1ff"/><path d="m452.410156 68.164062-10.097656 15.148438c11.359375 17.042969 30.296875 45.445312 30.296875 45.445312h20.195313zm0 0" fill="#b8e9ff"/><path d="m250.441406 68.164062-40.394531 60.59375v375.667969h201.972656v-375.667969l40.390625-60.59375zm0 0" fill="#d7f1ff"/><path d="m429.1875 68.164062-40.398438 60.59375v375.667969h23.230469v-375.667969l40.390625-60.59375zm0 0" fill="#b8e9ff"/><path d="m412.019531 217.625c-6.734375-7.40625-24.980469-9.976562-50.496093 2.019531-33.828126 15.90625-50.492188 4.796875-50.492188-30.296875 0-30.292968-30.296875-30.292968-30.296875-30.292968-32.316406 0-70.6875 30.292968-70.6875 30.292968v315.078125h201.972656zm0 0" fill="#5acef2"/><path d="m388.789062 211.578125v292.847656h23.230469v-286.800781c-3.992187-4.390625-12.03125-7.078125-23.230469-6.046875zm0 0" fill="#22b9dd"/><path d="m412.019531 128.757812h80.785157v375.667969h-80.785157zm0 0" fill="#d7f1ff"/><path d="m472.609375 128.757812v333.253907c0 11.152343-9.042969 20.195312-20.195313 20.195312h-40.394531v22.21875h80.789063v-375.667969zm0 0" fill="#b8e9ff"/><path d="m161.714844 309.523438-129.261719-129.261719c-5.578125-5.578125-14.621094-5.578125-20.199219 0-5.574218 5.574219-5.574218 14.617187 0 20.195312l129.265625 129.261719zm0 0" fill="#9bacb2"/><path d="m326.035156 278.21875c0 13.382812-10.851562 24.234375-24.238281 24.234375s-24.238281-10.851563-24.238281-24.234375c0-13.386719 10.851562-24.238281 24.238281-24.238281s24.238281 10.851562 24.238281 24.238281zm0 0" fill="#fb4239"/><path d="m301.796875 253.980469c-2.503906 0-4.921875.378906-7.195313 1.085937 9.871094 3.066406 17.042969 12.269532 17.042969 23.148438 0 10.882812-7.171875 20.085937-17.042969 23.152344 2.273438.707031 4.691407 1.085937 7.195313 1.085937 13.386719 0 24.238281-10.851563 24.238281-24.238281 0-13.382813-10.855468-24.234375-24.238281-24.234375zm0 0" fill="#e31f1d"/><path d="m164.457031 278.21875c0 13.382812-10.851562 24.234375-24.238281 24.234375s-24.238281-10.851563-24.238281-24.234375c0-13.386719 10.851562-24.238281 24.238281-24.238281s24.238281 10.851562 24.238281 24.238281zm0 0" fill="#fec007"/><path d="m140.21875 253.980469c-2.503906 0-4.921875.378906-7.195312 1.085937 9.871093 3.066406 17.042968 12.269532 17.042968 23.148438 0 10.882812-7.171875 20.085937-17.042968 23.152344 2.273437.707031 4.691406 1.085937 7.195312 1.085937 13.386719 0 24.238281-10.851563 24.238281-24.238281 0-13.382813-10.851562-24.234375-24.238281-24.234375zm0 0" fill="#fe9700"/><path d="m127.089844 270.136719c0 13.386719-10.851563 24.238281-24.234375 24.238281-13.386719 0-24.238281-10.851562-24.238281-24.238281 0-13.382813 10.851562-24.234375 24.238281-24.234375 13.382812 0 24.234375 10.851562 24.234375 24.234375zm0 0" fill="#8bcc3f"/><path d="m102.855469 245.902344c-2.507813 0-4.925781.378906-7.195313 1.085937 9.871094 3.0625 17.039063 12.269531 17.039063 23.148438 0 10.882812-7.167969 20.085937-17.039063 23.152343 2.269532.707032 4.6875 1.085938 7.195313 1.085938 13.382812 0 24.234375-10.851562 24.234375-24.238281 0-13.382813-10.851563-24.234375-24.234375-24.234375zm0 0" fill="#659922"/><path d="m89.726562 278.21875c0 13.382812-10.851562 24.234375-24.238281 24.234375s-24.238281-10.851563-24.238281-24.234375c0-13.386719 10.851562-24.238281 24.238281-24.238281s24.238281 10.851562 24.238281 24.238281zm0 0" fill="#fb4239"/><path d="m65.488281 253.980469c-2.503906 0-4.921875.378906-7.195312 1.085937 9.871093 3.066406 17.042969 12.269532 17.042969 23.148438 0 10.882812-7.171876 20.085937-17.042969 23.152344 2.273437.707031 4.691406 1.085937 7.195312 1.085937 13.386719 0 24.238281-10.851563 24.238281-24.238281 0-13.382813-10.851562-24.234375-24.238281-24.234375zm0 0" fill="#e31f1d"/><path d="m287.660156 278.21875c0 13.382812-10.851562 24.234375-24.238281 24.234375s-24.238281-10.851563-24.238281-24.234375c0-13.386719 10.851562-24.238281 24.238281-24.238281s24.238281 10.851562 24.238281 24.238281zm0 0" fill="#fec007"/><path d="m263.421875 253.980469c-2.503906 0-4.921875.378906-7.195313 1.085937 9.871094 3.066406 17.042969 12.269532 17.042969 23.148438 0 10.882812-7.171875 20.085937-17.042969 23.152344 2.273438.707031 4.691407 1.085937 7.195313 1.085937 13.386719 0 24.238281-10.851563 24.238281-24.238281 0-13.382813-10.851562-24.234375-24.238281-24.234375zm0 0" fill="#fe9700"/><path d="m250.292969 270.136719c0 13.386719-10.851563 24.238281-24.238281 24.238281-13.382813 0-24.234376-10.851562-24.234376-24.238281 0-13.382813 10.851563-24.234375 24.234376-24.234375 13.386718 0 24.238281 10.851562 24.238281 24.234375zm0 0" fill="#8bcc3f"/><path d="m226.054688 245.902344c-2.503907 0-4.921876.378906-7.191407 1.085937 9.871094 3.0625 17.039063 12.269531 17.039063 23.148438 0 10.882812-7.167969 20.085937-17.039063 23.152343 2.269531.707032 4.6875 1.085938 7.191407 1.085938 13.386718 0 24.238281-10.851562 24.238281-24.238281 0-13.382813-10.851563-24.234375-24.238281-24.234375zm0 0" fill="#659922"/><path d="m212.929688 278.21875c0 13.382812-10.851563 24.234375-24.238282 24.234375-13.386718 0-24.238281-10.851563-24.238281-24.234375 0-13.386719 10.851563-24.238281 24.238281-24.238281 13.386719 0 24.238282 10.851562 24.238282 24.238281zm0 0" fill="#fb4239"/><path d="m188.691406 253.980469c-2.503906 0-4.921875.378906-7.195312 1.085937 9.871094 3.066406 17.042968 12.269532 17.042968 23.148438 0 10.882812-7.171874 20.085937-17.042968 23.152344 2.273437.707031 4.691406 1.085937 7.195312 1.085937 13.386719 0 24.238282-10.851563 24.238282-24.238281 0-13.382813-10.851563-24.234375-24.238282-24.234375zm0 0" fill="#e31f1d"/><path d="m259.664062 474.128906h-141.945312c-51.550781 0-94.824219-38.824218-100.394531-90.074218l-9.191407-84.550782c-.648437-5.972656 4.03125-11.1875 10.039063-11.1875h341.039063c6.007812 0 10.691406 5.214844 10.039062 11.1875l-9.1875 84.550782c-5.574219 51.25-48.847656 90.074218-100.398438 90.074218zm0 0" fill="#d7f1ff"/><path d="m338.152344 288.316406-10.40625 95.742188c-5.570313 51.246094-48.847656 90.074218-100.398438 90.074218h32.316406c51.550782 0 94.824219-38.828124 100.398438-90.074218l9.1875-84.550782c.648438-5.976562-4.03125-11.191406-10.039062-11.191406zm0 0" fill="#b8e9ff"/><path d="m362.5625 361.027344 3.292969-30.296875h-354.328125l3.292968 30.296875zm0 0" fill="#fec007"/><path d="m330.25 361.027344h32.3125l3.292969-30.296875h-32.3125zm0 0" fill="#fe9700"/><path d="m242.214844 504.425781h-105.027344c-11.152344 0-20.195312-9.042969-20.195312-20.195312v-10.101563h145.417968v10.101563c0 11.152343-9.039062 20.195312-20.195312 20.195312zm0 0" fill="#b8e9ff"/><path d="m492.804688 270.15625c4.183593 0 7.574218-3.390625 7.574218-7.570312v-133.839844c0-1.441406-.414062-2.898438-1.269531-4.191406l-39.121094-58.683594v-38.101563c-.003906-15.308593-12.464843-27.769531-27.773437-27.769531h-161.578125c-15.308594 0-27.769531 12.460938-27.769531 27.769531v38.101563l-39.125 58.683594c-.828126 1.242187-1.269532 2.707031-1.269532 4.203124v12.683594c0 4.179688 3.390625 7.574219 7.574219 7.574219 4.179687 0 7.574219-3.394531 7.574219-7.574219v-5.109375h186.824218v68.800781c-10.714843-2.796874-26.257812-1.695312-46.144531 7.65625-14.144531 6.652344-24.820312 8.140626-30.859375 4.300782-7.300781-4.636719-8.835937-17.640625-8.835937-27.742188 0-15.226562-6.867188-27.050781-19.339844-33.285156-8.90625-4.453125-17.570313-4.582031-18.53125-4.582031-23.347656 0-48.804687 13.984375-63.367187 23.449219-.847657-3.253907-3.808594-5.65625-7.320313-5.65625-4.183594 0-7.574219 3.390624-7.574219 7.574218v72.710938c-4.125-2.199219-9.140625-3.152344-13.777344-3.152344-9.695312 0-18.390624 4.363281-24.234374 11.230469-.003907 0-.003907.003906-.007813.003906-5.835937-6.867187-14.53125-11.234375-24.230469-11.234375-4.632812 0-9.183594 1.019531-13.335937 2.9375-5.96875-6.859375-14.734375-11.015625-24.027344-11.015625-.535156 0-1.066406.015625-1.589844.039063l-63.464843-63.460938c-7.96875-7.972656-21.171876-8.476562-29.714844-1.109375-9.492188 8.183594-10.0625 23.148437-1.191406 32.015625l44.097656 44.101562c-10.269532 5.28125-17.316406 15.980469-17.316406 28.300782 0 .847656.042968 1.6875.109374 2.527344h-15.617187c-5.007813 0-9.804687 2.140624-13.148437 5.867187-3.351563 3.726563-4.9570318 8.722656-4.421876 13.710937l9.1875 84.558594c5.707032 52.429688 47.847657 92.613282 99.632813 96.511719v2.835937c0 15.308594 12.453125 27.773438 27.773437 27.773438h355.609376c4.183593 0 7.574218-3.394531 7.574218-7.574219v-206.515625c0-4.183594-3.390625-7.574218-7.574218-7.574218-4.179688 0-7.570313 3.390624-7.570313 7.574218v198.941406h-65.644531v-360.519531h65.644531v126.253907c0 4.179687 3.390625 7.570312 7.570313 7.570312zm-174.554688 10.585938h-23.121094c.429688-5.527344-.570312-11.09375-2.953125-16.101563 2.777344-1.980469 6.101563-3.085937 9.625-3.085937 10.082031 0 17.960938 9.246093 16.449219 19.1875zm-41.628906-12.6875c2.269531 2.933593 3.46875 6.449218 3.46875 10.164062 0 .855469-.085938 1.695312-.214844 2.523438h-23.820312c2.023437-5.714844 2.359374-11.992188.980468-17.894532 2.011719-.835937 4.179688-1.292968 6.390625-1.292968 5.207031 0 10.011719 2.363281 13.195313 6.5 2.269531 2.933593-3.183594-4.136719 0 0zm-33.898438 2.082031c0 3.898437-1.371094 7.644531-3.824218 10.605469h-18.492188c.65625-7.765626-1.707031-15.820313-6.535156-21.953126 3.117187-3.371093 7.605468-5.3125 12.191406-5.3125 9.085938 0 16.660156 7.550782 16.660156 16.660157zm-54.027344-8.582031c10.007813 0 18.046876 9.253906 16.472657 19.1875h-32.941407c-1.574218-9.9375 6.457032-19.1875 16.46875-19.1875zm-31.808593 16.664062c0 .855469-.085938 1.695312-.214844 2.523438h-23.835937c2.027343-5.722657 2.378906-11.980469.992187-17.894532 2.015625-.835937 4.183594-1.292968 6.394531-1.292968 9.1875 0 16.664063 7.472656 16.664063 16.664062zm-41.191407 2.523438h-18.5c.082032-1.03125.148438-2.082032.09375-3.117188-.121093-6.902344-2.476562-13.488281-6.617187-18.84375 2.425781-2.59375 5.652344-4.390625 9.257813-5.039062 7.289062-1.40625 15.164062 2.371093 17.949218 9.183593 1.574219 3.847657 2.609375 13.023438-2.183594 17.816407zm-100.046874-90.382813c0-1.792969.695312-3.476563 1.960937-4.742187 2.613281-2.617188 6.871094-2.617188 9.484375 0l58.085938 58.085937c-2.359376 1.578125-4.5 3.480469-6.371094 5.636719-3.054688-1.40625-6.320313-2.328125-9.675782-2.710938l-51.523437-51.527344c-1.265625-1.265624-1.960937-2.949218-1.960937-4.742187zm33.183593 87.859375c0-8.296875 6.386719-15.519531 14.621094-16.539062 4.78125-.589844 9.617187.953124 13.195313 4.171874 3.65625 3.289063 5.246093 7.648438 5.507812 12.453126-.003906.828124-.089844 1.636718-.210938 2.4375h-32.902343c-.125-.832032-.210938-1.667969-.210938-2.523438zm-32.539062 18.507812c.28125-.3125.898437-.835937 1.878906-.835937h341.039063c.980468 0 1.597656.523437 1.878906.835937s.738281.980469.625 1.960938l-2.65625 24.46875h-272.785156c-4.183594 0-7.574219 3.390625-7.574219 7.574219 0 4.183593 3.390625 7.574219 7.574219 7.574219h271.140624l-1.644531 15.148437h-334.15625l-1.644531-15.148437h31.191406c4.183594 0 7.574219-3.390626 7.574219-7.574219 0-4.183594-3.390625-7.574219-7.574219-7.574219h-32.835937l-2.65625-24.46875c-.113281-.980469.34375-1.648438.625-1.960938zm8.5625 86.515626-1.59375-14.640626h330.859375l-1.59375 14.640626c-5.160156 47.496093-45.082032 83.316406-92.859375 83.316406h-141.953125c-47.777344-.003906-87.695313-35.824219-92.859375-83.316406zm99.714843 100.988281v-2.527344h130.273438v2.527344c0 6.957031-5.667969 12.621093-12.625 12.621093h-105.023438c-6.96875 0-12.625-5.664062-12.625-12.621093zm279.875 12.621093h-137.496093c1.949219-3.785156 3.042969-8.078124 3.042969-12.621093v-3.011719c50.855468-4.785156 91.964843-44.59375 97.601562-96.339844l9.191406-84.554687c.535156-4.988281-1.070312-9.988281-4.425781-13.714844-3.339844-3.726563-8.136719-5.867187-13.148437-5.867187h-25.707032c.066406-.835938.109375-1.675782.109375-2.523438 0-17.542969-14.269531-31.8125-31.8125-31.8125-7.0625 0-13.734375 2.289062-19.1875 6.4375-5.449219-4.148438-12.121093-6.4375-19.1875-6.4375-4.628906 0-9.175781 1.015625-13.328125 2.933594 0-.003906 0-.003906 0-.003906-5.96875-6.859376-14.746094-11.007813-24.035156-11.007813-2.878906 0-5.71875.394531-8.441406 1.140625v-46.324219c9.15625-6.664062 38.554687-26.515625 63.074218-26.515625.0625 0 6.300782.109375 12.1875 3.179688 7.109376 3.726562 10.574219 10.117187 10.574219 19.539062 0 20.21875 5.332031 33.851563 15.867188 40.539063 4.625 2.9375 10.085937 4.402343 16.339843 4.402343 8.320313 0 18.035157-2.597656 29.082032-7.785156 20.136718-9.476562 33.953125-8.542968 39.699218-5.292968zm-146.433593-469.082031c0-6.957031 5.667969-12.621093 12.625-12.621093h161.578125c6.957031 0 12.621094 5.664062 12.621094 12.621093v32.824219h-10.097657v-12.625c0-4.183594-3.390625-7.574219-7.574219-7.574219-4.179687 0-7.574218 3.390625-7.574218 7.574219v12.621094h-15.144532v-12.621094c0-4.183594-3.394531-7.574219-7.574218-7.574219-4.183594 0-7.574219 3.390625-7.574219 7.574219v12.621094h-15.148437v-12.621094c0-4.183594-3.394532-7.574219-7.574219-7.574219-4.179688 0-7.574219 3.390625-7.574219 7.574219v12.621094h-15.148438v-12.621094c0-4.183594-3.394531-7.574219-7.574218-7.574219-4.179688 0-7.574219 3.390625-7.574219 7.574219v12.621094h-15.148437v-12.621094c0-4.183594-3.390626-7.574219-7.574219-7.574219-4.179688 0-7.574219 3.390625-7.574219 7.574219v12.621094h-15.148438v-12.621094c0-4.183594-3.390624-7.574219-7.570312-7.574219-4.183594 0-7.574219 3.390625-7.574219 7.574219v12.621094h-10.101562zm149.957031 93.414063h-183.773438l30.292969-45.445313h183.777344zm18.195312 0 26.246094-39.363282 26.246094 39.363282zm0 0"/></svg>