<svg height="512" viewBox="0 0 128 128" width="512" xmlns="http://www.w3.org/2000/svg"><g><g><path d="m9.462 10.977h59.326v107.585h-59.326z" fill="#fc6243"/><path d="m9.462 52.5h59.326v24.539h-59.326z" fill="#d1d1db"/><rect fill="#d8442b" height="6" rx="3" width="65.25" x="6.5" y="6.5"/><rect fill="#d8442b" height="6" rx="3" width="65.25" x="6.5" y="115.5"/><ellipse cx="39.125" cy="63.988" fill="#efeffb" rx="17.267" ry="24.988"/><g><path d="m106.046 62.75a5.024 5.024 0 0 0 -5.007 5.434l.544 6.629h8.925l.544-6.629a5.023 5.023 0 0 0 -5.006-5.434z" fill="#efeffb"/><path d="m55.304 75.694h62.75v42.868h-62.75z" fill="#e8be56"/><g fill="#fce277"><path d="m101.158 93.75v6.76a5.365 5.365 0 0 0 -5.37 5.37h-18.22a5.365 5.365 0 0 0 -5.37-5.37v-6.76a5.371 5.371 0 0 0 5.37-5.37h18.22a5.371 5.371 0 0 0 5.37 5.37z"/><rect height="6" rx="3" width="69.642" x="51.858" y="115.5"/><rect height="6" rx="3" width="69.642" x="51.858" y="72.694"/></g></g></g><g fill="#1b1e40"><path d="m9.46 30.313a1.75 1.75 0 0 0 1.75-1.75v-2.938a1.75 1.75 0 0 0 -3.5 0v2.938a1.75 1.75 0 0 0 1.75 1.75z"/><path d="m64.538 30.75v-7a1.75 1.75 0 0 0 -3.5 0v7a1.75 1.75 0 0 0 3.5 0z"/><path d="m101.158 92a3.624 3.624 0 0 1 -3.62-3.62 1.75 1.75 0 0 0 -1.75-1.75h-18.22a1.75 1.75 0 0 0 -1.75 1.744 3.635 3.635 0 0 1 -3.618 3.626 1.75 1.75 0 0 0 -1.75 1.75v6.76a1.75 1.75 0 0 0 1.75 1.75 3.624 3.624 0 0 1 3.62 3.62 1.751 1.751 0 0 0 1.75 1.75h18.22a1.75 1.75 0 0 0 1.75-1.75 3.624 3.624 0 0 1 3.62-3.62 1.75 1.75 0 0 0 1.75-1.75v-6.76a1.75 1.75 0 0 0 -1.752-1.75zm-1.75 6.978a7.144 7.144 0 0 0 -5.152 5.152h-15.156a7.144 7.144 0 0 0 -5.153-5.152v-3.7a7.164 7.164 0 0 0 5.153-5.148h15.156a7.146 7.146 0 0 0 5.152 5.152z"/><path d="m119.8 113.954v-33.714a4.738 4.738 0 0 0 -1.3-9.3h-5.921l.219-2.675c.012-.169.022-.339.022-.508a6.773 6.773 0 1 0 -13.524.563l.215 2.62h-9.011a1.75 1.75 0 0 0 0 3.5h28a1.25 1.25 0 0 1 0 2.5h-.416c-.012 0-.023 0-.034 0s-.023 0-.034 0h-62.682c-.012 0-.023 0-.034 0s-.023 0-.034 0h-.408a1.25 1.25 0 1 1 0-2.5h27.142a1.75 1.75 0 0 0 0-3.5h-11.46v-57.046a4.747 4.747 0 0 0 -1.79-9.144h-59.25a4.747 4.747 0 0 0 -1.79 9.144v6.044a1.75 1.75 0 1 0 3.5 0v-5.688h55.83v36.5h-11.4a28.3 28.3 0 0 0 -2.34-4.633 1.75 1.75 0 1 0 -2.954 1.883 30.08 30.08 0 0 1 4.294 15.99 33.361 33.361 0 0 1 -.755 7.055 4.758 4.758 0 0 0 -3.777 4.648 4.7 4.7 0 0 0 1.038 2.927c-2.946 5.415-7.375 8.61-12.026 8.61-5.486 0-10.313-4.294-13.071-10.754a1.722 1.722 0 0 0 -.1-.238 32.1 32.1 0 0 1 -2.339-12.248 32.682 32.682 0 0 1 1.775-10.777 1.781 1.781 0 0 0 .079-.23c2.623-7.277 7.76-12.233 13.656-12.233a11.264 11.264 0 0 1 6.636 2.255 1.75 1.75 0 1 0 2.044-2.845 14.889 14.889 0 0 0 -8.675-2.91c-7.059 0-13.227 5.444-16.5 13.5h-11.415v-16.25a1.75 1.75 0 0 0 -3.5 0v79.606a4.747 4.747 0 0 0 1.79 9.144h109a4.737 4.737 0 0 0 1.3-9.3zm-17.016-45.917a3.274 3.274 0 0 1 3.266-3.537 3.268 3.268 0 0 1 3.27 3.26c0 .087-.008.175-.014.277l-.239 2.906h-6.044zm-45.734 45.713v-33.307h59.25v33.307zm-47.55-105.5h59.25a1.25 1.25 0 0 1 0 2.5h-59.25a1.25 1.25 0 0 1 0-2.5zm57.54 46v16.693h-9.548a37.091 37.091 0 0 0 .648-6.953 36.7 36.7 0 0 0 -1.3-9.74zm-27.92 36.48c5.605 0 10.853-3.425 14.43-9.283v32.3h-42.34v-34.957h12.09c3.408 7.191 9.226 11.94 15.82 11.94zm-17.7-36.48a36.289 36.289 0 0 0 -1.312 9.74 35.847 35.847 0 0 0 1.792 11.3h-10.69v-21.04zm-13.17 64.25a1.252 1.252 0 0 1 1.25-1.25h40.8a4.228 4.228 0 0 0 0 2.5h-40.8a1.252 1.252 0 0 1 -1.25-1.25zm110.25 1.25h-63.642a1.25 1.25 0 0 1 0-2.5h63.642a1.25 1.25 0 0 1 0 2.5z"/></g></g></svg>