<?xml version="1.0" encoding="iso-8859-1"?>
<!-- Generator: Adobe Illustrator 19.0.0, SVG Export Plug-In . SVG Version: 6.00 Build 0)  -->
<svg version="1.1" id="Layer_1" xmlns="http://www.w3.org/2000/svg" xmlns:xlink="http://www.w3.org/1999/xlink" x="0px" y="0px"
	 viewBox="0 0 511.975 511.975" style="enable-background:new 0 0 511.975 511.975;" xml:space="preserve">
<path style="fill:#E6E9ED;" d="M483.305,273.486c0,123.885-100.434,224.317-224.317,224.317
	c-123.9,0-224.333-100.433-224.333-224.317c0-123.9,100.433-224.333,224.333-224.333
	C382.872,49.153,483.305,149.586,483.305,273.486z"/>
<path style="fill:#7F4545;" d="M480.305,231.332c0,123.885-100.433,224.316-224.317,224.316
	c-123.9,0-224.333-100.432-224.333-224.316C31.655,107.432,132.088,7,255.988,7C379.873,7,480.305,107.432,480.305,231.332z"/>
<g>
	<path style="fill:#965353;" d="M325.984,215.989c-1-4.5-27.326-18.999-27.326-18.999l-49.544-5l-52.623,16.499l-14.499,36.842
		l22.499,19.655l44.623,8.5l61.872-9l14.999-25.498C325.984,238.988,326.984,220.488,325.984,215.989z"/>
	<polygon style="fill:#965353;" points="126.494,158.945 108.995,196.49 150.4,207.989 155.993,172.491 	"/>
	<rect x="185.238" y="97.247" style="fill:#965353;" width="41.498" height="34.748"/>
	<rect x="287.738" y="94.747" style="fill:#965353;" width="34.25" height="39.998"/>
	<rect x="352.238" y="165.237" style="fill:#965353;" width="38.998" height="36.997"/>
	<rect x="356.988" y="264.857" style="fill:#965353;" width="38.998" height="36.998"/>
	<rect x="285.178" y="332.417" style="fill:#965353;" width="38.999" height="36.998"/>
	<rect x="185.988" y="333.697" style="fill:#965353;" width="38.998" height="36.998"/>
	<rect x="118.968" y="262.737" style="fill:#965353;" width="38.998" height="36.998"/>
</g>
<path d="M490.648,234.66C490.648,105.056,385.575,0,255.988,0C126.385,0,21.328,105.057,21.328,234.66
	c0,7.202,0.328,14.327,0.969,21.358c-0.641,7.015-0.969,14.124-0.969,21.312c0,129.587,105.057,234.645,234.66,234.645
	c129.587,0,234.645-105.058,234.645-234.645c0-7.188-0.328-14.281-0.953-21.28C490.32,249.003,490.648,241.862,490.648,234.66z
	 M66.091,137.337l18.296,10.562l0,0c5.093,2.953,11.625,1.203,14.562-3.906c2.953-5.093,1.203-11.624-3.89-14.562l-18.28-10.562
	c6.234-9.625,13.233-18.749,21.015-27.312l14.89,14.891c4.172,4.171,10.921,4.171,15.093,0c4.156-4.172,4.156-10.922,0-15.078
	l-14.906-14.905c8.578-7.781,17.702-14.78,27.327-21.015l10.562,18.28c2.938,5.109,9.468,6.844,14.562,3.891
	c5.109-2.938,6.859-9.469,3.906-14.562l-10.562-18.281c4.672-2.405,9.437-4.624,14.296-6.687c5.781-2.438,11.64-4.594,17.562-6.516
	l5.468,20.39c1.531,5.688,7.375,9.078,13.062,7.563c5.688-1.531,9.078-7.375,7.547-13.078l-5.469-20.39
	c11.203-2.406,22.624-3.905,34.186-4.468v21.077c0,5.89,4.781,10.671,10.671,10.671c5.891,0,10.671-4.781,10.671-10.671V21.592
	c11.563,0.563,22.983,2.062,34.187,4.468l-5.469,20.39l0,0c0,0.016,0,0.016,0,0.016c-1.531,5.688,1.844,11.531,7.546,13.063
	c5.688,1.516,11.531-1.859,13.063-7.563c0,0,0,0,0-0.031l5.469-20.358c5.921,1.922,11.78,4.078,17.562,6.516
	c4.859,2.063,9.624,4.281,14.296,6.687l-10.563,18.281l0,0l0,0c-2.952,5.093-1.203,11.624,3.906,14.562
	c5.094,2.969,11.625,1.219,14.562-3.891c0.016-0.016,0.016-0.016,0.016-0.016l10.531-18.265c9.64,6.234,18.765,13.249,27.342,21.015
	l-14.904,14.905l0,0l0,0c-4.156,4.156-4.156,10.906,0,15.078c4.171,4.171,10.921,4.171,15.093,0c0-0.016,0-0.016,0-0.016
	l14.89-14.875c7.766,8.563,14.78,17.687,21.015,27.312l-18.28,10.562l0,0l0,0c-5.094,2.938-6.844,9.469-3.906,14.562
	c2.953,5.109,9.484,6.859,14.577,3.906c0.016,0,0.016,0,0.031,0l18.25-10.562c2.405,4.671,4.624,9.437,6.687,14.296
	c2.438,5.781,4.609,11.641,6.515,17.577l-20.39,5.469l0,0h-0.016c-5.687,1.516-9.062,7.374-7.53,13.062
	c1.516,5.688,7.375,9.063,13.062,7.531c0.016,0,0.016,0,0.016,0l20.374-5.469c2.391,11.218,3.891,22.624,4.469,34.186h-21.083l0,0
	l0,0c-5.891,0-10.671,4.781-10.671,10.672s4.78,10.671,10.671,10.671h0.031h21.046c-0.578,11.563-2.078,22.968-4.469,34.187
	l-20.39-5.469l0,0l0,0c-5.687-1.531-11.546,1.843-13.062,7.546c-1.531,5.688,1.844,11.546,7.546,13.063l0,0l20.39,5.452
	c-1.905,5.938-4.077,11.813-6.515,17.593c-2.063,4.844-4.281,9.609-6.671,14.281l-18.297-10.563l0,0l0,0
	c-5.108-2.938-11.624-1.188-14.577,3.906c-2.938,5.094-1.188,11.624,3.906,14.562c0.016,0,0.016,0,0.016,0l18.265,10.563
	c-6.234,9.624-13.249,18.749-21.015,27.311l-14.89-14.874l0,0l0,0c-4.172-4.171-10.922-4.171-15.093,0
	c-4.156,4.156-4.156,10.906,0,15.077l0,0l0,0l0,0l0,0l14.904,14.891c-8.577,7.78-17.702,14.78-27.342,21.015l-10.547-18.265l0,0l0,0
	c-2.937-5.109-9.468-6.859-14.562-3.906c-5.109,2.938-6.858,9.468-3.906,14.562l0,0l10.563,18.28
	c-4.672,2.406-9.437,4.625-14.296,6.688c-5.781,2.438-11.641,4.608-17.562,6.53l-5.469-20.405l0,0l0,0
	c-1.531-5.687-7.375-9.062-13.063-7.546c-5.702,1.516-9.077,7.374-7.546,13.062c0,0,0,0,0,0.016l5.469,20.374
	c-11.203,2.406-22.624,3.906-34.187,4.469v-21.077c0-5.891-4.78-10.672-10.671-10.672c-5.89,0-10.671,4.781-10.671,10.672v21.077
	c-11.562-0.563-22.983-2.063-34.186-4.469l5.469-20.374c0,0,0,0,0-0.016c1.531-5.688-1.844-11.546-7.547-13.046
	c-5.687-1.531-11.53,1.844-13.062,7.53l0,0l-5.468,20.405c-5.922-1.922-11.781-4.093-17.562-6.53
	c-4.859-2.063-9.624-4.281-14.296-6.672l10.562-18.28v-0.016c2.953-5.094,1.203-11.624-3.906-14.562
	c-5.094-2.938-11.625-1.203-14.562,3.906l0,0l-10.562,18.28c-9.625-6.25-18.749-13.25-27.327-21.03l14.906-14.891l0,0
	c4.156-4.171,4.156-10.921,0-15.077c-4.172-4.171-10.921-4.187-15.093,0l0,0l-14.89,14.89c-7.781-8.577-14.781-17.702-21.015-27.326
	l18.265-10.563h0.016c5.093-2.938,6.843-9.468,3.89-14.562c-2.937-5.094-9.468-6.844-14.562-3.906l0,0l-18.296,10.563
	c-2.391-4.672-4.625-9.438-6.671-14.281c-2.453-5.78-4.609-11.655-6.515-17.577l20.389-5.468l0,0
	c5.688-1.517,9.078-7.375,7.547-13.063c-1.531-5.703-7.375-9.077-13.062-7.546h-0.016l-20.374,5.469
	c-2.406-11.203-3.906-22.624-4.469-34.187h21.062h0.016c5.891,0,10.671-4.78,10.671-10.671s-4.781-10.672-10.671-10.672l0,0H42.92
	c0.563-11.562,2.063-22.968,4.469-34.186l20.374,5.469h0.016c5.687,1.531,11.531-1.844,13.062-7.531s-1.844-11.546-7.547-13.062l0,0
	l-20.389-5.469c1.906-5.937,4.062-11.796,6.515-17.577C61.467,146.773,63.7,142.008,66.091,137.337z M406.824,428.166
	c-19.593,19.593-42.42,34.982-67.809,45.732c-26.296,11.108-54.231,16.748-83.027,16.748c-28.811,0-56.747-5.64-83.027-16.748
	c-25.405-10.75-48.216-26.14-67.825-45.732c-17.64-17.64-31.858-37.904-42.357-60.294C105.12,429.166,175.867,469.32,255.988,469.32
	c80.105,0,150.852-40.154,193.193-101.433C438.681,390.277,424.465,410.542,406.824,428.166z"/>
<path d="M171.102,234.66c0,29.451,37.998,53.325,84.886,53.325c46.872,0,84.887-23.874,84.887-53.325
	c0-29.452-38.015-53.326-84.887-53.326C209.099,181.334,171.102,205.208,171.102,234.66z M207.319,215.02
	c12.483-7.859,30.233-12.358,48.669-12.358s36.186,4.499,48.669,12.358c9.453,5.937,14.891,13.093,14.891,19.64
	s-5.438,13.702-14.891,19.64c-12.483,7.858-30.232,12.358-48.669,12.358s-36.186-4.5-48.669-12.358
	c-9.453-5.938-14.89-13.093-14.89-19.64S197.865,220.957,207.319,215.02z"/>
<path d="M223.989,245.331L223.989,245.331h63.997l0,0c2.734,0,5.453-1.047,7.547-3.124c4.156-4.156,4.156-10.922,0-15.094
	c-2.094-2.077-4.813-3.125-7.547-3.125l0,0h-63.997l0,0c-2.734,0-5.453,1.048-7.546,3.125c-4.156,4.172-4.156,10.938,0,15.094
	C218.536,244.284,221.255,245.331,223.989,245.331z"/>
<path d="M248.441,302.859c-4.156,4.156-4.156,10.906,0,15.077c4.172,4.172,10.922,4.172,15.093,0c4.156-4.171,4.156-10.921,0-15.077
	C259.363,298.688,252.613,298.688,248.441,302.859z"/>
<path d="M263.534,166.492c4.156-4.188,4.156-10.938,0-15.094c-4.171-4.156-10.921-4.156-15.093,0
	c-4.156,4.156-4.156,10.906,0,15.094C252.613,170.647,259.363,170.647,263.534,166.492z"/>
<path d="M263.518,92.87c4.172-4.156,4.172-10.905,0-15.077c-4.155-4.172-10.905-4.172-15.077,0c-4.171,4.172-4.171,10.921,0,15.077
	C252.613,97.042,259.363,97.042,263.518,92.87z"/>
<path d="M248.441,376.45c-4.171,4.155-4.171,10.905,0,15.077c4.172,4.172,10.922,4.172,15.077,0c4.172-4.172,4.172-10.922,0-15.077
	C259.363,372.278,252.613,372.278,248.441,376.45z"/>
<path d="M150.4,139.743c5.89,0,10.656-4.781,10.656-10.672c0-5.89-4.766-10.671-10.656-10.671c-5.891,0-10.671,4.781-10.671,10.671
	C139.728,134.962,144.509,139.743,150.4,139.743z"/>
<path d="M361.577,329.577c-5.891,0-10.672,4.781-10.672,10.687c0,5.875,4.781,10.656,10.672,10.656
	c5.89,0,10.655-4.781,10.655-10.656C372.232,334.358,367.467,329.577,361.577,329.577z"/>
<path d="M114.198,242.207c4.172-4.156,4.172-10.922,0-15.094c-4.171-4.156-10.921-4.156-15.077,0
	c-4.172,4.172-4.172,10.938,0,15.094C103.277,246.362,110.027,246.362,114.198,242.207z"/>
<path d="M397.762,227.113c-4.156,4.172-4.156,10.938,0,15.094c4.172,4.155,10.921,4.155,15.093,0c4.156-4.156,4.156-10.922,0-15.094
	C408.683,222.957,401.934,222.957,397.762,227.113z"/>
<path d="M150.4,329.577c-5.891,0-10.671,4.781-10.671,10.687c0,5.875,4.781,10.656,10.671,10.656s10.656-4.781,10.656-10.656
	C161.055,334.358,156.29,329.577,150.4,329.577z"/>
<path d="M361.577,139.743c5.89,0,10.655-4.781,10.655-10.672c0-5.89-4.766-10.671-10.655-10.671
	c-5.891,0-10.672,4.781-10.672,10.671C350.905,134.962,355.686,139.743,361.577,139.743z"/>
<path d="M331.718,300.672l59.122,24.483l24.499-59.122l-59.138-24.482L331.718,300.672z M367.748,269.424l19.718,8.155
	l-8.171,19.718l-19.702-8.171L367.748,269.424z"/>
<path d="M189.991,310.39l-24.499,59.122l59.122,24.498l24.499-59.121L189.991,310.39z M213.084,366.137l-19.718-8.155l8.171-19.719
	l19.702,8.156L213.084,366.137z"/>
<path d="M321.985,158.929l24.498-59.122l-59.122-24.483l-24.498,59.122L321.985,158.929z M298.908,103.198l19.702,8.171
	l-8.172,19.687l-19.702-8.155L298.908,103.198z"/>
<path d="M262.863,334.889l24.498,59.121l59.122-24.498l-24.498-59.122L262.863,334.889z M298.908,366.137l-8.172-19.718
	l19.702-8.156l8.172,19.719L298.908,366.137z"/>
<path d="M249.113,134.446l-24.499-59.122l-59.122,24.483l24.499,59.122L249.113,134.446z M213.084,103.198l8.156,19.702
	l-19.702,8.155l-8.171-19.687L213.084,103.198z"/>
<path d="M180.258,168.663l-59.123-24.483l-24.483,59.122l59.122,24.483L180.258,168.663z M144.228,199.927l-19.718-8.172
	l8.172-19.702l19.702,8.156L144.228,199.927z"/>
<path d="M356.202,227.785l59.138-24.483l-24.499-59.122l-59.122,24.483L356.202,227.785z M379.295,172.053l8.171,19.702
	l-19.718,8.172l-8.155-19.718L379.295,172.053z"/>
<path d="M155.774,241.55l-59.122,24.482l24.483,59.122l59.123-24.483L155.774,241.55z M132.682,297.281l-8.156-19.702l19.702-8.155
	l8.156,19.687L132.682,297.281z"/>
<g>
</g>
<g>
</g>
<g>
</g>
<g>
</g>
<g>
</g>
<g>
</g>
<g>
</g>
<g>
</g>
<g>
</g>
<g>
</g>
<g>
</g>
<g>
</g>
<g>
</g>
<g>
</g>
<g>
</g>
</svg>
