<svg height="512" viewBox="0 0 59 60" width="512" xmlns="http://www.w3.org/2000/svg"><g id="Page-1" fill="none" fill-rule="evenodd"><g id="036---Condiments" fill-rule="nonzero"><path id="Shape" d="m26 51v6c-.0032948 1.1032019-.8967981 1.9967052-2 2h-15c-1.10320187-.0032948-1.9967052-.8967981-2-2v-6z" fill="#f44335"/><path id="Shape" d="m26 26v6h-19v-6c.0032948-1.1032019.89679813-1.9967052 2-2h15c1.1032019.0032948 1.9967052.8967981 2 2z" fill="#f44335"/><path id="Shape" d="m24 24h-3c1.1032019.0032948 1.9967052.8967981 2 2v6h3v-6c-.0032948-1.1032019-.8967981-1.9967052-2-2z" fill="#c81e1e"/><path id="Shape" d="m23 57c-.0032948 1.1032019-.8967981 1.9967052-2 2h3c1.1032019-.0032948 1.9967052-.8967981 2-2v-6h-3z" fill="#c81e1e"/><path id="Shape" d="m23 20v4h-13v-4c0-1.6568542 1.3431458-3 3-3h7c1.6568542 0 3 1.3431458 3 3z" fill="#ff5722"/><path id="Shape" d="m20 17h-3c1.6568542 0 3 1.3431458 3 3v4h3v-4c0-1.6568542-1.3431458-3-3-3z" fill="#d84315"/><path id="Shape" d="m20 17h-7l2.06-11h2.88z" fill="#d84315"/><path id="Shape" d="m19.76 4.8c.0600645.29425495-.0152993.59992501-.2052638.83253459-.1899645.23260959-.4744135.36752671-.7747362.36746541h-4.56c-.3003227.0000613-.5847717-.13485582-.7747362-.36746541-.1899645-.23260958-.2653283-.53827964-.2052638-.83253459l.6-3c.0950537-.46566625.5047314-.800097.98-.8h3.36c.4752686-.000097.8849463.33433375.98.8z" fill="#ff5722"/><path id="Rectangle-path" d="m7 32h19v19h-19z" fill="#ff9801"/><path id="Rectangle-path" d="m23 32h3v19h-3z" fill="#f57c00"/><path id="Shape" d="m56 21.82v3.94c-.0005423 1.4718231.3418416 2.9235308 1 4.24s1.0005423 2.7681769 1 4.24v3.76c0 6-6 10-6 10h-16s-6-4-6-10v-3.76c-.0005423-1.4718231.3418416-2.9235308 1-4.24s1.0005423-2.7681769 1-4.24v-3.94c-.0002502-1.2027073-.2310834-2.3942139-.68-3.51l-.64-1.62c-.4489166-1.1157861-.6797498-2.3072927-.68-3.51v-5.18c0-1.85651543.7374979-3.63699282 2.0502525-4.94974747 1.3127547-1.31275465 3.0932321-2.05025253 4.9497475-2.05025253h14c3.8659932 0 7 3.13400675 7 7v5.18c-.0002502 1.2027073-.2310834 2.3942139-.68 3.51l-.64 1.62c-.4489166 1.1157861-.6797498 2.3072927-.68 3.51z" fill="#ffe0b2"/><path id="Shape" d="m56.68 18.31.64-1.62c.4489166-1.1157861.6797498-2.3072927.68-3.51v-5.18c0-3.86599325-3.1340068-7-7-7h-3c3.8659932 0 7 3.13400675 7 7v5.18c-.0002502 1.2027073-.2310834 2.3942139-.68 3.51l-.64 1.62c-.4489166 1.1157861-.6797498 2.3072927-.68 3.51v3.94c-.0005423 1.4718231.3418416 2.9235308 1 4.24s1.0005423 2.7681769 1 4.24v3.76c0 6-6 10-6 10h3s6-4 6-10v-3.76c.0005423-1.4718231-.3418416-2.9235308-1-4.24s-1.0005423-2.7681769-1-4.24v-3.94c.0002502-1.2027073.2310834-2.3942139.68-3.51z" fill="#dfc49c"/><path id="Shape" d="m54 50v5h-7c0-1.6568542-1.3431458-3-3-3s-3 1.3431458-3 3h-7v-5c.0032948-1.1032019.8967981-1.9967052 2-2h16c1.1032019.0032948 1.9967052.8967981 2 2z" fill="#60a917"/><path id="Shape" d="m52 48h-3c1.1032019.0032948 1.9967052.8967981 2 2v5h3v-5c-.0032948-1.1032019-.8967981-1.9967052-2-2z" fill="#549414"/><path id="Shape" d="m54 55v2c-.0032948 1.1032019-.8967981 1.9967052-2 2h-16c-1.1032019-.0032948-1.9967052-.8967981-2-2v-2h7c0-1.6568542 1.3431458-3 3-3s3 1.3431458 3 3z" fill="#008a00"/><path id="Shape" d="m51 55v2c-.0032948 1.1032019-.8967981 1.9967052-2 2h3c1.1032019-.0032948 1.9967052-.8967981 2-2v-2z" fill="#007900"/><path id="Shape" d="m52.828 15.148-2.7 18c-.0732795.4896791-.4938682.8520063-.989.852h-10.278c-.4951318.0000063-.9157205-.3623209-.989-.852l-2.7-18c-.043076-.287849.0413949-.5801819.2313636-.8006915.1899687-.2205097.4665821-.3473122.7576364-.3473085h2.409l-.459-3.221c-.0698479-.4763287.2096158-.93481736.665-1.091 3.4222605-.91733224 7.0257395-.91733224 10.448 0 .4553842.15618264.7348479.6146713.665 1.091l-.459 3.221h2.409c.2910543-.0000037.5676677.1267988.7576364.3473085.1899687.2205096.2744396.5128425.2313636.8006915z" fill="#f5f5f5"/><g fill="#000"><path id="Shape" d="m9 21v2c-1.65685425 0-3 1.3431458-3 3v31c0 1.6568542 1.34314575 3 3 3h15c1.6568542 0 3-1.3431458 3-3v-31c0-1.6568542-1.3431458-3-3-3v-3c-.0042657-1.878956-1.3157476-3.5016652-3.152-3.9l-1.71-9.14c.5275442-.09306628.995078-.39540291 1.2963845-.83832348s.4108037-.98881947.3036155-1.51367652l-.6-3c-.1890322-.93192667-1.0061066-1.60328872-1.957-1.608h-3.362c-.9525369.00243234-1.7720146.6743957-1.961 1.608l-.278 1.392h-3.58c-3.21539034-.00000005-6.18653356 1.71539025-7.79422875 4.49999996-1.60769518 2.78460974-1.60769518 6.21539034 0 9.00000004 1.60769519 2.7846097 4.57883841 4.5 7.79422875 4.5zm16 29h-17v-17h17zm-1 8h-15c-.55228475 0-1-.4477153-1-1v-5h17v5c0 .5522847-.4477153 1-1 1zm1-32v5h-17v-5c0-.5522847.44771525-1 1-1h15c.5522847 0 1 .4477153 1 1zm-3-6v3h-11v-3c0-1.1045695.8954305-2 2-2h7c1.1045695 0 2 .8954305 2 2zm-6.11-13h1.22l1.69 9h-4.59zm.11-5h2.182l.6 3h-4.562l.6-3zm-7 3h3.224c-.006826.96600695.6861319 1.79518742 1.638 1.96l-1.71 9.14c-1.4687556.3238923-2.6316765 1.4443144-3.01 2.9h-.142c-3.86599321-.0000001-6.9999999-3.1340068-6.9999999-7 0-3.86599321 3.13400669-6.99999994 6.9999999-7z"/><path id="Shape" d="m57.606 18.678.645-1.613c.4961608-1.23648.7504255-2.5566876.749-3.889v-5.176c-.0049599-4.41622192-3.5837781-7.99504012-8-8h-14c-4.4162219.00495988-7.9950401 3.58377808-8 8v5.176c-.00162 1.3320066.2526541 2.6519235.749 3.888l.645 1.615c.4014573.9998764.607182 2.0675403.606 3.145v3.941c-.0020897 1.3148064-.308414 2.611294-.895 3.788-.7246014 1.4545206-1.1027995 3.0569854-1.105 4.682v3.765c0 4.622 3.157 8.075 5.054 9.736-.6659652.5638724-1.0512126 1.3913866-1.054 2.264v7c0 1.6568542 1.3431458 3 3 3h16c1.6568542 0 3-1.3431458 3-3v-7c-.0027874-.8726134-.3880348-1.7001276-1.054-2.264 1.897-1.661 5.054-5.114 5.054-9.736v-3.765c-.0007459-1.6249268-.3772186-3.2276737-1.1-4.683-.5884067-1.1758993-.8964566-2.4721049-.9-3.787v-3.941c-.0010869-1.0777749.2046321-2.1457482.606-3.146zm-4.606 35.322h-5.142c-.4490235-1.7642024-2.0375517-2.9990647-3.858-2.9990647s-3.4089765 1.2348623-3.858 2.9990647h-5.142v-4c0-.5522847.4477153-1 1-1h16c.5522847 0 1 .4477153 1 1zm-1 4h-16c-.5522847 0-1-.4477153-1-1v-1h6c.5522847 0 1-.4477153 1-1 0-1.1045695.8954305-2 2-2s2 .8954305 2 2c0 .5522847.4477153 1 1 1h6v1c0 .5522847-.4477153 1-1 1zm4.1-27.552c.5884067 1.1758993.8964566 2.4721049.9 3.787v3.765c0 4.737-4.265 8.212-5.321 9h-15.358c-1.056-.788-5.321-4.263-5.321-9v-3.765c.0020897-1.3148064.308414-2.611294.895-3.788.7246014-1.4545206 1.1027995-3.0569854 1.105-4.682v-3.941c.00162-1.3320066-.2526541-2.6519235-.749-3.888l-.645-1.615c-.4014573-.9998764-.607182-2.0675403-.606-3.145v-5.176c.0033074-3.31233757 2.6876624-5.99669262 6-6h14c3.3123376.00330738 5.9966926 2.68766243 6 6v5.176c.0010869 1.0777749-.2046321 2.1457482-.606 3.146l-.645 1.613c-.4961608 1.23648-.7504255 2.5566876-.749 3.889v3.941c.0022995 1.6253229.3804883 3.2280902 1.105 4.683z"/><path id="Shape" d="m35 38c0-.5522847-.4477153-1-1-1s-1 .4477153-1 1c0 3.018 2.336 5.525 3.728 6.75.2664773.2464982.6456084.3292316.9905511.2161563.3449428-.1130752.6015201-.4041993.6703565-.7606163s-.0608797-.7221477-.3389076-.95554c-.917-.808-3.05-2.936-3.05-5.25z"/><path id="Shape" d="m34 9c.5522847 0 1-.44771525 1-1 0-1.1045695.8954305-2 2-2 .5522847 0 1-.44771525 1-1s-.4477153-1-1-1c-2.209139 0-4 1.790861-4 4 0 .26521649.1053568.5195704.2928932.70710678s.4418903.29289322.7071068.29289322z"/><path id="Shape" d="m51.839 13h-1.257l.3-2.079c.1424616-.95791649-.4246648-1.87949692-1.344-2.184-3.6245782-.98266249-7.4454218-.98266249-11.07 0-.9191835.30409849-1.4863629 1.22534293-1.344 2.183l.3 2.08h-1.263c-.5829201-.000183-1.1369116.2539599-1.5169984.6959214-.3800869.4419614-.5484397 1.0277536-.4610016 1.6040786l2.7 18c.1530563.9751516.9909213 1.695258 1.978 1.7h10.278c.9870787-.004742 1.8249437-.7248484 1.978-1.7l2.7-18c.0874381-.576325-.0809147-1.1621172-.4610016-1.6040786-.3800868-.4419615-.9340783-.6961044-1.5169984-.6959214zm-2.7 20h-10.278l-2.7-18h2.409c.2899899.0002872.5658235-.1253236.7559805-.3442632s.2759082-.5096439.2350195-.7967368l-.475-3.22c1.6046318-.4186914 3.2556532-.6333846 4.914-.639 1.65377.0041638 3.3003021.218549 4.9.638l-.459 3.221c-.0408395.2867473.0446548.5771156.2343641.7959815.1897094.2188658.4649951.3447261.7546359.3450185h2.409z"/><path id="Shape" d="m48 17h-8c-.5522847 0-1 .4477153-1 1s.4477153 1 1 1h8c.5522847 0 1-.4477153 1-1s-.4477153-1-1-1z"/><path id="Shape" d="m47 21h-6c-.5522847 0-1 .4477153-1 1s.4477153 1 1 1h6c.5522847 0 1-.4477153 1-1s-.4477153-1-1-1z"/></g></g></g></svg>