<svg id="Layer_1" enable-background="new 0 0 256 256" height="512" viewBox="0 0 256 256" width="512" xmlns="http://www.w3.org/2000/svg"><g><path d="m109.82 139.51v43.49h-59.64v-43.49c0-6.7 4.15-12.7 10.42-15.08 4.89-1.855 8.12-4.656 8.12-9.98v-25.2h22.56v25.2c0 4.16 2.57 7.88 6.46 9.35 8.362 3.173 12.08 8.882 12.08 15.71z" fill="#f2e1d6"/><path d="m98.82 149.25c-1.381 0-2.5-1.119-2.5-2.5v-7.24c0-1.91-1.199-3.646-2.984-4.321-10.726-4.07-15.556-12.047-15.556-20.738v-16.2c0-1.381 1.119-2.5 2.5-2.5s2.5 1.119 2.5 2.5v16.2c0 6.789 3.684 12.783 12.327 16.063 3.715 1.405 6.213 5.021 6.213 8.997v7.24c0 1.38-1.119 2.499-2.5 2.499z" fill="#fff"/><path d="m50.18 198h59.64v36.25h-59.64z" fill="#f2e1d6"/><path d="m50.18 146.75h59.64v36.25h-59.64z" fill="#f0c020"/><path d="m98.82 185.5c-1.381 0-2.5-1.119-2.5-2.5v-36.25c0-1.381 1.119-2.5 2.5-2.5s2.5 1.119 2.5 2.5v36.25c0 1.381-1.119 2.5-2.5 2.5z" fill="#f9e5af"/><path d="m50.18 198h59.64v36.25h-59.64z" fill="#f0c020"/><path d="m98.82 227.083h-23.417c-1.381 0-2.5-1.119-2.5-2.5s1.119-2.5 2.5-2.5h20.917v-24.083c0-1.381 1.119-2.5 2.5-2.5s2.5 1.119 2.5 2.5v26.583c0 1.381-1.119 2.5-2.5 2.5zm-33.417 0h-6.223c-1.381 0-2.5-1.119-2.5-2.5s1.119-2.5 2.5-2.5h6.223c1.381 0 2.5 1.119 2.5 2.5s-1.119 2.5-2.5 2.5z" fill="#f9e5af"/><path d="m64.29 80.18v4.64c0 2.447 1.983 4.43 4.43 4.43h22.56c2.447 0 4.43-1.983 4.43-4.43v-4.64c0-2.447-1.983-4.43-4.43-4.43h-22.56c-2.447 0-4.43 1.983-4.43 4.43z" fill="#b35034"/><path d="m73.333 46.751v29h13.334v-20.333z" fill="#7c7b7a"/><path d="m205.82 139.51v43.49h-59.64v-43.49c0-6.748 3.643-12.509 12.08-15.71 3.89-1.47 6.46-5.19 6.46-9.35v-25.2h22.56v25.2c0 5.323 3.229 8.124 8.12 9.98 6.27 2.38 10.42 8.38 10.42 15.08z" fill="#f2e1d6"/><path d="m146.18 198h59.64v36.25h-59.64z" fill="#f2e1d6"/><path d="m146.18 146.75h59.64v36.25h-59.64z" fill="#fc5d3d"/><path d="m146.18 198h59.64v36.25h-59.64z" fill="#fc5d3d"/><path d="m196.82 149.25c-1.381 0-2.5-1.119-2.5-2.5v-7.24c0-1.91-1.199-3.646-2.984-4.321-10.726-4.07-15.556-12.047-15.556-20.738v-16.2c0-1.381 1.119-2.5 2.5-2.5s2.5 1.119 2.5 2.5v16.2c0 6.789 3.684 12.783 12.327 16.063 3.715 1.405 6.213 5.021 6.213 8.997v7.24c0 1.38-1.119 2.499-2.5 2.499z" fill="#fff"/><path d="m196.82 227.083h-23.417c-1.381 0-2.5-1.119-2.5-2.5s1.119-2.5 2.5-2.5h20.917v-24.083c0-1.381 1.119-2.5 2.5-2.5s2.5 1.119 2.5 2.5v26.583c0 1.381-1.119 2.5-2.5 2.5zm-33.417 0h-6.223c-1.381 0-2.5-1.119-2.5-2.5s1.119-2.5 2.5-2.5h6.223c1.381 0 2.5 1.119 2.5 2.5s-1.119 2.5-2.5 2.5z" fill="#ffcbc2"/><path d="m196.82 185.5c-1.381 0-2.5-1.119-2.5-2.5v-36.25c0-1.381 1.119-2.5 2.5-2.5s2.5 1.119 2.5 2.5v36.25c0 1.381-1.119 2.5-2.5 2.5z" fill="#ffcbc2"/><path d="m160.29 80.18v4.64c0 2.447 1.983 4.43 4.43 4.43h22.56c2.447 0 4.43-1.983 4.43-4.43v-4.64c0-2.447-1.983-4.43-4.43-4.43h-22.56c-2.447 0-4.43 1.983-4.43 4.43z" fill="#b35034"/><path d="m169.333 46.751v29h13.334v-20.333z" fill="#7c7b7a"/><path d="m214 234.25h-172c-4.142 0-7.5 3.358-7.5 7.5s3.358 7.5 7.5 7.5h172c4.142 0 7.5-3.358 7.5-7.5s-3.358-7.5-7.5-7.5z" fill="#7c7b7a"/><path d="m214 183h-8.18-9-50.64c-13.157 0-23.203 0-36.36 0h-11-48.64-8.18c-4.121 0-7.5 3.347-7.5 7.5 0 4.14 3.36 7.5 7.5 7.5h8.18 48.64 11 36.36 50.64 9 8.18c4.119 0 7.5-3.346 7.5-7.5 0-4.14-3.36-7.5-7.5-7.5z" fill="#7c7b7a"/><g fill="#b35034"><path d="m161.667 176c-1.381 0-2.5-1.119-2.5-2.5v-1.167c0-1.381 1.119-2.5 2.5-2.5s2.5 1.119 2.5 2.5v1.167c0 1.381-1.12 2.5-2.5 2.5z"/><path d="m179.657 216c-1.381 0-2.5-1.119-2.5-2.5v-1.167c0-1.381 1.119-2.5 2.5-2.5s2.5 1.119 2.5 2.5v1.167c0 1.381-1.119 2.5-2.5 2.5z"/><path d="m184.043 164.25c-1.381 0-2.5-1.119-2.5-2.5v-1.167c0-1.381 1.119-2.5 2.5-2.5s2.5 1.119 2.5 2.5v1.167c0 1.381-1.119 2.5-2.5 2.5z"/></g><path d="m65.667 176c-1.381 0-2.5-1.119-2.5-2.5v-1.167c0-1.381 1.119-2.5 2.5-2.5s2.5 1.119 2.5 2.5v1.167c0 1.381-1.12 2.5-2.5 2.5z" fill="#cf941c"/><path d="m83.657 216c-1.381 0-2.5-1.119-2.5-2.5v-1.167c0-1.381 1.119-2.5 2.5-2.5s2.5 1.119 2.5 2.5v1.167c0 1.381-1.119 2.5-2.5 2.5z" fill="#cf941c"/><path d="m88.043 164.25c-1.381 0-2.5-1.119-2.5-2.5v-1.167c0-1.381 1.119-2.5 2.5-2.5s2.5 1.119 2.5 2.5v1.167c0 1.381-1.119 2.5-2.5 2.5z" fill="#cf941c"/><circle cx="50.18" cy="162" r="2.5"/><path d="m59.71 122.09c-7.148 2.718-12.03 9.573-12.03 17.42v12.49c0 1.38 1.12 2.5 2.5 2.5s2.5-1.12 2.5-2.5v-2.75h54.64v31.25h-54.64v-8.5c0-1.38-1.12-2.5-2.5-2.5s-2.5 1.12-2.5 2.5v8.5h-5.68c-5.514 0-10 4.486-10 10s4.486 10 10 10h5.68v31.25h-5.68c-5.51 0-10 4.49-10 10s4.49 10 10 10h172c5.51 0 10-4.49 10-10s-4.49-10-10-10h-5.68v-31.25h5.68c5.514 0 10-4.486 10-10s-4.486-10-10-10h-5.68v-40.99c0-7.686-4.835-14.686-12.033-17.417-3.334-1.265-6.507-2.998-6.507-7.643v-23.174c2.588-1.006 4.43-3.517 4.43-6.456v-4.64c0-3.821-3.108-6.93-6.93-6.93h-2.114v-17.832c0-.846-.428-1.635-1.138-2.096l-13.333-8.667c-1.657-1.077-3.862.112-3.862 2.096v26.499h-2.114c-3.821 0-6.93 3.109-6.93 6.93v4.64c0 2.939 1.842 5.45 4.43 6.456v23.174c0 3.099-1.947 5.917-4.847 7.013-9.537 3.62-13.692 10.497-13.692 18.047v40.99h-13.18v-97.5c0-1.38-1.12-2.5-2.5-2.5s-2.5 1.12-2.5 2.5v97.5h-13.18v-40.99c0-7.722-4.211-14.453-13.69-18.05-2.9-1.09-4.85-3.91-4.85-7.01v-23.174c2.588-1.006 4.43-3.517 4.43-6.456v-4.64c0-3.821-3.108-6.93-6.93-6.93h-2.114v-17.832c0-.846-.428-1.635-1.138-2.096l-13.333-8.667c-1.657-1.077-3.862.112-3.862 2.096v26.499h-2.113c-3.821 0-6.93 3.109-6.93 6.93v4.64c0 2.939 1.842 5.45 4.43 6.456v23.174c0 4.656-3.273 6.419-6.51 7.64zm-7.03 78.41h54.64v31.25h-54.64zm72.82 0v31.25h-13.18v-31.25zm18.18 0v31.25h-13.18v-31.25zm59.64 31.25h-9.32c-1.38 0-2.5 1.12-2.5 2.5s1.12 2.5 2.5 2.5h20c2.75.01 4.99 2.25 5 5-.01 2.75-2.25 4.99-5 5h-172c-2.75-.01-5-2.25-5-5s2.25-4.99 5-5h132c1.38 0 2.5-1.12 2.5-2.5s-1.12-2.5-2.5-2.5h-25.32v-31.25h54.64zm15.68-41.25c0 2.757-2.243 5-5 5h-172c-2.757 0-5-2.243-5-5s2.243-5 5-5h172c2.757 0 5 2.243 5 5zm-47.167-139.142 8.333 5.417v16.475h-8.333zm-9.043 28.822c0-1.064.866-1.93 1.93-1.93h22.561c1.064 0 1.93.866 1.93 1.93v4.64c0 1.064-.866 1.93-1.93 1.93h-22.561c-1.064 0-1.93-.866-1.93-1.93zm-3.646 45.959c4.831-1.826 8.076-6.523 8.076-11.688v-22.7h17.561v22.7c0 5.257 2.772 9.676 9.732 12.317 5.268 2 8.807 7.12 8.807 12.743v4.74h-54.64v-4.74c0-5.668 3.028-10.549 10.464-13.372zm-10.464 23.111h54.64v31.25h-54.64zm-51.82-23.11c7.386 2.822 10.46 7.648 10.46 13.37v4.74h-54.64v-4.74c0-5.62 3.54-10.74 8.81-12.74 6.917-2.626 9.73-6.951 9.73-12.32v-22.7h17.56v22.7c0 5.141 3.158 9.837 8.08 11.69zm-21.027-74.782 8.333 5.417v16.475h-8.333zm-9.043 28.822c0-1.064.866-1.93 1.93-1.93h22.561c1.064 0 1.93.866 1.93 1.93v4.64c0 1.064-.866 1.93-1.93 1.93h-22.561c-1.064 0-1.93-.866-1.93-1.93z"/><circle cx="128" cy="73" r="2.5"/><path d="m130.5 38.715c8.374-1.218 14.833-8.425 14.833-17.132 0-9.558-7.776-17.333-17.333-17.333s-17.333 7.776-17.333 17.333c0 8.707 6.459 15.913 14.833 17.132v24.285c0 1.38 1.12 2.5 2.5 2.5s2.5-1.12 2.5-2.5zm-14.833-17.132c0-6.801 5.533-12.333 12.333-12.333s12.333 5.533 12.333 12.333-5.533 12.333-12.333 12.333-12.333-5.532-12.333-12.333z"/><circle cx="184" cy="234.25" r="2.5"/></g></svg>