<svg id="Capa_1" enable-background="new 0 0 512 512" height="512" viewBox="0 0 512 512" width="512" xmlns="http://www.w3.org/2000/svg"><g><g><path d="m397.423 88.313v31.002c0 13.456 6.698 26.029 17.866 33.535l25.887 17.4c11.168 7.506 17.866 20.079 17.866 33.535v260.308c0 22.316-18.091 40.406-40.407 40.406h-162.635-162.636c-22.316 0-40.407-18.091-40.407-40.406v-260.308c0-13.456 6.698-26.029 17.866-33.535l25.887-17.4c11.168-7.506 17.866-20.079 17.866-33.535v-31.002z" fill="#b78b7a"/></g><g><path d="m441.176 170.25-25.887-17.4c-11.168-7.506-17.866-20.079-17.866-33.535v-31.002h-32.325v25.951c0 26.912 13.397 52.058 35.733 67.071l21.421 14.398c2.792 1.877 4.467 5.02 4.467 8.384v259.978c0 22.316-18.091 40.406-40.406 40.406h32.325c22.316 0 40.407-18.091 40.407-40.406v-260.31c-.002-13.456-6.701-26.029-17.869-33.535z" fill="#aa7a63"/></g><g><path d="m387.321 443.89h-262.642c-11.158 0-20.203-9.045-20.203-20.203v-181.829c0-11.158 9.045-20.203 20.203-20.203h262.642c11.158 0 20.203 9.045 20.203 20.203v181.829c0 11.158-9.045 20.203-20.203 20.203z" fill="#ecf4ff"/></g><g><path d="m144.882 253.98h222.236v40.407h-222.236z" fill="#dd636e"/></g><g><path d="m397.423 88.313h-282.846c-11.158 0-20.203-9.045-20.203-20.203v-40.407c0-11.158 9.045-20.203 20.203-20.203h282.846c11.158 0 20.203 9.045 20.203 20.203v40.407c0 11.158-9.045 20.203-20.203 20.203z" fill="#ecf4ff"/></g><g><path d="m397.423 7.5h-31.315c11.158 0 20.203 9.045 20.203 20.203v40.407c0 11.158-9.045 20.203-20.203 20.203h31.315c11.158 0 20.203-9.045 20.203-20.203v-40.407c0-11.158-9.045-20.203-20.203-20.203z" fill="#cbe2ff"/></g><g><circle cx="256" cy="362.067" fill="#b78b7a" r="30.305"/></g><g><path d="m144.882 386.74h28.284c4.142 0 7.5-3.357 7.5-7.5s-3.358-7.5-7.5-7.5h-28.284c-4.142 0-7.5 3.357-7.5 7.5s3.358 7.5 7.5 7.5z"/><path d="m144.882 419.065h49.498c4.142 0 7.5-3.357 7.5-7.5s-3.358-7.5-7.5-7.5h-49.498c-4.142 0-7.5 3.357-7.5 7.5s3.358 7.5 7.5 7.5z"/><path d="m367.118 371.74h-28.284c-4.142 0-7.5 3.357-7.5 7.5s3.358 7.5 7.5 7.5h28.284c4.142 0 7.5-3.357 7.5-7.5s-3.358-7.5-7.5-7.5z"/><path d="m367.118 404.065h-49.498c-4.142 0-7.5 3.357-7.5 7.5s3.358 7.5 7.5 7.5h49.498c4.142 0 7.5-3.357 7.5-7.5s-3.358-7.5-7.5-7.5z"/><path d="m374.618 253.979c0-4.143-3.358-7.5-7.5-7.5h-222.236c-4.142 0-7.5 3.357-7.5 7.5v40.406c0 4.143 3.358 7.5 7.5 7.5h222.235c4.142 0 7.5-3.357 7.5-7.5v-40.406zm-15 32.907h-207.236v-25.406h207.235v25.406z"/><path d="m152.08 436.39h-27.4c-7.003 0-12.7-5.697-12.7-12.699v-181.831c0-7.008 5.697-12.71 12.7-12.71h202.31c4.142 0 7.5-3.357 7.5-7.5s-3.358-7.5-7.5-7.5h-202.31c-15.274 0-27.7 12.431-27.7 27.71v181.83c0 15.273 12.426 27.699 27.7 27.699h27.4c4.142 0 7.5-3.357 7.5-7.5s-3.358-7.499-7.5-7.499z"/><path d="m387.32 214.15h-25.23c-4.142 0-7.5 3.357-7.5 7.5s3.358 7.5 7.5 7.5h25.23c7.003 0 12.7 5.702 12.7 12.71v181.83c0 7.002-5.697 12.699-12.7 12.699h-200.14c-4.142 0-7.5 3.357-7.5 7.5s3.358 7.5 7.5 7.5h200.14c15.274 0 27.7-12.426 27.7-27.699v-181.83c0-15.279-12.426-27.71-27.7-27.71z"/><path d="m367.118 63.488c4.142 0 7.5-3.357 7.5-7.5v-16.163c0-4.143-3.358-7.5-7.5-7.5s-7.5 3.357-7.5 7.5v16.163c0 4.143 3.358 7.5 7.5 7.5z"/><path d="m330.079 63.488c4.142 0 7.5-3.357 7.5-7.5v-16.163c0-4.143-3.358-7.5-7.5-7.5s-7.5 3.357-7.5 7.5v16.163c0 4.143 3.358 7.5 7.5 7.5z"/><path d="m293.039 63.488c4.142 0 7.5-3.357 7.5-7.5v-16.163c0-4.143-3.358-7.5-7.5-7.5s-7.5 3.357-7.5 7.5v16.163c0 4.143 3.358 7.5 7.5 7.5z"/><path d="m152.382 55.988v-16.163c0-4.143-3.358-7.5-7.5-7.5s-7.5 3.357-7.5 7.5v16.163c0 4.143 3.358 7.5 7.5 7.5s7.5-3.357 7.5-7.5z"/><path d="m181.921 63.488c4.142 0 7.5-3.357 7.5-7.5v-16.163c0-4.143-3.358-7.5-7.5-7.5s-7.5 3.357-7.5 7.5v16.163c0 4.143 3.358 7.5 7.5 7.5z"/><path d="m218.961 63.488c4.142 0 7.5-3.357 7.5-7.5v-16.163c0-4.143-3.358-7.5-7.5-7.5s-7.5 3.357-7.5 7.5v16.163c0 4.143 3.358 7.5 7.5 7.5z"/><path d="m256 63.488c4.142 0 7.5-3.357 7.5-7.5v-16.163c0-4.143-3.358-7.5-7.5-7.5s-7.5 3.357-7.5 7.5v16.163c0 4.143 3.358 7.5 7.5 7.5z"/><path d="m445.36 164.025-25.888-17.4c-9.111-6.123-14.55-16.333-14.55-27.311v-24.545c11.644-3.279 20.207-13.985 20.207-26.659v-40.41c0-15.274-12.431-27.7-27.71-27.7h-282.839c-15.279 0-27.71 12.426-27.71 27.7v40.41c0 12.674 8.563 23.38 20.207 26.659v24.545c0 10.978-5.439 21.188-14.55 27.311l-25.887 17.4c-13.264 8.914-21.183 23.778-21.183 39.76v260.309c.001 26.416 21.491 47.906 47.907 47.906h325.272c26.416 0 47.906-21.49 47.906-47.906v-260.309c0-15.981-7.918-30.846-21.182-39.76zm6.182 300.069c0 18.145-14.762 32.906-32.906 32.906h-325.272c-18.145 0-32.906-14.762-32.906-32.906v-260.309c0-10.978 5.439-21.188 14.55-27.311l25.887-17.4c13.264-8.914 21.183-23.778 21.183-39.76v-23.504h19.393c4.142 0 7.5-3.357 7.5-7.5s-3.358-7.5-7.5-7.5h-26.89c-7.008 0-12.71-5.697-12.71-12.699v-40.411c0-7.003 5.702-12.7 12.71-12.7h282.84c7.008 0 12.71 5.697 12.71 12.7v40.41c0 7.002-5.702 12.699-12.71 12.699h-220.851c-4.142 0-7.5 3.357-7.5 7.5s3.358 7.5 7.5 7.5h213.353v23.505c0 15.981 7.919 30.846 21.182 39.76l25.888 17.4c9.111 6.123 14.55 16.333 14.55 27.311v260.309z"/><path d="m218.195 362.067c0 20.846 16.959 37.805 37.805 37.805s37.805-16.959 37.805-37.805-16.959-37.805-37.805-37.805-37.805 16.96-37.805 37.805zm60.61 0c0 12.574-10.23 22.805-22.805 22.805s-22.805-10.23-22.805-22.805 10.23-22.806 22.805-22.806 22.805 10.231 22.805 22.806z"/></g></g></svg>