<svg id="Layer_1" enable-background="new 0 0 511.256 511.256" height="512" viewBox="0 0 511.256 511.256" width="512" xmlns="http://www.w3.org/2000/svg"><g><g><g><g><path d="m483.805 225.225-192.832 192.548c-54.55 54.601-142.992 54.601-197.542 0-54.55-54.601-54.55-143.126 0-197.726l192.832-192.549z" fill="#e5646e"/><path d="m286.263 27.498-20.024 19.995 177.566 177.732-192.832 192.548c-22.174 22.195-49.949 35.367-78.771 39.518 42.082 6.06 86.396-7.112 118.771-39.518l192.832-192.548z" fill="#da6966"/><path d="m189.458 123.929c-36.367 36.4-21.626 110.171 32.924 164.772s128.252 69.355 164.619 32.954l96.618-96.618-197.099-197.097z" fill="#fedca9"/><path d="m286.52 27.94-20.111 19.889 177.209 177.209-116.36 116.361c23.599 1.513 44.817-4.803 59.743-19.743l96.618-96.618z" fill="#fecf8a"/><g><g><ellipse cx="385.034" cy="126.361" fill="#d82e3d" rx="93.166" ry="139.749" transform="matrix(.708 -.706 .706 .708 23.202 308.832)"/><path d="m450.881 60.453c-39.158-39.196-88.185-57.855-126.187-51.801 31.721 4.475 66.743 22.329 96.187 51.801 54.55 54.601 69.29 128.372 32.924 164.772-10.261 10.27-23.495 16.467-38.431 18.846 27.047 3.815 51.694-2.094 68.431-18.846 36.367-36.401 21.626-110.172-32.924-164.772z" fill="#c10a54"/><path d="m6.755 420.442c0 11.993 9.713 21.715 21.695 21.715 2.662 0 7.391-.482 13.127-1.361-4.514 3.334-8.061 6.237-9.897 8.075-8.472 8.48-8.472 22.23 0 30.71s22.209 8.48 30.681 0c1.836-1.838 4.737-5.388 8.067-9.906-.877 5.742-1.359 10.475-1.359 13.139 0 11.993 9.713 21.715 21.695 21.715s21.695-9.722 21.695-21.715c0-19.294-4.942-50.94-19.03-65.041-14.095-14.108-45.703-19.048-64.98-19.047-11.981.001-21.694 9.723-21.694 21.716z" fill="#da6966"/><g fill="#ffd8d5"><ellipse cx="452.255" cy="135.18" rx="15.528" ry="25.879" transform="matrix(.708 -.706 .706 .708 36.654 358.974)"/><ellipse cx="321.588" cy="74.253" rx="15.528" ry="25.879" transform="matrix(.708 -.706 .706 .708 41.513 248.868)"/></g></g></g></g><g fill="#9e3c43"><ellipse cx="386.256" cy="59.794" rx="10.487" ry="17.478" transform="matrix(.708 -.706 .706 .708 70.622 290.325)"/><ellipse cx="391.588" cy="196.107" rx="10.487" ry="17.478" transform="matrix(.708 -.706 .706 .708 -24.112 333.921)"/><ellipse cx="338.255" cy="153.927" rx="10.487" ry="17.478" transform="matrix(.708 -.706 .706 .708 -9.899 283.922)"/></g></g></g><g fill="#060606"><path d="m510.366 157.94c-1.179-9.624-16.068-7.8-14.889 1.825 3.039 24.79-2.989 46.152-16.971 60.152l-.02.02c-15.759 15.762-40.156 21.294-68.698 15.581-29.656-5.937-59.947-23.179-85.295-48.549-25.349-25.372-42.575-55.694-48.507-85.38-5.709-28.577-.179-53.002 15.571-68.778l.006-.006c.001-.001.003-.003.004-.004s.001-.001.002-.002c15.758-15.771 40.16-21.311 68.713-15.595 29.656 5.937 59.947 23.178 85.295 48.549 16.403 16.419 29.73 35.405 38.541 54.905 3.994 8.837 17.662 2.661 13.67-6.176-9.548-21.13-23.933-41.646-41.6-59.331-27.418-27.444-60.433-46.145-92.962-52.656-33.619-6.732-62.832.261-82.252 19.685-.004.003-.007.006-.011.01l-192.838 192.556c-49.133 49.178-56.19 124.761-21.185 181.532-14.082-3.766-28.734-5.051-38.49-5.051-33.69 0-39.499 50.375-6.328 57.739-15.43 25.214 14.413 56.005 40.141 40.192 7.305 32.895 57.697 27.649 57.697-6.343 0-9.753-1.281-24.396-5.034-38.476 22.998 14.254 49.549 21.885 77.276 21.885 39.315 0 76.277-15.324 104.071-43.144l192.832-192.548c.002-.002.003-.004.005-.006 0 0 0-.001.001-.001 17.319-17.334 24.867-43.112 21.255-72.585zm-419.601 339.09c-7.827 0-14.195-6.377-14.195-14.215 0-2.298.476-6.786 1.273-12.007 1.115-7.304-8.663-12.076-13.451-5.583-3.016 4.092-5.758 7.477-7.336 9.055-12.967 12.981-33.007-7.159-20.069-20.109 1.578-1.579 4.96-4.324 9.047-7.342 6.154-4.546 1.972-14.604-5.591-13.447-5.212.798-9.695 1.274-11.992 1.274-18.31 0-18.31-28.43 0-28.43 21.289 0 48.623 5.787 59.674 16.848 11.053 11.063 16.836 38.427 16.836 59.74-.001 7.839-6.369 14.216-14.196 14.216zm292.151-181.663c-22.715 18.33-41.035 22.369-69.934 16.583-29.656-5.937-59.947-23.178-85.295-48.549-13.39-13.403-24.51-28.163-33.051-43.87-4.634-8.519-17.809-1.353-13.178 7.166 9.228 16.97 21.211 32.886 35.617 47.305 27.418 27.444 60.433 46.144 92.962 52.656 13.207 2.644 27.023 3.398 40.354 1.184l-64.725 64.63c-24.966 24.989-58.159 38.751-93.466 38.751s-68.5-13.762-93.466-38.751c-51.542-51.591-51.542-135.535-.006-187.119l64.625-64.53c-2.287 13.887-1.595 29.254 2.26 45.342 2.222 9.265 16.857 5.978 14.588-3.496-6.811-28.417-2.495-53.811 11.802-70.454l68.066-67.966c-2.03 12.342-1.668 25.906 1.204 40.279 6.505 32.557 25.188 65.6 52.604 93.042 27.418 27.444 60.433 46.144 92.962 52.656 13.122 2.627 26.832 3.384 40.082 1.225z"/><path d="m462.265 164.024c5.389 0 10.149-1.795 13.586-5.235 9.123-9.132 5.909-26.656-7.316-39.894-5.833-5.838-12.805-9.995-19.633-11.703-8.068-2.02-15.445-.423-20.244 4.38-9.123 9.132-5.909 26.656 7.316 39.894 5.833 5.838 12.806 9.995 19.633 11.703 2.29.573 4.523.855 6.658.855zm-22.996-41.851c.951-.952 3.249-1.117 5.991-.43 4.166 1.042 8.781 3.868 12.663 7.753 8.061 8.069 9.318 16.688 7.316 18.691-.95.953-3.249 1.117-5.991.431-4.166-1.043-8.782-3.869-12.663-7.753-8.06-8.069-9.318-16.688-7.316-18.692z"/><path d="m297.991 50.645c-9.123 9.132-5.909 26.656 7.316 39.894 5.833 5.838 12.806 9.995 19.634 11.703 2.289.573 4.522.855 6.658.855 5.389 0 10.149-1.795 13.585-5.235 9.124-9.132 5.91-26.656-7.316-39.895-5.833-5.838-12.806-9.995-19.633-11.703-8.067-2.017-15.445-.423-20.244 4.381zm36.582 36.616c-.951.952-3.248 1.117-5.991.43-4.166-1.042-8.781-3.869-12.663-7.753-8.061-8.069-9.318-16.688-7.316-18.691.951-.953 3.248-1.117 5.991-.431 4.166 1.042 8.782 3.869 12.663 7.753 8.061 8.069 9.318 16.687 7.316 18.692z"/><path d="m379.463 37.873c-4.327 0-8.085 1.472-10.865 4.256-7.245 7.251-5.121 20.314 4.94 30.385 5.757 5.762 13.051 9.202 19.511 9.202 4.327 0 8.084-1.472 10.865-4.256 7.245-7.251 5.121-20.314-4.94-30.385-5.757-5.763-13.051-9.203-19.511-9.202zm13.716 28.858c-1.47.079-5.201-.988-9.029-4.819-3.838-3.842-4.906-7.594-4.816-9.055 1.447-.087 5.199.985 9.029 4.819 3.837 3.842 4.905 7.594 4.816 9.055z"/><path d="m393.262 217.372c1.747.438 3.457.652 5.101.652 4.278 0 8.096-1.459 10.885-4.252 7.244-7.251 5.12-20.314-4.941-30.384-4.247-4.251-9.357-7.286-14.391-8.545-6.299-1.578-12.125-.264-15.985 3.599-7.245 7.251-5.121 20.314 4.941 30.385 4.246 4.251 9.356 7.285 14.39 8.545zm-8.597-28.201c1.454-.073 5.202.988 9.029 4.819 3.838 3.841 4.906 7.593 4.817 9.055-1.497.082-5.201-.987-9.029-4.819-3.838-3.842-4.907-7.594-4.817-9.055z"/><path d="m345.048 175.849c4.327 0 8.084-1.472 10.865-4.256 7.245-7.251 5.121-20.314-4.94-30.385-5.756-5.762-13.05-9.202-19.51-9.202-4.327 0-8.085 1.472-10.866 4.256-7.245 7.251-5.121 20.314 4.94 30.385 5.757 5.762 13.051 9.202 19.511 9.202zm-13.716-28.859c1.451-.073 5.199.985 9.029 4.819 3.838 3.842 4.906 7.594 4.816 9.055-1.455.081-5.202-.988-9.029-4.819-3.838-3.842-4.906-7.594-4.816-9.055z"/><path d="m372.558 128.767c2.753-2.999 2.958-7.636 0-10.607-2.576-2.587-5.151-5.173-7.727-7.76-2.772-2.784-7.87-2.981-10.607 0-2.753 2.999-2.958 7.636 0 10.607 2.576 2.587 5.151 5.173 7.727 7.76 2.773 2.784 7.871 2.98 10.607 0z"/><path d="m350.558 43.402c2.753-2.999 2.958-7.636 0-10.607-2.576-2.587-5.151-5.173-7.727-7.76-2.772-2.784-7.87-2.981-10.607 0-2.753 2.999-2.958 7.636 0 10.607 2.576 2.587 5.151 5.173 7.727 7.76 2.773 2.784 7.871 2.981 10.607 0z"/><path d="m420.225 167.934c2.753-2.999 2.958-7.636 0-10.607-2.576-2.587-5.151-5.173-7.727-7.76-2.772-2.784-7.87-2.981-10.606 0-2.753 2.999-2.958 7.636 0 10.607 2.576 2.587 5.151 5.173 7.727 7.76 2.771 2.784 7.87 2.981 10.606 0z"/><path d="m390.558 106.718c-2.753 2.999-2.958 7.636 0 10.607 2.576 2.587 5.151 5.173 7.727 7.76 2.772 2.784 7.871 2.981 10.607 0 2.753-2.999 2.958-7.636 0-10.607-2.576-2.587-5.151-5.173-7.727-7.76-2.773-2.784-7.871-2.981-10.607 0z"/><path d="m303.952 126.758c2.772 2.784 7.87 2.981 10.606 0 2.753-2.999 2.958-7.636 0-10.607-2.576-2.587-5.151-5.173-7.727-7.76-2.772-2.784-7.87-2.981-10.607 0-2.753 2.999-2.958 7.636 0 10.607 2.576 2.587 5.152 5.173 7.728 7.76z"/><path d="m432.558 199.112c-2.753 2.999-2.958 7.636 0 10.607 2.576 2.587 5.151 5.173 7.727 7.76 2.772 2.784 7.871 2.981 10.607 0 2.753-2.999 2.958-7.636 0-10.607-2.576-2.587-5.151-5.173-7.727-7.76-2.773-2.784-7.871-2.98-10.607 0z"/><path d="m471.618 196.724c2.772 2.784 7.871 2.981 10.607 0 2.753-2.999 2.958-7.636 0-10.607-2.576-2.587-5.151-5.173-7.727-7.76-2.772-2.784-7.87-2.981-10.606 0-2.753 2.999-2.958 7.636 0 10.607 2.575 2.586 5.15 5.173 7.726 7.76z"/><path d="m442.948 89.521c2.753-2.999 2.958-7.636 0-10.607-2.576-2.587-5.151-5.173-7.727-7.76-2.772-2.784-7.871-2.981-10.607 0-2.753 2.999-2.958 7.636 0 10.607 2.576 2.587 5.151 5.173 7.727 7.76 2.773 2.784 7.871 2.981 10.607 0z"/></g></g></svg>