<?xml version="1.0" encoding="iso-8859-1"?>
<!-- Generator: Adobe Illustrator 19.0.0, SVG Export Plug-In . SVG Version: 6.00 Build 0)  -->
<svg version="1.1" id="Capa_1" xmlns="http://www.w3.org/2000/svg" xmlns:xlink="http://www.w3.org/1999/xlink" x="0px" y="0px"
	 viewBox="0 0 512 512" style="enable-background:new 0 0 512 512;" xml:space="preserve">
<rect x="47.975" y="39.302" style="fill:#EAE9E8;" width="416.075" height="389.114"/>
<rect x="47.975" y="39.302" style="fill:#DDDDDD;" width="20.001" height="389.114"/>
<g>
	<path style="fill:#585A60;" d="M464.046,7.567c-11.711,0-408.904,0-416.072,0c-11.556,0-20.922,9.366-20.922,20.922
		s9.367,20.922,20.922,20.922c9.078,0,397.865,0,416.072,0c11.556,0,20.922-9.366,20.922-20.922
		C484.968,16.934,475.602,7.567,464.046,7.567z"/>
	<path style="fill:#585A60;" d="M464.046,426.413c-11.711,0-408.904,0-416.072,0c-11.556,0-20.922,9.366-20.922,20.922
		s9.367,20.922,20.922,20.922c9.078,0,397.865,0,416.072,0c11.556,0,20.922-9.366,20.922-20.922
		C484.968,435.778,475.602,426.413,464.046,426.413z"/>
</g>
<g>
	<path style="fill:#414356;" d="M464.046,29.005c-11.711,0-408.904,0-416.072,0c-7.847,0-14.677-4.326-18.257-10.719
		c-1.691,3.02-2.665,6.495-2.665,10.204c0,11.557,9.367,20.922,20.922,20.922c9.078,0,397.865,0,416.072,0
		c11.556,0,20.922-9.366,20.922-20.922c0-3.708-0.974-7.184-2.665-10.204C478.723,24.678,471.895,29.005,464.046,29.005z"/>
	<path style="fill:#414356;" d="M464.046,447.849c-11.711,0-408.904,0-416.072,0c-7.847,0-14.677-4.326-18.257-10.719
		c-7.786,13.901,2.282,31.126,18.257,31.126c9.078,0,397.865,0,416.072,0c11.556,0,20.922-9.366,20.922-20.922
		c0-3.707-0.974-7.184-2.665-10.204C478.723,443.523,471.895,447.849,464.046,447.849z"/>
</g>
<path style="fill:#8DD83D;" d="M186.497,386.08l-24.272-44.743c19.653-22.506,33.194-69.866,33.194-124.659
	c0-76.561-26.433-138.62-59.042-138.62c-32.607,0-59.041,62.061-59.041,138.62c0,54.792,13.542,102.155,33.194,124.659
	l-22.118,40.773c0,0-10.546,20.308,9.269,16.174c0.005,0,38.691-8.076,38.696-8.076l43.067,8.989
	C180.177,399.33,195.058,401.867,186.497,386.08z"/>
<path style="fill:#7FC928;" d="M126.69,348.422c3.476-6.408-0.363-12.413-0.363-12.413l0.007-0.007
	c-47.576-66.177-33.376-234.554,20.045-255.956c-36.358-14.559-69.041,51.305-69.041,136.631
	c0,54.792,13.542,102.155,33.194,124.659L88.413,382.11c0,0-10.546,20.308,9.269,16.174c0.005,0,9.086-1.895,9.091-1.897
	c-3.357-4.646,1.642-14.277,1.642-14.277L126.69,348.422z"/>
<path style="fill:#3BBC56;" d="M84.163,151.939c31.738,20.578,72.655,20.603,104.43,0C166.391,53.423,106.323,53.607,84.163,151.939
	z"/>
<path style="fill:#149334;" d="M84.163,151.939c5.656,3.667,11.722,6.759,18.111,9.19c7.835-42.006,24.281-73.136,44.099-81.08
	C113.394,66.879,91.961,117.335,84.163,151.939z"/>
<g>
	<path style="fill:#8DD83D;" d="M304.579,386.08l-24.271-44.743c19.654-22.506,33.195-69.866,33.195-124.659
		c0-76.561-26.433-138.62-59.041-138.62c-32.607,0-59.042,62.061-59.042,138.62c0,54.792,13.543,102.155,33.195,124.659
		l-22.118,40.773c0,0-10.546,20.308,9.269,16.174c0.006,0,38.691-8.076,38.696-8.076l43.067,8.989
		C298.26,399.33,313.141,401.867,304.579,386.08z"/>
	<path style="fill:#8DD83D;" d="M422.645,386.08l-24.272-44.743c19.653-22.506,33.195-69.866,33.195-124.659
		c0-76.561-26.434-138.62-59.042-138.62c-32.607,0-59.042,62.061-59.042,138.62c0,54.792,13.542,102.155,33.194,124.659
		l-22.118,40.773c0,0-10.546,20.308,9.268,16.174c0.002,0,0.004,0,0.004,0l38.693-8.076l43.067,8.989
		C416.324,399.33,431.205,401.867,422.645,386.08z"/>
</g>
<g>
	<path style="fill:#7FC928;" d="M244.771,348.422c3.476-6.408-0.362-12.413-0.362-12.413l0.007-0.007
		c-47.576-66.177-33.376-234.554,20.045-255.956c-36.358-14.558-69.041,51.302-69.041,136.631
		c0,54.792,13.541,102.155,33.194,124.659l-22.118,40.773c0,0-10.546,20.308,9.268,16.174c0.005,0,9.086-1.895,9.091-1.897
		c-3.357-4.646,1.642-14.277,1.642-14.277L244.771,348.422z"/>
	<path style="fill:#7FC928;" d="M362.836,348.422c3.476-6.408-0.362-12.413-0.362-12.413l0.007-0.007
		c-47.576-66.177-33.376-234.554,20.045-255.956c-36.357-14.558-69.041,51.302-69.041,136.631
		c0,54.792,13.541,102.155,33.194,124.659l-22.118,40.773c0,0-10.546,20.308,9.269,16.174c0.002,0,0.003,0,0.003,0l9.088-1.897
		c-3.357-4.646,1.642-14.277,1.642-14.277L362.836,348.422z"/>
</g>
<path style="fill:#3BBC56;" d="M202.245,151.939c31.737,20.577,72.654,20.603,104.431,0
	C284.474,53.423,224.408,53.607,202.245,151.939z"/>
<path style="fill:#149334;" d="M238.016,83.512c-19.373,13.174-30.586,45.422-35.771,68.427c5.656,3.667,11.722,6.759,18.111,9.189
	c7.835-42.005,24.281-73.135,44.1-81.079C255.201,76.355,246.256,77.973,238.016,83.512z"/>
<path style="fill:#3BBC56;" d="M320.31,151.939c31.738,20.578,72.655,20.603,104.43,0C402.538,53.423,342.471,53.607,320.31,151.939
	z"/>
<path style="fill:#149334;" d="M336.686,106.52c-7.667,13.771-12.94,30.172-16.376,45.419c5.656,3.667,11.722,6.759,18.111,9.189
	c7.835-42.005,24.281-73.135,44.1-81.079C363.06,72.256,346.937,88.166,336.686,106.52z"/>
<g>
	<path style="fill:#020202;" d="M162.298,252.422c3.997-1.088,6.355-5.21,5.267-9.207c-1.088-3.998-5.211-6.358-9.208-5.267
		c-14.306,3.894-29.774,4.1-44.181,0.605c-4.027-0.98-8.081,1.494-9.058,5.52s1.495,8.08,5.52,9.058
		c7.965,1.934,16.193,2.913,24.454,2.913C144.317,256.044,153.468,254.826,162.298,252.422z"/>
	<path style="fill:#020202;" d="M159.864,284.33c-1.087-3.996-5.209-6.351-9.207-5.269c-9.311,2.532-19.399,2.67-28.779,0.394
		c-4.028-0.981-8.081,1.495-9.058,5.52c-0.977,4.025,1.495,8.08,5.52,9.058c11.499,2.791,24.08,2.816,36.254-0.495
		C158.593,292.45,160.951,288.328,159.864,284.33z"/>
	<path style="fill:#020202;" d="M280.38,252.422c3.997-1.088,6.354-5.21,5.267-9.207c-1.088-3.998-5.208-6.358-9.208-5.267
		c-14.303,3.895-29.772,4.1-44.18,0.605c-4.027-0.98-8.081,1.494-9.058,5.52c-0.977,4.025,1.495,8.08,5.52,9.058
		c7.965,1.934,16.193,2.913,24.454,2.913C262.4,256.044,271.552,254.826,280.38,252.422z"/>
	<path style="fill:#020202;" d="M277.947,284.33c-1.087-3.996-5.209-6.351-9.207-5.269c-9.311,2.533-19.401,2.669-28.779,0.394
		c-4.027-0.981-8.081,1.493-9.058,5.52c-0.977,4.025,1.495,8.08,5.52,9.058c11.529,2.799,24.111,2.808,36.254-0.495
		C276.676,292.45,279.034,288.328,277.947,284.33z"/>
	<path style="fill:#020202;" d="M383.145,72.218c-0.089-0.029-0.178-0.06-0.267-0.088c-0.475-0.151-0.952-0.294-1.43-0.424
		c-0.242-0.067-0.486-0.125-0.729-0.186c-0.498-0.124-0.997-0.243-1.498-0.344c-0.531-0.108-1.063-0.207-1.597-0.289
		c-0.265-0.04-0.531-0.072-0.797-0.106c-0.486-0.063-0.972-0.116-1.46-0.158c-0.232-0.02-0.464-0.041-0.697-0.055
		c-0.716-0.046-1.433-0.077-2.154-0.077s-1.438,0.031-2.154,0.077c-0.233,0.015-0.465,0.036-0.697,0.055
		c-0.488,0.042-0.974,0.095-1.46,0.158c-0.266,0.034-0.532,0.066-0.798,0.106c-0.532,0.082-1.062,0.18-1.591,0.288
		c-0.505,0.102-1.007,0.221-1.508,0.346c-0.241,0.061-0.483,0.118-0.724,0.185c-0.48,0.13-0.957,0.274-1.434,0.425
		c-0.088,0.028-0.175,0.058-0.262,0.087c-19.112,6.242-35.397,29.322-45.554,64.856c-0.215,0.745-0.417,1.505-0.625,2.259
		c-0.222,0.809-0.445,1.617-0.66,2.438c-0.641,2.425-1.33,5.267-1.565,6.267c-24.281-103.269-93.719-103.594-118.074,0.037
		C171.282,45.41,102.901,44.705,77.995,145.317c-16.504,66.967-7.652,155.711,23.54,196.786
		c-0.078,0.143-19.714,36.341-19.79,36.484c-8.518,16.404-1.92,31.053,17.46,26.973l37.161-7.757
		c0.124,0.026,41.603,8.685,41.728,8.707c6.001,1.088,12.63-0.056,16.236-5.038c1.243-1.716,1.974-3.652,2.21-5.791
		c2.098,9.588,10.89,11.803,20.749,9.88l37.16-7.757c0.13,0.027,41.598,8.684,41.729,8.707c6.004,1.089,12.632-0.059,16.237-5.039
		c1.232-1.702,1.96-3.62,2.202-5.738c2.076,9.329,10.772,11.876,20.618,9.852c0.169-0.033,37.11-7.744,37.279-7.779
		c0.124,0.026,41.603,8.685,41.728,8.707c13.533,2.453,24.205-7.068,14.985-24.072c0,0,0-0.001-0.001-0.001l-21.879-40.333
		C458.296,275.008,445.586,92.619,383.145,72.218z M416.172,148.297c-27.034,15.346-60.275,15.35-87.316,0
		c2.279-9.12,5.186-18.26,8.811-26.768c8.829-20.729,20.071-33.455,31.312-35.685c0.017-0.003,0.035-0.008,0.052-0.011
		c0.247-0.048,0.495-0.083,0.742-0.121c0.266-0.04,0.533-0.077,0.799-0.106c0.179-0.02,0.359-0.039,0.538-0.053
		c0.468-0.036,0.936-0.062,1.404-0.062s0.936,0.026,1.404,0.062c0.179,0.014,0.359,0.033,0.538,0.053
		C396.496,87.957,410.705,126.42,416.172,148.297z M298.108,148.297c-27.035,15.346-60.276,15.35-87.316,0
		C231.501,65.441,277.037,63.984,298.108,148.297z M180.026,148.297c-27.034,15.346-60.275,15.35-87.316,0
		c5.284-21.142,18.751-58.377,40.174-62.464c0.295-0.058,1.077-0.178,1.541-0.227c0.628-0.069,1.327-0.115,1.942-0.115
		c0.615,0,1.314,0.046,1.942,0.115c0.465,0.05,1.246,0.169,1.541,0.227C161.031,89.874,174.725,127.087,180.026,148.297z
		 M137.9,382.798c-2.112-0.441,0.275-0.697-41.663,8.056c-0.983,0.205-2.076,0.389-3.088,0.414
		c0.561-3.963,0.542-3.246,23.963-46.423c1.495-2.755,1.119-6.148-0.943-8.511c-26.676-30.547-38.619-107.488-26.755-172.787
		c29.442,15.003,64.422,15.024,93.904,0c11.831,65.115-0.011,142.162-26.756,172.787c-2.062,2.361-2.438,5.755-0.943,8.511
		l24.272,44.743c0.47,0.867,0.813,1.593,1.063,2.189C180.805,391.757,138.05,382.83,137.9,382.798z M196.221,390.502
		c-0.53-2.484-1.574-5.174-3.141-8.064v-0.001l-21.88-40.333c10.434-13.74,18.725-33.523,24.209-56.882
		c5.484,23.36,13.777,43.144,24.21,56.882C200.508,377.334,196.874,381.798,196.221,390.502z M252.917,382.798
		c-0.126,0.026-38.695,8.076-38.695,8.076c-1.353,0.282-2.324,0.377-2.989,0.394c0.558-3.942,0.507-3.18,23.964-46.423
		c1.495-2.755,1.119-6.148-0.943-8.511c-26.672-30.541-38.623-107.474-26.756-172.787c29.442,15.003,64.422,15.024,93.905,0
		c11.941,65.722-0.311,142.507-26.756,172.787c-2.062,2.361-2.438,5.755-0.943,8.511c26.077,48.07,24.732,45.494,25.336,46.933
		C294.258,391.088,256.065,382.142,252.917,382.798z M314.29,390.446c-0.534-2.469-1.572-5.139-3.128-8.007c0-0.001,0-0.001,0-0.001
		l-21.88-40.333c10.428-13.732,18.716-33.501,24.2-56.844c5.484,23.343,13.773,43.113,24.2,56.844
		C319.036,376.477,314.971,381.666,314.29,390.446z M392.712,336.335c-2.062,2.361-2.438,5.755-0.943,8.511
		c26.068,48.054,24.731,45.49,25.335,46.933c-3.995-0.578-43.033-9.625-46.122-8.98c-41.961,8.759-39.951,8.426-41.686,8.47
		c0.561-3.963,0.542-3.246,23.963-46.423c1.495-2.755,1.119-6.148-0.943-8.511c-26.486-30.328-38.672-107.194-26.755-172.787
		c29.442,15.004,64.422,15.024,93.905,0C431.338,228.884,419.371,305.806,392.712,336.335z"/>
	<path style="fill:#020202;" d="M378.948,216.154c6.591-0.486,13.151-1.608,19.497-3.337c3.997-1.088,6.354-5.21,5.266-9.208
		s-5.21-6.356-9.208-5.266c-5.42,1.476-11.025,2.435-16.659,2.851c-4.131,0.305-7.232,3.9-6.928,8.031
		C371.219,213.34,374.797,216.456,378.948,216.154z"/>
	<path style="fill:#020202;" d="M346.786,213.525c1.124,0.273,2.255,0.527,3.393,0.763c4.064,0.842,8.027-1.772,8.867-5.821
		c0.841-4.056-1.766-8.025-5.821-8.867c-0.973-0.202-1.939-0.419-2.899-0.651c-4.028-0.982-8.081,1.493-9.059,5.519
		C340.29,208.492,342.761,212.548,346.786,213.525z"/>
	<path style="fill:#020202;" d="M260.433,216.154c6.591-0.486,13.151-1.608,19.497-3.337c3.997-1.088,6.354-5.21,5.266-9.208
		c-1.089-3.997-5.211-6.356-9.208-5.266c-5.42,1.476-11.025,2.435-16.659,2.851c-4.131,0.305-7.232,3.9-6.928,8.031
		C252.704,213.34,256.282,216.456,260.433,216.154z"/>
	<path style="fill:#020202;" d="M228.271,213.525c1.124,0.273,2.255,0.527,3.393,0.763c0.514,0.106,1.025,0.158,1.53,0.158
		c3.48,0,6.602-2.438,7.336-5.979c0.841-4.056-1.766-8.025-5.821-8.867c-0.973-0.202-1.939-0.419-2.899-0.651
		c-4.027-0.982-8.081,1.493-9.059,5.519S224.246,212.548,228.271,213.525z"/>
	<path style="fill:#020202;" d="M142.802,216.154c6.591-0.486,13.151-1.608,19.497-3.337c3.997-1.088,6.354-5.21,5.266-9.208
		c-1.088-3.997-5.21-6.356-9.208-5.266c-5.42,1.476-11.025,2.435-16.659,2.851c-4.131,0.305-7.232,3.9-6.928,8.031
		C135.073,213.34,138.649,216.456,142.802,216.154z"/>
	<path style="fill:#020202;" d="M110.64,213.525c1.124,0.273,2.255,0.527,3.393,0.763c4.064,0.842,8.027-1.772,8.867-5.821
		c0.841-4.056-1.766-8.025-5.821-8.867c-0.973-0.202-1.939-0.419-2.899-0.651c-4.028-0.982-8.081,1.493-9.059,5.519
		S106.613,212.548,110.64,213.525z"/>
	<path style="fill:#020202;" d="M403.712,243.216c-1.088-3.998-5.21-6.358-9.208-5.267c-14.304,3.895-29.773,4.1-44.181,0.605
		c-4.028-0.98-8.081,1.494-9.058,5.52s1.495,8.08,5.52,9.058c16.466,3.997,34.385,3.993,51.658-0.709
		C402.441,251.334,404.799,247.212,403.712,243.216z"/>
	<path style="fill:#020202;" d="M386.804,279.062c-9.311,2.533-19.399,2.67-28.779,0.394c-4.028-0.981-8.081,1.495-9.058,5.52
		c-0.977,4.025,1.495,8.08,5.52,9.058c11.504,2.792,24.086,2.814,36.254-0.495c3.997-1.088,6.355-5.209,5.268-9.207
		C394.923,280.334,390.802,277.98,386.804,279.062z"/>
	<path style="fill:#020202;" d="M119.98,117.347c-6.267,6.221,1.792,16.587,9.471,11.541c4.018-2.749,4.399-8.281,1.14-11.541
		C127.649,114.401,122.858,114.452,119.98,117.347z"/>
	<path style="fill:#020202;" d="M239.246,117.347c-4.738,4.703-1.326,12.801,5.3,12.801c6.602,0,10.048-8.054,5.3-12.801
		C246.876,114.375,242.109,114.464,239.246,117.347z"/>
	<path style="fill:#020202;" d="M358.504,117.347c-3.743,3.716-2.548,10.178,2.44,12.23c7.701,3.093,13.85-6.551,8.171-12.23
		C366.226,114.458,361.445,114.402,358.504,117.347z"/>
	<path style="fill:#020202;" d="M464.036,333.53c4.142,0,7.5-3.357,7.5-7.5V55.833c12.044-3.299,20.922-14.335,20.922-27.411
		C492.459,12.751,479.708,0,464.036,0H153.868c-4.142,0-7.5,3.357-7.5,7.5s3.358,7.5,7.5,7.5h310.167
		c7.4,0,13.422,6.021,13.422,13.422s-6.021,13.422-13.422,13.422H47.964c-7.4,0-13.422-6.021-13.422-13.422
		s6.021-13.422,13.422-13.422h70.902c4.142,0,7.5-3.357,7.5-7.5s-3.358-7.5-7.5-7.5H47.964C32.292,0,19.541,12.751,19.541,28.423
		c0,13.076,8.879,24.111,20.922,27.411v364.023c-12.044,3.299-20.922,14.335-20.922,27.411c0,15.672,12.751,28.423,28.423,28.423
		h149.882c10.81,22.219,33.106,36.31,58.155,36.31c25.051,0,47.347-14.091,58.155-36.31h149.88
		c15.672,0,28.423-12.751,28.423-28.423c0-13.076-8.879-24.111-20.922-27.411v-58.825c0-4.143-3.358-7.5-7.5-7.5s-7.5,3.357-7.5,7.5
		v57.814H55.464v-362h401.071V326.03C456.536,330.172,459.894,333.53,464.036,333.53z M215.168,475.69h81.665
		C277.202,504.085,234.82,504.115,215.168,475.69z M464.036,433.845c7.4,0,13.422,6.021,13.422,13.422
		c0,7.4-6.021,13.422-13.422,13.422c-7.138,0-254.206,0-261.301,0H47.964c-7.4,0-13.422-6.021-13.422-13.422
		c0-7.4,6.021-13.422,13.422-13.422H464.036z"/>
</g>
<g>
</g>
<g>
</g>
<g>
</g>
<g>
</g>
<g>
</g>
<g>
</g>
<g>
</g>
<g>
</g>
<g>
</g>
<g>
</g>
<g>
</g>
<g>
</g>
<g>
</g>
<g>
</g>
<g>
</g>
</svg>
