<svg id="Capa_1" enable-background="new 0 0 512 512" height="512" viewBox="0 0 512 512" width="512" xmlns="http://www.w3.org/2000/svg"><g><g><path d="m471.367 231.15-26.267-91.936c-4.064-14.224-17.065-24.031-31.858-24.031h-314.483c-14.793 0-27.795 9.807-31.858 24.031l-26.268 91.936v13.5h430.733v-13.5z" fill="#f4dbb3"/><path d="m445.099 139.214c-4.064-14.224-17.065-24.031-31.859-24.031h-23c14.794 0 27.794 9.807 31.859 24.031l26.267 91.936v13.5h23v-13.5z" fill="#eac89f"/><path d="m496.5 264.283v5h-481v-5c-4.418 0-8-3.582-8-8v-17.133c0-4.418 3.582-8 8-8h481c4.418 0 8 3.582 8 8v17.133c0 4.419-3.582 8-8 8z" fill="#faf8fa"/><path d="m496.5 231.15h-23c4.418 0 8 3.582 8 8v17.133c0 4.418-3.582 8-8 8h23c4.418 0 8-3.582 8-8v-17.133c0-4.418-3.582-8-8-8z" fill="#eceaec"/><path d="m487.933 297.417-25.581 76.744c-4.51 13.53-17.172 22.656-31.433 22.656h-349.838c-14.262 0-26.923-9.126-31.433-22.656l-25.581-76.744v-11.6h463.867v11.6z" fill="#f4dbb3"/><path d="m464.933 285.817v11.6l-25.581 76.744c-4.51 13.53-17.171 22.656-31.433 22.656h23c14.261 0 26.923-9.126 31.433-22.656l25.581-76.744v-11.6z" fill="#eac89f"/><g><g fill="#eac89f"><path d="m173.167 396.817v-16.567c0-9.15 7.417-16.567 16.567-16.567s16.567 7.417 16.567 16.567v16.567z"/><path d="m106.9 396.817v-16.567c0-9.15 7.417-16.567 16.567-16.567 9.149 0 16.567 7.417 16.567 16.567v16.567z"/><path d="m239.433 396.817v-16.567c0-9.15 7.417-16.567 16.567-16.567s16.567 7.417 16.567 16.567v16.567z"/><path d="m305.7 396.817v-16.567c0-9.15 7.417-16.567 16.567-16.567s16.567 7.417 16.567 16.567v16.567z"/><path d="m371.967 396.817v-16.567c0-9.15 7.417-16.567 16.567-16.567s16.567 7.417 16.567 16.567v16.567z"/></g></g><path d="m496.5 297.417h-481c-4.418 0-8-3.582-8-8v-17.133c0-4.418 3.582-8 8-8h481c4.418 0 8 3.582 8 8v17.133c0 4.418-3.582 8-8 8z" fill="#edf4ff"/><path d="m496.5 264.283h-23c4.418 0 8 3.582 8 8v17.133c0 4.418-3.582 8-8 8h23c4.418 0 8-3.582 8-8v-17.133c0-4.418-3.582-8-8-8z" fill="#d6e0ff"/></g></g><path d="m512 239.15c0-8.547-6.953-15.5-15.5-15.5h-19.475l-24.714-86.496c-4.958-17.352-21.023-29.471-39.069-29.471h-42.842c-4.143 0-7.5 3.358-7.5 7.5s3.357 7.5 7.5 7.5h42.841c11.384 0 21.52 7.646 24.647 18.592l23.535 82.375h-410.848l23.536-82.375c3.128-10.947 13.264-18.592 24.647-18.592h241.642c4.143 0 7.5-3.358 7.5-7.5s-3.357-7.5-7.5-7.5h-241.641c-18.046 0-34.111 12.119-39.069 29.471l-24.715 86.496h-19.475c-8.547 0-15.5 6.953-15.5 15.5v17.133c0 2.929.831 5.661 2.249 8-1.418 2.339-2.249 5.071-2.249 8v17.133c0 8.547 6.953 15.5 15.5 15.5h3.161l9.287 27.861c.001.003.002.006.003.009l14.582 43.746c5.539 16.619 21.03 27.784 38.548 27.784h349.838c17.518 0 33.009-11.165 38.548-27.784l14.582-43.746c.001-.003.002-.006.003-.009l9.287-27.861h3.161c8.547 0 15.5-6.953 15.5-15.5v-17.133c0-2.929-.832-5.661-2.249-8 1.418-2.339 2.249-5.071 2.249-8zm-497 0c0-.276.225-.5.5-.5h25.109c.009 0 .019.002.028.002.008 0 .016-.002.024-.002h430.679c.008 0 .016.002.024.002.009 0 .019-.002.028-.002h25.108c.275 0 .5.224.5.5v17.133c0 .276-.225.5-.5.5h-481c-.275 0-.5-.224-.5-.5zm117.533 150.167h-18.133v-9.067c0-5 4.067-9.067 9.066-9.067s9.066 4.067 9.066 9.067v9.067zm66.267 0h-18.133v-9.067c0-5 4.067-9.067 9.066-9.067s9.066 4.067 9.066 9.067v9.067zm66.266 0h-18.133v-9.067c0-5 4.067-9.067 9.066-9.067s9.066 4.067 9.066 9.067v9.067zm66.267 0h-18.133v-9.067c0-5 4.067-9.067 9.066-9.067s9.066 4.067 9.066 9.067v9.067zm66.267 0h-18.133v-9.067c0-5 4.067-9.067 9.066-9.067s9.066 4.067 9.066 9.067v9.067zm99.4-99.9c0 .276-.225.5-.5.5h-8.405c-.015 0-.03 0-.044 0h-357.615c-4.143 0-7.5 3.358-7.5 7.5s3.357 7.5 7.5 7.5h86.576l6.863 27.452c.835 3.339 3.835 5.681 7.276 5.681h49.699c3.441 0 6.441-2.342 7.276-5.681l6.863-27.452h182.539l-6.045 18.133h-66.383c-4.143 0-7.5 3.358-7.5 7.5s3.357 7.5 7.5 7.5h61.384l-11.247 33.74c-3.494 10.483-13.267 17.527-24.317 17.527h-18.32v-9.067c0-13.271-10.796-24.067-24.066-24.067s-24.066 10.796-24.066 24.067v9.067h-18.134v-9.067c0-13.271-10.796-24.067-24.066-24.067s-24.068 10.796-24.068 24.067v9.067h-18.134v-9.067c0-13.271-10.796-24.067-24.066-24.067s-24.066 10.796-24.066 24.067v9.067h-18.134v-9.067c0-13.271-10.796-24.067-24.066-24.067s-24.066 10.796-24.066 24.067v9.067h-18.134v-9.067c0-13.271-10.796-24.067-24.066-24.067s-24.068 10.796-24.068 24.067v9.067h-18.319c-11.051 0-20.823-7.044-24.317-17.527l-11.247-33.74h62.419c4.143 0 7.5-3.358 7.5-7.5s-3.357-7.5-7.5-7.5h-67.419l-6.045-18.133h65.963c4.143 0 7.5-3.358 7.5-7.5s-3.357-7.5-7.5-7.5h-76.499c-.009 0-.018 0-.027 0h-8.409c-.275 0-.5-.224-.5-.5v-17.133c0-.276.225-.5.5-.5h481c.275 0 .5.224.5.5zm-217.473 15.5-4.533 18.133h-37.988l-4.533-18.133z"/></svg>