<svg height="512" viewBox="0 0 60 60" width="512" xmlns="http://www.w3.org/2000/svg"><g id="Page-1" fill="none" fill-rule="evenodd"><g id="010---Salami"><g id="Icons_copy" transform="translate(1 1)"><g fill-rule="nonzero"><rect id="Rectangle-path" fill="#9e9e9e" height="4" rx="2" width="58"/><path id="Shape" d="m56 0h-3c1.1045695 0 2 .8954305 2 2s-.8954305 2-2 2h3c1.1045695 0 2-.8954305 2-2s-.8954305-2-2-2z" fill="#707070"/><path id="Shape" d="m37 21v24c0 4.418278-3.581722 8-8 8s-8-3.581722-8-8v-24c.002962-2.6917836 1.3579249-5.2020461 3.6065666-6.6816805s5.0901728-1.7307176 7.5634334-.6683195c.9272712.40468 1.771524.9776869 2.49 1.69 1.4986058 1.5024458 2.3401329 3.5379343 2.34 5.66z" fill="#ff5722"/><path id="Shape" d="m34.66 15.34c-.718476-.7123131-1.5627288-1.28532-2.49-1.69-1.0012379-.430722-2.0800481-.6519292-3.17-.65-.503454.0018808-1.005633.0507595-1.5.146.5734938.1041892 1.1336088.2718883 1.67.5.9272712.40468 1.771524.9776869 2.49 1.69 1.499585 1.5034269 2.3411925 3.5405485 2.34 5.664v24c.00194 3.1946162-1.8968858 6.0841337-4.83 7.35-.5363912.2281117-1.0965062.3958108-1.67.5.4942407.096583.9964209.1468011 1.5.15 2.1228716.0037248 4.1598678-.8379337 5.660967-2.339033 1.5010993-1.5010992 2.3427578-3.5380954 2.339033-5.660967v-24c.0001329-2.1220657-.8413942-4.1575542-2.34-5.66z" fill="#d84315"/><path id="Shape" d="m32.15 57.99c-.9424148-.1113828-1.866634-.3432778-2.75-.69-.2553242-.1099937-.5446758-.1099937-.8 0-.883366.3467222-1.8075852.5786172-2.75.69-.3573044.0448627-.7115005-.1037175-.9298667-.3900657-.2183663-.2863482-.2679354-.6672337-.1301333-.9999343.5288247-1.3657857.8784031-2.7943515 1.04-4.25 2.0244813.8666577 4.3155187.8666577 6.34 0 .1615969 1.4556485.5111753 2.8842143 1.04 4.25.1378021.3327006.088233.7135861-.1301333.9999343-.2183662.2863482-.5725623.4349284-.9298667.3900657z" fill="#d84315"/><path id="Shape" d="m33.21 9.4c-.5288247 1.3657857-.8784031 2.7943515-1.04 4.25-2.0244813-.8666577-4.3155187-.8666577-6.34 0-.1615969-1.4556485-.5111753-2.8842143-1.04-4.25-.1378021-.3327006-.088233-.71358613.1301333-.99993433.2183662-.2863482.5725623-.43492832.9298667-.39006567.9424148.1113828 1.866634.34327778 2.75.69.256.10666667.544.10666667.8 0 .883366-.34672222 1.8075852-.5786172 2.75-.69.3573044-.04486265.7115005.10371747.9298667.39006567.2183663.2863482.2679354.66723373.1301333.99993433z" fill="#d84315"/><path id="Shape" d="m17 21v24c0 4.418278-3.581722 8-8 8s-8-3.581722-8-8v-24c.00296202-2.6917836 1.35792487-5.2020461 3.60656656-6.6816805 2.2486417-1.4796344 5.09017287-1.7307176 7.56343344-.6683195.9272712.40468 1.771524.9776869 2.49 1.69 1.4986058 1.5024458 2.3401329 3.5379343 2.34 5.66z" fill="#e91e63"/><path id="Shape" d="m14.66 15.34c-.718476-.7123131-1.5627288-1.28532-2.49-1.69-1.0012379-.430722-2.0800481-.6519292-3.17-.65-.503454.0018808-1.00563301.0507595-1.5.146.57349375.1041892 1.1336088.2718883 1.67.5.9272712.40468 1.771524.9776869 2.49 1.69 1.499585 1.5034269 2.3411925 3.5405485 2.34 5.664v24c.00194 3.1946162-1.8968858 6.0841337-4.83 7.35-.5363912.2281117-1.09650625.3958108-1.67.5.49424072.096583.99642087.1468011 1.5.15 2.1228716.0037248 4.1598678-.8379337 5.660967-2.339033 1.5010993-1.5010992 2.3427578-3.5380954 2.339033-5.660967v-24c.0001329-2.1220657-.8413942-4.1575542-2.34-5.66z" fill="#ad1457"/><path id="Shape" d="m12.15 57.99c-.9424148-.1113828-1.866634-.3432778-2.75-.69-.25532421-.1099937-.54467579-.1099937-.8 0-.88336604.3467222-1.80758516.5786172-2.75.69-.35730443.0448627-.71150046-.1037175-.92986671-.3900657s-.2679354-.6672337-.13013329-.9999343c.52882467-1.3657857.87840311-2.7943515 1.04-4.25 2.02448134.8666577 4.3155187.8666577 6.34 0 .1615969 1.4556485.5111753 2.8842143 1.04 4.25.1378021.3327006.088233.7135861-.1301333.9999343-.2183662.2863482-.5725623.4349284-.9298667.3900657z" fill="#ad1457"/><path id="Shape" d="m13.21 9.4c-.5288247 1.3657857-.8784031 2.7943515-1.04 4.25-2.0244813-.8666577-4.31551866-.8666577-6.34 0-.16159689-1.4556485-.51117533-2.8842143-1.04-4.25-.13780211-.3327006-.08823296-.71358613.13013329-.99993433s.57256228-.43492832.92986671-.39006567c.94241484.1113828 1.86663396.34327778 2.75.69.256.10666667.544.10666667.8 0 .883366-.34672222 1.8075852-.5786172 2.75-.69.3573044-.04486265.7115005.10371747.9298667.39006567.2183663.2863482.2679354.66723373.1301333.99993433z" fill="#ad1457"/><path id="Shape" d="m57 21v24c0 4.418278-3.581722 8-8 8s-8-3.581722-8-8v-24c.002962-2.6917836 1.3579249-5.2020461 3.6065666-6.6816805s5.0901728-1.7307176 7.5634334-.6683195c.9272712.40468 1.771524.9776869 2.49 1.69 1.4986058 1.5024458 2.3401329 3.5379343 2.34 5.66z" fill="#ef314c"/><path id="Shape" d="m54.66 15.34c-.718476-.7123131-1.5627288-1.28532-2.49-1.69-1.0012379-.430722-2.0800481-.6519292-3.17-.65-.503454.0018808-1.005633.0507595-1.5.146.5734938.1041892 1.1336088.2718883 1.67.5.9272712.40468 1.771524.9776869 2.49 1.69 1.499585 1.5034269 2.3411925 3.5405485 2.34 5.664v24c.00194 3.1946162-1.8968858 6.0841337-4.83 7.35-.5363912.2281117-1.0965062.3958108-1.67.5.4942407.096583.9964209.1468011 1.5.15 2.1228716.0037248 4.1598678-.8379337 5.660967-2.339033 1.5010993-1.5010992 2.3427578-3.5380954 2.339033-5.660967v-24c.0001329-2.1220657-.8413942-4.1575542-2.34-5.66z" fill="#bb193b"/><path id="Shape" d="m52.15 57.99c-.9424148-.1113828-1.866634-.3432778-2.75-.69-.2553242-.1099937-.5446758-.1099937-.8 0-.883366.3467222-1.8075852.5786172-2.75.69-.3573044.0448627-.7115005-.1037175-.9298667-.3900657-.2183663-.2863482-.2679354-.6672337-.1301333-.9999343.5288247-1.3657857.8784031-2.7943515 1.04-4.25 2.0244813.8666577 4.3155187.8666577 6.34 0 .1615969 1.4556485.5111753 2.8842143 1.04 4.25.1378021.3327006.088233.7135861-.1301333.9999343-.2183662.2863482-.5725623.4349284-.9298667.3900657z" fill="#bb193b"/><path id="Shape" d="m53.21 9.4c-.5288247 1.3657857-.8784031 2.7943515-1.04 4.25-2.0244813-.8666577-4.3155187-.8666577-6.34 0-.1615969-1.4556485-.5111753-2.8842143-1.04-4.25-.1378021-.3327006-.088233-.71358613.1301333-.99993433.2183662-.2863482.5725623-.43492832.9298667-.39006567.9424148.1113828 1.866634.34327778 2.75.69.256.10666667.544.10666667.8 0 .883366-.34672222 1.8075852-.5786172 2.75-.69.3573044-.04486265.7115005.10371747.9298667.39006567.2183663.2863482.2679354.66723373.1301333.99993433z" fill="#bb193b"/></g><path id="Shape" d="m9 8.78v-4.78" stroke="#000" stroke-linejoin="round" stroke-width="2"/><path id="Shape" d="m29 8.78v-4.78" stroke="#000" stroke-linejoin="round" stroke-width="2"/><path id="Shape" d="m49 8.78v-4.78" stroke="#000" stroke-linejoin="round" stroke-width="2"/><path id="Shape" d="m1 26h9c.5522847 0 1 .4477153 1 1v12c0 .5522847-.4477153 1-1 1h-9z" fill="#ffe0b2" fill-rule="nonzero"/><path id="Shape" d="m10 26h-3c.55228475 0 1 .4477153 1 1v12c0 .5522847-.44771525 1-1 1h3c.5522847 0 1-.4477153 1-1v-12c0-.5522847-.4477153-1-1-1z" fill="#dfc49c" fill-rule="nonzero"/><path id="Shape" d="m47 26h9c.5522847 0 1 .4477153 1 1v12c0 .5522847-.4477153 1-1 1h-9z" fill="#ffe0b2" fill-rule="nonzero" transform="matrix(-1 0 0 -1 104 66)"/><path id="Rectangle-path" d="m54 26h3v14h-3z" fill="#dfc49c" fill-rule="nonzero"/><ellipse id="Oval" cx="29" cy="33" fill="#ffdc00" fill-rule="nonzero" rx="4" ry="8"/></g><g id="Icons" fill="#000" fill-rule="nonzero"><path id="Shape" d="m3 6h6v2.438c-.66256381-.19030608-1.33845588-.33069909-2.022-.42-.7053601-.09365529-1.40711501.19604255-1.841.76-.44421155.57139989-.54766885 1.337213-.271 2.006.41764412 1.0619797.70800102 2.1696997.865 3.3-2.91051896 1.5701871-4.72663577 4.6089486-4.731 7.916v24c.00252895 3.3088453 1.81890497 6.3499602 4.731 7.921-.15827957 1.1320891-.44997459 2.2414701-.869 3.305-.27405891.6676886-.16909567 1.4310576.275 2 .43250186.566344 1.13597365.856593 1.842.76 1.03994871-.1275218 2.06027125-.3824345 3.038-.759.9652554.3799422 1.9750972.6350071 3.005.759.7051393.0919707 1.4060832-.1973923 1.841-.76.4442116-.5713999.5476689-1.337213.271-2.006-.4176441-1.0619797-.708001-2.1696997-.865-3.3 2.9117797-1.5708693 4.7281039-4.6115135 4.731-7.92v-24c-.0025289-3.3088453-1.818905-6.3499602-4.731-7.921.1582796-1.1320891.4499746-2.2414701.869-3.305.2740589-.6676886.1690957-1.43105765-.275-2-.4323695-.56651626-1.135946-.85680839-1.842-.76-.6830066.09100919-1.3584653.23171583-2.021.421v-2.435h18v2.438c-.6625638-.19030608-1.3384559-.33069909-2.022-.42-.7053601-.09365529-1.407115.19604255-1.841.76-.4442116.57139989-.5476689 1.337213-.271 2.006.4176441 1.0619797.708001 2.1696997.865 3.3-2.910519 1.5701871-4.7266358 4.6089486-4.731 7.916v24c.0025289 3.3088453 1.818905 6.3499602 4.731 7.921-.1582796 1.1320891-.4499746 2.2414701-.869 3.305-.2740589.6676886-.1690957 1.4310576.275 2 .4325019.566344 1.1359737.856593 1.842.76 1.0399487-.1275218 2.0602712-.3824345 3.038-.759.9636594.3795311 1.9717952.6345894 3 .759.7051393.0919707 1.4060832-.1973923 1.841-.76.4442116-.5713999.5476689-1.337213.271-2.006-.4176441-1.0619797-.708001-2.1696997-.865-3.3 2.9137132-1.5695398 4.7321121-4.6104434 4.736-7.92v-24c-.0025289-3.3088453-1.818905-6.3499602-4.731-7.921.1582796-1.1320891.4499746-2.2414701.869-3.305.2740589-.6676886.1690957-1.43105765-.275-2-.4318383-.5672073-1.1358354-.85767299-1.842-.76-.6830066.09100919-1.3584653.23171583-2.021.421v-2.435h18v2.438c-.6625638-.19030608-1.3384559-.33069909-2.022-.42-.7053601-.09365529-1.407115.19604255-1.841.76-.4442116.57139989-.5476689 1.337213-.271 2.006.4176441 1.0619797.708001 2.1696997.865 3.3-2.910519 1.5701871-4.7266358 4.6089486-4.731 7.916v24c.0025289 3.3088453 1.818905 6.3499602 4.731 7.921-.1582796 1.1320891-.4499746 2.2414701-.869 3.305-.2740589.6676886-.1690957 1.4310576.275 2 .4323695.5665163 1.135946.8568084 1.842.76 1.0399487-.1275218 2.0602712-.3824345 3.038-.759.9636594.3795311 1.9717952.6345894 3 .759.7051393.0919707 1.4060832-.1973923 1.841-.76.4442116-.5713999.5476689-1.337213.271-2.006-.4176441-1.0619797-.708001-2.1696997-.865-3.3 2.9137132-1.5695398 4.7321121-4.6104434 4.736-7.92v-24c-.0025289-3.3088453-1.818905-6.3499602-4.731-7.921.1582796-1.1320891.4499746-2.2414701.869-3.305.2740589-.6676886.1690957-1.43105765-.275-2-.4319714-.56703423-1.1358631-.85745642-1.842-.76-.6830066.09100919-1.3584653.23171583-2.021.421v-2.435h6c1.6568542 0 3-1.34314575 3-3s-1.3431458-3-3-3h-54c-1.65685425 0-3 1.34314575-3 3s1.34314575 3 3 3zm0 22h8v12h-8zm10.279 30c-.8529348-.1007961-1.6896232-.3094642-2.49-.621-.5027952-.2125386-1.0702048-.2125386-1.573 0-.80158873.3161002-1.64277286.5206762-2.5.608.42711945-1.0662171.73694317-2.1757482.924-3.309 1.54485688.433315 3.1791431.433315 4.724 0 .188332 1.1362089.4950007 2.2496007.915 3.322zm3.721-36v24c-.0000001 3.8659932-3.1340068 6.9999999-7 6.9999999-3.86599321 0-6.99999994-3.1340067-7-6.9999999v-4h8c1.1045695 0 2-.8954305 2-2v-12c0-1.1045695-.8954305-2-2-2h-8v-4c.00000006-3.8659932 3.13400679-6.9999999 7-6.9999999 3.8659932 0 6.9999999 3.1340067 7 6.9999999zm-3.714-11.984c-.4271194 1.0662171-.7369432 2.1757482-.924 3.309-1.5448569-.433315-3.17914312-.433315-4.724 0-.18877471-1.1373018-.49611709-2.2517112-.917-3.325.84385479.0993735 1.67195615.3039632 2.465.609.50977936.2194996 1.0864577.2245456 1.6.014.8016378-.315758 1.6428205-.5199972 2.5-.607zm19.993 47.984c-.8529348-.1007961-1.6896232-.3094642-2.49-.621-.5027952-.2125386-1.0702048-.2125386-1.573 0-.8015887.3161002-1.6427729.5206762-2.5.608.4271194-1.0662171.7369432-2.1757482.924-3.309 1.5448569.433315 3.1791431.433315 4.724 0 .188332 1.1362089.4950007 2.2496007.915 3.322zm3.721-36v24c0 3.8659932-3.1340068 7-7 7s-7-3.1340068-7-7v-24c0-3.8659932 3.1340068-7 7-7s7 3.1340068 7 7zm-3.714-11.984c-.4271194 1.0662171-.7369432 2.1757482-.924 3.309-1.5448569-.433315-3.1791431-.433315-4.724 0-.1887747-1.1373018-.4961171-2.2517112-.917-3.325.8438548.0993735 1.6719562.3039632 2.465.609.5097794.2194996 1.0864577.2245456 1.6.014.8016378-.315758 1.6428205-.5199972 2.5-.607zm19.993 47.984c-.8529348-.1007961-1.6896232-.3094642-2.49-.621-.5027952-.2125386-1.0702048-.2125386-1.573 0-.8015887.3161002-1.6427729.5206762-2.5.608.4271194-1.0662171.7369432-2.1757482.924-3.309 1.5448569.433315 3.1791431.433315 4.724 0 .188332 1.1362089.4950007 2.2496007.915 3.322zm3.721-18h-8v-12h8zm0-18v4h-8c-1.1045695 0-2 .8954305-2 2v12c0 1.1045695.8954305 2 2 2h8v4c0 3.8659932-3.1340068 7-7 7s-7-3.1340068-7-7v-24c0-3.8659932 3.1340068-7 7-7s7 3.1340068 7 7zm-3.714-11.984c-.4271194 1.0662171-.7369432 2.1757482-.924 3.309-1.5448569-.433315-3.1791431-.433315-4.724 0-.1887747-1.1373018-.4961171-2.2517112-.917-3.325.8438548.0993735 1.6719562.3039632 2.465.609.5097794.2194996 1.0864577.2245456 1.6.014.8016378-.315758 1.6428205-.5199972 2.5-.607zm-50.286-8.016h54c.5522847 0 1 .44771525 1 1s-.4477153 1-1 1h-54c-.55228475 0-1-.44771525-1-1s.44771525-1 1-1z"/><path id="Shape" d="m25 34c0 5.131 2.149 9 5 9s5-3.869 5-9-2.149-9-5-9-5 3.869-5 9zm8 0c0 4.006-1.584 7-3 7s-3-2.994-3-7 1.584-7 3-7 3 2.994 3 7z"/></g></g></g></svg>