<?xml version="1.0"?>
<svg xmlns="http://www.w3.org/2000/svg" id="Fill_out_line" data-name="Fill out line" viewBox="0 0 512 512" width="512" height="512"><path d="M264,341.67V464a24.00619,24.00619,0,0,1-24,24H112a24.00619,24.00619,0,0,1-24-24V341.67A227.63775,227.63775,0,0,1,112,240a227.503,227.503,0,0,0,17.91992-49.44A227.69626,227.69626,0,0,0,136,138.33V40a15.99552,15.99552,0,0,1,16-16h48a15.99552,15.99552,0,0,1,16,16v98.33A227.37733,227.37733,0,0,0,240,240a227.50186,227.50186,0,0,1,17.91992,49.44q1.71021,7.23,2.93018,14.56A226.75443,226.75443,0,0,1,264,341.67Z" style="fill:#b61d43"/><path d="M264,341.67V440H88V341.67A226.75443,226.75443,0,0,1,91.1499,304H260.8501A226.75443,226.75443,0,0,1,264,341.67Z" style="fill:#eebe33"/><rect x="136" y="104" width="80" height="48" style="fill:#eebe33"/><path d="M216,40V72H136V40a15.99552,15.99552,0,0,1,16-16h48A15.99552,15.99552,0,0,1,216,40Z" style="fill:#eebe33"/><path d="M184,333.25483V456a32,32,0,0,1-32,32H56a32,32,0,0,1-32-32V333.25483a32,32,0,0,1,9.37258-22.62741l13.25484-13.25484A32,32,0,0,0,56,274.74517V264h96v10.74517a32,32,0,0,0,9.37258,22.62741l13.25484,13.25484A32,32,0,0,1,184,333.25483Z" style="fill:#c4d4e0"/><rect x="32" y="224" width="144" height="40" rx="19.99998" ry="19.99998" style="fill:#2f4054"/><rect x="24" y="336" width="160" height="112" style="fill:#e44b4d"/><ellipse cx="104" cy="392" rx="56" ry="32" style="fill:#eedc9a"/><rect x="392" y="40" width="16" height="24" style="fill:#966342"/><rect x="336" y="456" width="128" height="32" style="fill:#966342"/><path d="M488,436a20.00682,20.00682,0,0,1-20,20H332a19.94215,19.94215,0,0,1-17.5498-10.42993A19.70139,19.70139,0,0,1,312,436a20.00682,20.00682,0,0,1,20-20H468a19.703,19.703,0,0,1,9.56982,2.45A19.94257,19.94257,0,0,1,488,436Z" style="fill:#ad7d4d"/><path d="M480,396a20.00682,20.00682,0,0,1-20,20H340a19.94215,19.94215,0,0,1-17.5498-10.42993A19.70139,19.70139,0,0,1,320,396a20.00682,20.00682,0,0,1,20-20H460a19.703,19.703,0,0,1,9.56982,2.45A19.94257,19.94257,0,0,1,480,396Z" style="fill:#ad7d4d"/><path d="M456,376H344l1.6001-8L349.02,350.90991A565.84509,565.84509,0,0,0,360,240h80q0,27.93018,2.75,55.72,2.74512,27.765,8.23,55.18994L454.3999,368Z" style="fill:#ad7d4d"/><path d="M456,224a15.97876,15.97876,0,0,1-16,16H360a15.97259,15.97259,0,0,1-14.58008-9.41992A15.73476,15.73476,0,0,1,344,224a15.97876,15.97876,0,0,1,16-16h80a15.7356,15.7356,0,0,1,6.58008,1.41992A15.97285,15.97285,0,0,1,456,224Z" style="fill:#ad7d4d"/><path d="M456,168a15.97876,15.97876,0,0,1-16,16H360a15.97259,15.97259,0,0,1-14.58008-9.41992A15.73476,15.73476,0,0,1,344,168a15.97876,15.97876,0,0,1,16-16h80a15.7356,15.7356,0,0,1,6.58008,1.41992A15.97285,15.97285,0,0,1,456,168Z" style="fill:#ad7d4d"/><rect x="360" y="184" width="80" height="24" style="fill:#966342"/><rect x="360" y="112" width="80" height="40" style="fill:#966342"/><path d="M464,93.39014A34.62061,34.62061,0,0,1,429.39014,128H370.60986a34.61586,34.61586,0,0,1-15.48-65.57007A60.97278,60.97278,0,0,1,382.39014,56h35.21972a60.97465,60.97465,0,0,1,27.26026,6.42993A34.646,34.646,0,0,1,464,93.39014Z" style="fill:#ad7d4d"/><circle cx="400" cy="40" r="16" style="fill:#ad7d4d"/><rect x="208" y="456" width="128" height="32" style="fill:#379ec3"/><path d="M184,360l42.74517-42.74517a64,64,0,0,1,90.50966,0L360,360Z" style="fill:#eedc9a"/><path d="M296,464H248c-44.18278,0-88-35.81722-88-80V360H384v24C384,428.18278,340.18278,464,296,464Z" style="fill:#8acce7"/><path d="M152,480H56a24.0275,24.0275,0,0,1-24-24H160V440H32V344H168V328H32.58105a23.83538,23.83538,0,0,1,6.44922-11.71582l13.25391-13.25391A39.74237,39.74237,0,0,0,64,274.74512V272h80v2.74512a39.74237,39.74237,0,0,0,11.71582,28.28515l13.25391,13.25391a23.856,23.856,0,0,1,6.7041,13.0293l15.7832-2.627a39.77433,39.77433,0,0,0-11.17285-21.71679l-13.25391-13.25391A23.84267,23.84267,0,0,1,160,274.74512v-3.0354A27.99834,27.99834,0,0,0,156,216H52a27.99834,27.99834,0,0,0-4,55.70972v3.0354a23.84267,23.84267,0,0,1-7.03027,16.9707L27.71582,304.96973A39.74237,39.74237,0,0,0,16,333.25488V456a40.04584,40.04584,0,0,0,40,40h96a40.145,40.145,0,0,0,34.64355-19.99414l-13.8496-8.01172A24.0993,24.0993,0,0,1,152,480ZM40,244a12.01312,12.01312,0,0,1,12-12H156a12,12,0,0,1,0,24H52A12.01312,12.01312,0,0,1,40,244Z"/><path d="M104,368a79.29484,79.29484,0,0,1,29.03809,5.167l5.92382-14.86328A95.39073,95.39073,0,0,0,104,352c-35.8877,0-64,17.57031-64,40s28.1123,40,64,40a95.39073,95.39073,0,0,0,34.96191-6.30371L133.03809,410.833A79.29484,79.29484,0,0,1,104,416c-28.28711,0-48-12.64844-48-24S75.71289,368,104,368Z"/><path d="M142.99243,160h66.03516a236.66441,236.66441,0,0,0,23.81714,83.57812,220.06342,220.06342,0,0,1,12.60254,30.873l15.23046-4.90234a236.03044,236.03044,0,0,0-13.52246-33.127A220.44424,220.44424,0,0,1,224,138.334V40a24.0275,24.0275,0,0,0-24-24H152a24.0275,24.0275,0,0,0-24,24v98.334a219.3229,219.3229,0,0,1-8.22363,59.4961l15.40039,4.33984A235.35694,235.35694,0,0,0,142.99243,160Zm.93091-16c.04565-1.8877.07666-3.77637.07666-5.666V112h64v26.334c0,1.88868.03735,3.77759.0835,5.666ZM144,96V80h64V96Zm8-64h48a8.00917,8.00917,0,0,1,8,8V64H144V56h48V40H144A8.00917,8.00917,0,0,1,152,32Z"/><path d="M496,436a28.00089,28.00089,0,0,0-13.21191-23.76074,27.97178,27.97178,0,0,0-20.20459-44.11548l-3.75635-18.781A558.90489,558.90489,0,0,1,448.041,246.60986,23.99529,23.99529,0,0,0,448,201.37622V190.62378a23.99486,23.99486,0,0,0,0-45.24756V131.71289a42.60326,42.60326,0,0,0,.44531-76.43457,69.34625,69.34625,0,0,0-25.88525-7.09082,24,24,0,1,0-45.12012,0,69.35613,69.35613,0,0,0-25.88623,7.09082A42.60365,42.60365,0,0,0,352,131.71289v13.66333a23.99486,23.99486,0,0,0,0,45.24756v10.75244a23.99553,23.99553,0,0,0-.05908,45.22754,559.50548,559.50548,0,0,1-5.54737,72.2644l15.83985,2.26368A575.94868,575.94868,0,0,0,367.92871,248H432.061A574.95919,574.95919,0,0,0,443.1377,352.48145L446.24121,368H408v16h52a12,12,0,0,1,0,24H400v16h68a12,12,0,0,1,0,24H376v16h80v16H360v16H464a8.00039,8.00039,0,0,0,8-8V463.70972A28.03935,28.03935,0,0,0,496,436ZM432,192v8H368v-8ZM400,32a8,8,0,1,1-8,8A8.00917,8.00917,0,0,1,400,32ZM344,93.38965a26.46487,26.46487,0,0,1,14.709-23.79981A53.21431,53.21431,0,0,1,382.38672,64h35.22656A53.21914,53.21914,0,0,1,441.29,69.58887,26.61016,26.61016,0,0,1,429.38965,120h-58.7793A26.64068,26.64068,0,0,1,344,93.38965ZM370.61035,136h58.7793c.87744,0,1.74609-.03516,2.61035-.08765V144H368v-8.08765C368.86426,135.96484,369.73291,136,370.61035,136ZM360,160h80a8,8,0,0,1,0,16H360a8,8,0,0,1,0-16Zm0,56h80a8,8,0,0,1,0,16H360a8,8,0,0,1,0-16Z"/><path d="M384,352H363.31445l-40.40234-40.40234a72.08353,72.08353,0,0,0-101.82422,0L180.68555,352H160a8.00039,8.00039,0,0,0-8,8v24c0,23.27148,10.708,45.49512,30.15137,62.57812A103.2146,103.2146,0,0,0,200,459.14722V488a8.00039,8.00039,0,0,0,8,8H336a8.00039,8.00039,0,0,0,8-8V459.14722a103.22417,103.22417,0,0,0,17.84863-12.5691C381.292,429.49512,392,407.27148,392,384V360A8.00039,8.00039,0,0,0,384,352ZM232.40234,322.91211a56.05985,56.05985,0,0,1,79.19532,0L340.68555,352H203.31445ZM328,480H216V466.36816A96.52182,96.52182,0,0,0,248,472h48a96.52182,96.52182,0,0,0,32-5.63184Zm48-96c0,18.60156-8.77637,36.55762-24.71191,50.55859C335.7793,448.18457,315.62793,456,296,456H248c-19.62793,0-39.7793-7.81543-55.28809-21.44141C176.77637,420.55762,168,402.60156,168,384V368H376Z"/></svg>
