<svg height="511pt" viewBox="-26 0 511 511.998" width="511pt" xmlns="http://www.w3.org/2000/svg"><path d="m452.957031 288.859375c0 119.09375-96.546875 215.640625-215.640625 215.640625-119.097656 0-215.644531-96.546875-215.644531-215.640625 0-119.097656 96.546875-215.640625 215.644531-215.640625 119.09375 0 215.640625 96.542969 215.640625 215.640625zm0 0" fill="#ffce8b"/><path d="m425.347656 288.859375c0 103.847656-84.183594 188.03125-188.03125 188.03125-103.851562 0-188.035156-84.183594-188.035156-188.03125s84.183594-188.035156 188.035156-188.035156c103.847656 0 188.03125 84.1875 188.03125 188.035156zm0 0" fill="#ffe8ca"/><path d="m425.347656 288.859375c0 103.847656-84.183594 188.03125-188.03125 188.03125-103.851562 0-188.035156-84.183594-188.035156-188.03125s84.183594-188.035156 188.035156-188.035156c103.847656 0 188.03125 84.1875 188.03125 188.035156zm0 0" fill="#ffe8ca"/><path d="m149.308594 284.90625v113.820312c0 9.445313 7.660156 17.105469 17.109375 17.105469 9.445312 0 17.105469-7.660156 17.105469-17.105469v-4.335937c0-12.3125 9.980468-22.292969 22.289062-22.292969 12.3125 0 22.292969 9.980469 22.292969 22.292969v24.5625c0 12.757813 10.34375 23.105469 23.101562 23.105469 12.757813 0 23.101563-10.34375 23.101563-23.105469v-57.667969c0-7.511718 6.09375-13.601562 13.605468-13.601562 7.511719 0 13.601563 6.089844 13.601563 13.601562v10.253906c0 8.667969 7.027344 15.695313 15.691406 15.695313 8.667969 0 15.695313-7.027344 15.695313-15.695313v-86.632812zm0 0" fill="#f47e14"/><path d="m272.578125 152.207031 21.722656-119.058593c.796875-4.367188 6-6.261719 9.417969-3.425782l17.148438 14.207032c1.617187 1.339843 2.382812 3.449218 2.003906 5.515624l-21.71875 119.054688c-.796875 4.367188-6 6.261719-9.417969 3.429688l-17.148437-14.210938c-1.617188-1.339844-2.386719-3.449219-2.007813-5.511719zm0 0" fill="#f99223"/><path d="m298.28125 184.21875 21.722656-119.054688c.796875-4.367187 6-6.261718 9.417969-3.429687l17.148437 14.210937c1.617188 1.339844 2.382813 3.449219 2.007813 5.515626l-21.722656 119.054687c-.796875 4.367187-6 6.261719-9.417969 3.429687l-17.148438-14.210937c-1.617187-1.339844-2.382812-3.449219-2.007812-5.515625zm0 0" fill="#ffaf50"/><path d="m328.019531 189.417969 89.863281-81.0625c3.296876-2.972657 8.574219-1.300781 9.554688 3.03125l4.910156 21.722656c.464844 2.046875-.214844 4.1875-1.773437 5.59375l-89.859375 81.058594c-3.296875 2.972656-8.578125 1.300781-9.554688-3.03125l-4.914062-21.722657c-.460938-2.046874.214844-4.183593 1.773437-5.589843zm0 0" fill="#f99223"/><path d="m328.847656 230.464844 89.863282-81.0625c3.292968-2.972656 8.574218-1.296875 9.554687 3.03125l4.910156 21.722656c.464844 2.050781-.214843 4.1875-1.773437 5.59375l-89.859375 81.0625c-3.296875 2.972656-8.578125 1.296875-9.554688-3.03125l-4.914062-21.722656c-.464844-2.046875.214843-4.1875 1.773437-5.59375zm0 0" fill="#ffaf50"/><path d="m139.207031 142.070312c0 36.230469-29.371093 65.601563-65.605469 65.601563-36.230468 0-65.601562-29.371094-65.601562-65.601563 0-36.230468 29.371094-65.601562 65.601562-65.601562 36.234376 0 65.605469 29.371094 65.605469 65.601562zm0 0" fill="#ff4a59"/><path d="m139.207031 142.074219c0 36.226562-29.371093 65.597656-65.597656 65.597656-4.308594 0-8.523437-.417969-12.601563-1.21875 30.207032-5.875 52.996094-32.472656 52.996094-64.378906 0-31.914063-22.785156-58.515625-52.996094-64.390625 4.078126-.800782 8.292969-1.21875 12.601563-1.21875 36.226563 0 65.597656 29.375 65.597656 65.609375zm0 0" fill="#f92f41"/><path d="m138.210938 50.464844c0 7.507812 1.929687 14.558594 5.3125 20.699218-11.375 10.28125-18.527344 25.148438-18.527344 41.6875 0 31.027344 25.152344 56.183594 56.183594 56.183594 31.027343 0 56.179687-25.15625 56.179687-56.183594 0-16.539062-7.148437-31.40625-18.523437-41.6875 3.378906-6.140624 5.308593-13.191406 5.308593-20.699218 0-23.726563-19.238281-42.964844-42.964843-42.964844-23.730469 0-42.96875 19.234375-42.96875 42.964844zm0 0" fill="#a4e540"/><path d="m237.289062 115.699219c-1.460937 29.664062-26.292968 53.273437-55.996093 53.332031-4.371094.011719-8.625-.480469-12.710938-1.414062 24.957031-5.726563 43.574219-28.074219 43.574219-54.765626 0-12.664062-4.195312-24.351562-11.269531-33.753906-3.8125-5.066406-4.957031-11.578125-3.347657-17.710937.914063-3.488281 1.402344-7.148438 1.402344-10.925781 0-19.339844-12.777344-35.691407-30.359375-41.082032 5.886719-1.800781 12.328125-2.386718 18.957031-1.414062 20.472657 2.996094 36.007813 20.578125 36.585938 41.261718.222656 7.976563-1.722656 15.464844-5.289062 21.929688 12.019531 10.878906 19.328124 26.867188 18.453124 44.542969zm0 0" fill="#8ec737"/><path d="m370.582031 212.832031h-266.535156v69.414063c0 35.191406 28.523437 63.714844 63.714844 63.714844h42.949219c15.417968 0 29.546874-5.476563 40.5625-14.59375 12.15625-10.054688 27.644531-15.199219 43.421874-15.199219h13.683594c34.355469 0 62.203125-27.851563 62.203125-62.203125zm0 0" fill="#ff808a"/><path d="m370.582031 212.832031v41.136719c0 34.355469-27.851562 62.195312-62.207031 62.195312h-10.417969c28.976563-5.296874 50.941407-30.675781 50.941407-61.1875v-42.144531zm0 0" fill="#ff6672"/><path d="m308.378906 150.628906h-140.617187c-35.1875 0-63.714844 28.527344-63.714844 63.714844v26.773438c0 35.1875 28.527344 63.710937 63.714844 63.710937h42.953125c15.414062 0 29.542968-5.476563 40.5625-14.589844 12.15625-10.058593 27.640625-15.203125 43.417968-15.203125h13.683594c34.355469 0 62.203125-27.851562 62.203125-62.203125 0-34.355469-27.847656-62.203125-62.203125-62.203125zm0 0" fill="#d68a5a"/><path d="m286.898438 275.035156c34.351562 0 62.191406-27.851562 62.191406-62.207031 0-17.175781-6.957032-32.726563-18.210938-43.984375-11.253906-11.253906-26.804687-18.210938-43.980468-18.210938h21.484374c17.179688 0 32.730469 6.957032 43.984376 18.210938 11.253906 11.257812 18.210937 26.808594 18.210937 43.988281 0 34.355469-27.839844 62.207031-62.195313 62.207031h-21.484374zm0 0" fill="#c47a4a"/><path d="m435.457031 186.195312.96875-.875c3.566407-3.21875 5.128907-8.132812 4.066407-12.816406l-4.914063-21.722656c-.386719-1.710938-1.085937-3.277344-2.035156-4.65625l2.054687-1.855469c3.566406-3.21875 5.128906-8.128906 4.066406-12.816406l-4.914062-21.722656c-1.050781-4.65625-4.398438-8.304688-8.953125-9.746094-4.554687-1.445313-9.390625-.398437-12.9375 2.800781l-24.359375 21.976563c-10.875-10.023438-22.734375-18.964844-35.339844-26.636719l2.796875-15.320312c.859375-4.726563-.902343-9.570313-4.601562-12.632813l-17.148438-14.210937c-1.347656-1.117188-2.859375-1.9375-4.453125-2.449219l.496094-2.71875c.863281-4.730469-.898438-9.570313-4.597656-12.636719l-17.148438-14.210938c-3.679687-3.046874-8.554687-3.890624-13.042968-2.257812-4.488282 1.632812-7.683594 5.417969-8.539063 10.117188l-6.933594 37.992187c-13.992187-2.707031-28.316406-4.078125-42.675781-4.078125-2.691406 0-5.394531.0625-8.09375.160156 1.589844-4.964844 2.421875-10.167968 2.421875-15.414062.003906-27.824219-22.636719-50.464844-50.460937-50.464844-27.828126 0-50.46875 22.640625-50.46875 50.464844 0 6.5625 1.289062 13.074218 3.757812 19.113281-4.992188 5.394531-8.96875 11.589844-11.824219 18.265625-13.34375-12.109375-30.667969-18.878906-49.042969-18.878906-12.550781 0-24.957031 3.257812-35.871093 9.414062-3.605469 2.035156-4.878907 6.609375-2.84375 10.21875 2.035156 3.609375 6.609375 4.882813 10.214843 2.847656 8.667969-4.894531 18.523438-7.480468 28.5-7.480468 17.265626 0 33.355469 7.535156 44.441407 20.703125-.355469 2.703125-.546875 5.433593-.546875 8.183593 0 14.785157 5.011718 28.796876 14.21875 40.109376-15.355469 9.054687-27.03125 23.695312-32.214844 41.113281-8.070312 4.035156-16.773438 6.097656-25.898438 6.097656-32.039062 0-58.101562-26.066406-58.101562-58.105469 0-9.953125 2.570312-19.785156 7.4375-28.4375 2.03125-3.609375.753906-8.183594-2.855469-10.210937-3.609375-2.03125-8.183593-.753907-10.214843 2.855469-6.128907 10.890624-9.367188 23.269531-9.367188 35.792968 0 24.746094 12.371094 46.648438 31.242188 59.878906-11.65625 27.507813-17.570313 56.71875-17.570313 86.910157 0 52.632812 18.6875 103.742187 52.621094 143.910156 1.480469 1.753906 3.597656 2.660156 5.730469 2.660156 1.710937 0 3.429687-.582031 4.835937-1.773437 3.164063-2.671875 3.5625-7.402344.890625-10.566406-31.648438-37.464844-49.078125-85.136719-49.078125-134.230469 0-27.617188 5.300781-54.34375 15.75-79.554688 3.851563 1.652344 7.878906 2.960938 12.035156 3.933594-10.066406 23.941406-15.175781 49.34375-15.175781 75.621094 0 107.816406 87.714844 195.535156 195.53125 195.535156s195.535156-87.71875 195.535156-195.535156c0-29.238281-6.292968-57.292969-18.679687-83.460938l9.761719-8.804687c14.09375 28.5 21.523437 60.246094 21.523437 92.265625 0 114.769531-93.371094 208.140625-208.140625 208.140625-49.441406 0-97.371094-17.644532-134.957031-49.691406-3.148438-2.6875-7.882813-2.3125-10.570313.839843-2.6875 3.152344-2.3125 7.886719.839844 10.574219 40.296875 34.355469 91.683594 53.277344 144.6875 53.277344 59.605469 0 115.640625-23.210938 157.785156-65.355469 42.148438-42.144531 65.355469-98.179687 65.355469-157.78125.003906-35.734375-8.648437-71.148437-24.996094-102.664063zm-57.375 31.550782v-4.914063c0-5.207031-.589843-10.277343-1.679687-15.164062l45.183594-40.757813 4.058593 17.933594zm-33.257812-73.921875c4.085937 3.035156 8.042969 6.265625 11.859375 9.632812l-5.179688 4.675781c-2.613281-2.066406-5.371094-3.945312-8.265625-5.621093zm75.933593-27.964844 4.058594 17.9375-53.785156 48.515625c-2.398438-4.902344-5.355469-9.488281-8.789062-13.667969zm-43.4375 18.984375-9.414062 8.492188c-6.34375-5.695313-13.09375-11.011719-20.109375-15.820313l2.464844-13.503906c9.554687 6.1875 18.625 13.160156 27.058593 20.832031zm-36.296874-53.753906-11.898438 65.191406c-5.03125-1.570312-10.3125-2.566406-15.757812-2.953125l13.496093-73.972656zm-39.863282-43.746094 14.15625 11.730469-17.160156 94.054687h-16.296875zm-56.300781 75.507812c0-1.460937-.066406-2.910156-.167969-4.359374 9.308594.375 18.566406 1.445312 27.648438 3.230468l-5.730469 31.40625h-29.429687c4.992187-9.246094 7.679687-19.660156 7.679687-30.277344zm32.4375-28.296874-2.265625 12.410156c-10.910156-2.128906-22.054688-3.324219-33.246094-3.578125-1.421875-4.410157-3.316406-8.652344-5.652344-12.652344.394532-.003906.789063-.015625 1.183594-.015625 13.453125 0 26.875 1.289062 39.980469 3.835938zm-144.800781 28.296874c0-13.738281 5.851562-26.902343 16.054687-36.125 2.582031-2.332031 3.21875-6.132812 1.542969-9.179687-2.867188-5.203125-4.382812-11.109375-4.382812-17.082031 0-19.554688 15.910156-35.464844 35.46875-35.464844 19.554687 0 35.464843 15.910156 35.464843 35.464844 0 5.972656-1.515625 11.878906-4.378906 17.082031-1.679687 3.046875-1.042969 6.847656 1.539063 9.179687 10.203124 9.222657 16.054687 22.390626 16.054687 36.125 0 10.992188-3.753906 21.703126-10.570313 30.277344h-30.609374v-76.878906c0-4.144531-3.359376-7.5-7.5-7.5-4.144532 0-7.5 3.355469-7.5 7.5v76.878906h-5.917969c-7.574219 0-14.867188 1.199219-21.71875 3.398438-8.734375-9.105469-13.546875-21.015625-13.546875-33.675782zm35.265625 45.277344h140.617187c30.164063 0 54.703125 24.539063 54.703125 54.703125 0 30.164063-24.539062 54.703125-54.703125 54.703125h-13.683594c-17.894531 0-35.011718 6.011719-48.199218 16.921875-9.929688 8.21875-22.011719 12.660157-34.933594 12.855469-4.140625.058594-7.445312 3.46875-7.386719 7.609375.0625 4.101563 3.40625 7.386719 7.496094 7.386719h.117187c16.136719-.238282 31.859376-6.023438 44.265626-16.292969 10.511718-8.691406 24.230468-13.480469 38.640624-13.480469h13.683594c22.132813 0 41.875-10.378906 54.652344-26.515625-1.085938 29.214844-25.175781 52.648438-54.652344 52.648438h-13.683594c-17.890624 0-35.007812 6.011719-48.199218 16.925781-10.03125 8.300781-22.742188 12.871094-35.78125 12.871094h-42.953125c-30.125 0-54.789063-23.824219-56.148438-53.621094 13.042969 16.710938 33.355469 27.488281 56.148438 27.488281h8.519531c4.140625 0 7.5-3.359375 7.5-7.5 0-4.144531-3.359375-7.5-7.5-7.5h-8.519531c-30.996094 0-56.214844-25.21875-56.214844-56.214843v-26.773438c0-30.996094 25.21875-56.214844 56.214844-56.214844zm120.152343 182.054688c-11.636718 0-21.105468 9.46875-21.105468 21.101562v57.667969c0 8.605469-7 15.605469-15.601563 15.605469-8.605469 0-15.601562-7-15.601562-15.605469v-24.5625c0-16.429687-13.363281-29.792969-29.792969-29.792969-16.425781 0-29.792969 13.363282-29.792969 29.792969v4.335937c0 5.296876-4.308593 9.605469-9.605469 9.605469-5.292968 0-9.605468-4.308593-9.605468-9.605469v-46.105468c3.570312.550781 7.230468.84375 10.953125.84375h42.949219c16.527343 0 32.628906-5.792969 45.34375-16.3125 10.507812-8.695313 24.230468-13.480469 38.640624-13.480469h13.683594c5.871094 0 11.574219-.738281 17.023438-2.113281v49.984375c0 4.519531-3.675782 8.191406-8.195313 8.191406-4.515625 0-8.191406-3.675781-8.191406-8.191406v-10.253907c0-11.640624-9.46875-21.105468-21.101563-21.105468zm129.933594-51.324219c0 99.546875-80.988281 180.53125-180.53125 180.53125-99.546875 0-180.535156-80.984375-180.535156-180.53125 0-25.703125 5.292969-50.488281 15.699219-73.714844.375.007813.746093.027344 1.121093.027344 7.828126 0 15.625-1.273437 23.019532-3.714844-.007813.148438-.007813.304688-.015625.457031-.035157.300782-.058594.605469-.058594.917969v69.414063c0 30.113281 18.792969 55.902344 45.261719 66.296875v50.183593c0 13.566407 11.039062 24.605469 24.605468 24.605469 13.566407 0 24.605469-11.039062 24.605469-24.605469v-4.339843c0-8.15625 6.636719-14.789063 14.792969-14.789063s14.789062 6.632813 14.789062 14.789063v24.566406c0 16.875 13.730469 30.601563 30.605469 30.601563s30.601563-13.726563 30.601563-30.601563v-57.667969c0-3.363281 2.738281-6.101562 6.101562-6.101562 3.367188 0 6.101563 2.734375 6.101563 6.101562v10.253906c0 12.789063 10.40625 23.191407 23.195312 23.191407 12.789063 0 23.195313-10.402344 23.195313-23.191407v-55.695312c22.363281-11.621094 37.679687-34.988281 37.679687-61.878906v-16.015625l24.414063-22.023438c10.179687 22.96875 15.351562 47.460938 15.351562 72.933594zm0 0"/><path d="m73.601562 124.332031c4.144532 0 7.5-3.355469 7.5-7.5v-3.449219c0-4.144531-3.355468-7.5-7.5-7.5-4.140624 0-7.5 3.355469-7.5 7.5v3.449219c0 4.144531 3.359376 7.5 7.5 7.5zm0 0"/><path d="m66.101562 170.757812c0 4.144532 3.359376 7.5 7.5 7.5 4.144532 0 7.5-3.355468 7.5-7.5v-3.449218c0-4.144532-3.355468-7.5-7.5-7.5-4.140624 0-7.5 3.355468-7.5 7.5zm0 0"/><path d="m102.292969 149.570312c4.140625 0 7.5-3.355468 7.5-7.5 0-4.144531-3.359375-7.5-7.5-7.5h-3.453125c-4.140625 0-7.5 3.355469-7.5 7.5 0 4.144532 3.359375 7.5 7.5 7.5zm0 0"/><path d="m48.367188 149.570312c4.140624 0 7.5-3.355468 7.5-7.5 0-4.144531-3.359376-7.5-7.5-7.5h-3.453126c-4.140624 0-7.5 3.355469-7.5 7.5 0 4.144532 3.359376 7.5 7.5 7.5zm0 0"/><path d="m180.867188 230.210938c1.917968 0 3.835937-.734376 5.300781-2.199219l21.28125-21.277344c2.929687-2.929687 2.929687-7.679687 0-10.609375-2.929688-2.925781-7.675781-2.925781-10.605469 0l-21.28125 21.28125c-2.929688 2.929688-2.929688 7.679688 0 10.605469 1.464844 1.464843 3.382812 2.199219 5.304688 2.199219zm0 0"/><path d="m226.675781 230.210938c1.917969 0 3.835938-.734376 5.300781-2.199219l21.28125-21.277344c2.929688-2.929687 2.929688-7.679687 0-10.609375-2.925781-2.925781-7.675781-2.925781-10.605468 0l-21.28125 21.28125c-2.929688 2.929688-2.929688 7.679688 0 10.605469 1.464844 1.464843 3.382812 2.199219 5.304687 2.199219zm0 0"/><path d="m272.484375 230.210938c1.917969 0 3.835937-.734376 5.300781-2.199219l21.28125-21.277344c2.929688-2.929687 2.929688-7.679687 0-10.609375-2.929687-2.925781-7.679687-2.925781-10.605468 0l-21.28125 21.28125c-2.929688 2.929688-2.929688 7.679688 0 10.605469 1.464843 1.464843 3.382812 2.199219 5.304687 2.199219zm0 0"/></svg>