<svg id="Capa_1" enable-background="new 0 0 512 512" height="512" viewBox="0 0 512 512" width="512" xmlns="http://www.w3.org/2000/svg"><path d="m512 256c0 78.26-35.12 148.32-90.46 195.28-16.65 14.13-35.14 26.17-55.05 35.7-.01.01-.01 0-.01 0-33.45 16.04-70.91 25.02-110.48 25.02s-77.04-8.98-110.49-25.02c-19.91-9.53-38.4-21.57-55.05-35.7-55.34-46.96-90.46-117.02-90.46-195.28 0-141.38 114.62-256 256-256s256 114.62 256 256z" fill="#f1eee9"/><path d="m459.524 256c0 62.218-27.921 117.917-71.917 155.251-13.237 11.233-27.937 20.806-43.766 28.382-.008.008-.008 0-.008 0-26.593 12.752-56.375 19.891-87.833 19.891s-61.248-7.139-87.841-19.891c-15.829-7.577-30.529-17.149-43.766-28.382-43.996-37.334-71.917-93.033-71.917-155.251 0-112.399 91.125-203.524 203.524-203.524s203.524 91.125 203.524 203.524z" fill="#d8d4ce"/><circle cx="93.131" cy="180.429" fill="#ffbb16" r="43.895"/><circle cx="200.153" cy="447.009" fill="#ffbb16" r="43.895"/><circle cx="193.655" cy="73.175" fill="#ffbb16" r="43.895"/><ellipse cx="100.838" cy="209.629" fill="#67c846" rx="18.955" ry="58.707" transform="matrix(.921 -.389 .389 .921 -73.537 55.661)"/><ellipse cx="82.433" cy="221.918" fill="#49a61f" rx="18.955" ry="58.707" transform="matrix(.712 -.702 .702 .712 -132.077 121.776)"/><ellipse cx="69.271" cy="241.604" fill="#67c846" rx="18.955" ry="58.707" transform="matrix(.377 -.926 .926 .377 -180.628 214.746)"/><ellipse cx="209.723" cy="83.073" fill="#67c846" rx="44.934" ry="14.508" transform="matrix(.104 -.995 .995 .104 105.259 283.003)"/><ellipse cx="192.846" cy="84.516" fill="#49a61f" rx="14.508" ry="44.934" transform="matrix(.963 -.272 .272 .963 -15.701 55.522)"/><ellipse cx="176.752" cy="92.853" fill="#67c846" rx="14.508" ry="44.934" transform="matrix(.777 -.63 .63 .777 -19.03 132)"/><ellipse cx="152.858" cy="432.999" fill="#67c846" rx="18.955" ry="58.707" transform="matrix(.983 -.186 .186 .983 -77.67 35.871)"/><ellipse cx="173.442" cy="424.868" fill="#49a61f" rx="18.955" ry="58.707" transform="matrix(.844 -.536 .536 .844 -200.748 159.205)"/><ellipse cx="190.46" cy="408.402" fill="#67c846" rx="18.955" ry="58.707" transform="matrix(.564 -.826 .826 .564 -254.237 335.522)"/><circle cx="421.489" cy="180.429" fill="#ffbb16" r="43.895"/><circle cx="314.467" cy="447.009" fill="#ffbb16" r="43.895"/><circle cx="320.965" cy="73.175" fill="#ffbb16" r="43.895"/><ellipse cx="413.782" cy="209.629" fill="#67c846" rx="58.707" ry="18.955" transform="matrix(.389 -.921 .921 .389 59.832 509.428)"/><ellipse cx="432.187" cy="221.918" fill="#49a61f" rx="58.707" ry="18.955" transform="matrix(.702 -.712 .712 .702 -29.278 373.851)"/><ellipse cx="445.349" cy="241.604" fill="#67c846" rx="58.707" ry="18.955" transform="matrix(.926 -.377 .377 .926 -58.209 185.588)"/><ellipse cx="304.897" cy="83.073" fill="#67c846" rx="14.508" ry="44.934" transform="matrix(.995 -.104 .104 .995 -6.994 32.209)"/><ellipse cx="321.774" cy="84.516" fill="#49a61f" rx="44.934" ry="14.508" transform="matrix(.272 -.963 .963 .272 153.085 371.266)"/><ellipse cx="337.868" cy="92.853" fill="#67c846" rx="44.934" ry="14.508" transform="matrix(.63 -.777 .777 .63 53.004 296.884)"/><ellipse cx="361.762" cy="432.999" fill="#67c846" rx="58.707" ry="18.955" transform="matrix(.186 -.983 .983 .186 -130.83 708.158)"/><ellipse cx="341.178" cy="424.868" fill="#49a61f" rx="58.707" ry="18.955" transform="matrix(.536 -.844 .844 .536 -200.383 485.09)"/><ellipse cx="324.16" cy="408.402" fill="#67c846" rx="58.707" ry="18.955" transform="matrix(.826 -.564 .564 .826 -173.799 253.776)"/><path d="m136.287 454.331h-36.384c0-34.857-81.848-100.035-81.848-154.592 0-35.267 16.465-61.68 43.254-66.523.194-.034.387-.068.581-.103 7.76-1.311 16.386-.821 25.707 1.766 16.955 4.717 30.846 16.762 38.56 32.578 36.543 74.944 10.13 186.874 10.13 186.874z" fill="#d9723e"/><path d="m119.639 454.331h-19.736c0-34.857-81.848-100.035-81.848-154.592 0-35.267 16.465-61.68 43.254-66.523-33.044 7.282 42.127 183.957 58.33 221.115z" fill="#bd5423"/><path d="m159.02 467.22c0 9-5.6 16.69-13.51 19.76-19.91-9.53-38.4-21.57-55.05-35.7 3.73-3.29 8.63-5.28 13.99-5.28 6.77 0 12.79 3.18 16.68 8.12 3.88-4.94 9.9-8.12 16.67-8.12 11.72 0 21.22 9.5 21.22 21.22z" fill="#fff"/><path d="m143.864 170.146c-37.899 17.422-66.693-17.434-53.806-65.942 12.876-48.496 43.95-48.496 31.062-79.569-7.315-17.65.536-26.504 10.905-24.305h.023c7.874 1.675 17.195 9.697 22.425 25.068 12.124 35.609 30.31 103.818-10.609 144.748z" fill="#d9723e"/><path d="m493.945 299.739c0 54.558-81.848 119.736-81.848 154.592h-36.383s-26.413-111.931 10.13-186.874c7.714-15.816 21.604-27.86 38.56-32.578 8.193-2.279 15.85-2.928 22.858-2.154.957.091 1.914.228 2.849.388.194.034.387.068.581.103 26.788 4.843 43.253 31.256 43.253 66.523z" fill="#d9723e"/><path d="m406.98 168.574c-10.141 7.167-23.769 8.501-38.845 1.573-40.919-40.93-22.732-109.139-10.609-144.748 5.994-17.616 17.366-25.593 25.775-25.388 3.27.068 6.096 1.379 7.976 3.84l.023.023c3.042 4.011 3.601 11.053-.422 20.761-12.887 31.073 18.186 31.073 31.062 79.569 7.762 29.217.401 53.488-14.96 64.37z" fill="#d9723e"/><circle cx="256" cy="417.958" fill="#d9723e" r="31.852"/><path d="m256 449.806c-17.593 0-31.848-14.255-31.848-31.848 0-17.594 14.255-31.848 31.848-31.848-5.128 0-9.275 14.255-9.275 31.848s4.147 31.848 9.275 31.848z" fill="#bd5423"/><path d="m447.261 232.726c-27.655 2.313-47.072 158.535-53.795 221.605h-17.753s-26.413-111.931 10.13-186.874c7.714-15.816 21.604-27.86 38.56-32.578 8.193-2.278 15.85-2.927 22.858-2.153z" fill="#bd5423"/><path d="m421.54 451.28c-16.65 14.13-35.14 26.17-55.05 35.7-.01.01-.01 0-.01 0-7.91-3.08-13.5-10.77-13.5-19.76 0-11.72 9.5-21.22 21.22-21.22 6.77 0 12.79 3.18 16.67 8.12 3.89-4.94 9.91-8.12 16.68-8.12 5.36 0 10.26 1.99 13.99 5.28z" fill="#fff"/><path d="m406.98 168.574c-10.141 7.167-23.769 8.501-38.845 1.573-40.919-40.93-22.732-109.139-10.609-144.748 5.994-17.616 17.366-25.593 25.775-25.388l6.096 2.94c-14.255.08-31.62 147.425 17.559 165.611.013 0 .013.012.024.012z" fill="#bd5423"/><path d="m414.021 276.124c0-97.521-70.748-211.321-158.021-211.321s-158.021 113.799-158.021 211.321 70.748 141.834 158.021 141.834 158.021-44.313 158.021-141.834z" fill="#d9723e"/><g fill="#bd5423"><path d="m255.99 417.959c-87.272 0-158.011-44.314-158.011-141.83 0-97.528 70.739-211.327 158.011-211.327-40.189 0-72.767 113.799-72.767 211.327 0 97.516 32.578 141.83 72.767 141.83z"/><path d="m143.864 170.146c-37.899 17.422-66.693-17.434-53.806-65.942 12.876-48.496 43.95-48.496 31.062-79.569-7.315-17.65.536-26.504 10.905-24.305-14.654.057 12.591 48.564 4.638 73.565-7.954 25.011-15.155 54.945 7.201 96.251z"/><path d="m391.29 3.863-1.88-.911c.627 0 1.253.285 1.869.9z"/><circle cx="211.126" cy="324.494" r="9.644"/><circle cx="186.82" cy="298.68" r="9.644"/><circle cx="220.089" cy="291.016" r="9.644"/><circle cx="450.62" cy="262.069" r="9.644"/><circle cx="424.515" cy="282.224" r="9.644"/><circle cx="447.149" cy="294.377" r="9.644"/><circle cx="70.994" cy="266.816" r="9.644"/><circle cx="75.769" cy="293.736" r="9.644"/><circle cx="308.08" cy="119.521" r="9.644"/><circle cx="337.63" cy="140.112" r="9.644"/><circle cx="308.257" cy="149.631" r="9.644"/><circle cx="344.255" cy="366.624" r="9.644"/><circle cx="367.304" cy="345.575" r="9.644"/><circle cx="340.301" cy="334.56" r="9.644"/></g></svg>