<svg id="Capa_1" enable-background="new 0 0 64 64" height="512" viewBox="0 0 64 64" width="512" xmlns="http://www.w3.org/2000/svg"><g id="Layer_2"><path d="m25 63h-4l-2-13h8z" fill="#ffd3b6"/><path d="m39 63h4l2-13h-8z" fill="#ffd3b6"/><path d="m37 50 1.66 10.81c.436.125.887.189 1.34.19 1.321-.001 2.589-.522 3.53-1.45l1.47-9.55zm-18 0 1.47 9.55c.941.928 2.209 1.449 3.53 1.45.453-.001.904-.065 1.34-.19l1.66-10.81z" fill="#f9b995"/><path d="m55 38c-.004-2.096-1.317-3.965-3.287-4.68 1.838-2.022 1.689-5.151-.333-6.99-.334-.304-.708-.56-1.111-.762 1.433-2.343.696-5.404-1.647-6.837-.789-.483-1.697-.736-2.622-.731h-28c-2.746-.015-4.985 2.2-5 4.946-.005.925.248 1.833.731 2.622-2.443 1.224-3.431 4.198-2.206 6.641.202.404.459.777.762 1.111-2.585.932-3.924 3.784-2.991 6.368.379 1.049 1.099 1.941 2.045 2.532-.83 2.118-.103 4.529 1.759 5.836-.522 2.712 1.253 5.333 3.965 5.855.643.124 1.304.12 1.945-.011 0 .035-.01.067-.01.1-.012 2.75 2.208 4.989 4.958 5 1.242.005 2.441-.454 3.362-1.287.932 2.585 3.783 3.924 6.368 2.992 1.393-.502 2.49-1.599 2.992-2.992 2.039 1.845 5.187 1.688 7.033-.351.833-.921 1.292-2.12 1.287-3.362 0-.035-.01-.067-.01-.1 2.692.568 5.334-1.153 5.903-3.844.139-.658.143-1.338.012-1.998 1.861-1.308 2.585-3.719 1.754-5.836 1.455-.91 2.34-2.505 2.341-4.222z" fill="#e6e6e6"/><path d="m43 56c-.653 0-1.299-.13-1.9-.384-.797-.331-1.716-.1-2.262.567-1.736 2.119-4.861 2.43-6.98.694-.254-.208-.486-.44-.694-.694-.546-.667-1.465-.898-2.262-.567-.602.254-1.249.384-1.902.384-2.761 0-5-2.239-5-5 0-.035.01-.067.01-.1-.332.068-.671.101-1.01.1-1.184-.03-2.312-.51-3.154-1.342-1.158-.918-1.836-2.311-1.846-3.788-.008-.544-.233-1.062-.625-1.439-.883-.924-1.376-2.153-1.375-3.431 0-.248.02-.495.059-.74.107-.611-.09-1.237-.529-1.676-1.979-1.895-2.047-5.036-.152-7.016.138-.144.285-.28.439-.406.667-.545.898-1.464.568-2.26-.255-.602-.385-1.249-.385-1.902-.001-1.391.585-2.718 1.614-3.654.56-.514.781-1.301.569-2.031-.121-.428-.183-.87-.183-1.315.005-.576.111-1.147.313-1.687-2.578.901-3.937 3.72-3.037 6.298.117.334.269.655.455.957-2.443 1.224-3.431 4.198-2.206 6.641.202.404.459.777.762 1.111-2.585.932-3.924 3.784-2.991 6.368.379 1.049 1.099 1.941 2.045 2.532-.83 2.118-.103 4.529 1.759 5.836-.259 1.352.01 3.084 1.539 4.637.84.831 2.179 1.275 3.361 1.307.339.001.677-.033 1.009-.1 0 .035-.01.067-.01.1-.012 2.75 2.208 4.989 4.958 5 1.242.005 2.441-.454 3.362-1.287.932 2.585 3.783 3.924 6.368 2.992 1.393-.502 2.49-1.599 2.992-2.992 2.027 1.84 5.161 1.689 7.001-.338.445-.49.787-1.064 1.006-1.688-.539.202-1.11.308-1.686.313z" fill="#cecece"/><path d="m42.6 18h-21.2c-2.103 3.195-3.28 6.91-3.4 10.733 0 7.732 6.268 10.267 14 10.267s14-2.535 14-10.267c-.12-3.823-1.297-7.538-3.4-10.733z" fill="#cecece"/><ellipse cx="17" cy="18" fill="#ffd3b6" rx="9" ry="3" transform="matrix(.866 -.5 .5 .866 -6.723 10.912)"/><ellipse cx="47" cy="18" fill="#ffd3b6" rx="3" ry="9" transform="matrix(.5 -.866 .866 .5 7.912 49.704)"/><path d="m46 26.733c0 7.732-6.268 10.267-14 10.267s-14-2.535-14-10.267 6.268-17.733 14-17.733 14 10 14 17.733z" fill="#ffd3b6"/><g fill="#f9b995"><path d="m35 34c-7.732 0-14-2.535-14-10.267.157-4.489 1.745-8.81 4.532-12.333-4.586 3.8-7.328 9.38-7.532 15.333 0 7.732 6.268 10.267 14 10.267 5.667 0 10.537-1.372 12.739-5.144-2.52 1.53-5.951 2.144-9.739 2.144z"/><path d="m32 9c-5.746 0-10.68 5.523-12.838 11.533.566.302 1.197.462 1.838.467.1 0 .2-.013.3-.021.069 0 .134.021.2.021.807.001 1.6-.218 2.292-.633.824-.512 1.893-.388 2.577.3 3.103 3.11 8.14 3.115 11.25.012.004-.004.008-.008.012-.012.684-.688 1.753-.812 2.577-.3.692.415 1.485.634 2.292.633.07 0 .135-.017.2-.021.1.008.2.021.3.021.641-.005 1.272-.165 1.838-.467-2.158-6.01-7.092-11.533-12.838-11.533z"/><path d="m24.794 13.5c-.828-1.435-4.989-.583-9.294 1.9-.164.1-.321.192-.481.288v.019c-.007.1-.021.192-.021.291 0 2.209 1.791 4 4 4h.484c3.74-2.376 6.075-5.176 5.312-6.498z"/><path d="m49 16c0-.1-.014-.194-.021-.291v-.019c-.16-.1-.317-.193-.481-.288-4.3-2.485-8.466-3.337-9.294-1.9-.763 1.322 1.572 4.122 5.31 6.5h.484c2.209.001 4.001-1.789 4.002-3.998 0-.001 0-.003 0-.004z"/></g><path d="m47 14.5c-.001-1.528-.779-2.95-2.064-3.775.042-.239.063-.482.064-.725.011-2.749-2.209-4.987-4.959-4.997-1.098-.004-2.168.355-3.041 1.022 0-.008 0-.017 0-.025 0-2.761-2.239-5-5-5s-5 2.239-5 5v.025c-2.185-1.669-5.309-1.251-6.978.934-.667.873-1.026 1.942-1.022 3.041.001.243.022.486.064.725-1.285.825-2.063 2.247-2.064 3.775 0 .072.018.138.021.209-.007.1-.021.192-.021.291 0 2.209 1.791 4 4 4 .1 0 .2-.013.3-.021.069 0 .134.021.2.021 1.452-.001 2.813-.705 3.653-1.889 2.255 3.781 7.149 5.019 10.93 2.764 1.136-.678 2.086-1.628 2.764-2.764.84 1.184 2.201 1.888 3.653 1.889.07 0 .135-.017.2-.021.1.008.2.021.3.021 2.209 0 4-1.791 4-4 0-.1-.014-.194-.021-.291.003-.071.021-.137.021-.209z" fill="#e6e6e6"/><path d="m46.8 13.194c-.516 1.666-2.056 2.803-3.8 2.806-.1 0-.2-.013-.3-.021-.069 0-.134.021-.2.021-.807.001-1.6-.218-2.292-.633-.824-.512-1.893-.388-2.577.3-3.103 3.11-8.14 3.115-11.25.012-.004-.004-.008-.008-.012-.012-.684-.688-1.753-.812-2.577-.3-.692.415-1.485.634-2.292.633-.07 0-.135-.017-.2-.021-.1.008-.2.021-.3.021-1.744-.003-3.284-1.14-3.8-2.806-.131.423-.199.863-.2 1.306v.5c0 2.209 1.791 4 4 4h.5c1.452-.001 2.813-.705 3.653-1.889 2.255 3.781 7.149 5.019 10.93 2.764 1.136-.678 2.086-1.628 2.764-2.764.84 1.184 2.201 1.888 3.653 1.889h.5c2.209 0 4-1.791 4-4v-.5c-.001-.443-.069-.883-.2-1.306z" fill="#cecece"/><path d="m30.535 30h2.93c.552 0 1 .448 1 1 0 .198-.058.391-.168.555l-1.465 2.2c-.306.459-.927.584-1.387.277-.11-.073-.204-.167-.277-.277l-1.465-2.2c-.307-.459-.183-1.08.277-1.387.164-.11.357-.168.555-.168z" fill="#ff938d"/><path d="m56 38c-.007-2.05-1.06-3.954-2.792-5.05 1.195-2.072 1.026-4.659-.429-6.557-.335-.439-.963-.523-1.402-.188s-.523.963-.188 1.402c.528.686.813 1.528.811 2.393-.005.981-.373 1.926-1.032 2.653-.369.411-.335 1.043.076 1.412.095.085.205.151.324.195 2.066.742 3.139 3.017 2.398 5.083-.303.843-.881 1.559-1.642 2.032-.402.254-.569.756-.4 1.2.668 1.692.089 3.621-1.4 4.665-.317.227-.473.617-.4 1 .418 2.169-1.002 4.267-3.171 4.684-.516.099-1.046.096-1.561-.009-.541-.111-1.069.238-1.18.779-.015.075-.022.151-.02.228 0 .043.005.084.011.126-.016 2.197-1.811 3.966-4.008 3.949-.979-.007-1.92-.375-2.645-1.032-.411-.369-1.043-.335-1.412.076-.085.095-.151.205-.195.324-.742 2.066-3.018 3.138-5.084 2.396-1.116-.401-1.995-1.28-2.396-2.396-.19-.519-.764-.785-1.283-.595-.119.044-.229.11-.324.195-1.626 1.479-4.142 1.359-5.621-.267-.66-.726-1.029-1.67-1.035-2.65 0-.043.01-.095.011-.123.015-.552-.42-1.012-.972-1.027-.076-.002-.153.005-.228.02-2.151.457-4.265-.917-4.722-3.068-.112-.529-.116-1.076-.01-1.607.073-.383-.083-.773-.4-1-1.489-1.044-2.068-2.973-1.4-4.665.169-.444.002-.946-.4-1.2-1.864-1.159-2.435-3.61-1.276-5.473.473-.761 1.189-1.339 2.032-1.642.519-.19.785-.764.595-1.283-.044-.119-.11-.229-.195-.324-.661-.727-1.03-1.673-1.035-2.656-.002-.866.283-1.708.811-2.394.33-.443.238-1.069-.205-1.399-.436-.325-1.051-.242-1.385.186-1.455 1.898-1.624 4.485-.429 6.557-2.79 1.753-3.631 5.436-1.878 8.226.34.542.765 1.025 1.259 1.431-.114.456-.172.923-.173 1.393.005 1.713.742 3.343 2.024 4.479-.016.176-.024.349-.024.521.003 3.312 2.688 5.997 6 6h.083c.158.898.521 1.748 1.061 2.483l.868 5.67c.075.487.495.847.988.847h4c.493 0 .913-.36.988-.848l.579-3.756c.128-.062.258-.117.382-.188 1.753 2.789 5.436 3.629 8.225 1.875.758-.476 1.399-1.117 1.875-1.875.124.071.254.126.382.188l.579 3.756c.075.488.496.849.99.848h4c.493 0 .913-.36.988-.848l.875-5.681c.536-.732.896-1.578 1.054-2.471h.083c3.312-.003 5.997-2.688 6-6 0-.172-.008-.345-.024-.521 1.282-1.136 2.019-2.766 2.024-4.479-.001-.47-.059-.937-.173-1.393 1.378-1.133 2.175-2.823 2.173-4.607zm-31.857 24h-2.285l-.4-2.59c.793.383 1.661.585 2.542.59.153 0 .3-.018.455-.03zm18 0h-2.286l-.312-2.03c.152.012.3.03.455.03.88-.005 1.748-.207 2.54-.59z"/><path d="m11 24.2c.589-.008 1.175-.075 1.75-.2 1.687-.387 3.317-.988 4.85-1.79-.387 1.477-.589 2.996-.6 4.523 0 5.14 2.6 11.267 15 11.267s15-6.127 15-11.267c-.011-1.527-.213-3.046-.6-4.523 1.534.801 3.163 1.403 4.85 1.79.575.125 1.161.192 1.75.2 1.042.135 2.072-.329 2.66-1.2.448-.775.579-2.154-1.34-4.319-1.549-1.648-3.344-3.046-5.32-4.145-.345-.2-.687-.374-1.029-.553-.135-1.455-.848-2.796-1.978-3.722 0-.088.007-.175.007-.261-.006-2.849-2.01-5.303-4.8-5.88-.541-.11-1.07.239-1.18.78s.239 1.07.78 1.18c1.86.384 3.196 2.021 3.2 3.92-.001.187-.018.374-.051.558-.067.394.108.79.444 1.007 1.001.641 1.606 1.747 1.607 2.935v.5c0 1.657-1.343 3-3 3h-.5c-1.128-.005-2.185-.552-2.84-1.471-.191-.28-.515-.439-.853-.417-.336.013-.643.195-.817.483-1.969 3.308-6.248 4.394-9.556 2.424-.997-.594-1.831-1.427-2.424-2.424-.174-.288-.481-.47-.817-.483-.337-.017-.659.141-.853.417-.655.919-1.712 1.466-2.84 1.471h-.5c-1.657 0-3-1.343-3-3v-.5c.001-1.188.606-2.294 1.607-2.935.336-.217.511-.613.444-1.007-.033-.184-.05-.371-.051-.558 0-2.209 1.791-4 4-4 .869.003 1.712.293 2.4.823.441.332 1.068.244 1.4-.197.144-.19.215-.426.2-.664.01-2.209 1.81-3.991 4.019-3.981s3.991 1.81 3.981 4.019c0 .552.448 1 1 1s1-.448 1-1c.002-3.314-2.683-6.001-5.997-6.003-2.712-.001-5.087 1.816-5.795 4.434-.701-.286-1.451-.432-2.208-.431-3.312.003-5.997 2.688-6 6 0 .086 0 .173.007.261-1.13.926-1.843 2.267-1.978 3.722-.342.179-.684.353-1.029.553-1.977 1.099-3.771 2.497-5.32 4.145-1.919 2.165-1.788 3.544-1.34 4.319.588.871 1.618 1.335 2.66 1.2zm36.845-8.013c.053.03.1.054.157.084 1.791.991 3.418 2.253 4.824 3.74 1.128 1.272 1.147 1.917 1.1 1.992s-.609.382-2.277.04c-1.99-.476-3.896-1.255-5.649-2.311-.176-.1-.345-.206-.516-.31-.012-.03-.025-.059-.037-.089 1.198-.675 2.065-1.814 2.396-3.149zm-17.316 14.813h2.936l-1.465 2.2zm-10.05-11.053c.173.027.346.045.521.053h.5c1.299-.003 2.555-.466 3.545-1.307 3.126 3.841 8.774 4.421 12.615 1.295.475-.386.909-.82 1.295-1.295.99.841 2.246 1.304 3.545 1.307h.5c.175-.008.349-.026.522-.053.92 2.147 1.422 4.451 1.478 6.786 0 5.9-4.044 9-12 9.244v-.977c0-.024-.012-.045-.014-.068.272-.153.504-.367.678-.625l1.465-2.2c.611-.92.361-2.161-.559-2.773-.327-.217-.712-.334-1.105-.334h-2.93c-1.105 0-2 .896-2 2 0 .395.117.78.336 1.109l1.465 2.2c.174.258.406.472.678.625 0 .023-.014.044-.014.068v.977c-7.956-.239-12-3.34-12-9.244.055-2.336.557-4.64 1.479-6.788zm-9.3.061c1.405-1.487 3.031-2.748 4.821-3.74.053-.03.1-.054.157-.084.331 1.336 1.2 2.475 2.4 3.149-.012.03-.026.059-.038.089-.17.1-.339.208-.515.31-1.754 1.055-3.66 1.833-5.651 2.308-1.664.34-2.233.035-2.277-.04s-.028-.72 1.1-1.992z"/><path d="m25 25c.552 0 1-.448 1-1v-1c0-.552-.448-1-1-1s-1 .448-1 1v1c0 .552.448 1 1 1z"/><path d="m39 25c.552 0 1-.448 1-1v-1c0-.552-.448-1-1-1s-1 .448-1 1v1c0 .552.448 1 1 1z"/><path d="m43.889 26c-.504 0-.929-.375-.992-.875-.08-.634-.198-1.262-.354-1.882-.151-.531.157-1.084.688-1.236.531-.151 1.084.157 1.236.688.006.02.011.041.016.062.176.697.309 1.405.4 2.118.069.548-.319 1.048-.867 1.117-.043.006-.085.008-.127.008z" fill="#fff"/></g></svg>