<?xml version="1.0" encoding="iso-8859-1"?>
<!-- Generator: Adobe Illustrator 19.0.0, SVG Export Plug-In . SVG Version: 6.00 Build 0)  -->
<svg version="1.1" id="Capa_1" xmlns="http://www.w3.org/2000/svg" xmlns:xlink="http://www.w3.org/1999/xlink" x="0px" y="0px"
	 viewBox="0 0 512.002 512.002" style="enable-background:new 0 0 512.002 512.002;" xml:space="preserve">
<path style="fill:#AD514A;" d="M503.964,200.45c-3.328-14.356-2.734-29.296-6.976-43.536c-6.072-20.381-13.971-45.971-28.21-63.855
	c-3.241-1.321-5.975-2.932-8.957-4.977c-3.214-2.204-7.122-4.596-8.94-8.175c-0.508-0.999-0.707-1.94-0.691-2.805
	c-6.915-3.62-13.968-5.59-20.71-10.394c-10.619-7.567-22.042-14.372-34.868-17.374c-16.601-3.886-32.765-3.144-49.578-2.21
	c-17.374,0.966-33.875,6.439-51.227,7.056c-15.881,0.565-32.003-1.436-47.308,3.436c-20.153,6.417-36.978,19.46-55.666,28.897
	c-15.507,7.83-33.128,8.485-47.987,18.726c-8.122,5.598-14.684,13.729-22.299,20.065c-7.844,6.527-15.08,9.086-24.583,12.451
	c-10.375,3.674-20.306,9.182-27.741,17.562c-7.711,8.691-9.538,20.098-15.748,28.916c1.468,4.593-10.486,22.064-15.546,29.612
	c-5.952,8.88-14.473,15.193-21.021,23.476c-15.926,20.144-15.164,44.042-9.402,68.038c5.397,22.479,14.032,38.587,34.542,49.536
	c16.664,8.896,34.215,10.236,47.171,24.625c13.408,14.89,27.914,29.307,45.56,39.13c11.041,6.146,21.11,10.715,33.504,12.467
	c15.638,2.21,28.833,9.378,44.28,13.114c10.265,2.483,21.149,1.228,31.28,4.359c9.801,3.029,18.004,8.648,28.553,9.736
	c24.363,2.512,48.324,5.159,72.701,6.789c49.517,3.31,91.101-39.688,117.961-76.237c33.49-45.57,41.576-102.784,46.823-157.966
	C510.048,218.657,506.604,211.838,503.964,200.45z"/>
<g>
	<path style="fill:#9C413E;" d="M361.34,451.44c-24.589-0.071-43.831-8.65-64.21-21.311c-18.409-11.436-33.129-18.517-43.509-38.943
		c-8.447-16.621-12.585-33.766-16.193-51.931c-3.28-16.51-5.639-33.304-5.239-50.231c0.291-12.311,2.476-23.893,6.292-35.618
		c3.402-10.451,12.694-28.699,7.793-40.124c-0.619-1.443-1.367-2.565-2.203-3.463c2.002-0.324,3.841-1.405,4.908-3.494
		c4.787-9.378,1.128-17.882-3.232-26.701c-5.512-11.15-7.158-22.825-9.285-34.998c-2.134-12.212-4.552-24.203-5.131-36.617
		c-0.492-10.569,2.423-22.943-1.251-32.996c-0.521-1.426-2.029-1.775-3.184-0.841c-8.139,6.585-9.139,18.767-10.109,28.556
		c-1.294,13.057,0.626,25.793,2.21,38.723c0.725,5.909,0.969,11.969,1.376,18.004c-1.083-2.411-3.641-4.159-6.941-3.393
		c-13.675,3.17-26.304,9.709-38.114,17.866c-1.166-11.755-1.846-23.59-2.305-35.426c2.484-1.42,4.972-2.835,7.501-4.177
		c9.355-4.964,1.211-17.943-8.051-14.022c-0.03-1.381-0.074-2.765-0.1-4.145c-0.246-13.06-20.567-13.103-20.32,0
		c0.09,4.781,0.213,9.567,0.361,14.353c-9.047,5.256-17.689,11.17-25.979,17.572c0.279-1.953,0.54-3.908,0.87-5.856
		c2.168-12.791-17.41-18.288-19.594-5.402c-1.693,9.989-2.803,20.033-3.343,30.081c-2.421,2.258-4.817,4.543-7.177,6.862
		c-10.49,10.31-20.677,21.074-30.154,32.327c-0.141,0.167-0.282,0.335-0.423,0.502c-0.579-6.554-1.358-13.595-4.961-18.489
		c-1.113-1.512-3.002-1.528-4.113,0c-5.204,7.162-4.69,19.136-5.183,27.615c-0.194,3.342-0.222,6.704-0.181,10.071
		c-2.631,4.523-4.683,9.322-5.738,14.54c-9.896-3.875-19.737-3.203-29.409,6.969c-16.708,17.572-7.569,45.211-5.21,65.896
		c2.236,19.613,5.458,34.348,23.323,45.046c17.315,10.368,39.491,8.306,55.793,18.776c11.776,7.563,13.774,23.492,24.8,31.794
		c11.51,8.667,30.427,8.764,44.192,11.946c14.805,3.422,17.775,8.221,28.701,17.479c17.72,15.015,45.184,1.877,65.627,14.607
		c19.587,12.197,36.919,13.056,59.564,11.802C323.201,464.133,378.612,462.311,361.34,451.44z M51.859,242.9
		c0.395-0.47,0.798-0.934,1.196-1.401c0.071,0.721,0.12,1.446,0.198,2.165C52.789,243.396,52.324,243.152,51.859,242.9z
		 M76.065,260.57c-1.894-5.897-3.387-11.934-4.616-17.977c-1.24-6.102-2.031-12.255-2.792-18.416
		c11.324-11.904,23.3-23.269,35.472-34.207c0.477,14.502,2.122,28.932,4.926,43.138c-10.146,9.808-19.958,20.089-27.971,31.48
		C79.414,263.275,77.741,261.93,76.065,260.57z M108.83,279.15c-6.156-0.642-12.39-3.711-18.67-7.898
		c7.279-7.399,14.969-14.465,22.775-21.381c2.618,9.865,5.769,19.596,9.515,29.124C117.957,279.538,113.413,279.628,108.83,279.15z
		 M126.611,216.486c-2.128-14.501-2.923-29.193-2.385-43.869c9.359-7.686,19.02-15.018,29.045-21.806
		c0.708,12.624,1.759,25.213,3.377,37.687c-9.632,8.31-18.711,17.169-27.355,25.442
		C128.406,214.788,127.506,215.637,126.611,216.486z M142.199,273.73c-5.114-12.591-9.174-25.59-12.16-38.825
		c3.612-3.156,7.201-6.313,10.73-9.488c6.295-5.665,12.665-11.115,19.122-16.398c2.989,15.997,7.091,31.733,12.824,47.02
		C163.132,263.059,152.894,269.418,142.199,273.73z M189.452,242.777c-5.369-15.574-9.006-31.622-11.511-47.918
		c12.928-9.719,26.261-18.895,40.14-27.77c1.409-0.901,2.246-2.113,2.622-3.405c0.449,5.197,1.123,10.346,2.466,15.33
		c2.522,9.361,6.082,21.497,13.405,28.308c-11.91,1.445-29.334,20.126-35.557,25.525
		C197.35,236.027,193.481,239.385,189.452,242.777z"/>
	<path style="fill:#9C413E;" d="M290.094,82.63c0.444-7.972,2.608-16.576-3.158-23.131c-1.573-1.788-4.177-0.226-4.336,1.796
		c-0.885,11.256-7.785,20.82-7.435,32.426c0.283,9.35,4.469,22.044,14.763,24.136c3.218,0.654,6.078-1.398,6.229-4.746
		C296.624,102.758,289.494,93.408,290.094,82.63z"/>
	<path style="fill:#9C413E;" d="M351.023,51.9c-2.026-3.773-6.915-2.26-8.269,1.081c-1.347,3.323-1.31,6.762-1.489,10.291
		c-0.2,3.955-0.345,8.233,1.99,11.629c2.35,3.419,7.584,4.865,10.721,1.382C360.635,68.886,354.962,59.233,351.023,51.9z"/>
</g>
<path style="fill:#FFB9AE;" d="M270.577,141.561c-12.29,30.179-24.518,58.535-30.16,90.814c-3.643,20.845-5.778,42.312-7.633,63.28
	c-1.956,22.107,1.349,44.805,7.728,65.982c3.684,12.228,8.724,26.678,16.555,36.869c24.247,31.555,72.535,43.502,109.697,48.863
	c15.985,2.306,27.696,0.997,41.177-8.759c13.869-10.037,26.389-20.102,39.26-31.375c19.229-16.841,29.905-37.777,41.198-60.17
	c23.701-46.997,28.215-105.671,15.916-156.223c-7.969-32.757-16.328-67.239-39.518-93.227
	c-13.666-15.315-39.512-20.721-58.823-22.413c-18.488-1.621-33.863,1.727-51.296,6.946c-15.948,4.774-30.777,8.967-44.552,19.149
	c-6.211,4.591-12.837,8.299-18.4,13.718C286.242,120.356,281.749,133.09,270.577,141.561z"/>
<g>
	<path style="fill:#F7A89F;" d="M484.002,303.982c-17.702,23.897-27.61,52.838-45.79,76.721
		c-8.863,11.643-19.311,21.984-31.367,30.263c-0.077,0.053-0.158,0.1-0.235,0.154c-10.927,2.611-21.691,5.835-32.85,7.525
		c-15.678,2.374-32.042,1.752-47.34-2.487c-15.122-4.19-28.768-12.299-41.648-21.072c-10.126-6.897-19.527-14.645-24.649-26.08
		c-5.407-12.072-5.914-25.824-7.183-38.776c-1.532-15.635-2.212-31.375-1.907-47.086c0.638-32.845,8.921-62.368,17.734-93.667
		c1.363-4.84-5.593-7.813-8.124-3.425c-17.719,30.714-24.968,69.443-28.733,104.345c-3.269,30.31-5.038,68.656,11.377,95.782
		c7.997,13.216,20.131,22.381,32.789,30.822c14.604,9.739,30.488,18.217,47.637,22.421c24.283,5.954,53.221,5.726,77.631-3.408
		c0.14-0.045,0.286-0.089,0.425-0.134c17.616-5.749,32.95-15.59,45.495-29.249c12.354-13.451,21.88-28.591,29.641-45.073
		c7.831-16.629,15.676-34.279,19.864-52.195C498.657,301.286,488.598,297.776,484.002,303.982z"/>
	<path style="fill:#F7A89F;" d="M441.385,341.493c-15.991,18.845-45.159,25.85-68.701,26.885c-22.746,1-42.549-8.498-57.07-25.582
		c-24.276-28.561-24.876-69.11-21.51-104.377c0.579-6.071-8.615-6.826-10.29-1.393c-12.219,39.626-11.485,96.49,19.546,127.78
		c19.416,19.577,46.799,26.824,73.716,22.616c25.246-3.947,55.114-20.337,67.052-43.813
		C444.975,341.943,442.739,339.898,441.385,341.493z"/>
	<path style="fill:#F7A89F;" d="M437.337,112.987c-24.177-16.71-61.891-13.052-86.386,0.962
		c-23.358,13.364-47.979,36.849-51.907,64.613c-0.612,4.328,5.384,6.287,6.735,1.857c3.838-12.586,13.713-22.595,23.29-31.228
		c9.043-8.151,18.892-16.154,29.753-21.774c24.552-12.704,49.813-6.761,75.669-3.928
		C440.562,124.154,441.432,115.818,437.337,112.987z"/>
	<path style="fill:#F7A89F;" d="M484.336,185.941c-2.956-15.303-6.463-44.088-23.662-50.052c-1.194-0.414-2.417,0.884-2.05,2.05
		c5.502,17.508,7.654,35.827,9.52,54.048c1.201,11.726,0.947,23.245-0.077,34.967c-1.13,12.926-4.902,25.615-5.38,38.558
		c-0.24,6.492,8.645,8.375,11.833,3.205C488.827,245.51,489.354,211.92,484.336,185.941z"/>
	<path style="fill:#F7A89F;" d="M448.537,274.991c-9.397,6.623-16.349,15.846-25.184,23.152c-9.674,8-20.679,13.859-31.115,20.738
		c-6.461,4.259-2.552,16.105,5.566,13.202c11.308-4.043,20.791-10.261,30.11-17.787c10.096-8.155,17.538-19.33,27.754-27.105
		C462.731,281.815,456.087,269.671,448.537,274.991z"/>
	<path style="fill:#F7A89F;" d="M403.542,136.574c-20.486-5.655-42.121,9.747-57.446,21.795
		c-17.221,13.54-28.483,30.731-36.697,50.845c-2.293,5.613,7.364,9.735,9.865,4.159c7.97-17.767,19.615-30.224,35.199-41.685
		c15.287-11.243,31.628-17.035,49.079-23.786C408.678,145.915,409.538,138.229,403.542,136.574z"/>
	<path style="fill:#F7A89F;" d="M406.044,175.56c-4.188,0-4.195,6.509,0,6.509C410.232,182.068,410.239,175.56,406.044,175.56z"/>
</g>
<g>
	<path style="fill:#FFFFFF;" d="M389.979,293.777c-2.769-7.164-9.024-11.653-15.987-14.29c-0.264-4.731-0.829-9.522-0.619-13.892
		c0.372-7.72,1.289-16.521-3.343-23.212c-5.809-8.39-17.526-9.436-24.888-2.458c-2.256,0.235-4.433,1.258-6.166,3.348
		c-0.182,0.219-0.349,0.446-0.527,0.667c-16.491,4.409-25.435,26.445-23.704,43.227c-0.343,9.165,1.342,18.213,6.602,26.002
		c9.337,13.827,31.475,25.393,47.916,19.086c8.376-3.213,14.318-10.178,16.747-18.134
		C391.248,309.781,392.477,300.238,389.979,293.777z"/>
	<path style="fill:#FFFFFF;" d="M460.619,204.445c-0.138-8.127-3.305-17.193-10.207-19.969
		c-5.01-15.306-19.331-23.181-35.978-18.951c-9.51,2.417-20.064,7.889-24.443,17.132c-0.355,0.749-0.629,1.488-0.867,2.222
		c-3.056,4.174-1.71,12.044,0.364,16.436c1.543,3.269,3.449,6.534,5.778,9.407c0.477,1.269,0.839,2.509,1.064,3.719
		c0.07,0.773,0.17,1.527,0.306,2.259c2.368,12.798-11.119,24.491-8.201,36.619c1.869,7.762,11.214,9.152,17.918,9.422
		c14.742,0.594,23.08-0.822,34.278-10.11c10.494-8.704,20.934-19.249,18.29-34.617C460.102,213.512,460.695,208.909,460.619,204.445
		z"/>
</g>
<path d="M511.896,225.84c-0.635-31.284-2.642-63.203-15.84-91.981c-7.865-17.15-19.797-42.401-38.46-50.34
	c-0.084-0.074-0.165-0.151-0.249-0.226c-19.117-16.821-41.099-31.314-65.828-38.243c-11.468-3.213-23.383-4.669-35.27-3.728
	c-15.212,1.204-30,5.597-45.227,6.579c-12.91,0.832-25.505-2.041-38.381-1.876c-13.127,0.168-25.451,3.751-37.209,9.426
	c-12.686,6.124-24.213,14.368-36.708,20.851c-12.137,6.297-25.445,9.105-38.264,13.623c-10.998,3.877-21.359,8.734-30.51,16.054
	c-11.648,9.318-21.938,19.519-35.035,26.927c-9.548,5.401-19.564,10.203-27.665,17.765c-10.719,10.007-16.819,23.792-24.1,36.242
	c-13.11,22.422-31.826,42.646-40.015,67.674c-8.153,24.916,1.271,56.137,9.231,80.16c6.691,20.194,22.487,32.579,42.556,38.327
	c10.632,3.045,23.245,3.97,32.044,11.353c9.141,7.67,14.545,18.953,24.02,26.546c9.33,7.477,20.426,11.279,31.755,14.644
	c14.223,4.225,26.485,9.345,39.652,16.025c10.565,5.36,21.607,9.165,33.423,10.486c5.855,0.655,11.973,0.274,17.735,1.61
	c7.649,1.773,14.2,6.75,21.355,9.8c11.336,4.833,23.584,6.462,35.815,6.907c15.94,0.58,32.208,0.754,48.144,0.087
	c52.266-2.19,98.986-37.011,129.88-77.468C504.875,345.757,513.071,283.801,511.896,225.84z M357.993,54.084
	c24.368-2.44,48.065,6.32,68.849,18.652c-18.65-6.456-37.872-9.049-57.801-6.192c-7.762,1.113-15.242,2.937-22.435,5.36
	c-2.219-5.008-3.316-10.073-3.799-15.378C347.835,55.496,352.884,54.595,357.993,54.084z M278.093,60.042
	c2.959,0.251,5.85,0.578,8.714,0.909c-3.14,1.331-6.244,2.691-9.325,4.047C277.63,63.337,277.817,61.681,278.093,60.042z
	 M303.457,62.414c4.223,0.137,8.504,0.023,12.958-0.615c6.511-0.932,12.941-2.368,19.375-3.778
	c0.136,5.91,1.468,12.015,4.939,16.017c-20.461,8.026-38.396,21.098-53.316,37.413c-3.161-7.849-6.757-15.265-8.509-23.833
	c-0.988-4.831-1.574-9.808-1.682-14.793C285.807,68.972,294.652,65.732,303.457,62.414z M222.93,76.012
	c15.5-8.886,31.024-16.801,50.228-16.259c-0.865,2.624-1.443,5.311-1.83,8.033c-15.116,6.862-29.803,14.636-44.183,22.92
	c-2.748,1.583-5.473,3.204-8.199,4.824C219.599,88.671,220.837,82.028,222.93,76.012z M218.424,104.073
	c4.589-2.764,9.198-5.495,13.847-8.155c12.572-7.192,25.378-13.927,38.485-20.076c-0.004,3.398,0.25,6.83,0.694,10.265
	c1.29,9.999,4.153,22.961,10.717,31.359c-4.237,5.095-8.204,10.455-11.881,16.039c-2.12,3.22-4.112,6.509-6.01,9.847
	c-14.269,3.775-27.578,9.575-40.332,16.718c-1.588-7.113-2.779-14.321-3.612-21.464
	C219.135,128.355,218.058,116.138,218.424,104.073z M213.069,138.607c0.843,8.055,2.044,16.78,3.884,25.524
	c-6.246,3.784-12.376,7.865-18.437,12.162c-12.033,8.53-23.914,17.353-35.617,26.405c-2.673-13.258-4.5-26.692-5.194-40.107
	c-0.291-5.62-0.554-11.299-0.678-16.994c17.711-13.423,36.089-25.967,55.004-37.633
	C211.471,118.628,212.094,129.296,213.069,138.607z M157.8,215.867c1.336,5.799,2.824,11.557,4.475,17.252
	c4.468,15.42,10.654,30.249,17.704,44.663c-10.55,7.1-20.733,14.756-30.583,22.789c-2.13,1.737-4.23,3.514-6.336,5.283
	c-8.625-19.274-16.031-39.11-22.155-59.324c5.577-4.941,11.234-9.798,16.981-14.559C144.449,226.534,151.103,221.176,157.8,215.867z
	 M136.142,311.741c-8.38,7.239-16.604,14.668-24.677,22.233c-2.923,2.739-5.904,5.469-8.89,8.215
	c-4.538-7.691-8.931-15.398-13.232-22.991c-5.139-9.072-9.829-18.367-14.028-27.872c0.807-0.881,1.6-1.777,2.411-2.653
	c11.711-12.65,23.957-24.737,36.678-36.318C120.371,272.589,127.62,292.453,136.142,311.741z M113.875,341.146
	c8.444-7.515,16.857-15.059,25.434-22.418c0.27,0.584,0.527,1.174,0.799,1.757c8.529,18.291,18.441,35.591,29.715,52.017
	c-9.225,5.767-18.179,12.047-26.63,18.899c-1.468,1.19-2.999,2.397-4.53,3.639c-12.087-14.531-22.696-30.573-32.514-46.862
	C108.724,345.805,111.293,343.444,113.875,341.146z M146.956,314.353c-0.233-0.496-0.454-0.998-0.686-1.495
	c1.079-0.9,2.143-1.816,3.23-2.708c10.937-8.976,22.197-17.565,33.931-25.472c3.013,5.889,6.143,11.716,9.348,17.483
	c8.712,15.677,17.801,30.187,29.192,43.384c-6.019,2.184-11.858,5.094-17.5,7.817c-9.198,4.438-18.222,9.305-27.024,14.511
	C165.86,350.936,155.754,333.06,146.956,314.353z M227.195,340.904c-2.288-2.595-4.59-5.163-6.705-7.796
	c-7.768-9.669-13.326-20.836-19.249-31.679c-3.82-6.993-7.569-14.035-11.164-21.152c12.963-8.183,27.495-13.949,40.381-22.053
	c-1.053,7.022-2.043,14.012-3.005,20.92C224.573,299.826,224.037,320.829,227.195,340.904z M204.802,361.405
	c7.402-3.626,15.283-6.327,22.839-9.618c0.746,0.78,1.457,1.579,2.223,2.349c4.628,18.615,12.883,36.131,25.926,51.477
	c-9.995,6.574-19.684,12.694-31.345,16.734c-0.435,0.151-0.873,0.274-1.309,0.418c-8.65-9.21-17.285-18.385-25.417-28.087
	c-5.669-6.764-11.014-13.732-16.108-20.859C189.2,369.427,196.93,365.262,204.802,361.405z M231.235,251.333
	c-15.265,2.99-30.028,12.84-43.05,21.058c-0.51,0.322-1.004,0.668-1.512,0.993c-6.088-12.583-11.546-25.45-15.676-38.849
	c-2.429-7.879-4.567-15.897-6.417-23.992c12.809-9.997,25.821-19.745,39.079-29.057c4.916-3.453,9.909-6.816,15-10.024
	c3.91,15.266,10.08,30.037,20.212,40.807c-2.975,12.929-5.311,26.031-7.355,39.055C231.419,251.337,231.335,251.314,231.235,251.333
	z M229.296,179.031c-1.356-3.875-2.543-7.837-3.609-11.844c4.061-2.377,8.188-4.637,12.407-6.722
	c7.043-3.481,14.416-6.084,21.735-8.818c-8.562,16.966-14.674,35.169-19.329,53.84C237.361,196.46,232.473,188.111,229.296,179.031z
	 M160.307,104.68c11.496-4.884,23.566-8.58,35.436-13.935c7.534-3.398,14.643-7.479,21.666-11.547
	c-2.333,6.255-3.783,13.067-4.627,20.038c-19.196,11.676-37.821,24.272-55.82,37.718
	C157.061,126.076,157.898,115.218,160.307,104.68z M129.964,229.182c-3.812,3.187-7.568,6.432-11.299,9.702
	c-1.319-4.619-2.593-9.25-3.776-13.904c-3.345-13.157-5.801-26.02-6.865-38.84c12.58-11.435,25.673-22.317,38.922-32.755
	c1.148-0.905,2.316-1.784,3.47-2.681c0.037,2.835,0.094,5.64,0.144,8.391c0.303,16.398,2.286,32.814,5.559,48.944
	C147.296,214.977,138.549,222.005,129.964,229.182z M111.152,139.904c7.724-5.676,14.681-12.25,21.835-18.657
	c6.928-6.205,14.455-10.664,22.315-14.345c-3.784,11.014-4.761,23.12-4.903,35.002c-2.819,2.156-5.631,4.321-8.417,6.519
	c-11.703,9.232-23.263,18.829-34.477,28.825C107.134,164.885,108.188,152.512,111.152,139.904z M112.168,244.646
	c-13.914,12.546-27.224,25.713-39.877,39.563c-3.801-9.288-7.125-18.773-9.821-28.489c-1.53-5.513-2.988-11.069-4.236-16.657
	c4.293-5.423,8.662-10.785,13.223-15.985c9.313-10.618,19.272-20.737,29.619-30.475c1.187,9.432,3.002,18.67,4.911,27.289
	C107.826,228.193,109.896,236.448,112.168,244.646z M55.812,194.208c0.283-0.481,0.593-0.945,0.872-1.43
	c6.232-10.827,11.66-23.083,21.007-31.666c7.38-6.776,16.736-10.739,25.304-15.789c-3.38,12.228-3.843,25.441-2.811,38.535
	c-12.709,11.727-24.867,24.032-36.067,37.07c-2.604,3.032-5.147,6.113-7.659,9.219C54.402,218.255,53.687,206.242,55.812,194.208z
	 M53.562,251.469c3.309,13.478,7.682,26.469,12.978,39.11c-0.042,0.047-0.084,0.092-0.126,0.139
	c-9.266,10.473-17.737,21.374-25.809,32.773c-3.357-6.942-6.263-14.226-8.603-22.04c-1.938-6.471-3.664-13.297-5.025-20.292
	c3.655-5.109,7.402-10.158,11.076-15.256c4.691-6.508,9.458-12.969,14.331-19.348C52.77,248.204,53.163,249.846,53.562,251.469z
	 M24.349,241.588c3.603-6.062,7.668-11.89,11.585-17.586c4.018-5.843,8.124-11.627,12.082-17.507
	c-0.9,10.342,0.408,20.921,2.462,31.25c-6.279,8.102-12.336,16.376-18.212,24.778c-2.208,3.158-4.531,6.32-6.835,9.524
	C23.996,261.913,23.47,251.587,24.349,241.588z M16.919,256.707c0.893-2.417,1.951-4.776,3.086-7.106
	c-0.792,9.464-0.28,19.298,0.974,28.797c-2.167,3.196-4.232,6.453-6.067,9.81C13.248,277.572,13.001,267.306,16.919,256.707z
	 M16.482,296.779c1.913-3.1,3.914-6.144,5.972-9.15c0.999,5.409,2.176,10.641,3.475,15.498c2.327,8.705,5.444,18.234,9.583,27.412
	c-2.138,3-4.17,6.083-5.739,9.336C21.994,327.344,19.333,311.056,16.482,296.779z M44.884,354.569
	c-4.718-2.603-8.515-5.986-11.665-9.87c1.374-2.862,3.152-5.627,5.099-8.308c4.165,8.131,9.217,15.765,15.368,22.014
	C50.664,357.352,47.707,356.128,44.884,354.569z M67.297,362.25c-9.363-10.23-17.224-20.974-23.611-32.748
	c1.889-2.326,3.744-4.589,5.382-6.793c6.445-8.673,13.369-16.99,20.542-25.076c3.152,6.979,6.564,13.864,10.288,20.649
	c5.375,9.794,11.108,19.512,17.105,29.066c-6.216,5.806-12.306,11.768-17.826,18.121C75.298,364.228,71.302,363.24,67.297,362.25z
	 M128.039,405.513c-3.021-1.522-5.923-3.279-8.606-5.449c-8.236-6.662-13.265-15.851-20.58-23.31
	c-4.376-4.461-9.415-7.383-14.793-9.543c5.777-4.334,11.272-9.136,16.652-14.042c4.846,7.533,9.841,14.955,14.95,22.212
	c5.778,8.207,11.879,16.101,18.544,23.448C131.931,400.888,129.804,403.091,128.039,405.513z M133.13,407.835
	c1.704-1.57,3.429-3.117,5.2-4.618c3.246,3.34,6.617,6.56,10.17,9.603C143.322,411.345,138.108,409.837,133.13,407.835z
	 M158.312,415.842c-5.505-5.056-10.708-10.467-15.669-16.135c9.87-7.874,20.528-14.845,31.281-21.34
	c6.932,9.677,14.335,19.056,22.29,28.107c5.694,6.479,11.637,12.763,17.713,18.913c-7.836,1.904-15.773,3.158-23.75,4.577
	C179.578,425.309,169.251,419.714,158.312,415.842z M219.071,438.215c-6.724-0.557-13.103-2.197-19.307-4.401
	c6.434-0.349,13.082-1.32,19.681-2.883c2.681,2.638,5.386,5.249,8.109,7.834c0.075,0.071,0.151,0.143,0.226,0.214
	C224.992,438.694,222.117,438.467,219.071,438.215z M282.893,455.341c-11.931-1.306-21.824-5.014-32.91-10.519
	c-3.551-1.763-6.946-2.954-10.333-3.832c-4.18-4.029-7.962-8.825-11.235-12.536c12.098-3.904,23.489-9.799,32.287-17.408
	c0.645,0.671,1.28,1.346,1.945,2.008c12.385,12.328,27.391,22.019,43.434,29.181c-3.941,3.011-7.689,6.243-12.265,8.569
	C290.301,452.591,286.627,454.046,282.893,455.341z M297.412,456.29c6.329-2.561,12.009-6.208,15.629-11.118
	c4.343,1.713,8.744,3.248,13.173,4.604c9.956,3.047,19.732,4.503,29.38,4.603C336.936,457.862,316.471,457.302,297.412,456.29z
	 M474.021,359.345c-11.036,20.801-26.333,38.275-43.796,53.922c-11.502,10.305-24.148,20.024-37.863,27.585
	c-19.386,3.171-38.059,4.139-57.741-1.88c-19.739-6.036-39.667-15.21-55.594-28.541c-33.977-28.44-45.184-71.763-42.091-114.644
	c1.802-24.98,6.096-50.096,10.948-74.653c4.257-21.541,9.406-43.297,19.425-62.967c16.844-33.069,46.205-61.187,81.561-73.674
	c21.949-7.752,45.517-9.837,68.29-4.576c12.686,2.931,24.651,7.873,36.165,13.882c2.406,1.256,4.855,2.532,7.246,3.903
	c2.454,2.306,4.83,4.694,7.105,7.177c0.778,0.85,1.594,1.758,2.423,2.694c0.524,0.929,1.042,1.85,1.556,2.749
	c5.19,9.082,9.772,18.335,13.734,28.032c10.037,24.57,12.709,50.052,13.792,76.38C501.187,263.452,497.264,315.539,474.021,359.345z
	"/>
<path d="M440.475,164.083c-1.526-0.722-3.131-1.28-4.78-1.721c-14.697-6.43-39.599,6.38-48.798,15.825
	c-9.543,9.797-5.729,19.072,0.545,29.373c6.943,11.399,3.928,18.921-1.047,30.409c-2.288,5.284-3.299,10.606-0.773,16.035
	c9.142,19.656,42.035,15.118,56.642,5.291c20.601-13.86,26.716-41.869,19.653-64.69
	C458.304,182.926,452.114,169.588,440.475,164.083z M417.638,259.053c-5.393,0.442-11.305,0.334-16.417-1.623
	c-10.503-4.021-9.278-12.45-5.357-21.289c4.589-10.342,5.049-19.912-1.148-29.691c-4.948-7.809-11.978-15.092-3.82-24.265
	c3.801-4.273,9.042-7.213,14.067-9.833c3.927-2.048,8.082-3.958,12.31-5.287c9.57-1.298,19.202,0.091,26.185,7.327
	c8.062,8.354,12.752,22.429,13.66,33.86C459.119,233.415,443.81,256.91,417.638,259.053z"/>
<path d="M385.678,282.868c-9.902-8.95-9.152-17.019-7.655-29.448c0.689-5.716,0.142-11.107-3.824-15.592
	c-14.361-16.239-44.6-2.523-55.804,11.057c-15.802,19.152-13.688,47.743-0.42,67.608c6.789,10.166,16.521,21.189,29.245,23.153
	c1.669,0.258,3.366,0.335,5.072,0.288c15.919,1.979,36.143-17.392,42.272-29.065C400.923,298.762,394.626,290.957,385.678,282.868z
	 M389.593,308.176c-2.426,5.179-6.614,9.489-10.685,13.432c-3.181,3.081-6.621,6.096-10.295,8.573
	c-8.804,3.969-18.433,5.38-27.187,0.432c-10.107-5.712-18.611-17.87-22.737-28.569c-9.083-23.551-1.097-50.432,23.381-59.939
	c5.043-1.959,10.742-3.539,16.2-3.119c11.213,0.864,12.439,9.293,11.197,18.882c-1.453,11.221,0.83,20.526,9.555,28.135
	C385.989,292.079,394.801,297.06,389.593,308.176z"/>
<g>
</g>
<g>
</g>
<g>
</g>
<g>
</g>
<g>
</g>
<g>
</g>
<g>
</g>
<g>
</g>
<g>
</g>
<g>
</g>
<g>
</g>
<g>
</g>
<g>
</g>
<g>
</g>
<g>
</g>
</svg>
