<svg id="Fill_out_line" height="512" viewBox="0 0 512 512" width="512" xmlns="http://www.w3.org/2000/svg" data-name="Fill out line"><path d="m64 496v-384a32 32 0 0 1 32-32h288a32 32 0 0 1 32 32v384z" fill="#379ec3"/><rect fill="#a6b2bc" height="216" rx="16" width="288" x="96" y="112"/><path d="m424 288-40 56h32l40-56z" fill="#2d80b3"/><path d="m424 24h32v264h-32z" fill="#8acce7"/><path d="m384 344v-264l40-56v264z" fill="#c4d4e0"/><path d="m488 184-32 16v-136l32 16z" fill="#c4d4e0"/><path d="m96 496v-112a16 16 0 0 1 16-16h256a16 16 0 0 1 16 16v112z" fill="#8acce7"/><path d="m128 496v-80a16 16 0 0 1 16-16 16 16 0 0 1 16 16v80z" fill="#c4d4e0"/><path d="m128 288h80v40h-80z" fill="#8acce7"/><path d="m120 264h96v24h-96z" fill="#e88604"/><path d="m128 224h80v40h-80z" fill="#8acce7"/><path d="m120 200h96v24h-96z" fill="#e88604"/><path d="m272 288h80v40h-80z" fill="#8acce7"/><path d="m264 264h96v24h-96z" fill="#e88604"/><path d="m272 224h80v40h-80z" fill="#8acce7"/><path d="m264 200h96v24h-96z" fill="#e88604"/><path d="m192 352a15.99555 15.99555 0 0 1 -16 16h-104l-56 24v-88l31.42993-.57007 24.57007-15.42993h64v48h40a15.97833 15.97833 0 0 1 16 16z" fill="#f4ceaf"/><path d="m128 312h120v32h-120z" fill="#8acce7"/><path d="m120 288h136v24h-136z" fill="#eebe33"/><path d="m16 304 30.49933-6.09987a31.99994 31.99994 0 0 0 16.35167-8.75113l23.77639-23.77639a32 32 0 0 1 22.62744-9.37261h34.74517a16 16 0 0 1 16 16 16 16 0 0 1 -16 16h-24a44.84434 44.84434 0 0 1 -19.96919 37.31277 16 16 0 0 1 -8.87522 2.68723h-75.15559z" fill="#f4ceaf"/><path d="m56 392h16v104h-16z"/><path d="m473.88867 64-9.88867-4.94434v-35.05566a8.00008 8.00008 0 0 0 -8-8h-32a7.98385 7.98385 0 0 0 -6.50439 3.354l-.00538-.0039-37.60693 52.6499h-267.8833a56.06322 56.06322 0 0 0 -56 56v120h16v-120a40.04552 40.04552 0 0 1 40-40h264v16h-264a24.02718 24.02718 0 0 0 -24 24v112h16v-112a8.00917 8.00917 0 0 1 8-8h264v200h-16v-24a8.00008 8.00008 0 0 0 8-8v-24a8.00008 8.00008 0 0 0 -8-8v-24a8.00008 8.00008 0 0 0 8-8v-24a8.00008 8.00008 0 0 0 -8-8h-96a8.00008 8.00008 0 0 0 -8 8v24a8.00008 8.00008 0 0 0 8 8v24a8.00008 8.00008 0 0 0 -8 8v8h96v8h-72v16h64v24h-72v16h104v8h.01831a7.95349 7.95349 0 0 0 7.98169 8h24v144h16v-149.4364l38.50977-53.9137a8.003 8.003 0 0 0 1.49023-4.6499v-83.05566l9.88867-4.94434a39.78181 39.78181 0 0 0 22.11133-35.77686v-64.44628a39.78181 39.78181 0 0 0 -22.11133-35.77686zm-201.88867 144h80v8h-80zm8 24h64v24h-64zm168-200v248h-16v-248zm-56 50.56348 24-33.59986v236.4729l-24 33.59986zm36.11694 213.43652h12.33765l-28.57178 40h-12.33691zm51.88306-131.77686a23.8698 23.8698 0 0 1 -13.26758 21.46631l-2.73242 1.36621v-110.11132l2.73242 1.36621a23.8698 23.8698 0 0 1 13.26758 21.46631z"/><path d="m368 360h-152v16h152a8.00917 8.00917 0 0 1 8 8v112h16v-112a24.0275 24.0275 0 0 0 -24-24z"/><path d="m88 392h16v104h-16z"/><path d="m144 392a24.02718 24.02718 0 0 0 -24 24v80h16v-80a8 8 0 0 1 16 0v80h16v-80a24.02718 24.02718 0 0 0 -24-24z"/><path d="m224 224v-24a8.00008 8.00008 0 0 0 -8-8h-96a8.00008 8.00008 0 0 0 -8 8v24a8.00008 8.00008 0 0 0 8 8v8h16v-8h64v24h-24v16h48v-8a8.00008 8.00008 0 0 0 -8-8v-24a8.00008 8.00008 0 0 0 8-8zm-96-16h80v8h-80z"/><path d="m256 344v-24a8.00008 8.00008 0 0 0 8-8v-24a8.00008 8.00008 0 0 0 -8-8h-89.37622a23.99123 23.99123 0 0 0 -22.62378-32h-34.74512a39.74371 39.74371 0 0 0 -28.28515 11.71582l-23.77637 23.77637a23.92042 23.92042 0 0 1 -12.26367 6.563l-22.499 4.5 3.13868 15.68945 22.498-4.5a39.8701 39.8701 0 0 0 20.44043-10.939l23.7754-23.77585a23.84779 23.84779 0 0 1 16.97168-7.02979h34.74512a8 8 0 0 1 0 16h-24a8.00008 8.00008 0 0 0 -8 8 36.76925 36.76925 0 0 1 -16.40625 30.65625l-4.03125 2.687 8.875 13.31348 4.03125-2.6875a52.87313 52.87313 0 0 0 13.03711-12.3711 7.97977 7.97977 0 0 0 2.49414.40187v24a8.00008 8.00008 0 0 0 8 8h56a8.00917 8.00917 0 0 1 -8 8h-104a8.003 8.003 0 0 0 -3.15137.647l-48 20.57129 6.30274 14.70606 46.49023-19.92435h102.3584a24.02718 24.02718 0 0 0 24-24h48a8.00008 8.00008 0 0 0 8-8zm-112-48h104v8h-120v-8zm-8 40v-16h104v16z"/></svg>