<svg height="512" viewBox="0 0 64 64" width="512" xmlns="http://www.w3.org/2000/svg"><g id="_12-baguette" data-name="12-baguette"><path d="m14 46 8.166-39.662a4.782 4.782 0 0 1 5.225-3.85 4.782 4.782 0 0 1 4.239 5.135l-3.63 43.377" fill="#ce8320"/><g fill="#af8749"><ellipse cx="26.434" cy="10.465" rx="1.53" ry="2.5" transform="matrix(.14 -.99 .99 .14 12.377 35.178)"/><ellipse cx="25.434" cy="17.465" rx="1.53" ry="2.5" transform="matrix(.14 -.99 .99 .14 4.586 40.209)"/><ellipse cx="24.434" cy="24.465" rx="1.53" ry="2.5" transform="matrix(.14 -.99 .99 .14 -3.206 45.241)"/><ellipse cx="23.434" cy="31.465" rx="1.53" ry="2.5" transform="matrix(.14 -.99 .99 .14 -10.997 50.272)"/></g><path d="m11.96 49.72-9.648-33.078a30.6 30.6 0 0 1 -1.137-10.85 4.329 4.329 0 0 1 3.105-3.832 4.33 4.33 0 0 1 4.678 1.562 30.562 30.562 0 0 1 4.874 9.76l11.168 37.718" fill="#fbb241"/><path d="m26.232 50a25.293 25.293 0 0 1 -1.232-8c0-8.284 3.582-15 8-15s8 6.716 8 15a25.827 25.827 0 0 1 -1 7.267" fill="#fa9f12"/><path d="m51 51 10.1-36.89a30.427 30.427 0 0 0 1.023-8.381 4 4 0 0 0 -2.973-3.794l-1.915-.511c-2.135-.569-4.9 2.834-4.9 2.834l-13.335 48.742" fill="#9b691c"/><path d="m5 64v-16l4.033 1.728a6.956 6.956 0 0 0 5.854-.172 6.966 6.966 0 0 1 6.226 0 6.956 6.956 0 0 0 5.854.172l1.066-.456a6.956 6.956 0 0 1 5.854.172l.226.112a6.956 6.956 0 0 0 5.854.172l1.291-.553a6.964 6.964 0 0 1 5.484 0l1.689.724a6.963 6.963 0 0 0 5.186.12l5.383-2.019v16" fill="#7b3719"/><path d="m35 27 .769-3.074a2.073 2.073 0 0 1 1.084-1.353 2.073 2.073 0 0 0 1.147-1.855v-1.518a2.055 2.055 0 0 1 .04-.406l.726-3.628a3.942 3.942 0 0 1 1.079-2.016 3.946 3.946 0 0 0 1.155-2.784v-.1a39.51 39.51 0 0 1 .537-6.488l.184-1.107a2 2 0 0 1 1.973-1.671 2 2 0 0 1 1.98 2.283l-.274 1.94a39.488 39.488 0 0 0 -.4 5.582 10.561 10.561 0 0 1 -1.772 5.854 2.057 2.057 0 0 0 -.308.743l-.507 2.532a15.726 15.726 0 0 1 -1.355 3.95 15.75 15.75 0 0 0 -1.447 4.449l-.611 3.667" fill="#dd973a"/><path d="m60 64h-2v-14.557l-4.032 1.512a7.933 7.933 0 0 1 -5.931-.137l-1.689-.724a5.991 5.991 0 0 0 -4.7 0l-1.291.553a7.942 7.942 0 0 1 -6.695-.2l-.225-.112a5.952 5.952 0 0 0 -5.015-.148l-1.065.456a7.942 7.942 0 0 1 -6.695-.2 5.988 5.988 0 0 0 -5.332 0 7.946 7.946 0 0 1 -6.695.2l-2.635-1.126v14.483h-2v-16a1 1 0 0 1 1.394-.919l4.033 1.729a5.951 5.951 0 0 0 5.013-.148 8 8 0 0 1 7.12 0 5.946 5.946 0 0 0 5.014.147l1.065-.456a7.949 7.949 0 0 1 6.7.2l.225.112a5.952 5.952 0 0 0 5.015.148l1.29-.553a8 8 0 0 1 6.271 0l1.69.725a5.929 5.929 0 0 0 4.441.1l5.383-2.019a1 1 0 0 1 1.346.934z"/><path d="m41.968 47.03-1.932-.515.393-1.476a8.191 8.191 0 0 1 6.3-5.945l.4 1.959a6.2 6.2 0 0 0 -4.768 4.5z"/><path d="m43.772 40.267-1.933-.516.909-3.409a8.194 8.194 0 0 1 6.3-5.945l.4 1.959a6.2 6.2 0 0 0 -4.768 4.5z"/><path d="m46.091 31.57-1.933-.515.909-3.409a8.191 8.191 0 0 1 6.3-5.944l.4 1.959a6.2 6.2 0 0 0 -4.767 4.501z"/><path d="m48.41 22.875-1.933-.516.909-3.409a8.194 8.194 0 0 1 6.3-5.945l.4 1.959a6.2 6.2 0 0 0 -4.767 4.5z"/><path d="m50.729 14.178-1.929-.515.909-3.409a8.191 8.191 0 0 1 6.291-5.945l.4 1.959a6.2 6.2 0 0 0 -4.768 4.5z"/><path d="m51.964 51.264-1.928-.528 10.1-36.89a29.479 29.479 0 0 0 .987-8.1 3.012 3.012 0 0 0 -2.23-2.846l-1.916-.51a3 3 0 0 0 -3.672 2.126l-1.932-.516a5 5 0 0 1 6.119-3.542l1.916.51a5.022 5.022 0 0 1 3.711 4.743 31.455 31.455 0 0 1 -1.057 8.657z"/><path d="m24.041 51.284-11.167-37.718a29.511 29.511 0 0 0 -4.717-9.445 3.329 3.329 0 0 0 -5.985 1.746 29.486 29.486 0 0 0 1.1 10.495l9.648 33.078-1.92.56-9.647-33.078a31.467 31.467 0 0 1 -1.175-11.205 5.329 5.329 0 0 1 9.58-2.795 31.472 31.472 0 0 1 5.034 10.078l11.167 37.716z"/><path d="m7.239 15.538a3.391 3.391 0 0 1 -1.639-.422l-1.6-.879.962-1.754 1.6.879a1.413 1.413 0 0 0 1.92-.56l.879-1.6 1.754.962-.879 1.6a3.393 3.393 0 0 1 -2.036 1.636 3.446 3.446 0 0 1 -.961.138z"/><path d="m9.2 22.258a3.384 3.384 0 0 1 -1.637-.423l-1.6-.878.958-1.757 1.6.879a1.413 1.413 0 0 0 1.92-.56l.879-1.6 1.754.962-.879 1.6a3.424 3.424 0 0 1 -3 1.774z"/><path d="m11.159 28.978a3.4 3.4 0 0 1 -1.637-.422l-1.6-.879.962-1.754 1.6.879a1.414 1.414 0 0 0 1.92-.559l.879-1.6 1.754.962-.879 1.6a3.394 3.394 0 0 1 -2.038 1.635 3.446 3.446 0 0 1 -.961.138z"/><path d="m13.129 35.7a3.424 3.424 0 0 1 -1.647-.42l-1.6-.878.961-1.754 1.6.879a1.413 1.413 0 0 0 1.92-.56l.879-1.6 1.758.954-.879 1.6a3.4 3.4 0 0 1 -2.992 1.779z"/><path d="m15.089 42.415a3.432 3.432 0 0 1 -1.647-.415l-1.6-.879.961-1.754 1.6.879a1.419 1.419 0 0 0 1.075.118 1.4 1.4 0 0 0 .845-.677l.879-1.6 1.754.962-.879 1.6a3.4 3.4 0 0 1 -2.989 1.771z"/><path d="m26.231 51a1 1 0 0 1 -.947-.681 26.4 26.4 0 0 1 -1.284-8.319c0-8.972 3.953-16 9-16s9 7.028 9 16a26.988 26.988 0 0 1 -1.041 7.55 1 1 0 1 1 -1.917-.567 25.019 25.019 0 0 0 .958-6.983c0-7.589-3.206-14-7-14s-7 6.411-7 14a24.406 24.406 0 0 0 1.179 7.681 1 1 0 0 1 -.628 1.267 1.02 1.02 0 0 1 -.32.052z"/><path d="m29.03 34.119h8v2h-8z" transform="matrix(.97 -.243 .243 .97 -7.535 9.064)"/><path d="m29 39h8v2h-8z" transform="matrix(.97 -.243 .243 .97 -8.72 9.203)"/><path d="m28.97 43.881h8v2h-8z" transform="matrix(.97 -.243 .243 .97 -9.905 9.341)"/><path d="m12 57h2v2h-2z"/><path d="m16 57h32v2h-32z"/><path d="m50 57h2v2h-2z"/><path d="m16 61h4v2h-4z"/><path d="m22 61h18v2h-18z"/><path d="m42 61h10v2h-10z"/><path d="m30 29q-.041 0-.081 0a1 1 0 0 1 -.919-1.08l1.634-20.377a3.784 3.784 0 0 0 -7.487-1.016l-4.167 20.673a1 1 0 0 1 -1.96-.4l4.165-20.659a5.783 5.783 0 0 1 11.442 1.559l-1.627 20.38a1 1 0 0 1 -1 .92z"/><path d="m26.78 13.021a5.089 5.089 0 0 1 -.7-.05 4.447 4.447 0 0 1 -2.184-.909 2.3 2.3 0 0 1 -.928-2.085c.2-1.405 1.875-2.292 3.819-2.017a4.439 4.439 0 0 1 2.184.91 2.3 2.3 0 0 1 .928 2.085c-.173 1.233-1.487 2.066-3.119 2.066zm-.694-3.111a1.492 1.492 0 0 0 -1.139.355 1.877 1.877 0 0 0 1.413.725 1.835 1.835 0 0 0 1.557-.315 1.839 1.839 0 0 0 -1.409-.735 3.044 3.044 0 0 0 -.422-.03z"/><path d="m25.78 20.021a5.089 5.089 0 0 1 -.7-.05 4.447 4.447 0 0 1 -2.184-.909 2.3 2.3 0 0 1 -.928-2.085c.2-1.405 1.874-2.291 3.819-2.017a4.439 4.439 0 0 1 2.184.91 2.3 2.3 0 0 1 .928 2.085c-.173 1.233-1.487 2.066-3.119 2.066zm-.694-3.111a1.492 1.492 0 0 0 -1.139.355 1.877 1.877 0 0 0 1.413.725 1.833 1.833 0 0 0 1.557-.315 1.839 1.839 0 0 0 -1.409-.735 3.044 3.044 0 0 0 -.422-.03z"/><path d="m24.78 27.021a5.089 5.089 0 0 1 -.7-.05 4.447 4.447 0 0 1 -2.184-.909 2.3 2.3 0 0 1 -.928-2.085c.2-1.405 1.876-2.3 3.819-2.017a4.439 4.439 0 0 1 2.184.91 2.3 2.3 0 0 1 .928 2.085c-.173 1.233-1.487 2.066-3.119 2.066zm-.694-3.111a1.492 1.492 0 0 0 -1.139.355 1.877 1.877 0 0 0 1.413.725 1.838 1.838 0 0 0 1.557-.315 1.839 1.839 0 0 0 -1.409-.735 3.044 3.044 0 0 0 -.422-.03z"/><path d="m23.78 34.021a5.089 5.089 0 0 1 -.7-.05 4.447 4.447 0 0 1 -2.184-.909 2.3 2.3 0 0 1 -.928-2.085c.2-1.405 1.874-2.294 3.819-2.017a4.439 4.439 0 0 1 2.184.91 2.3 2.3 0 0 1 .928 2.085c-.173 1.233-1.487 2.066-3.119 2.066zm-.694-3.111a1.492 1.492 0 0 0 -1.139.355 1.877 1.877 0 0 0 1.413.725 1.839 1.839 0 0 0 1.557-.315 1.839 1.839 0 0 0 -1.409-.735 3.044 3.044 0 0 0 -.422-.03z"/><path d="m39 33a.946.946 0 0 1 -.166-.014 1 1 0 0 1 -.821-1.151l.611-3.666a16.665 16.665 0 0 1 1.539-4.732 14.747 14.747 0 0 0 1.269-3.7l.506-2.532a3.06 3.06 0 0 1 .457-1.1 9.524 9.524 0 0 0 1.6-5.3 40.569 40.569 0 0 1 .407-5.723l.277-1.941a1 1 0 0 0 -.985-1.141 1 1 0 0 0 -.986.835l-.185 1.108a38.6 38.6 0 0 0 -.523 6.323v.1a4.909 4.909 0 0 1 -1.448 3.5 2.939 2.939 0 0 0 -.806 1.506l-.725 3.628a1.041 1.041 0 0 0 -.021.211v1.512a3.057 3.057 0 0 1 -1.7 2.75 1.074 1.074 0 0 0 -.561.7l-.769 3.075a1 1 0 0 1 -1.94-.486l.768-3.074a3.078 3.078 0 0 1 1.608-2 1.07 1.07 0 0 0 .594-.97v-1.512a3.108 3.108 0 0 1 .059-.6l.726-3.63a4.938 4.938 0 0 1 1.353-2.527 2.924 2.924 0 0 0 .862-2.083v-.1a40.509 40.509 0 0 1 .551-6.652l.184-1.108a3 3 0 0 1 5.929.918l-.278 1.941a38.659 38.659 0 0 0 -.386 5.44 11.519 11.519 0 0 1 -1.94 6.408 1.066 1.066 0 0 0 -.16.386l-.506 2.531a16.755 16.755 0 0 1 -1.441 4.2 14.657 14.657 0 0 0 -1.353 4.17l-.612 3.667a1 1 0 0 1 -.988.833z"/></g></svg>