<svg id="Capa_1" enable-background="new 0 0 512 512" height="512" viewBox="0 0 512 512" width="512" xmlns="http://www.w3.org/2000/svg"><g><g><g><path d="m385.423 483.844c.139 4.091-.928 7.839-2.835 10.986-1.449 2.391-11.164-2.436-13.42-.851-1.922 1.35 3.704 9.239 1.413 9.852-3.957 1.058-8.315.912-12.56-.799-8.526-3.437-18.382-7.798-28.535-13.087-2.247-1.171-1.968-10.023-4.232-11.285-2.287-1.274-7.118 5.044-9.4 3.677-4.478-2.681-8.924-5.54-13.252-8.578-12.799-8.983-11.25-36.094-19.731-48.206-20.799-29.704-39.302-58.184-40.297-87.397-.492-14.421 14.019-24.582 27.403-19.188 27.111 10.927 53.627 37.637 74.427 67.342 8.534 12.188 28.478 20.53 32.544 35.73.815 3.045 1.556 6.108 2.229 9.17.516 2.346-3.809 5.536-3.369 7.875.499 2.657 5.752 4.46 6.161 7.085 2.128 13.682 3.083 26.779 3.454 37.674z" fill="#92b738"/></g><g><path d="m376.948 422.04c-8.08 1.63-16.44 2.49-24.99 2.49-10.47 0-20.65-1.28-30.39-3.7-1.5 19.58-8.3 37.7-18.96 52.92-12.8-8.97-24.57-19.52-33.05-31.63-15.21-21.73-22.08-51.67-25.05-77.61-1.1-9.52-1.67-18.51-1.94-26.35-.42-12.25 9.97-21.42 21.31-20.61 2.02.14 4.08.61 6.1 1.42 27.11 10.93 67.66 31.21 88.46 60.91 8.53 12.19 14.44 26.96 18.51 42.16z" fill="#87a733"/></g><g><path d="m193.288 316.207c14.313 2.024 21.813 18.107 14.163 30.372-15.496 24.846-43.235 49.069-76.159 64.421-8.427 3.929-16.991 18.933-26.563 20.774-6.172 1.188-12.483 1.999-18.801 2.51-2.528.204-3.514-5.943-6.036-5.83-2.84.127-7.213 6.503-10.024 6.527-16.58.142-32.442-1.39-45.16-3.188-4.537-.641-8.389-2.695-11.291-5.592-2.248-2.244 8.991-4.55 8.006-7.541-.613-1.863-13.875-4.263-13.92-6.249-.085-3.697.865-7.498 3.042-10.989 6.909-11.077 16.117-24.466 27.118-37.265 1.853-2.155 9.893-2.019 11.845-4.127 1.632-1.762-2.839-5.779-1.141-7.49 7.377-7.434 15.366-14.312 23.851-19.969 4.471-2.981 22.603 6.135 27.333 3.929 32.924-15.352 64.743-24.393 93.737-20.293z" fill="#92b738"/></g><g><path d="m207.448 346.58c-15.49 24.84-42.56 61.33-75.48 76.68-8.43 3.93-17.67 6.68-27.24 8.51-1.09-6.23-1.65-12.63-1.65-19.17 0-15.16 3.04-29.62 8.53-42.82-15.61-9.49-29.06-22.2-39.39-37.21 4.47-2.98 9.08-5.62 13.81-7.83 32.92-15.35 78.27-12.63 107.26-8.53 14.31 2.02 21.81 18.1 14.16 30.37z" fill="#87a733"/></g><g><path d="m481.751 67.38c4.976-.083 9.473 1.421 13.129 3.977 2.573 1.799-5.284 11.457-3.669 14.111 1.03 1.693 11.853-3.816 12.41-1.899 1.356 4.671 1.208 9.863-.915 14.877-7.417 17.515-18.458 40.051-33.011 60.319-1.734 2.415-9.076 2.493-10.909 4.831-1.749 2.231 2.014 6.726.174 8.865-6.924 8.051-14.486 15.376-22.677 21.405-1.172.862-38.5 4.666-39.697 5.474-53.402 36.02-109.718 29.362-109.718 29.362l73.879-130.293c1.315-.978 2.647-1.923 3.995-2.832 8.997-6.069 19.199-10.868 29.944-14.654 2.868-1.01 3.465 4.395 6.398 3.524 2.729-.811 7.791-7.907 10.555-8.605 24.806-6.261 50.617-8.139 70.112-8.462z" fill="#92b738"/></g><g><path d="m436.278 193.86c-1.17.87-2.35 1.7-3.55 2.51-26.27 17.72-62.81 24.62-93.15 27.06-31.34 2.51-56.08.27-56.08.27s7.03-23.25 20.8-50.96c12.94-26.05 31.84-56.03 56.45-74.33 2.65 11.41 4.19 22.96 4.19 34.35 0 10.46-1.32 21.06-3.6 31.56 28.27 1.96 54.16 12.72 74.94 29.54z" fill="#87a733"/></g><g><path d="m262.019 24.532c6.021-9.254 15.985-18.984 25.337-15.828 4.596 1.551 8.775 4.6 11.733 9.147 5.694 8.752 12.019 19.222 18.024 30.746 1.761 3.381-6.734 10.177-5.052 13.722.644 1.358 11.51-.598 12.138.78 4.403 9.67 8.367 19.828 11.426 30.149 1.128 3.807-3.316 13.236-2.457 17.071.459 2.052 6.326-1.493 6.697.559 1.33 7.344 2.077 14.677 2.077 21.885 0 65.638-61.945 141.64-61.945 141.64s-56.447-74.732-56.447-140.369c.001-41.406 20.269-81.528 38.469-109.502z" fill="#92b738"/></g><g><path d="m310.208 229.52c-15.23 26.49-30.21 44.88-30.21 44.88s-61.94-76-61.94-141.64c0-7.161.737-14.445 2.051-21.742.613-3.402 5.729.07 6.576-3.326.621-2.491-3.076-11.854-2.344-14.331 3.052-10.323 7.011-20.484 11.411-30.159 1.514-3.329 7.459.276 9.058-2.925.792-1.586-2.785-10.031-1.979-11.58 6.02-11.565 12.365-22.071 18.076-30.847 3.95-6.08 10.09-9.48 16.48-10.2-13.4 25.5-25.33 56.31-25.33 85.11.001 55.75 44.691 118.98 58.151 136.76z" fill="#87a733"/></g><g><path d="m271.636 268.021c0-26.604 5.666-59.233-10.209-78.121-19.929-23.711-49.807-38.781-83.205-38.781-60.002 0-108.642 48.641-108.642 108.642 0 35.374 16.907 66.8 43.08 86.638 18.222 13.811 46.774 16.089 71.401 16.089 60.003.001 87.575-34.465 87.575-94.467z" fill="#c42430"/></g><g><ellipse cx="143.387" cy="224.186" fill="#a81f2a" rx="35.856" ry="24.149" transform="matrix(.707 -.707 .707 .707 -116.526 167.052)"/></g><g><path d="m272.578 8.73c-.08.02-.15.05-.22.08v-.01c.07-.03.15-.05.22-.07z" fill="#87a733"/></g><g><path d="m258.397 333.053c7.097-7.729 13.019-16.511 17.631-25.933-.005-.003-.01-.006-.016-.009 6.946-14.314 10.855-30.374 10.855-47.351 0-26.6-9.56-50.97-25.44-69.86-28.557 23.896-47.552 58.833-50.369 98.18-.108 1.505-1.291 2.722-2.798 2.805-40.031 2.185-74.988 23.778-95.593 55.506 18.22 13.82 40.93 22.01 65.55 22.01 16.389 0 31.925-3.637 45.858-10.134.001.001.001.003.002.004 12.946-6.053 24.688-14.661 34.32-25.218z" fill="#a81f2a"/></g><g><path d="m239.008 349.81c2.1-1.42 4.15-2.91 6.14-4.47-1.99 1.56-4.04 3.06-6.14 4.47z" fill="#c42430"/></g><g><path d="m248.088 342.95c1.46-1.22 2.87-2.48 4.26-3.77-1.39 1.3-2.81 2.56-4.26 3.77z" fill="#c42430"/></g><g><path d="m257.708 333.82c-1.72 1.85-3.51 3.64-5.36 5.36 1.85-1.73 3.63-3.52 5.36-5.36z" fill="#c42430"/></g><g><path d="m258.988 332.42c2.53-2.82 4.92-5.77 7.16-8.84-2.22 3.07-4.62 6.02-7.16 8.84z" fill="#c42430"/></g><g><path d="m276.028 307.12c-.27.57-.55 1.13-.84 1.69.28-.56.56-1.13.83-1.7 0 .01.01.01.01.01z" fill="#c42430"/></g><g><path d="m463.223 298.266c0-61.45-49.815-111.265-111.265-111.265-59.836 0-108.641 47.233-111.163 106.449-.068 1.597 46.073 54.125 46.073 54.125l49.939 60.933c4.954.674 10.012 1.023 15.151 1.023 61.45 0 111.265-49.815 111.265-111.265z" fill="#e03c3e"/></g><g><path d="m336.808 408.5c-54.29-7.38-96.12-53.92-96.12-110.23 0-1.62.03-3.22.11-4.82 53.57 11.6 94.14 58.51 96.01 115.05z" fill="#c42430"/></g><g><path d="m306.882 412.6c0-50.755-41.145-91.9-91.9-91.9-28.905 0-54.693 13.344-71.539 34.208-12.735 15.772-12.147 41.305-12.147 63.155 0 50.755 76.596 75.915 76.596 75.915s81.624-15.413 94.024-51.5c3.219-9.367 4.966-19.418 4.966-29.878z" fill="#e03c3e"/></g><g><path d="m304.418 433.79c-9.56 40.54-45.97 70.71-89.44 70.71-50.75 0-91.9-41.14-91.9-91.9 0-23.02 8.47-44.07 22.46-60.19-1.61 6.8-2.46 13.9-2.46 21.19 0 50.76 41.15 91.9 91.9 91.9 27.74 0 52.6-12.28 69.44-31.71z" fill="#c42430"/></g><g><ellipse cx="205.734" cy="377.492" fill="#c42430" rx="24.984" ry="16.827" transform="matrix(.968 -.252 .252 .968 -88.453 63.994)"/></g><g><ellipse cx="396.586" cy="259.762" fill="#c42430" rx="21.133" ry="31.377" transform="matrix(.707 -.707 .707 .707 -67.522 356.511)"/></g></g><g><path d="m509.612 101.371c3.952-9.333 2.926-19.924-2.745-28.332-5.67-8.407-15.107-13.338-25.241-13.158-4.428.074-8.871.222-13.204.439-4.137.208-7.322 3.73-7.114 7.867s3.75 7.324 7.867 7.114c4.167-.209 8.44-.352 12.701-.423 2.106-.03 4.122.364 5.969 1.128l-93.095 61.388 14.592-53.185c7.993-2.195 16.596-4.029 25.813-5.477 4.092-.644 6.888-4.482 6.245-8.574-.644-4.092-4.482-6.888-8.574-6.245-29.893 4.699-54.21 13.26-72.277 25.446-5.064 3.416-10.078 7.44-15 11.999-7.595-32.438-24.981-64.251-40.171-87.597-5.607-8.617-15.095-13.761-25.38-13.761-.029 0-.058.003-.087.003-.018 0-.036-.003-.054-.003-.078 0-.153.009-.23.012-10.141.123-19.469 5.237-25.008 13.749-20.103 30.897-44.066 76.625-44.066 119.004 0 5.064.363 10.34 1.057 15.768-10.67-3.209-21.898-4.912-33.388-4.912-51.685 0-97.632 34.687-111.736 84.353-1.131 3.984 1.182 8.132 5.166 9.264 3.029.865 7.63-.555 9.264-5.166 12.281-43.247 52.295-73.451 97.307-73.451 38.163 0 73 21.557 90.18 55.329-21.729 21.535-35.21 51.38-35.21 84.316 0 5.661.413 11.302 1.205 16.874-6.356-1.266-12.854-1.939-19.416-1.939-31.948 0-60.42 15.155-78.617 38.649-33.849-15.312-57.466-49.188-59.175-87.321-.192-4.137-3.688-7.342-7.839-7.145-4.138.192-7.336 3.702-7.145 7.839.914 19.735 6.828 38.449 16.672 54.699-32.079 16.684-58.194 51.073-74.696 77.531-4.772 7.65-5.475 17.031-1.964 25.288 3.189 7.948 11.902 15.213 21.441 16.479 12.825 1.813 28.124 3.279 44.07 3.279 16.901 0 34.523-1.658 50.696-6.283 10.627 43.445 49.883 75.784 96.557 75.784 31.055 0 58.826-14.319 77.067-36.698 20.929 15.971 45.502 27.566 63.167 34.685 7.656 3.188 18.827 2.628 26.911-3.649 7.075-5.392 11.096-13.808 10.792-22.75-.642-18.824-3.07-45.528-10.728-70.438 19.617-5.135 37.677-15.261 52.563-29.738 2.969-2.888 3.036-7.636.147-10.605-2.887-2.969-7.636-3.035-10.605-.147-19.476 18.94-45.166 29.371-72.337 29.371-13.632 0-26.824-2.594-39.277-7.698-1.789-9.586-4.967-18.892-9.45-27.518-1.91-3.675-6.437-5.106-10.114-3.196-3.675 1.91-5.106 6.438-3.196 10.114 4.364 8.396 7.229 17.277 8.572 26.517.02.235.051.469.094.7.523 3.826.795 7.71.795 11.65 0 46.538-37.861 84.399-84.399 84.399s-84.399-37.861-84.399-84.399 37.861-84.4 84.399-84.4c20.169 0 39.69 7.228 54.967 20.351 3.143 2.699 7.877 2.34 10.576-.802s2.34-7.877-.802-10.576c-8.745-7.513-18.676-13.369-29.295-17.422-1.479-7.03-2.235-14.238-2.235-21.487 0-57.216 46.549-103.765 103.765-103.765s103.765 46.549 103.765 103.765c0 16.793-4.102 33.469-11.862 48.225-1.928 3.666-.519 8.201 3.147 10.129 2.527 1.522 7.687.979 10.129-3.147 8.888-16.9 13.585-35.99 13.585-55.207 0-36.276-16.354-68.8-42.071-90.603 2.891-1.62 5.659-3.311 8.271-5.073 34.507-23.274 58.575-67.889 72.688-101.217zm-196.09 324.296 11.768 16.118-7.644 32.85c-5.823-3.568-11.563-7.451-17.014-11.647 6.627-11.222 11.114-23.85 12.89-37.321zm47.302 70.409c-8.604-3.468-18.927-8.052-29.58-13.696l5.724-24.598 28.626 39.211c-1.595.008-3.207-.287-4.77-.917zm17.104-11.976c.044 1.296-.123 2.545-.445 3.737l-30.026-41.128 26.921-.418c2.221 13.906 3.187 27.174 3.55 37.809zm-10.562-68.065c1.601 5.03 2.967 10.158 4.135 15.299l-34.874.541-13.385-18.334c9.32 2.317 18.92 3.49 28.716 3.49 5.192 0 10.336-.341 15.408-.996zm-243.521-53.628-27.738 11.922-40.409-18.437c9.672-9.475 20.425-17.912 31.864-23.549 9.798 12.243 22.084 22.539 36.283 30.064zm-79.015 5.014 32.669 14.906-62.12 26.699c.315-1.255.81-2.481 1.53-3.635 6.396-10.254 16.03-24.403 27.921-37.97zm-19.072 56.946c-1.635-.231-3.154-.759-4.511-1.537l61.661-26.502-10.508 31.143c-16.758.323-33.133-1.195-46.642-3.104zm62.786 2.179 12.882-38.176 19.688-8.462c-3.578 10.244-5.53 21.244-5.53 32.692 0 2.937.136 5.842.386 8.715-8.718 2.645-18.007 4.302-27.426 5.231zm407.255-331.025c-6.863 16.206-18.613 40.64-34.631 62.098l-58.058-7.771 93.79-61.845c.295 2.498-.062 5.066-1.101 7.518zm-126.863 6.273c6.737-4.544 14.531-8.53 23.307-11.96l-16.483 60.081-31.982 21.089c3.758-13.605 5.665-26.409 5.665-38.24 0-4.427-.275-8.891-.767-13.371 6.612-7.063 13.414-12.981 20.26-17.599zm-127.637-32.477 31.058 34.195v42.713l-42.031-46.277c2.814-10.476 6.662-20.83 10.973-30.631zm88.34 30.511-42.282 46.553v-42.713l31.295-34.456c4.312 9.795 8.164 20.143 10.987 30.616zm-42.282 68.864 46.027-50.677c.679 4.962 1.059 9.895 1.059 14.75 0 14.864-3.439 31.674-10.227 50.016-13.29 3.193-25.717 8.624-36.859 15.875zm5.447-146.751c5.517 8.479 12.358 19.77 18.892 32.62l-24.339 26.797v-64.509c2.159 1.183 4.024 2.906 5.447 5.092zm-25.612 0c1.359-2.089 3.125-3.75 5.164-4.927v64.188l-24.106-26.541c6.549-12.891 13.411-24.219 18.942-32.72zm-39.409 132.815c-1.478-7.714-2.229-15.098-2.229-21.992 0-4.81.375-9.697 1.042-14.613l45.762 50.384v23.204c-11.572-15.985-26.965-28.663-44.575-36.983zm130.133 24.894 26.117-17.221 65.92 8.823c-6.589 7.226-13.733 13.72-21.416 18.903-4.043 2.727-8.524 5.28-13.348 7.622-16.747-10.575-36.301-17.086-57.273-18.127z"/><path d="m222.321 354.452c-6.76-2.376-14.827-2.555-22.715-.502-17.628 4.589-28.745 18.524-25.309 31.725 3.991 14.34 22.327 19.546 37.564 15.36 17.628-4.588 28.745-18.523 25.309-31.725-1.754-6.742-7.167-12.157-14.849-14.858zm-14.238 32.066c-4.956 1.291-10.044 1.24-13.961-.137-1.37-.482-4.631-1.883-5.308-4.485-1.109-4.261 4.887-10.91 14.571-13.43 3.621-.874 8.65-1.536 13.961.137 1.371.482 4.631 1.883 5.308 4.485 1.109 4.261-4.887 10.91-14.571 13.43z"/><path d="m131.909 262.302c11.06 0 23.556-5.435 33.857-15.736 17.191-17.191 20.827-40.488 8.278-53.037-14.149-13.914-39.061-6.146-53.037 8.278-7.817 7.816-13.139 17.333-14.985 26.797-2.026 10.387.418 19.952 6.707 26.24 5.03 5.029 11.783 7.458 19.18 7.458zm-.295-49.889c9.326-8.369 21.569-15.554 31.824-8.278 6.271 6.271 2.403 21.143-8.278 31.824-10.681 10.682-25.55 14.549-31.824 8.278-6.271-6.272-2.403-21.143 8.278-31.824z"/><path d="m392.9 226.146c-9.402-1.833-18.077.398-23.804 6.126-11.354 11.353-8.171 32.322 7.244 47.737 9.197 9.197 20.368 14.039 30.297 14.039 6.713 0 12.86-2.215 17.439-6.795 5.727-5.727 7.96-14.403 6.126-23.804-1.651-8.462-6.399-16.962-13.37-23.932-6.97-6.972-15.47-11.72-23.932-13.371zm20.57 50.5c-4.56 4.56-16.574 2.706-26.524-7.244-4.811-4.812-8.184-10.715-9.254-16.198-.507-2.599-.92-7.396 2.01-10.326 7.495-5.83 18.952.11 26.523 7.244 4.812 4.812 8.185 10.715 9.254 16.198.508 2.599.921 7.396-2.009 10.326z"/></g></g></svg>