<svg id="outline" height="512" viewBox="0 0 512 512" width="512" xmlns="http://www.w3.org/2000/svg"><path d="m416 243.818c40 8 48 16 48 16h40v88h-32s-8 128-216 128-208-128-208-128h-40v-88h40s32-32 128-40" fill="#f23f00"/><path d="m179.856 220.2-3.856-.382c-96 8-128 40-128 40h-40v88h40s.009 126.756 205 127.982c-140.852-68.15-89.348-217.145-73.144-255.6z" fill="#f9f8f7" opacity=".3"/><ellipse cx="256" cy="299.5" fill="#6d410b" rx="192" ry="88.5"/><path d="m315 378c-106.039 0-192-39.623-192-88.5 0-32.967 39.111-61.721 97.109-76.95-88.882 7.75-156.109 43.728-156.109 86.95 0 48.877 85.961 88.5 192 88.5 34.517 0 66.9-4.2 94.891-11.55-11.629 1.013-23.623 1.55-35.891 1.55z" fill="#472807"/><path d="m276.594 42.341c18.745-18.745 20.853 9.539 39.6 28.284s47.029 20.853 28.284 39.6a48 48 0 0 1 -67.882-67.882z" fill="#9b5e15"/><circle cx="156" cy="127.818" fill="#79c143" r="20"/><path d="m240 227.818-8-48 56-8 8 64-32 8z" fill="#bcbbbb"/><path d="m336 155.818 48 32v8l-38.331 60-50.669-28-.624-4.99z" fill="#d38f29"/><g fill="#bcbbbb"><circle cx="348" cy="215.818" r="20"/><circle cx="364" cy="263.818" r="20"/><circle cx="364" cy="303.818" r="20"/><circle cx="412" cy="223.818" r="20"/></g><path d="m238.742 275.818h-106.673a16 16 0 0 0 -15.384 11.6l-6.857 24a16 16 0 0 0 15.384 20.4h117.971a17.637 17.637 0 0 0 17.245-21.332l-4.441-20.726a17.637 17.637 0 0 0 -17.245-13.942z" fill="#d38f29"/><path d="m328 339.818c0 26.51-21.49 8-48 8s-48 18.51-48-8a48 48 0 1 1 96 0z" fill="#9b5e15"/><path d="m176 251.818 70 48 34-48-72-48z" fill="#dddcdb"/><path d="m310.535 132.256a55.827 55.827 0 0 0 39.6-16.376c4.062-4.062 9.351-10.373 8.391-18.246-1.1-9.01-9.519-14.089-18.433-19.465a137.535 137.535 0 0 1 -12.163-7.969l15.133-15.133-11.315-11.312-15.132 15.133a137.634 137.634 0 0 1 -7.967-12.163c-5.377-8.914-10.455-17.333-19.465-18.433-7.883-.955-14.184 4.33-18.246 8.392a55.974 55.974 0 0 0 39.6 95.572zm-28.283-84.256c2.934-2.934 4.516-3.623 5-3.776 1.826 1.029 5.346 6.864 7.7 10.768 3.863 6.4 8.671 14.375 15.588 21.293s14.889 11.725 21.293 15.588c3.9 2.354 9.739 5.874 10.769 7.7-.154.48-.843 2.062-3.777 5a40.038 40.038 0 0 1 -44.642 8.228l18.888-6.3-5.071-15.181-18.761 6.254 6.261-18.762-15.18-5.06-6.287 18.862a40.059 40.059 0 0 1 8.219-44.614z"/><path d="m168.155 153.039c7.112 8.123 18.908 18.779 31.845 18.779v-16c-6.32 0-14.334-7.109-20-13.587a27.988 27.988 0 1 0 -11.84 10.808zm-24.155-25.221a12 12 0 1 1 12 12 12.013 12.013 0 0 1 -12-12z"/><path d="m136 243.818h16v16h-16z"/><path d="m208 99.818h16v16h-16z"/><path d="m128 187.818h16v16h-16z"/><path d="m384 139.818h16v16h-16z"/><path d="m248 131.818h16v16h-16z"/><path d="m368 43.818h16v16h-16z"/><path d="m184 347.818h16v16h-16z"/><path d="m408 291.818h16v16h-16z"/><path d="m352 339.818h16v16h-16z"/><path d="m504 251.818h-37.28c-7.191-4.787-20.655-8.968-31.855-11.868a27.993 27.993 0 1 0 -36.48 8.322 22.151 22.151 0 0 1 -7.541 7.595 28.066 28.066 0 0 0 -23.492-19.841 27.994 27.994 0 1 0 -43.352-5.795c-5.671 6.477-13.685 13.587-20 13.587v16c12.937 0 24.732-10.656 31.845-18.779a27.778 27.778 0 0 0 8.8 2.571 27.918 27.918 0 0 0 -8.607 18.711c-6.427 2.121-19.829 5.5-40.041 5.5v16c20.982 0 35.627-3.327 43.823-5.9a28.173 28.173 0 0 0 4.608 5.9 28.153 28.153 0 0 0 -4.972 6.535c-7.973-1.752-21.34-3.586-33.213.016a55.928 55.928 0 0 0 -40.394-4.736l20.676-29.19a7.973 7.973 0 0 0 -.511-9.882l11.923-2.981a8 8 0 0 0 6-8.753l-1.362-10.9.208.13 35.633-57.014 37.584 25.054v3.719h16v-8a8 8 0 0 0 -3.562-6.656l-48-32a8 8 0 0 0 -11.222 2.416l-29.736 47.578-3.541-28.33a8 8 0 0 0 -9.07-6.927l-56 8a8 8 0 0 0 -6.76 9.235l4.464 26.785-16.135-10.757a8 8 0 0 0 -11.094 2.219l-5.68 8.521q-11.919 1.769-23.153 4.192c-81.863 7.305-117.956 31.926-127.511 39.723h-37a8 8 0 0 0 -8 8v88a8 8 0 0 0 8 8h32.65c1.624 12.221 7.3 36.63 27.141 61.045 15.949 19.629 37.792 35.226 64.923 46.356 33.316 13.668 74.8 20.6 123.286 20.6 48.466 0 90.345-6.921 124.471-20.572 27.727-11.09 50.453-26.621 67.55-46.16 21.543-24.621 28.625-49.256 30.909-61.268h25.07a8 8 0 0 0 8-8v-88a8 8 0 0 0 -8-8.001zm-92-40a12 12 0 1 1 -12 12 12.013 12.013 0 0 1 12-12zm-64-8a12 12 0 1 1 -12 12 12.013 12.013 0 0 1 12-12zm4 60a12 12 0 1 1 12 12 12.013 12.013 0 0 1 -12-12zm24 40a12 12 0 1 1 -12-12 12.013 12.013 0 0 1 12 12zm-149.659 20h-101.129a8 8 0 0 1 -7.692-10.2l1.658-5.8h24.822v-16h-20.251l.628-2.2a8.033 8.033 0 0 1 7.691-5.8h75.932v-.357l12.187 8.357h-52.187v16h66.083a55.8 55.8 0 0 0 -7.742 16zm39.4-21.362-8.892 17.784 14.311 7.155 8.84-17.688 8.845 17.689 14.311-7.155-8.892-17.784a40.059 40.059 0 0 1 25.736 37.361c0 4.15-.632 5.756-.862 6.2-2.013.564-8.634-1.074-13.059-2.169-7.261-1.8-16.3-4.034-26.079-4.034s-18.818 2.237-26.079 4.034c-4.424 1.1-11.043 2.731-13.059 2.169-.23-.448-.862-2.054-.862-6.2a40.06 40.06 0 0 1 25.737-37.362zm-24.5-115.876 39.834-5.691 6.111 48.887-18.781 4.7-21.58-14.387zm-31.019 28.333 58.5 39-24.688 34.855-56.99-39.079zm-38.743 43.5 13.712 9.4h-53.123a24.1 24.1 0 0 0 -23.076 17.407l-6.857 24a24 24 0 0 0 23.077 30.593h98.788c0 5.745.723 13.947 6.968 18.835 7.15 5.595 16.693 3.232 26.8.73 6.751-1.671 14.4-3.565 22.234-3.565s15.483 1.894 22.234 3.565c5.54 1.371 10.91 2.7 15.811 2.7a17.139 17.139 0 0 0 10.987-3.431c6.245-4.888 6.968-13.09 6.968-18.835a55.739 55.739 0 0 0 -12.733-35.512 72.03 72.03 0 0 1 12.825 1.668 28 28 0 1 0 47.478-22.156 28.081 28.081 0 0 0 6.458-9.7c11.437-4.529 17.853-10.871 21.431-16.59 18.473 12.798 28.539 27.556 28.539 42.153 0 43.442-84.262 80.143-184 80.143s-184-36.7-184-80.143c0-11.393 5.856-28.9 34.646-46.113 25.489-15.241 74.529-26.929 76.824-27.371l-14.127 21.19a8 8 0 0 0 2.133 11.035zm300.521 81.405a8 8 0 0 0 -7.984 7.5c-.019.293-2.13 29.624-28.036 59.231-15.418 17.62-36.093 31.7-61.45 41.84-32.23 12.892-72.108 19.429-118.53 19.429-46.033 0-85.223-6.427-116.479-19.1-24.6-9.975-44.337-23.824-58.671-41.162-24.35-29.456-24.85-59.467-24.85-59.738a8 8 0 0 0 -8-8h-32v-16h24v-16h-24v-16h24v-16h-24v-8h32a8 8 0 0 0 5.657-2.343c.17-.17 10.136-9.814 35.536-19.526-21.759 15.675-33.193 34.096-33.193 53.726 0 26.852 21.627 51.569 60.9 69.6 37.289 17.118 86.689 26.546 139.1 26.546s101.813-9.428 139.1-26.546c39.271-18.028 60.9-42.745 60.9-69.6 0-15.331-6.954-29.9-20.334-43 16.112 4.527 21.8 8.228 22.8 8.951 1.489 1.726 3.2 2.191 5.529 2.191h32v8h-23.995v16h24v16h-24v16h24v16z"/><path d="m111.707 389.321c-6.214-6.867-8.129-12.069-8.147-12.121l-7.56 2.618-7.59 2.53c.375 1.124 9.668 27.718 52.619 44.9l5.941-14.855c-18.641-7.46-29.47-16.664-35.263-23.072z"/></svg>