<svg height="512" viewBox="0 0 512 512" width="512" xmlns="http://www.w3.org/2000/svg"><g id="BULINE"><circle cx="256" cy="256" fill="#5b9c95" r="256"/></g><g id="Icons"><path d="m443.82 20.91h-378.71a23.63 23.63 0 0 0 -23.64 23.64v337.71a23.64 23.64 0 0 0 23.64 23.65h152.07l-2.52 46.09a39.87 39.87 0 1 0 79.62 0l-2.54-46.06h152.08a23.65 23.65 0 0 0 23.65-23.65v-337.74a23.64 23.64 0 0 0 -23.65-23.64zm-189.35 442.76a15.21 15.21 0 1 1 15.21-15.21 15.21 15.21 0 0 1 -15.21 15.21z" fill="#72392f"/><path d="m261.44 461.37a15.2 15.2 0 1 1 .3-25.63l1.64-29.83h-47.25l-2.53 46.09a39.87 39.87 0 0 0 63.4 34.26 39.85 39.85 0 0 1 -15.56-24.89zm-150.13-440.46h-47.26a23.64 23.64 0 0 0 -23.64 23.64v337.72a23.65 23.65 0 0 0 23.64 23.64h47.26a23.65 23.65 0 0 1 -23.65-23.64v-337.72a23.64 23.64 0 0 1 23.65-23.64z" fill="#5e302b"/><rect fill="#7f3e37" height="81.13" rx="9.96" width="19.92" x="418.25" y="288.95"/><rect fill="#7f3e37" height="81.13" rx="9.96" width="19.92" x="380.09" y="32.81"/><rect fill="#7f3e37" height="81.13" rx="9.96" width="19.92" x="116.67" y="32.81"/><rect fill="#7f3e37" height="81.13" rx="9.96" width="19.92" x="123.78" y="316.66"/><circle cx="256.59" cy="218.42" fill="#cc9458" r="196.69"/><circle cx="256.59" cy="218.42" fill="#f0c788" r="179.54"/><path d="m88.93 218.42c0 18.66-7.42 38.28-2 55.11 5.67 17.45 23.39 28.92 34 43.44s16.18 35 30.85 45.71 35.53 9.57 53 15.24c16.84 5.47 33.17 18.8 51.83 18.8s35-13.33 51.82-18.8c17.45-5.67 38.46-4.67 53-15.24 14.68-10.68 20.17-31 30.85-45.71s28.29-26 34-43.44c5.47-16.83-1.95-36.45-1.95-55.11s7.42-38.27 1.95-55.11c-5.67-17.45-23.39-28.91-34-43.44s-16.17-35-30.85-45.7c-14.52-10.57-35.53-9.58-53-15.24-16.84-5.47-33.16-18.8-51.82-18.8s-35 13.33-51.83 18.8c-17.45 5.66-38.46 4.67-53 15.24s-20.17 31-30.85 45.7-28.29 26-34 43.44c-5.42 16.84 2 36.45 2 55.11z" fill="#eaac2e"/><path d="m113.5 218.42c0 15.93-6.33 32.67-1.66 47 4.83 14.89 20 24.67 29 37.07s13.8 29.89 26.32 39 30.33 8.17 45.22 13c14.37 4.67 28.3 16 44.23 16s29.86-11.37 44.22-16c14.9-4.83 32.82-4 45.22-13s17.21-26.48 26.33-39 24.14-22.18 29-37.07c4.66-14.37-1.67-31.11-1.67-47s6.33-32.66 1.67-47c-4.84-14.89-20-24.67-29-37.07s-13.8-29.89-26.32-39-30.32-8.18-45.21-13c-14.37-4.67-28.31-16-44.23-16s-29.86 11.38-44.23 16c-14.89 4.83-32.82 4-45.22 13s-17.21 26.48-26.32 39-24.15 22.18-29 37.07c-4.68 14.34 1.65 31.08 1.65 47z" fill="#da4d5d"/><path d="m288.11 354.54c2.12.69 4.24 1.53 6.35 2.45-12.18 5.33-24.31 13.59-37.87 13.59-15.93 0-29.86-11.37-44.23-16-14.89-4.83-32.82-4-45.21-13s-17.22-26.48-26.33-39-24.15-22.17-29-37.06c-4.66-14.37 1.67-31.11 1.67-47s-6.33-32.66-1.67-47c4.84-14.89 20-24.67 29-37.07s13.8-29.9 26.33-39 30.32-8.18 45.21-13c14.37-4.67 28.3-16 44.23-16 13.56 0 25.69 8.26 37.87 13.58a68 68 0 0 1 -6.35 2.46c-14.9 4.83-32.82 4-45.22 13s-17.22 26.48-26.33 39-24.14 22.18-29 37.07c-4.68 14.37 1.66 31.11 1.66 47s-6.34 32.67-1.66 47c4.83 14.89 19.95 24.67 29 37.06s13.81 29.9 26.33 39 30.32 8.09 45.22 12.92z" fill="#d63d55"/><path d="m336.17 144.05q0-.59 0-1.17a25.85 25.85 0 1 0 -25.84 25.84h.07a19.2 19.2 0 0 1 10.89 3.22 15.89 15.89 0 1 0 14.85-27.89z" fill="#f6e0b8"/><path d="m215.4 147q0-.59 0-1.17a25.84 25.84 0 1 0 -19 24.94 15.89 15.89 0 1 0 19-23.77z" fill="#f6e0b8"/><circle cx="170.21" cy="232.84" fill="#f6e0b8" r="24.35"/><circle cx="339.68" cy="232.84" fill="#f6e0b8" r="24.35"/><path d="m285.34 272.76a5.31 5.31 0 0 1 -2.34-4.46v-.18a20.87 20.87 0 0 0 -41.57-2.64 20.32 20.32 0 0 0 .32 7.12 5.19 5.19 0 0 1 -1.24 4.74 34.79 34.79 0 1 0 44.81-4.58z" fill="#f6e0b8"/><circle cx="265.63" cy="197.09" fill="#d63d55" r="24.01"/><circle cx="329.12" cy="310.82" fill="#d63d55" r="13.8"/><circle cx="371.23" cy="192.9" fill="#d63d55" r="13.8"/><circle cx="257.5" cy="120.02" fill="#d63d55" r="13.8"/><path d="m288.8 99.66a0 0 0 0 1 0 0v21.86a35 35 0 0 1 -35 35 0 0 0 0 1 0 0v-21.85a35 35 0 0 1 35-35z" fill="#76c27d"/><path d="m288.8 99.66v2.83a35 35 0 0 0 -21.2 32.18v19a34.89 34.89 0 0 1 -13.8 2.83v-21.83a35 35 0 0 1 35-35.01z" fill="#69aa6d"/><path d="m304 133.82a0 0 0 0 1 0 0v21.86a35 35 0 0 1 -35 35 0 0 0 0 1 0 0v-21.86a35 35 0 0 1 35-35z" fill="#76c27d" transform="matrix(.341 .94 -.94 .341 341.4 -162.39)"/><path d="m319.19 169-2.66 1a35 35 0 0 0 -37.48-9l-17.89 6.48a34.64 34.64 0 0 1 -7.36-12l20.55-7.48a35 35 0 0 1 44.84 21z" fill="#69aa6d"/><path d="m385.14 237.56a0 0 0 0 1 0 0v21.86a35 35 0 0 1 -35 35 0 0 0 0 1 0 0v-21.86a35 35 0 0 1 35-35z" fill="#76c27d" transform="matrix(.178 .984 -.984 .178 563.74 -143.22)"/><path d="m398.73 278.14-2.78.5a35 35 0 0 0 -35.45-15.12l-18.72 3.39a34.82 34.82 0 0 1 -5.25-13.07l21.51-3.9a35 35 0 0 1 40.69 28.2z" fill="#69aa6d"/><path d="m198.7 254.17a0 0 0 0 1 0 0v21.83a35 35 0 0 1 -35 35 0 0 0 0 1 0 0v-21.82a35 35 0 0 1 35-35z" fill="#76c27d" transform="matrix(.707 .707 -.707 .707 252.71 -45.4)"/><path d="m213.67 274.86-2 2a35 35 0 0 0 -37.75 7.78l-13.44 13.46a34.72 34.72 0 0 1 -11.76-7.75l15.45-15.46a35 35 0 0 1 49.5-.03z" fill="#69aa6d"/><path d="m226.46 164.47a0 0 0 0 1 0 0v21.86a35 35 0 0 1 -35 35 0 0 0 0 1 0 0v-21.85a35 35 0 0 1 35-35.01z" fill="#76c27d" transform="matrix(-.408 .913 -.913 -.408 470.31 80.76)"/><path d="m227.79 220.48-2.58-1.15a35 35 0 0 0 -20.74-32.49l-17.38-7.76a34.71 34.71 0 0 1 3-13.75l20 8.91a35 35 0 0 1 17.7 46.24z" fill="#69aa6d"/><path d="m354.24 258.6a0 0 0 0 1 0 0v21.86a35 35 0 0 1 -35 35 0 0 0 0 1 0 0v-21.86a35 35 0 0 1 35-35z" fill="#76c27d" transform="matrix(-.864 .503 -.503 -.864 772.16 365.68)"/><path d="m335.92 320.41-1.43-2.41a35 35 0 0 0 2.14-38.48l-9.57-16.52a34.7 34.7 0 0 1 10.5-9.38l11 18.89a35 35 0 0 1 -12.64 47.9z" fill="#69aa6d"/><g fill="#c99028"><circle cx="98.2" cy="174.69" r="7.11"/><circle cx="126.63" cy="133.82" r="7.11"/><circle cx="216.07" cy="66.27" r="7.11"/><circle cx="307.52" cy="73.37" r="7.11"/><circle cx="103.21" cy="275.5" r="7.11"/><circle cx="208.97" cy="364.34" r="7.11"/><circle cx="103.21" cy="201.69" r="5.02"/><circle cx="98.2" cy="253.66" r="5.02"/><circle cx="133.74" cy="308.73" r="5.02"/><circle cx="158.73" cy="352.21" r="5.02"/><circle cx="315.33" cy="362.24" r="5.02"/><circle cx="267.54" cy="382.73" r="5.02"/><circle cx="380.01" cy="308.73" r="5.02"/><circle cx="371.23" cy="327.12" r="5.02"/><circle cx="412.21" cy="181.8" r="5.02"/><circle cx="390.05" cy="133.82" r="5.02"/><circle cx="163.74" cy="83.77" r="5.02"/></g></g></svg>