<svg id="Capa_1" enable-background="new 0 0 511.941 511.941" height="512" viewBox="0 0 511.941 511.941" width="512" xmlns="http://www.w3.org/2000/svg"><g><g><path d="m320.771 120.849-47.51-24.61v-66.78h-97.58v66.78l-47.51 24.61c-15.17 7.86-24.7 23.52-24.7 40.61v67.13c0 17.06 9.49 32.7 24.63 40.57v37.231h184.089l8.651-37.231c15.14-7.87 24.63-23.51 24.63-40.57v-67.13c0-17.09-9.53-32.75-24.7-40.61z" fill="#d4f2f6"/><g><g><g id="XMLID_132_"><g><path d="m320.841 445.619v-25.671h-178.422l-14.317 25.671c-13.6 0-24.63 11.03-24.63 24.63v9.56c0 13.61 11.03 24.63 24.63 24.63h192.74c13.6 0 24.63-11.02 24.63-24.63v-9.56c-.001-13.6-11.031-24.63-24.631-24.63z" fill="#d4f2f6"/><path d="m320.841 327.979v-29.41h-173.755l-18.985 29.41c-13.6 0-24.63 11.03-24.63 24.63v9.56c0 13.6 11.03 24.63 24.63 24.63v29.41h181.266l11.474-29.41c13.6 0 24.63-11.03 24.63-24.63v-9.56c0-13.6-11.03-24.63-24.63-24.63z" fill="#d4f2f6"/><g fill="#a6e7f0"><path d="m149.535 362.169v-9.56c0-13.6 11.03-24.63 24.63-24.63l18.985-29.41h-46.064l-18.985 29.41c-13.6 0-24.63 11.03-24.63 24.63v9.56c0 13.6 11.03 24.63 24.63 24.63v29.41h46.064v-29.41c-13.6 0-24.63-11.03-24.63-24.63z"/><path d="m149.535 479.809v-9.56c0-13.6 11.03-24.63 24.63-24.63l14.317-25.671h-46.064l-14.317 25.671c-13.6 0-24.63 11.03-24.63 24.63v9.56c0 13.61 11.03 24.63 24.63 24.63h46.064c-13.6 0-24.63-11.02-24.63-24.63z"/><path d="m320.841 327.979v-29.41h-128.571l5.594 117.64h111.504l11.474-29.41c13.6 0 24.63-11.03 24.63-24.63v-9.56c-.001-13.6-11.031-24.63-24.631-24.63z"/><path d="m320.841 445.619v-25.671h-122.8l2.505 52.683c.575 12.091 5.054 23.084 12.174 31.808h108.121c13.6 0 24.63-11.02 24.63-24.63v-9.56c0-13.6-11.03-24.63-24.63-24.63z"/><path d="m345.471 411.429v9.56c0 13.6-11.03 24.63-24.63 24.63h-192.74c-13.6 0-24.63-11.03-24.63-24.63v-9.56c0-13.6 11.03-24.63 24.63-24.63h192.74c13.6 0 24.63 11.03 24.63 24.63z"/><path d="m216.811 29.459h-41.129v66.78l-47.51 24.61c-15.17 7.86-24.7 23.52-24.7 40.61v67.13c0 17.06 9.49 32.7 24.63 40.57v37.231h45.896v-26.972c-15.14-7.87-24.63-23.51-24.63-40.57v-67.13c0-17.09 9.53-32.75 24.7-40.61l43.031-22.29c2.752-1.425 4.479-4.266 4.479-7.364 0-6.49 5.261-11.751 11.751-11.751h39.933v-49.986-10.258z"/><path d="m215.922 230.125c-6.982 0-13.75 2.898-18.568 7.951s-7.392 11.951-7.061 18.926l2.348 49.388h119.549l8.651-37.231c14.683-7.632 24.024-22.577 24.577-39.034z"/><path d="m345.471 293.789v9.56c0 13.6-11.03 24.63-24.63 24.63h-192.74c-13.6 0-24.63-11.03-24.63-24.63v-9.56c0-13.6 11.03-24.63 24.63-24.63h192.74c13.6 0 24.63 11.03 24.63 24.63z"/></g><path d="m149.535 420.989v-9.56c0-13.6 11.03-24.63 24.63-24.63h-46.064c-13.6 0-24.63 11.03-24.63 24.63v9.56c0 13.6 11.03 24.63 24.63 24.63h46.064c-13.6 0-24.63-11.03-24.63-24.63z" fill="#6bd9e7"/><path d="m149.535 303.349v-9.56c0-13.6 11.03-24.63 24.63-24.63h-46.064c-13.6 0-24.63 11.03-24.63 24.63v9.56c0 13.6 11.03 24.63 24.63 24.63h46.064c-13.6 0-24.63-11.03-24.63-24.63z" fill="#6bd9e7"/></g></g></g><path d="m275.121 74.701h-104.179c-9.478 0-17.161-7.683-17.161-17.161v-32.879c0-9.478 7.683-17.161 17.161-17.161h104.179c9.478 0 17.161 7.683 17.161 17.161v32.879c0 9.478-7.683 17.161-17.161 17.161z" fill="#efedef"/><path d="m320.841 386.799h-124.376l2.797 58.82h121.579c13.6 0 24.63-11.03 24.63-24.63v-9.56c0-13.6-11.03-24.63-24.63-24.63z" fill="#6bd9e7"/><path d="m320.841 269.159h-129.97l2.797 58.82h127.173c13.6 0 24.63-11.03 24.63-24.63v-9.56c0-13.6-11.03-24.63-24.63-24.63z" fill="#6bd9e7"/><path d="m363.856 504.441h-108.977c-18.36 0-33.483-14.421-34.355-32.76l-10.254-215.629c-.153-3.227 2.421-5.927 5.651-5.927h186.891c3.23 0 5.805 2.7 5.651 5.927l-10.254 215.629c-.87 18.339-15.993 32.76-34.353 32.76z" fill="#f9f7f8"/><g id="XMLID_133_"><g><path d="m374.643 335.719-2.902 60.96-17.39 7.07c-6.14 2.5-12.62 3.73-19.07 3.73-8.81 0-17.57-2.29-25.38-6.82-13.32-7.72-29.42-8.96-43.76-3.38l-18.77 7.31h-.01l-3.272-68.87c-.2-4.214 3.162-7.74 7.381-7.74h115.792c4.219 0 7.581 3.526 7.381 7.74z" fill="#d4f2f6"/><path d="m371.741 396.679-3.36 70.72c-.19 3.94-3.44 7.04-7.39 7.04h-103.25c-3.95 0-7.2-3.1-7.39-7.04l-2.99-62.81h.01l18.77-7.31c14.34-5.58 30.44-4.34 43.76 3.38 7.81 4.53 16.57 6.82 25.38 6.82 6.45 0 12.93-1.23 19.07-3.73z" fill="#a6e7f0"/></g></g></g></g><g><path d="m200.418 496.941h-72.317c-9.446 0-17.131-7.685-17.131-17.131v-9.559c0-9.446 7.685-17.131 17.131-17.131h61.149c4.142 0 7.5-3.358 7.5-7.5s-3.358-7.5-7.5-7.5h-61.149c-9.446 0-17.131-7.685-17.131-17.131v-9.559c0-9.446 7.685-17.131 17.131-17.131h58.352c4.142 0 7.5-3.358 7.5-7.5s-3.358-7.5-7.5-7.5h-58.352c-9.446 0-17.131-7.685-17.131-17.131v-9.559c0-9.446 7.685-17.131 17.131-17.131h55.555c4.142 0 7.5-3.358 7.5-7.5s-3.358-7.5-7.5-7.5h-55.555c-9.446 0-17.131-7.685-17.131-17.131v-9.559c0-9.44 7.676-17.121 17.114-17.13.004 0 .007.001.01.001.007 0 .014-.001.022-.001h52.743c4.142 0 7.5-3.358 7.5-7.5s-3.358-7.5-7.5-7.5h-50.796c-11.813-6.827-19.093-19.335-19.093-33.075v-19.156c0-4.142-3.358-7.5-7.5-7.5s-7.5 3.358-7.5 7.5v19.156c0 14.404 5.739 27.848 15.594 37.669-9.336 5.628-15.594 15.864-15.594 27.537v9.559c0 9.882 4.487 18.732 11.527 24.631-7.04 5.899-11.527 14.749-11.527 24.631v9.559c0 9.882 4.487 18.732 11.527 24.631-7.04 5.899-11.527 14.749-11.527 24.631v9.559c0 9.882 4.487 18.732 11.527 24.631-7.04 5.899-11.527 14.749-11.527 24.631v9.559c0 17.717 14.414 32.131 32.131 32.131h72.317c4.142 0 7.5-3.358 7.5-7.5s-3.357-7.501-7.5-7.501z"/><path d="m103.471 184.967c4.142 0 7.5-3.358 7.5-7.5v-16.007c0-14.344 7.912-27.354 20.648-33.951l47.51-24.611c2.488-1.289 4.05-3.857 4.05-6.66v-14.036h82.584v14.036c0 2.802 1.562 5.371 4.05 6.66l47.511 24.611c12.736 6.598 20.648 19.607 20.648 33.951v58.666c0 4.142 3.357 7.5 7.5 7.5s7.5-3.358 7.5-7.5v-58.666c0-19.972-11.016-38.084-28.749-47.271l-43.46-22.513v-10.133c10.887-2.559 19.02-12.346 19.02-24.003v-32.878c-.001-13.599-11.064-24.662-24.663-24.662h-104.178c-13.598 0-24.661 11.063-24.661 24.662v32.878c0 12.664 9.596 23.125 21.898 24.503v9.633l-43.459 22.513c-17.733 9.186-28.749 27.299-28.749 47.271v16.007c0 4.142 3.358 7.5 7.5 7.5zm57.81-127.427v-32.878c0-5.328 4.334-9.662 9.661-9.662h104.178c5.328 0 9.662 4.334 9.662 9.662v32.878c0 5.328-4.334 9.662-9.662 9.662h-104.178c-5.327 0-9.661-4.334-9.661-9.662z"/><path d="m412.336 246.703c-2.472-2.591-5.942-4.078-9.523-4.078h-186.891c-3.581 0-7.051 1.486-9.522 4.077s-3.791 6.129-3.621 9.706l1.676 35.236c.197 4.138 3.707 7.34 7.848 7.135 4.137-.197 7.332-3.71 7.135-7.848l-1.584-33.306h183.028l-10.162 213.7c-.684 14.365-12.483 25.617-26.864 25.617h-108.977c-14.38 0-26.18-11.252-26.863-25.617l-7.058-148.431c-.197-4.137-3.699-7.315-7.848-7.135-4.137.197-7.332 3.71-7.135 7.848l7.058 148.431c1.064 22.376 19.445 39.904 41.847 39.904h108.977c22.401 0 40.783-17.528 41.847-39.904l10.254-215.63c.168-3.576-1.151-7.114-3.622-9.705z"/><path d="m257.741 481.941h103.253c7.965 0 14.5-6.232 14.878-14.188l6.63-139.417c.098-2.049-.648-4.048-2.063-5.532s-3.377-2.324-5.428-2.324h-131.286c-2.051 0-4.012.84-5.428 2.324s-2.161 3.483-2.064 5.532l6.629 139.417c.379 7.956 6.914 14.188 14.879 14.188zm103.154-15h-103.054l-2.725-57.317 13.746-5.355c12.284-4.785 25.868-3.737 37.273 2.875 8.918 5.171 19.052 7.798 29.209 7.798 7.422 0 14.857-1.403 21.835-4.242l6.516-2.651zm6.251-131.461-2.666 56.056-12.954 5.269c-12.26 4.987-26.415 4.001-37.868-2.638-15.373-8.914-33.688-10.325-50.242-3.875l-9.052 3.526-2.774-58.339h115.556z"/></g></g></svg>