<svg id="Filled_Outline" height="512" viewBox="0 0 128 128" width="512" xmlns="http://www.w3.org/2000/svg" data-name="Filled Outline"><path d="m62.25 68.36v50.47a5 5 0 0 1 -5 5h-45.07a5 5 0 0 1 -5-5v-50.47a10.973 10.973 0 0 1 3.51-8.05l9.37-7.23a6 6 0 0 0 2.31-5.1c-.17-3.06.06-7.81 2.51-11.4a21.7 21.7 0 0 0 2.86-6.6 28.9 28.9 0 0 0 1.03-7.19h11.9a29.306 29.306 0 0 0 1.02 7.19 21.951 21.951 0 0 0 2.86 6.6c2.45 3.59 2.68 8.34 2.51 11.4a6 6 0 0 0 2.31 5.1l9.37 7.23a10.973 10.973 0 0 1 3.51 8.05z" fill="#4b4066"/><path d="m62.25 68.36v49.97h-55.07v-49.97a10.973 10.973 0 0 1 3.51-8.05l9.37-7.23a6 6 0 0 0 2.31-5.1c-.17-3.06.06-7.81 2.51-11.4a21.7 21.7 0 0 0 2.86-6.6h13.95a21.951 21.951 0 0 0 2.86 6.6c2.45 3.59 2.68 8.34 2.51 11.4a6 6 0 0 0 2.31 5.1l9.37 7.23a10.973 10.973 0 0 1 3.51 8.05z" fill="#ff7843"/><rect fill="#2f2b47" height="18.619" rx="3.081" width="18.063" x="25.685" y="4.795"/><path d="m53.539 72.128c-1.78-1.469-4.526-1.855-6.573-5.249-2.833-4.7-7.5-6.162-12.25-6.162s-9.417 1.464-12.25 6.162c-2.047 3.394-4.793 3.78-6.573 5.249a2.664 2.664 0 0 0 -.989 2.058v33.819a2.893 2.893 0 0 0 3 2.772h33.625a2.893 2.893 0 0 0 3-2.772v-33.819a2.665 2.665 0 0 0 -.99-2.058z" fill="#ce4e4a"/><path d="m120.8 74.64-2.72 23.54c-.01.05-.01.1-.02.14a3.042 3.042 0 0 1 -1.1 1.87l-1.44 1.13-1.64 1.29a1.994 1.994 0 0 0 -.75 1.44l-.53 7.92-.16 2.3-.2 3.04-.24 3.49a2 2 0 0 1 -2 1.86h-31.88a1.994 1.994 0 0 1 -2-1.86l-.24-3.49-.2-3-.18-2.64-.51-7.62a1.994 1.994 0 0 0 -.75-1.44l-1.64-1.29-1.44-1.13a3.042 3.042 0 0 1 -1.1-1.87c-.01-.04-.01-.09-.02-.14l-2.72-23.54a2 2 0 0 1 1.98-2.23h49.51a2 2 0 0 1 1.99 2.23z" fill="#ffeade"/><path d="m112.6 111.97-.16 2.3-.44 6.53a2 2 0 0 1 -2 1.86h-31.88a1.994 1.994 0 0 1 -2-1.86l-.44-6.49-.18-2.64h35.02a7.166 7.166 0 0 1 2.08.3z" fill="#ffeade"/><path d="m118.06 98.32a3.042 3.042 0 0 1 -1.1 1.87l-3.08 2.42a1.994 1.994 0 0 0 -.75 1.44l-.69 10.22-.06.04h-36.7l-.69-10.26a1.994 1.994 0 0 0 -.75-1.44l-3.08-2.42a3.042 3.042 0 0 1 -1.1-1.87z" fill="#ff7843"/><rect fill="#fff" height="15.518" rx="3" transform="matrix(.707 .707 -.707 .707 97.701 -31.733)" width="15.518" x="79.397" y="94.31"/><path d="m96.01 104.19-2.01 2.02-4.72 4.71a3.012 3.012 0 0 1 -4.25 0l-6.73-6.73a3 3 0 0 1 0-4.24l1.63-1.63h14.45l1.63 1.63a3 3 0 0 1 0 4.24z" fill="#ffbc5a"/><path d="m109.68 104.19-6.73 6.73a3 3 0 0 1 -4.24 0l-6.73-6.73a3 3 0 0 1 0-4.24l1.63-1.63.39-.38 4.71-4.72a3 3 0 0 1 4.24 0l5.1 5.1 1.63 1.63a2.982 2.982 0 0 1 0 4.24z" fill="#fff"/><path d="m109.68 104.19-6.73 6.73a3 3 0 0 1 -4.24 0l-6.73-6.73a3 3 0 0 1 0-4.24l1.63-1.63h14.44l1.63 1.63a2.982 2.982 0 0 1 0 4.24z" fill="#ffbc5a"/><path d="m96.01 104.19-2.01 2.02-2.02-2.02a3 3 0 0 1 0-4.24l1.63-1.63h.77l1.63 1.63a3 3 0 0 1 0 4.24z" fill="#fff"/><path d="m96.01 104.19-2.01 2.02-2.02-2.02a3 3 0 0 1 0-4.24l1.63-1.63h.77l1.63 1.63a3 3 0 0 1 0 4.24z" fill="#ffad36"/><g fill="#2f2b47"><path d="m59.766 59.209c-.034-.031-.07-.062-.107-.09l-9.375-7.225a4.5 4.5 0 0 1 -1.723-3.831c.192-3.485-.133-8.453-2.772-12.327-2.341-3.436-3.368-8.484-3.579-11.736a4.575 4.575 0 0 0 3.038-4.294v-12.456a4.587 4.587 0 0 0 -4.581-4.581h-11.9a4.587 4.587 0 0 0 -4.582 4.581v12.458a4.574 4.574 0 0 0 3.037 4.292c-.211 3.25-1.238 8.3-3.579 11.734-2.643 3.876-2.964 8.844-2.771 12.329a4.511 4.511 0 0 1 -1.724 3.837l-9.375 7.219c-.037.028-.073.059-.107.09a12.544 12.544 0 0 0 -3.981 9.148v50.474a6.508 6.508 0 0 0 6.5 6.5h45.062a6.508 6.508 0 0 0 6.5-6.5v-50.474a12.544 12.544 0 0 0 -3.981-9.148zm-20.543-34.92a30.981 30.981 0 0 0 .583 4.19h-10.18a31.151 31.151 0 0 0 .584-4.19zm-12.038-17.039a1.583 1.583 0 0 1 1.581-1.581h11.9a1.584 1.584 0 0 1 1.582 1.581v12.458a1.584 1.584 0 0 1 -1.581 1.581h-11.9a1.583 1.583 0 0 1 -1.581-1.581zm-15.523 54.2 9.317-7.18a7.508 7.508 0 0 0 2.888-6.37c-.167-3.023.09-7.294 2.256-10.473a22.5 22.5 0 0 0 2.728-5.946h11.73a22.471 22.471 0 0 0 2.729 5.946c2.166 3.18 2.422 7.451 2.255 10.473a7.508 7.508 0 0 0 2.888 6.373l9.318 7.18a9.533 9.533 0 0 1 2.976 6.906v48.474h-52.062v-48.476a9.53 9.53 0 0 1 2.977-6.906zm45.585 60.88h-45.062a3.5 3.5 0 0 1 -3.337-2.5h51.736a3.5 3.5 0 0 1 -3.337 2.501z"/><path d="m17.9 112.277h33.629a4.4 4.4 0 0 0 4.5-4.272v-33.819a4.165 4.165 0 0 0 -1.536-3.215 13.075 13.075 0 0 0 -2.205-1.382 9 9 0 0 1 -4.038-3.484c-2.756-4.571-7.31-6.888-13.534-6.888s-10.778 2.317-13.535 6.888a9 9 0 0 1 -4.036 3.485 12.974 12.974 0 0 0 -2.206 1.381 4.165 4.165 0 0 0 -1.539 3.215v33.819a4.4 4.4 0 0 0 4.5 4.272zm-1.5-38.091a1.161 1.161 0 0 1 .446-.9 10.568 10.568 0 0 1 1.713-1.052 11.914 11.914 0 0 0 5.188-4.579c2.176-3.608 5.866-5.437 10.966-5.437s8.79 1.829 10.965 5.437a11.921 11.921 0 0 0 5.189 4.579 10.568 10.568 0 0 1 1.713 1.052 1.16 1.16 0 0 1 .445.9v33.819a1.4 1.4 0 0 1 -1.5 1.272h-33.625a1.4 1.4 0 0 1 -1.5-1.272z"/><path d="m121.428 72.085a3.5 3.5 0 0 0 -2.613-1.171h-49.51a3.5 3.5 0 0 0 -3.477 3.9l2.723 23.533c.006.047.023.091.03.137a1.5 1.5 0 0 0 .068.31 4.521 4.521 0 0 0 1.584 2.567l3.076 2.428a.5.5 0 0 1 .189.359l1.127 16.752a3.511 3.511 0 0 0 3.492 3.265h31.883a3.512 3.512 0 0 0 3.5-3.265l1.127-16.748a.5.5 0 0 1 .189-.359l3.075-2.428a4.52 4.52 0 0 0 1.58-2.545 1.5 1.5 0 0 0 .076-.349c.006-.041.022-.079.026-.12l2.724-23.533a3.509 3.509 0 0 0 -.869-2.733zm-52.5 2a.5.5 0 0 1 .374-.167h49.51a.5.5 0 0 1 .5.557l-2.587 22.348h-45.325l-2.592-22.352a.5.5 0 0 1 .123-.39zm41.072 47.079h-31.883a.5.5 0 0 1 -.5-.467l-.329-4.89h33.542l-.33 4.89a.5.5 0 0 1 -.5.467zm2.95-19.727a3.5 3.5 0 0 0 -1.324 2.512l-.6 8.858h-33.939l-.6-8.857a3.5 3.5 0 0 0 -1.323-2.513l-2.049-1.618h41.885z"/><path d="m110.745 98.887-6.73-6.73a4.5 4.5 0 0 0 -6.364 0l-3.657 3.656-3.656-3.656a4.505 4.505 0 0 0 -6.364 0l-6.73 6.73a4.5 4.5 0 0 0 0 6.364l6.73 6.73a4.506 4.506 0 0 0 6.364 0l3.662-3.656 3.656 3.656a4.5 4.5 0 0 0 6.364 0l6.73-6.73a4.5 4.5 0 0 0 -.005-6.364zm-22.528 10.973a1.5 1.5 0 0 1 -2.122 0l-6.73-6.73a1.5 1.5 0 0 1 0-2.122l6.73-6.73a1.5 1.5 0 0 1 2.122 0l3.656 3.656-.953.953a4.506 4.506 0 0 0 0 6.364l.953.953zm20.407-6.73-6.73 6.73a1.5 1.5 0 0 1 -2.122 0l-6.73-6.73a1.5 1.5 0 0 1 0-2.122l6.73-6.73a1.5 1.5 0 0 1 2.122 0l6.73 6.73a1.5 1.5 0 0 1 0 2.122z"/></g></svg>