<svg id="Layer_1" enable-background="new 0 0 512.001 512.001" height="512" viewBox="0 0 512.001 512.001" width="512" xmlns="http://www.w3.org/2000/svg"><g><g><g><g><path d="m116.593 504.501 328.41-2.172-11.003-69.328z" fill="#cdcfd4"/><g><g><path d="m461.599 454.831-345.006 49.67-66.191-447.331 345.005-49.669z" fill="#f2f2f2"/><path d="m395.407 7.501-40.869 5.884 66.061 446.446-304.136 43.786.13.884 345.006-49.67z" fill="#e1e3e8"/><g><path d="m414.97 139.705-19.563-132.204-76.345 10.991 18.875 132.131z" fill="#a0edf7"/><path d="m355.407 13.501 19.515 131.88 40.048-5.676-19.563-132.204-76.345 10.991.033.237z" fill="#7ae1f0"/><path d="m319.062 18.492-268.66 38.678 19.45 131.45 268.085-37.997z" fill="#fed33a"/></g><g><g><g><g><path d="m273.523 205.782s46.557-16.587 59.466 44.831c5.657 26.914 2.174 51.726 23.502 71.719 14.123 13.238 25.677 28.558 7.753 54.669-4.24 6.176-11.116 17.435.85 25.64 20.727 14.214 20.991 47.79-12.131 59.305l-132.716 17.612c-20.621-2.781-31.398-14.419-34.169-27.272-1.662-7.712-.443-15.861 3.263-22.797 7.204-13.485-.851-20.111-6.713-24.745-10.23-8.085-14.965-15.829-16.388-23.358-2.025-10.71 2.653-20.983 7.749-31.176 7.761-15.526 8.411-22.476 3.874-29.118-5.527-8.093-14.939-58.591 17.434-93.675 20.883-22.634 54.599-30.723 78.226-21.635z" fill="#6362b5"/><g fill="#ffd1c9"><path d="m262.589 387.291c3.061 20.392-8.342 27.42-18.041 35.575-28.718 24.145-26.214 43.1-22.704 66.482l132.178-19.029c-3.51-23.382-6.818-43.378-41.335-57.862-11.657-4.892-24.612-8.199-27.673-28.591z"/><path d="m211.528 349.212c2.292 13.758 5.63 22.721 24.184 29.956 9.9 3.861 28.355 9.996 38.183 8.495s25.655-12.874 33.978-19.519c17.506-13.976 16.068-24.305 13.545-41.113-4.815-32.078-17.815-67.268-17.815-67.268-4.466-9.135-12.851-13.652-22.337-12.204-9.444 1.442-16.568 8.592-17.261 23.537-.483 10.411.78 37.335-20.263 40.549-13.006 1.987-16.218 8.444-16.744 17.02-.39 6.364-2.322 16.421-15.694 20.568"/></g></g></g><g><path d="m312.905 412.551-30.881 29.262-35.961-20.202c-.508.417-1.014.835-1.514 1.256-28.718 24.145-26.214 43.1-22.704 66.482l132.178-19.029c-3.503-23.334-6.81-43.292-41.118-57.769z" fill="#ff80bb"/></g></g><ellipse cx="170.209" cy="272.278" fill="#fed33a" rx="45.698" ry="45.886" transform="matrix(.025 -1 1 .025 -106.184 435.719)"/></g></g></g></g></g></g><g fill="#060606"><path d="m469.018 453.733-66.191-447.33c-.605-4.087-4.399-6.912-8.488-6.326l-242.564 34.921c-9.532 1.374-7.409 16.205 2.138 14.848l158.327-22.794 17.356 117.291-253.317 36.47-17.356-117.292 46.766-6.732c9.532-1.374 7.408-16.22-2.138-14.848l-54.218 7.806c-4.058.584-6.95 4.466-6.351 8.521l66.191 447.33c.544 3.669 3.79 6.402 7.471 6.402l232.14-1.601c9.623-.066 9.551-15-.104-15l-122.084.842 204.868-29.495 4.691 28.123-36.079.164c-9.622.043-9.587 15 .068 15l44.893-.204c4.509-.02 8.108-4.271 7.364-8.733l-6.086-36.488 16.352-2.354c4.059-.584 6.951-4.466 6.351-8.521zm-141.93-428.819 61.994-8.925 17.355 117.291-61.994 8.925zm-139.811 373.947c-16.77-13.254-15.473-27.51-6.582-45.296 6.84-13.684 8.718-22.505 6.087-30.741 17.027-5.572 30.87-19.538 35.343-38.142 3.316-13.789 1.054-28.046-6.368-40.145-3.507-5.718-7.977-10.618-13.164-14.564 14.125-20.684 45.956-25.764 68.237-17.192 1.546.595 3.575.626 5.172.078 27.683-9.412 44.726 15.884 49.646 39.295 1.4 6.662 2.235 13.351 3.042 19.819 2.402 19.251 4.886 39.157 22.671 55.828 15.156 14.207 20.354 25.061 6.698 44.953-8.223 11.98-10.777 26.765 2.792 36.07 7.957 5.456 12.137 14.525 10.912 23.67-.648 4.831-3.353 12.944-13.6 18.894-3.599-14.298-11.262-26.412-23.214-35.186-12.704-9.325-36.675-11.841-41.527-28.811 7.846-4.648 15.159-10.217 19.131-13.387 20.986-16.754 18.807-31.274 16.283-48.088-4.874-32.467-17.655-67.287-18.197-68.753-.087-.237-.187-.469-.297-.695-5.875-12.018-17.451-18.271-30.207-16.323-17.021 2.599-23.295 18.272-23.729 33.831-.486 17.452-2.963 28.601-13.795 30.256-14.691 2.244-22.247 10.086-23.097 23.975-.345 5.628-1.847 11.202-10.43 13.864-11.4 3.536-17.007 13.211-18.522 18.37-2.714 9.24 11.674 13.481 14.392 4.229.425-1.14.997-2.206 1.717-3.198 6.731 20.333 30.06 27.458 48.926 31.852.227 16.878-19.929 25.704-29.379 37.247-9.33 11.397-14.285 24.696-13.974 39.457-10.164-3.474-16.874-10.23-18.834-19.323-1.279-5.935-.375-12.214 2.546-17.682 10.255-19.197-3.013-29.684-8.679-34.162zm15.695-146.479c17.557 28.617-9.171 64.798-41.707 57.04-20.227-4.827-33.275-25.717-28.389-46.042 4.879-20.289 26.026-33.076 46.277-28.246 10.001 2.386 18.46 8.511 23.819 17.248zm25.226 228.474c-2.329-17.702-1.702-31.965 18.749-50.146l31.403 17.641c2.816 1.581 6.449 1.153 8.821-1.084l27.327-25.786c23.34 11.138 27.973 24.743 30.947 42.494zm44.565-100.607c-5.856.895-19.656-2.348-34.326-8.068-12.952-5.051-16.514-10.477-18.418-18.521 7.063-3.907 13.646-11.145 14.466-24.533.326-5.325 1.188-8.659 10.391-10.064 25.389-3.879 26.185-32.461 26.524-44.666.22-7.901 1.363-17.95 11-19.421 6.196-.947 11.263 1.805 14.303 7.757 1.38 3.812 12.917 36.225 17.299 65.413 2.418 16.112 3.419 22.781-10.808 34.139-12.34 9.849-24.569 17.068-30.431 17.964zm-2.194 15.129c3.16 0 6.205-.492 9.21-1.476 4.14 11.744 12.089 17.425 19.721 21.106l-18.612 17.563-21.829-12.263c5.906-5.738 11.084-13.203 11.51-24.93zm101.146 64.816c8.302-6.658 13.548-15.506 14.916-25.705 1.982-14.785-4.646-29.359-17.295-38.034-6.158-4.223-2.248-10.345 1.091-15.211 20.66-30.096 7.142-49.436-8.806-64.385-13.83-12.964-15.783-28.617-18.045-46.742-.845-6.772-1.719-13.775-3.247-21.048-4.809-22.879-14.646-38.626-29.239-46.802-15.29-8.567-31.058-5.948-37.309-4.362-28.825-9.777-67.088-1.947-84.329 24.758-29.625-11.341-63.715 6.255-71.158 37.211-3.316 13.788-1.054 28.046 6.369 40.145 9.906 16.147 28.092 25.966 47.038 25.431 1.658 3.085 2.787 6.99-4.421 21.408-5.759 11.519-11.132 24.06-8.126 37.173 2.522 11.002 10.158 19.749 18.824 26.597 6.143 4.855 8.911 7.535 4.749 15.327-4.593 8.597-6.006 18.509-3.979 27.911 3.041 14.111 13.153 24.802 27.891 30.093l-83.718 12.053-44.447-300.361 330.159-47.532 44.444 300.361z"/><path d="m204.974 73.418c-3.884-6.673-14.417-5.09-16.17 2.425l-13.612 59.037c-2.163 9.381 12.437 12.822 14.616 3.371l2.232-9.679 23.999-3.37 4.699 8.649c4.597 8.461 17.784 1.315 13.181-7.16l-28.835-53.079c-.037-.066-.073-.131-.11-.194zm-9.326 39.5 4.087-17.727 8.658 15.937z"/><path d="m111.711 87.065c-3.95-7.95-16.197-5.251-16.663 3.538l-2.366 56.758c-.401 9.632 14.579 10.391 14.987.625l1.274-30.578 13.024 28.889c3.555 7.733 15.549 6.061 16.697-2.387l4.437-31.341 9.819 29.098c3.079 9.125 17.296 4.341 14.213-4.797l-18.216-53.975c-2.949-8.397-15.746-7.222-16.998 1.642l-5.1 36.027-14.989-33.245c-.037-.085-.077-.17-.119-.254z"/><path d="m266.867 74.349c4.198-.59 8.414.078 12.194 1.932 8.646 4.243 15.264-9.222 6.604-13.467-6.483-3.181-13.705-4.33-20.885-3.318-19.738 2.771-33.585 21.099-30.868 40.857 2.683 19.51 21.251 33.591 40.771 30.84 18.79-2.638 29.887-19.215 26.986-40.312-.558-4.061-4.416-6.972-8.473-6.405l-16.985 2.385c-9.537 1.337-7.464 16.199 2.086 14.854l8.62-1.21c-.871 7.503-4.886 14.511-14.319 15.835-11.407 1.593-22.256-6.617-23.825-18.03-1.593-11.588 6.523-22.336 18.094-23.961z"/><path d="m370.312 51.559c-1.409-9.529-16.249-7.344-14.839 2.195l8.401 56.771c1.424 9.623 16.245 7.315 14.839-2.195z"/><path d="m363.715 249.694 34.304-4.603c9.545-1.281 7.564-16.144-1.995-14.867l-34.304 4.603c-9.552 1.281-7.575 16.138 1.995 14.867z"/><path d="m359.734 222.792 34.304-4.603c9.545-1.281 7.563-16.145-1.995-14.867l-34.304 4.603c-9.552 1.281-7.575 16.137 1.995 14.867z"/><path d="m408.435 263.563c-.552-4.105-4.326-6.984-8.431-6.437l-34.303 4.603c-9.551 1.282-7.575 16.138 1.995 14.867l34.303-4.603c4.105-.55 6.987-4.324 6.436-8.43z"/><path d="m286.708 339.527c-3.114-2.732-7.852-2.422-10.584.693-7.849 8.947-15.616 4.662-17.829 3.117-7.773-5.605-16.566 6.432-8.833 12.123 12.302 9.054 28.31 5.629 37.939-5.35 2.731-3.113 2.421-7.851-.693-10.583z"/></g></g></svg>