<svg id="Capa_1" enable-background="new 0 0 512 512" height="512" viewBox="0 0 512 512" width="512" xmlns="http://www.w3.org/2000/svg"><path d="m256 498.504c57.184 0 103.541-42.475 103.541-161.885 0-57.184-46.357-103.541-103.541-103.541s-103.541 46.357-103.541 103.541c0 119.411 46.357 161.885 103.541 161.885z" fill="#f7ef87"/><path d="m162.224 312.361c-6.898-1.915-13.871 2.715-14.811 9.812-.626 4.728-.949 9.55-.949 14.446 0 57.29 10.594 100.783 31.488 129.267 18.528 25.262 45.517 38.614 78.048 38.614s59.52-13.352 78.048-38.614c9.206-12.55 16.409-28.017 21.591-46.291-48.763-59.174-142.713-93.159-193.415-107.234z" fill="#efd176"/><ellipse cx="400.104" cy="176.541" fill="#ffbf9e" rx="43.852" ry="43.852" transform="matrix(.707 -.707 .707 .707 -7.646 334.624)"/><ellipse cx="111.896" cy="176.541" fill="#ffd4be" rx="43.852" ry="43.852" transform="matrix(.373 -.928 .928 .373 -93.627 214.589)"/><path d="m398.566 172.593c0-75.31-63.829-136.361-142.566-136.361s-142.566 61.051-142.566 136.361 63.829 125.9 142.566 125.9 142.566-50.59 142.566-125.9z" fill="#ffd4be"/><path d="m307.409 290.758c-155.469-28.433-149.121-183.13-108.893-242.977-50.105 21.142-85.082 69.067-85.082 124.812 0 75.31 63.829 125.9 142.566 125.9 18.127 0 35.46-2.688 51.409-7.735z" fill="#ffbf9e"/><ellipse cx="180.366" cy="200.512" fill="#eda1ab" rx="27.907" ry="22.224"/><ellipse cx="331.634" cy="200.512" fill="#eda1ab" rx="27.907" ry="22.224"/><path d="m334.048 465.886c18.63-25.398 29.065-62.736 31.108-111.143.323-7.649-6.725-13.527-14.18-11.788-86.212 20.107-153.545 64.246-188.849 93.729 4.371 11.023 9.643 20.775 15.825 29.202 18.528 25.262 45.517 38.614 78.048 38.614s59.52-13.352 78.048-38.614z" fill="#eab65f"/><g fill="#eb9c32"><path d="m192.482 372.554c-1.919 0-3.839-.732-5.303-2.196l-5.227-5.227c-2.929-2.93-2.929-7.678 0-10.607 2.929-2.928 7.678-2.928 10.606 0l5.227 5.228c2.929 2.93 2.929 7.678 0 10.607-1.464 1.462-3.383 2.195-5.303 2.195z"/><path d="m226.615 451.461c-1.919 0-3.839-.732-5.304-2.197-2.929-2.929-2.928-7.678.001-10.607l6.123-6.122c2.929-2.929 7.677-2.928 10.607.001 2.929 2.929 2.928 7.678-.001 10.607l-6.122 6.122c-1.465 1.463-3.385 2.196-5.304 2.196z"/><path d="m298.202 451.402c-1.919 0-3.839-.732-5.303-2.196l-6.005-6.005c-2.929-2.93-2.929-7.678 0-10.607 2.929-2.928 7.678-2.928 10.606 0l6.005 6.005c2.929 2.93 2.929 7.678 0 10.607-1.465 1.464-3.384 2.196-5.303 2.196z"/><path d="m311.389 403.423c-1.919 0-3.839-.733-5.303-2.196-2.929-2.93-2.929-7.678 0-10.607l5.052-5.052c2.929-2.928 7.678-2.928 10.607 0 2.929 2.93 2.929 7.678 0 10.607l-5.052 5.052c-1.465 1.463-3.385 2.196-5.304 2.196z"/></g><path d="m301.963 332.799c-1.919 0-3.838-.731-5.303-2.196-2.929-2.929-2.93-7.677-.001-10.606l1.852-1.853c2.93-2.93 7.677-2.931 10.607-.001 2.929 2.929 2.93 7.677.001 10.606l-1.852 1.853c-1.465 1.464-3.385 2.197-5.304 2.197z" fill="#efd176"/><path d="m196.631 185.557c7.686 0 14.995-3.328 20.053-9.132 2.722-3.122 2.396-7.859-.726-10.581-3.122-2.723-7.86-2.397-10.581.726-2.209 2.534-5.396 3.987-8.745 3.987s-6.537-1.453-8.746-3.987c-2.722-3.124-7.46-3.448-10.582-.726s-3.448 7.459-.726 10.581c5.058 5.804 12.367 9.132 20.053 9.132zm118.738 0c7.685 0 14.994-3.328 20.053-9.131 2.722-3.123 2.397-7.86-.725-10.582-3.121-2.722-7.86-2.396-10.582.725-2.209 2.535-5.397 3.988-8.746 3.988s-6.536-1.453-8.745-3.987c-2.722-3.124-7.459-3.448-10.582-.726s-3.448 7.459-.726 10.581c5.059 5.804 12.368 9.132 20.053 9.132zm-48.236 5.595c0-6.558-4.985-11.873-11.133-11.873-6.149 0-11.133 5.316-11.133 11.873s4.984 11.873 11.133 11.873 11.133-5.316 11.133-11.873zm130.574-65.901c-21.368-58.612-80.994-99.725-149.688-96.295 1.857-7.984 9.015-13.956 17.556-13.956 4.142 0 7.5-3.357 7.5-7.5s-3.358-7.5-7.5-7.5c-17.349 0-31.607 13.443-32.93 30.459-23.339 3.481-45.401 12.184-64.777 25.682-3.399 2.368-4.234 7.043-1.867 10.441s7.041 4.233 10.441 1.867c17.365-12.098 37.137-19.926 58.07-23.103 5.182 15.729 20.006 27.118 37.448 27.118 4.142 0 7.5-3.357 7.5-7.5 0-4.142-3.358-7.5-7.5-7.5-9.583 0-17.891-5.55-21.889-13.603 77.763-3.181 140.994 56.345 140.994 128.731 0 73.309-62.982 118.399-135.065 118.399-72.804 0-135.065-45.628-135.065-118.399 0-29.541 10.742-58.403 30.246-81.271 2.688-3.151 2.312-7.886-.839-10.573-3.153-2.689-7.886-2.313-10.573.839-11.14 13.061-19.717 27.881-25.452 43.664-29.207-1.418-53.771 22.029-53.771 51.288 0 30.649 26.871 54.682 57.515 50.978 9.426 19.912 24.077 37.189 43.532 50.629-5.654 9.098-9.918 18.894-12.729 29.239-5.094 3.194-8.157 8.314-8.884 13.8-.673 5.082-1.015 10.274-1.015 15.432 0 44.935 6.456 97.6 32.94 133.702 19.998 27.269 49.077 41.681 84.095 41.681 27.954 0 52.693-9.466 71.544-27.375 3.003-2.853 3.125-7.601.272-10.603s-7.601-3.123-10.603-.272c-16.239 15.428-36.835 23.25-61.213 23.25-30.045 0-54.943-12.293-72.001-35.551-4.813-6.56-9.107-14.114-12.802-22.51 50.356-40.693 115.236-73.23 181.482-88.681 2.618-.611 5.098 1.46 4.984 4.168-1.608 38.112-8.549 69.204-20.631 92.412-1.913 3.674-.484 8.203 3.19 10.115 3.674 1.914 8.203.485 10.115-3.19 13.103-25.172 20.61-58.381 22.312-98.705.23-5.443-1.81-10.585-5.631-14.363.015-1.428.023-2.773.023-4.078 0-20.876-5.738-40.927-16.64-58.465 19.478-13.455 34.123-30.743 43.54-50.635 30.676 3.708 57.515-20.357 57.515-50.978-.001-29.225-24.524-52.689-53.749-51.288zm-322.162 51.29c0-19.339 15.182-35.195 34.253-36.287-5.81 24.102-5.126 49.415 2.438 72.628-20.247.197-36.691-16.228-36.691-36.341zm90.063 247.672c-7.73-23.788-11.644-53.189-11.644-87.593 0-4.501.298-9.03.885-13.462.354-2.668 2.951-4.243 5.37-3.57 23.401 6.497 66.784 20.274 109.056 42.827-47.777 20.965-83.49 45.916-103.667 61.798zm186.406-88.99c-.914.079-1.83.216-2.742.429-22.309 5.203-43.132 11.912-62.29 19.414-46.24-26.438-95.604-42.344-121.829-49.673 2.326-6.782 5.428-13.249 9.233-19.364 48.687 26.65 114.546 26.655 163.244-.008 9.197 14.78 14.135 31.634 14.384 49.202zm47.751-122.341c7.696-23.619 8.129-49.125 2.477-72.625 19.052 1.111 34.213 16.958 34.213 36.284 0 20.087-16.421 36.538-36.69 36.341z"/></svg>