<svg height="512" viewBox="0 0 512 512" width="512" xmlns="http://www.w3.org/2000/svg"><g id="filled_outlline" data-name="filled outlline"><path d="m374 176h84a22 22 0 0 1 22 22v266a0 0 0 0 1 0 0h-128a0 0 0 0 1 0 0v-266a22 22 0 0 1 22-22z" fill="#faa6b2"/><path d="m400 96h32v56h-32z" fill="#e2e2e2"/><path d="m400 96h32v8h-32z" fill="#cbcbcb"/><path d="m379.225 48a146.027 146.027 0 0 0 -91.225 32l24 16 31.7-12.682a46.4 46.4 0 0 1 17.235-3.318h23.065l16 16h32l16-16v-32z" fill="#e2e2e2"/><path d="m392 144h48v32h-48z" fill="#e2e2e2"/><path d="m408 144h16v32h-16z" fill="#cbcbcb"/><g fill="#d88f9a"><path d="m352 224h72a8 8 0 0 1 8 8v144a8 8 0 0 1 -8 8h-72a0 0 0 0 1 0 0v-160a0 0 0 0 1 0 0z"/><path d="m424 440h-72a8 8 0 0 1 0-16h72a8 8 0 0 1 0 16z"/><path d="m480 440h-24a8 8 0 0 1 0-16h24z"/></g><path d="m324 464h-104a28 28 0 0 1 -28-28v-134a30 30 0 0 1 30-30h100a30 30 0 0 1 30 30v134a28 28 0 0 1 -28 28z" fill="#92d1f7"/><path d="m224 224h96v48h-96z" fill="#e2e2e2"/><path d="m248 224h16v48h-16z" fill="#cbcbcb"/><path d="m280 224h16v48h-16z" fill="#cbcbcb"/><path d="m256 160h32v32h-32z" fill="#e2e2e2"/><path d="m256 160h32v8h-32z" fill="#cbcbcb"/><path d="m296 160h-40l-40 16-16-24 48-24h48a16 16 0 0 1 16 16 16 16 0 0 1 -16 16z" fill="#e2e2e2"/><path d="m248 192h48v32h-48z" fill="#e2e2e2"/><path d="m248 216h48v8h-48z" fill="#cbcbcb"/><path d="m192 312h74a22 22 0 0 1 22 22v68a22 22 0 0 1 -22 22h-74a0 0 0 0 1 0 0v-112a0 0 0 0 1 0 0z" fill="#5ebef7"/><path d="m32 416h192a0 0 0 0 1 0 0v26a22 22 0 0 1 -22 22h-148a22 22 0 0 1 -22-22v-26a0 0 0 0 1 0 0z" fill="#e2e2e2"/><path d="m179.752 416h-103.504a36.248 36.248 0 0 1 -36.248-36.248 36.248 36.248 0 0 1 48.636-34.066 115.193 115.193 0 0 0 78.728 0 36.248 36.248 0 0 1 48.636 34.066 36.248 36.248 0 0 1 -36.248 36.248z" fill="#fbb540"/><path d="m128 387.866a83.974 83.974 0 0 1 -26.529-4.277 8 8 0 1 1 5.058-15.178 68.34 68.34 0 0 0 42.942 0 8 8 0 1 1 5.058 15.178 83.974 83.974 0 0 1 -26.529 4.277z" fill="#d18d28"/><circle cx="128" cy="280" fill="#5ebef7" r="24"/><circle cx="120" cy="272" fill="#92d1f7" r="8"/><circle cx="60" cy="212" fill="#5ebef7" r="36"/><circle cx="52" cy="196" fill="#92d1f7" r="12"/><circle cx="120" cy="120" fill="#5ebef7" r="24"/><path d="m384 80h64l-16 16h-32z" fill="#b9b9b9"/><circle cx="112" cy="112" fill="#92d1f7" r="8"/><path d="m91.369 338.167a44.229 44.229 0 0 0 -49.15 69.833h-10.219a8 8 0 0 0 -8 8v26a30.034 30.034 0 0 0 30 30h148a29.892 29.892 0 0 0 8.567-1.253 35.952 35.952 0 0 0 9.433 1.253h104a35.8 35.8 0 0 0 20.2-6.221 8 8 0 0 0 7.8 6.221h128a8 8 0 0 0 8-8v-266a30.034 30.034 0 0 0 -30-30h-10v-24a8 8 0 0 0 -8-8v-36.686l13.657-13.657a8 8 0 0 0 2.343-5.657v-32a8 8 0 0 0 -8-8h-68.775a154.585 154.585 0 0 0 -96.225 33.753 8 8 0 0 0 .559 12.9l24 16a8 8 0 0 0 7.409.772l31.7-12.682a38.22 38.22 0 0 1 14.267-2.743h19.752l11.313 11.314v36.686a8 8 0 0 0 -8 8v24h-10a30.034 30.034 0 0 0 -30 30v73.046a37.78 37.78 0 0 0 -16-6.568v-40.478a8 8 0 0 0 -8-8h-16v-24a8 8 0 0 0 -8-8v-16a24 24 0 0 0 0-48h-48a7.994 7.994 0 0 0 -3.578.845l-48 24a8 8 0 0 0 -3.078 11.593l16 24a8 8 0 0 0 9.627 2.99l29.029-11.612v12.184a8 8 0 0 0 -8 8v24h-16a8 8 0 0 0 -8 8v40.478a38.058 38.058 0 0 0 -32 37.522v33.732a44.187 44.187 0 0 0 -19.369 2.435 107.36 107.36 0 0 1 -73.262 0zm-37.369 117.833a14.015 14.015 0 0 1 -14-14v-18h176v18a14.015 14.015 0 0 1 -14 14zm306-224h64l.01 144h-64.01zm72-80v16h-8v-16zm-48-80h-23.065a54.147 54.147 0 0 0 -20.2 3.891l-27.8 11.118-11-7.334a138.6 138.6 0 0 1 77.29-23.675h60.775v20.686l-11.313 11.314h-25.374l-13.656-13.657a8 8 0 0 0 -5.657-2.343zm24 32h16v32h-16zm-8 48h8v16h-8zm-26 32h84a14.015 14.015 0 0 1 14 14v226h-16a8 8 0 0 0 0 16h16v16h-112v-16h64a8 8 0 0 0 0-16h-64v-32h64a16.019 16.019 0 0 0 16-16v-144a16.019 16.019 0 0 0 -16-16h-64v-18a14.015 14.015 0 0 1 14-14zm-62 80h-16v-32h16zm-48 0v-32h16v32zm-52.316-108.9 38.205-19.1h46.111a8 8 0 0 1 0 16h-40c-.262 0-.524.014-.784.04-.133.013-.262.037-.393.056s-.247.032-.369.056c-.161.032-.317.074-.474.115-.09.024-.18.043-.269.07-.165.049-.324.108-.483.167-.066.024-.134.042-.2.068l-.118.047-.035.015-33.82 13.528zm52.316 12.9h16v16h-16zm-8 32h32v16h-32zm-24 32h16v32h-16zm-10 48h100a22.025 22.025 0 0 1 22 22v134a20.023 20.023 0 0 1 -20 20h-95.479a29.805 29.805 0 0 0 3.479-14v-10h34a30.034 30.034 0 0 0 30-30v-68a30.034 30.034 0 0 0 -30-30h-66v-2a22.025 22.025 0 0 1 22-22zm-22 40h66a14.015 14.015 0 0 1 14 14v68a14.015 14.015 0 0 1 -14 14h-34a8 8 0 0 0 -8-8h-10.219a44.131 44.131 0 0 0 -13.781-67.575zm-29.9 33.2a28.249 28.249 0 0 1 37.9 26.552 28.28 28.28 0 0 1 -28.248 28.248h-103.504a28.28 28.28 0 0 1 -28.248-28.249 28.33 28.33 0 0 1 28.155-28.286 28.472 28.472 0 0 1 9.747 1.74 123.383 123.383 0 0 0 84.198-.005z"/><path d="m101.471 383.589a84.414 84.414 0 0 0 53.058 0 8 8 0 1 0 -5.058-15.178 68.34 68.34 0 0 1 -42.942 0 8 8 0 1 0 -5.058 15.178z"/><path d="m128 248a32 32 0 1 0 32 32 32.036 32.036 0 0 0 -32-32zm0 48a16 16 0 1 1 16-16 16.019 16.019 0 0 1 -16 16z"/><path d="m60 256a44 44 0 1 0 -44-44 44.049 44.049 0 0 0 44 44zm0-72a28 28 0 1 1 -28 28 28.032 28.032 0 0 1 28-28z"/><path d="m120 152a32 32 0 1 0 -32-32 32.036 32.036 0 0 0 32 32zm0-48a16 16 0 1 1 -16 16 16.019 16.019 0 0 1 16-16z"/></g></svg>