<svg id="Capa_1" enable-background="new 0 0 512 512" height="512" viewBox="0 0 512 512" width="512" xmlns="http://www.w3.org/2000/svg"><g><g><path d="m501.998 263.258c.04 23.178-18.738 41.977-41.916 41.977h-47.766c-12.629 0-23.388 9.819-23.848 22.448-.47 13.249 10.139 24.158 23.288 24.158-12.859 0-23.298 10.439-23.298 23.298 0 12.869 10.439 23.308 23.298 23.308-12.859 0-23.298 10.439-23.298 23.298 0 12.869 10.439 23.308 23.298 23.308-12.859 0-23.298 10.439-23.298 23.298 0 12.869 10.439 23.308 23.298 23.308h-72.224c-7.169 0-14.259-1.62-20.718-4.73l-39.947-19.238c-8.739-4.21-18.559-5.66-28.138-4.15l-240.689 38.227-.04-.05v-176.296l230.811 11.969c14.909.78 29.328-5.469 38.957-16.869l41.827-49.516c8.249-9.769 20.398-15.399 33.177-15.399h139.508c4.239.001 7.709 3.411 7.718 7.651z" fill="#ffd0c6"/></g><g><path d="m388.455 468.353c0-12.87 10.433-23.303 23.303-23.303h31.36c12.87 0 23.303 10.433 23.303 23.303 0 12.87-10.433 23.303-23.303 23.303h-31.36c-12.87 0-23.303-10.433-23.303-23.303z" fill="#ffd0c6"/></g><g><path d="m388.455 421.748c0-12.87 10.433-23.303 23.303-23.303h52.624c12.87 0 23.303 10.433 23.303 23.303 0 12.87-10.433 23.303-23.303 23.303h-52.624c-12.87 0-23.303-10.433-23.303-23.303z" fill="#ffd0c6"/></g><g><path d="m388.455 375.143c0-12.87 10.433-23.303 23.303-23.303h66.781c12.87 0 23.303 10.433 23.303 23.303 0 12.87-10.433 23.303-23.303 23.303h-66.781c-12.87-.001-23.303-10.434-23.303-23.303z" fill="#ffd0c6"/></g><g><path d="m388.455 328.537c0-12.87 10.433-23.303 23.303-23.303h51.152c12.87 0 23.303 10.433 23.303 23.303 0 12.87-10.433 23.303-23.303 23.303h-51.152c-12.87 0-23.303-10.433-23.303-23.303z" fill="#ffd0c6"/></g><g><path d="m99.918 330.088v-22.792c0-10.151 8.229-18.38 18.38-18.38h21.941c6.566 0 9.854-7.939 5.211-12.581l-6.226-6.226c-16.655-16.655-16.36-43.747.653-60.036l47.285 47.285c10.153 10.153 15.858 23.925 15.858 38.284v39.795z" fill="#e0e7ef"/></g><g><path d="m253.55 38.906-68.29 93.584c-3.639 5.331-6.146 11.351-7.367 17.688l-5.22 27.098 36.692 36.692 27.098-5.22c6.338-1.221 12.358-3.728 17.688-7.367l93.584-68.291z" fill="#ffc135"/></g><g><path d="m294.703 5.061h40.556v133.197h-40.556z" fill="#ffd88a" transform="matrix(.707 -.707 .707 .707 41.585 243.714)"/></g><g><path d="m151.431 186.075h46.381v51.89h-46.381z" fill="#ffc135" transform="matrix(.707 -.707 .707 .707 -98.776 185.576)"/></g><g><path d="m492.014 344.699c2.67-4.79 4.198-10.299 4.198-16.161 0-8.233-3.01-15.772-7.978-21.591 14.715-9.534 23.794-26.164 23.766-43.706-.016-9.724-7.965-17.634-17.721-17.634l-139.509.001c-15.768 0-30.645 6.906-40.817 18.947l-41.823 49.511c-7.571 8.964-19.072 13.954-30.807 13.345l-28.304-1.468v-30.302c0-17.131-6.671-33.239-18.786-45.354l-3.523-3.523 23.557-23.557 24.088-4.639c7.727-1.489 14.938-4.493 21.434-8.928.086-.059.172-.119.256-.181l93.584-68.29c.412-.301.815-.646 1.177-1.007l28.677-28.678c3.905-3.905 3.905-10.237 0-14.142l-94.184-94.184c-3.906-3.904-10.235-3.904-14.141 0l-28.678 28.678c-.36.362-.706.765-1.007 1.177l-68.29 93.583c-.062.085-.122.17-.182.257-4.435 6.499-7.439 13.711-8.926 21.435l-4.64 24.086-30.628 30.628c-20.208 20.355-21.267 53.562-.652 74.177l1.738 1.738h-15.594c-15.648 0-28.38 12.73-28.38 28.378v12.262l-79.401-4.119c-5.5-.29-10.218 3.952-10.503 9.468-.286 5.514 3.953 10.217 9.467 10.503l230.808 11.973c17.92.924 35.537-6.7 47.12-20.411l41.822-49.512c6.364-7.533 15.673-11.853 25.54-11.853l137.153-.001c-1.153 16.468-15.36 29.63-31.839 29.63h-47.766c-12.013 0-23.264 6.146-29.352 16.597-10.743 18.355-28.991 36.277-51.636 36.277-5.522 0-9.999 4.477-9.999 9.999s4.477 9.999 9.999 9.999c22.411 0 39.791-11.825 51.369-23.275 1.38 2.448 3.081 4.74 5.089 6.822.119.123-4.668 6.84-5.162 7.733-7.022 12.687-4.777 28.7 5.362 39.059-12.498 12.77-12.517 33.836 0 46.605-9.363 9.565-12.151 24.324-6.76 36.606h-41.694c-5.639 0-11.305-1.294-16.386-3.741l-39.944-19.237c-10.62-5.115-22.389-6.852-34.049-5.017l-58.506 9.293c-5.455.866-9.173 5.99-8.307 11.443.866 5.454 5.977 9.181 11.443 8.307l58.49-9.29c7.611-1.199 15.306-.063 22.251 3.282l39.943 19.237c7.772 3.743 16.439 5.721 25.064 5.721l103.581-.001c18.363 0 33.302-14.939 33.302-33.302 0-5.183-1.191-10.093-3.313-14.471 14.143-3.845 24.577-16.791 24.577-32.134 0-6.084-1.648-11.787-4.509-16.701 11.044-5.427 18.666-16.791 18.666-29.905.002-13.567-8.159-25.258-19.825-30.442zm-315.445-112.076-22.551-22.551 18.655-18.655 22.551 22.551zm105.659-208.253 80.044 80.043-14.537 14.537-80.044-80.043zm-94.516 127.699c.959-4.975 2.884-9.624 5.724-13.82l61.304-84.01 77.663 77.662-84.013 61.305c-4.193 2.838-8.842 4.764-13.819 5.724l-21.888 4.215-29.189-29.189zm-77.795 155.226c0-4.621 3.76-8.38 8.381-8.38h21.942c15.138 0 23.047-18.882 12.282-29.652l-6.226-6.226c-6.137-6.137-9.465-14.297-9.371-22.976.058-5.316 1.395-10.409 3.864-14.938l39.305 39.303c8.337 8.338 12.929 19.424 12.929 31.214v29.264l-83.104-4.311v-13.298zm301.841 81.151c-7.242 0-13.302-6.061-13.302-13.302 0-7.242 6.06-13.303 13.302-13.303l66.781-.001c7.335 0 13.303 5.968 13.303 13.303s-5.968 13.303-13.303 13.303zm.542-73.212h50.611c7.335 0 13.303 5.968 13.303 13.303s-5.968 13.302-13.303 13.302l-51.132.001c-7.409 0-13.44-6.242-13.311-13.561.147-7.308 6.666-13.035 13.832-13.045zm30.818 166.423h-31.36c-7.242 0-13.302-6.061-13.302-13.302 0-7.335 5.968-13.303 13.303-13.303.007 0 .013-.001.02-.001h31.339c7.335 0 13.303 5.968 13.303 13.303.001 7.334-5.968 13.303-13.303 13.303zm21.264-46.606h-52.624c-7.242 0-13.302-6.061-13.302-13.302 0-7.335 5.968-13.303 13.303-13.303.007 0 .013-.001.02-.001h52.603c7.335 0 13.304 5.968 13.304 13.303s-5.969 13.303-13.304 13.303z"/><path d="m104.259 476.679-95.785 15.215c-5.455.866-9.173 5.99-8.307 11.444.782 4.922 5.032 8.432 9.863 8.432.521 0 1.05-.041 1.581-.126l95.785-15.216c5.455-.866 9.173-5.99 8.307-11.444-.868-5.453-5.993-9.179-11.444-8.305z"/><path d="m147.658 469.8c-4.083.836-7.282 4.156-7.927 8.277-.69 4.407 1.744 8.855 5.825 10.653 8.363 3.684 17.045-5.327 13.013-13.547-1.958-3.992-6.542-6.272-10.911-5.383z"/></g></g></svg>