<?xml version="1.0" encoding="iso-8859-1"?>
<!-- Generator: Adobe Illustrator 19.0.0, SVG Export Plug-In . SVG Version: 6.00 Build 0)  -->
<svg version="1.1" id="Capa_1" xmlns="http://www.w3.org/2000/svg" xmlns:xlink="http://www.w3.org/1999/xlink" x="0px" y="0px"
	 viewBox="0 0 512 512" style="enable-background:new 0 0 512 512;" xml:space="preserve">
<rect x="109.92" y="58.23" style="fill:#86D5B5;" width="30.584" height="46.594"/>
<path style="fill:#3EAF91;" d="M82.264,157.592h85.898c0.267,0,0.529,0.018,0.796,0.021v-47.788c0-2.75-2.25-5-5-5H86.469
	c-2.75,0-5,2.25-5,5v47.788C81.734,157.609,81.997,157.592,82.264,157.592z"/>
<path style="opacity:0.1;enable-background:new    ;" d="M82.264,157.592H103v-47.768c0-2.75,2.25-5,5-5H86.469c-2.75,0-5,2.25-5,5
	v47.788C81.734,157.609,81.997,157.592,82.264,157.592z"/>
<path style="fill:#E23C38;" d="M228.865,490.416l-11.924-35.637H7.5v35.379c0,2.75,2.25,5,5,5h222.951
	C232.701,495.158,229.737,493.024,228.865,490.416z"/>
<path style="fill:#EF5A50;" d="M168.162,157.592H82.264c-41.29,0-74.764,33.986-74.764,75.91h235.427
	C242.927,191.578,209.453,157.592,168.162,157.592z"/>
<g style="opacity:0.1;">
	<path d="M34.573,490.158v-35.379H7.5v35.379c0,2.75,2.25,5,5,5h27.073C36.823,495.158,34.573,492.908,34.573,490.158z"/>
</g>
<path style="fill:#FFFFFF;" d="M200.49,454.549c-2.75,0-5-2.25-5-5v-22.303c0-2.75,2.25-5,5-5h37.211
	c-11.395-9.547-18.648-24.144-18.63-40.691c0.02-19.057,9.497-33.211,23.855-39.797V233.502H7.5v221.277L200.49,454.549z"/>
<path style="fill:#FFCFAB;" d="M237.701,422.246h194.67c11.395-9.547,18.647-24.144,18.628-40.691
	c-0.032-29.557-22.791-47.348-51.268-43.344c-42.97,5.35-86.422,5.35-129.392,0c-28.477-4.004-51.237,13.787-51.269,43.344
	C219.053,398.103,226.307,412.699,237.701,422.246z"/>
<path style="fill:#3EAF91;" d="M474.58,449.549c0,2.75-2.25,5-5,5H200.49c-2.75,0-5-2.25-5-5v-22.303c0-2.75,2.25-5,5-5h269.09
	c2.75,0,5,2.25,5,5L474.58,449.549L474.58,449.549z"/>
<path style="fill:#86D5B5;" d="M216.864,454.549l12.001,35.867c0.872,2.608,3.836,4.742,6.586,4.742h199.17
	c2.75,0,5.714-2.134,6.586-4.742l12.001-35.867H216.864z"/>
<g style="opacity:0.1;">
	<path d="M109.337,157.592H82.264c-41.29,0-74.764,33.986-74.764,75.91v221.277h27.073V233.502
		C34.573,191.578,68.047,157.592,109.337,157.592z"/>
</g>
<ellipse style="fill:#3EAF91;" cx="125.21" cy="330.41" rx="54.08" ry="54.916"/>
<g style="opacity:0.1;">
	<path d="M93,330.412c0-26.524,18.522-48.655,43.149-53.79c-3.532-0.736-7.189-1.124-10.937-1.124
		c-29.869,0-54.085,24.586-54.085,54.914s24.216,54.916,54.085,54.916c3.747,0,7.404-0.388,10.937-1.124
		C111.522,379.068,93,356.936,93,330.412z"/>
</g>
<path style="fill:#3EAF91;" d="M168.958,53.23c0,2.75-2.25,5-5,5H86.469c-2.75,0-5-2.25-5-5V21.842c0-2.75,2.25-5,5-5h77.489
	c2.75,0,5,2.25,5,5L168.958,53.23L168.958,53.23z"/>
<g style="opacity:0.1;">
	<path d="M103,53.23V21.842c0-2.75,2.25-5,5-5H86.469c-2.75,0-5,2.25-5,5V53.23c0,2.75,2.25,5,5,5H108
		C105.25,58.23,103,55.98,103,53.23z"/>
</g>
<path style="fill:#B1E8FF;" d="M504.5,192.129c0,35.715-28.516,64.668-63.693,64.668c-35.174,0-63.689-28.953-63.689-64.668
	c0-35.719,28.516-64.674,63.689-64.674C475.984,127.455,504.5,156.41,504.5,192.129z"/>
<g style="opacity:0.1;">
	<path d="M459.307,240.342c-35.174,0-63.689-28.953-63.689-64.668c0-14.882,4.963-28.579,13.282-39.508
		c-18.997,11.192-31.782,32.055-31.782,55.963c0,35.715,28.516,64.668,63.689,64.668c20.522,0,38.766-9.864,50.414-25.167
		C481.835,237.16,470.94,240.342,459.307,240.342z"/>
</g>
<ellipse style="fill:#D7F7FF;" cx="326.59" cy="269.2" rx="27.42" ry="27.842"/>
<path style="fill:#3EAF91;" d="M474.58,449.549c0,2.75-2.25,5-5,5H200.49c-2.75,0-5-2.25-5-5v-22.303c0-2.75,2.25-5,5-5h269.09
	c2.75,0,5,2.25,5,5L474.58,449.549L474.58,449.549z"/>
<path style="opacity:0.1;enable-background:new    ;" d="M237.701,422.246h27.001c-11.394-9.547-18.647-24.144-18.63-40.691
	c0.023-22.297,12.986-37.892,31.576-42.491c-2.438-0.269-4.874-0.55-7.309-0.853c-28.477-4.004-51.237,13.787-51.269,43.344
	C219.053,398.103,226.307,412.699,237.701,422.246z"/>
<g style="opacity:0.1;">
	<path d="M256.213,490.416l-12.001-35.867h-27.348l12.001,35.867c0.872,2.608,3.836,4.742,6.586,4.742h27.348
		C260.049,495.158,257.085,493.024,256.213,490.416z"/>
</g>
<g style="opacity:0.1;">
	<path d="M222.91,449.549v-22.303c0-2.75,2.25-5,5-5h-27.42c-2.75,0-5,2.25-5,5v22.303c0,2.75,2.25,5,5,5h27.42
		C225.16,454.549,222.91,452.299,222.91,449.549z"/>
</g>
<path d="M186.797,330.412c0-34.415-27.626-62.414-61.584-62.414s-61.585,27.999-61.585,62.414c0,34.416,27.627,62.416,61.585,62.416
	S186.797,364.828,186.797,330.412z M78.628,330.412c0-26.145,20.897-47.414,46.585-47.414c25.687,0,46.584,21.27,46.584,47.414
	c0,26.145-20.898,47.416-46.584,47.416C99.525,377.828,78.628,356.558,78.628,330.412z"/>
<path d="M440.807,119.955c-39.254,0-71.189,32.377-71.189,72.174c0,39.794,31.936,72.168,71.189,72.168
	c39.256,0,71.193-32.374,71.193-72.168C512,152.332,480.063,119.955,440.807,119.955z M440.807,249.297
	c-30.983,0-56.189-25.646-56.189-57.168c0-31.525,25.206-57.174,56.189-57.174c30.985,0,56.193,25.648,56.193,57.174
	C497,223.651,471.792,249.297,440.807,249.297z"/>
<path d="M326.593,304.547c19.255,0,34.92-15.854,34.92-35.342s-15.665-35.342-34.92-35.342c-19.256,0-34.921,15.855-34.921,35.342
	S307.337,304.547,326.593,304.547z M326.593,248.863c10.983,0,19.92,9.125,19.92,20.342s-8.936,20.342-19.92,20.342
	s-19.921-9.125-19.921-20.342S315.608,248.863,326.593,248.863z"/>
<path d="M469.58,414.746h-20.716c6.274-9.71,9.647-21.144,9.635-33.199c-0.017-14.991-5.1-27.901-14.701-37.336
	c-9.227-9.066-22.086-14.06-36.211-14.06c-2.899,0-5.873,0.21-8.839,0.624c-21.059,2.619-42.496,3.947-63.712,3.947
	c-21.217,0-42.653-1.328-63.713-3.947c-2.966-0.414-5.939-0.624-8.839-0.624c-4.15,0-8.186,0.442-12.058,1.281v-97.931
	c0-15.336-4.143-30.331-11.98-43.364c-2.136-3.551-6.745-4.694-10.293-2.563c-3.55,2.135-4.696,6.743-2.563,10.293
	c5.151,8.565,8.353,18.172,9.427,28.134H15.412c3.686-34.205,32.256-60.91,66.852-60.91h85.898c11.254,0,22.387,2.88,32.194,8.329
	c3.619,2.014,8.187,0.707,10.198-2.913c2.012-3.621,0.708-8.186-2.913-10.198c-9.61-5.34-20.257-8.662-31.184-9.785v-40.7
	c0-6.893-5.607-12.5-12.5-12.5h-15.953V65.73h15.953c6.893,0,12.5-5.607,12.5-12.5V39.109h44.651v24.803c0,4.143,3.357,7.5,7.5,7.5
	s7.5-3.357,7.5-7.5V36.609c0-6.893-5.607-12.5-12.5-12.5h-47.151v-2.268c0-6.893-5.607-12.5-12.5-12.5H86.469
	c-6.893,0-12.5,5.607-12.5,12.5V53.23c0,6.893,5.607,12.5,12.5,12.5h15.952v31.594H86.469c-6.893,0-12.5,5.607-12.5,12.5v40.691
	C32.489,154.746,0,190.349,0,233.502v215.686v5.592v35.379c0,6.893,5.607,12.5,12.5,12.5h422.121c5.93,0,11.819-4.24,13.698-9.862
	l10.287-30.747h10.974c6.893,0,12.5-5.607,12.5-12.5v-22.303C482.08,420.353,476.473,414.746,469.58,414.746z M88.969,24.342h72.489
	V50.73H88.969V24.342z M117.421,65.73h15.584v31.594h-15.584C117.421,97.324,117.421,65.73,117.421,65.73z M161.458,112.324v37.768
	H88.969v-37.768C88.969,112.324,161.458,112.324,161.458,112.324z M15,462.279h45c4.143,0,7.5-3.357,7.5-7.5s-3.357-7.5-7.5-7.5H15
	V241.002h220.427v96.225c-3.331,1.953-6.407,4.283-9.155,6.983c-9.602,9.435-14.685,22.345-14.7,37.337
	c-0.013,12.055,3.36,23.488,9.638,33.199h-20.72c-6.893,0-12.5,5.607-12.5,12.5v20.033H102c-4.143,0-7.5,3.357-7.5,7.5
	s3.357,7.5,7.5,7.5h109.543l8.49,25.379H15V462.279z M434.221,487.658H235.852l-8.568-25.609H442.79L434.221,487.658z
	 M467.08,447.049H202.99v-17.303H354c4.143,0,7.5-3.357,7.5-7.5s-3.357-7.5-7.5-7.5H240.56c-0.295-0.279-0.592-0.556-0.88-0.845
	c-8.467-8.477-13.122-19.961-13.108-32.339c0.023-21.778,14.456-36.411,35.913-36.411c2.223,0,4.515,0.164,6.811,0.486
	c0.039,0.006,0.078,0.011,0.117,0.016c21.69,2.7,43.77,4.069,65.623,4.069c21.853,0,43.932-1.369,65.622-4.069
	c0.039-0.005,0.078-0.01,0.117-0.016c2.297-0.322,4.589-0.486,6.812-0.486c21.456,0,35.889,14.633,35.912,36.411
	c0.014,12.381-4.642,23.867-13.109,32.343c-0.287,0.287-0.582,0.563-0.876,0.841H397c-4.143,0-7.5,3.357-7.5,7.5s3.357,7.5,7.5,7.5
	h70.08L467.08,447.049L467.08,447.049z"/>
<g>
</g>
<g>
</g>
<g>
</g>
<g>
</g>
<g>
</g>
<g>
</g>
<g>
</g>
<g>
</g>
<g>
</g>
<g>
</g>
<g>
</g>
<g>
</g>
<g>
</g>
<g>
</g>
<g>
</g>
</svg>
