<svg id="Icons" height="512" viewBox="0 0 60 60" width="512" xmlns="http://www.w3.org/2000/svg"><path d="m41 9v10h-21v-3z" fill="#ccd0da"/><path d="m59 25a8 8 0 0 0 -8-8h-30l-20-8v34c0 4.418 8.954 8 20 8h27l11-22z" fill="#d6dbe3"/><ellipse cx="21" cy="9" fill="#f0f2f5" rx="20" ry="8"/><ellipse cx="21" cy="9" fill="#d69956" rx="10" ry="3"/><path d="m59 25v26a8 8 0 0 1 -8 8h-2a1 1 0 0 1 -1-1v-24a1 1 0 0 1 1-1h2a8 8 0 0 0 8-8z" fill="#f0f2f5"/><g fill="#373737"><path d="m32 9c0-2.748-5.7-4-11-4s-11 1.252-11 4 5.7 4 11 4 11-1.252 11-4zm-20 .015c.151-.555 3.15-2.015 9-2.015 5.8 0 8.8 1.434 9 2-.2.566-3.2 2-9 2-5.85 0-8.849-1.46-9-1.985z"/><path d="m51 16h-9v-7c0-5.047-9.225-9-21-9a40.652 40.652 0 0 0 -14.365 2.356 1 1 0 1 0 .73 1.862 38.638 38.638 0 0 1 13.635-2.218c11.2 0 19 3.689 19 7s-7.8 7-19 7-19-3.689-19-7a3.7 3.7 0 0 1 1.636-2.719 1 1 0 0 0 -1.272-1.544 5.631 5.631 0 0 0 -2.364 4.263v34c0 5.047 9.225 9 21 9h26v6a2 2 0 0 0 2 2h2a9.01 9.01 0 0 0 9-9v-26a9.01 9.01 0 0 0 -9-9zm-11-3.126v3.126h-5.664a16.352 16.352 0 0 0 5.664-3.126zm18 38.126a7.009 7.009 0 0 1 -7 7h-2v-24h2a8.989 8.989 0 0 0 7-3.349zm-7-19h-2a2 2 0 0 0 -2 2v16h-26c-11.2 0-19-3.689-19-7v-30.126c3.323 3.053 10.484 5.126 19 5.126h30a7 7 0 0 1 0 14z"/><path d="m27 44a1 1 0 0 0 -1 1v2a1 1 0 0 0 2 0v-2a1 1 0 0 0 -1-1z"/><path d="m27 38a1 1 0 0 0 -1 1v2a1 1 0 0 0 2 0v-2a1 1 0 0 0 -1-1z"/><path d="m27 32a1 1 0 0 0 -1 1v2a1 1 0 0 0 2 0v-2a1 1 0 0 0 -1-1z"/><path d="m27 26a1 1 0 0 0 -1 1v2a1 1 0 0 0 2 0v-2a1 1 0 0 0 -1-1z"/><path d="m27 20a1 1 0 0 0 -1 1v2a1 1 0 0 0 2 0v-2a1 1 0 0 0 -1-1z"/></g></svg>