<svg id="Layer_1" enable-background="new 0 0 64 64" height="512" viewBox="0 0 64 64" width="512" xmlns="http://www.w3.org/2000/svg"><g><g><path d="m35 28h7v4h8l2-4h5c1.1 0 2 .9 2 2v6.38c0 .94-.66 1.76-1.59 1.95l-1.41.3-18 3.37-3.01-5.26c-.61-1.08-1.75-1.74-2.99-1.74s-2.38.66-2.99 1.74l-3.01 5.26-18-3.37-1.41-.3c-.93-.19-1.59-1.01-1.59-1.95v-6.38c0-.55.22-1.05.59-1.41.36-.37.86-.59 1.41-.59h5l2 4h8v-4h7z" fill="#e0a546"/><path d="m38 47v8h-1-10-1v-8-5l3.01-5.26c.61-1.08 1.75-1.74 2.99-1.74s2.38.66 2.99 1.74l3.01 5.26z" fill="#f0bc5e"/><path d="m52 28-2 4h-8v-4z" fill="#999"/><path d="m22 28v4h-8l-2-4z" fill="#999"/><path d="m26 42v5h-14c-2.209 0-4-1.791-4-4v-4.37z" fill="#e0e0e0"/><path d="m56 38.63v4.37c0 2.209-1.791 4-4 4h-14v-5z" fill="#e0e0e0"/><g fill="#ccc"><path d="m8 38.63v3l18 3.37v-3z"/><path d="m38 42v3l18-3.37v-3z"/><path d="m27 55h10v9h-10z"/></g><path d="m27 55h10v4h-10z" fill="#b3b3b3"/></g><g fill="#252525"><path d="m6.688 8.761c.697.448 1.625.247 2.073-.45s.247-1.625-.45-2.073c-.696-.448-1.624-.246-2.072.45s-.247 1.625.449 2.073z"/><path d="m4.459 4.841c.464.299 1.083.165 1.382-.3.299-.464.165-1.083-.3-1.382-.464-.299-1.083-.165-1.382.3-.299.464-.165 1.083.3 1.382z"/><path d="m19.142 13.011c.553 0 1-.447 1-1s-.447-1-1-1c-2.408 0-4.968-1.535-4.968-4.38 0-2.727 1.774-4.631 4.315-4.631 5.785 0 7.556 6.992 8.392 19.162l-3.366-2.02c-.474-.285-1.088-.131-1.372.343s-.131 1.088.343 1.372l5 3c.158.095.609.283 1.033-.002.308-.206.502-.544.479-.914-.714-12.089-2.055-22.941-10.509-22.941-3.659 0-6.315 2.789-6.315 6.631 0 3.993 3.543 6.38 6.968 6.38z"/><path d="m57.312 8.761c.697-.448.898-1.376.45-2.073s-1.376-.898-2.073-.45-.898 1.376-.45 2.073 1.376.899 2.073.45z"/><path d="m59.541 4.841c.464-.299.599-.918.3-1.382s-.918-.599-1.382-.3-.599.918-.3 1.382.918.599 1.382.3z"/><path d="m31.459 50.159c-.464.299-.599.918-.3 1.382s.918.599 1.382.3.599-.918.3-1.382c-.299-.465-.918-.599-1.382-.3z"/><path d="m31.459 46.159c-.464.299-.599.918-.3 1.382s.918.599 1.382.3.599-.918.3-1.382c-.299-.465-.918-.599-1.382-.3z"/><path d="m38.041 11.335c.464-.299.599-.918.3-1.382s-.918-.599-1.382-.3-.599.918-.3 1.382c.299.465.918.599 1.382.3z"/><path d="m60.875 12.031c-2.288-.928-4.902-.649-7.36.774-3.438 1.994-5.932 5.849-6.506 10.06-.044.328.077.658.324.88.354.312.829.245.909.225l4-1c.536-.134.862-.677.728-1.212-.134-.537-.679-.862-1.212-.728l-2.469.616c.8-3.011 2.719-5.655 5.229-7.11 1.914-1.109 3.903-1.339 5.606-.651 1.532.621 2.275 2.374 1.655 3.907-.301.742-.873 1.324-1.611 1.637-.736.312-1.551.319-2.296.019-.512-.207-1.095.038-1.302.552-.207.512.04 1.095.552 1.302 1.237.502 2.596.491 3.827-.03 1.229-.521 2.183-1.49 2.684-2.729 1.035-2.557-.203-5.478-2.758-6.512z"/><path d="m35.481 23.855c.347.239.875.097 1.033.002l5-3c.474-.284.627-.898.343-1.372-.283-.474-.897-.628-1.372-.343l-3.367 2.021c.193-2.849.409-5.065.681-7.025.076-.547-.306-1.053-.853-1.128-.55-.078-1.053.306-1.128.853-.337 2.429-.589 5.229-.816 9.079-.023.37.174.704.479.913z"/><path d="m38.057 7.938c.519.191 1.094-.076 1.283-.594 1.34-3.646 3.301-5.344 6.171-5.344 2.541 0 4.315 1.904 4.315 4.631 0 2.845-2.56 4.38-4.968 4.38-.553 0-1 .447-1 1s.447 1 1 1c3.425 0 6.968-2.387 6.968-6.38 0-3.842-2.656-6.631-6.315-6.631-3.771 0-6.402 2.177-8.048 6.655-.191.519.075 1.093.594 1.283z"/><path d="m14.709 21.646-2.467-.616c-.536-.136-1.078.19-1.212.728-.135.535.191 1.078.728 1.212l4 1c.08.021.51.147.909-.225.243-.226.369-.552.324-.88-.504-3.697-2.521-7.184-5.394-9.324-.443-.33-1.068-.239-1.399.204-.33.443-.238 1.069.204 1.399 2.065 1.539 3.612 3.899 4.307 6.502z"/><path d="m6.877 21.301c.512-.207.759-.79.552-1.302-.207-.513-.789-.76-1.302-.552-.745.301-1.561.293-2.296-.019-.738-.313-1.311-.895-1.611-1.637-.62-1.533.123-3.286 1.655-3.907 1.171-.472 2.499-.514 3.842-.118.533.161 1.086-.146 1.242-.676.156-.529-.146-1.086-.676-1.242-1.777-.525-3.563-.463-5.158.183-2.555 1.034-3.793 3.955-2.759 6.511.501 1.238 1.454 2.207 2.684 2.729.628.266 1.289.398 1.95.398.636 0 1.271-.122 1.877-.368z"/><path d="m57 27h-50c-.812 0-1.566.316-2.107.873-.577.561-.893 1.315-.893 2.127v6.38c0 1.414 1.005 2.646 2.382 2.929l.618.116v3.575c0 2.757 2.243 5 5 5h13v7c0 .553.447 1 1 1v7c0 .553.447 1 1 1s1-.447 1-1v-7h8v7c0 .553.447 1 1 1s1-.447 1-1v-7c.553 0 1-.447 1-1v-7h13c2.757 0 5-2.243 5-5v-3.56l.61-.13c1.385-.283 2.39-1.516 2.39-2.93v-6.38c0-1.654-1.346-3-3-3zm-14 2h7.382l-1 2h-6.382zm-22 0v2h-6.382l-1-2zm-9 17c-1.654 0-3-1.346-3-3v-3.196l16 3.025v3.171zm40 0h-13v-3.169l16-2.996v3.165c0 1.654-1.346 3-3 3zm6-9.62c0 .469-.332.877-.798.972l-18.688 3.533-.791-1.382c-.274-.479-.884-.646-1.365-.371-.479.274-.646.886-.371 1.365l1.013 1.77v11.733h-10v-11.734l2.88-5.033c.43-.761 1.242-1.233 2.12-1.233s1.69.472 2.12 1.232c.271.481.884.647 1.362.379.48-.272.65-.882.379-1.363-.784-1.387-2.263-2.248-3.861-2.248s-3.077.861-3.858 2.243l-2.657 4.643-17.277-3.235-1.418-.3c-.458-.094-.79-.502-.79-.971v-6.38c0-.267.103-.514.307-.713.179-.184.426-.287.693-.287h4.382l1.724 3.447c.169.339.515.553.894.553h8c.553 0 1-.447 1-1v-3h5v2c0 .553.447 1 1 1s1-.447 1-1v-2h4v2c0 .553.447 1 1 1s1-.447 1-1v-2h5v3c0 .553.447 1 1 1h8c.379 0 .725-.214.895-.553l1.723-3.447h4.382c.552 0 1 .448 1 1z"/></g></g></svg>