<svg height="512" viewBox="0 0 64 64" width="512" xmlns="http://www.w3.org/2000/svg"><g id="_13-wine" data-name="13-wine"><path d="m54.52 17a29.151 29.151 0 0 1 1.48 9c0 5.67-2.89 10.02-7.04 11.93a12.031 12.031 0 0 1 -9.92 0c-4.15-1.91-7.04-6.26-7.04-11.93a29.151 29.151 0 0 1 1.48-9z" fill="#f92814"/><path d="m54.52 17h-21.04a44.006 44.006 0 0 1 2.52-6h16a44.006 44.006 0 0 1 2.52 6z" fill="#f2eee6"/><path d="m37 26a29.151 29.151 0 0 1 1.48-9h-5a29.151 29.151 0 0 0 -1.48 9c0 5.67 2.89 10.02 7.04 11.93a11.9 11.9 0 0 0 4.96 1.07 12.041 12.041 0 0 0 2.5-.264 11.737 11.737 0 0 1 -2.46-.806c-4.15-1.91-7.04-6.26-7.04-11.93z" fill="#c10000"/><path d="m41 11h-5a44.006 44.006 0 0 0 -2.52 6h5a44.006 44.006 0 0 1 2.52-6z" fill="#d6cec1"/><ellipse cx="44" cy="61" fill="#f2eee6" rx="9" ry="2"/><path d="m52.7 60.5c-1 .86-4.514 1.5-8.7 1.5s-7.7-.64-8.7-1.5a.7.7 0 0 0 -.3.5c0 1.1 4.03 2 9 2s9-.9 9-2a.7.7 0 0 0 -.3-.5z" fill="#d6cec1"/><path d="m49 38-.04-.07a12.031 12.031 0 0 1 -9.92 0l-.04.07c1.273 1.273 2.948 2.379 4 4.152v17.848a1 1 0 0 0 2 0v-17.848c1.052-1.773 2.727-2.879 4-4.152z" fill="#d6cec1"/><path d="m15 1h4v6h-4z" fill="#f2bb88"/><path d="m8 54h18v9h-18z" fill="#6e7a17"/><path d="m8 30h18v24h-18z" fill="#f92814"/><path d="m26 26v4h-18v-4a7.22 7.22 0 0 1 2.87-5.69 5.922 5.922 0 0 0 2.13-4.61v.3h8v-.3a5.922 5.922 0 0 0 2.13 4.61 7.22 7.22 0 0 1 2.87 5.69z" fill="#6e7a17"/><path d="m21 15.7v.3h-8v-.3-3.7h8z" fill="#423e35"/><path d="m21 8v4h-8v-4a1 1 0 0 1 1-1h6a1 1 0 0 1 1 1z" fill="#6e7a17"/><path d="m20 7h-6a1 1 0 0 0 -1 1v2a1 1 0 0 1 1-1h6a1 1 0 0 1 1 1v-2a1 1 0 0 0 -1-1z" fill="#8e9e1b"/><path d="m8 30h18v2h-18z" fill="#c10000"/><path d="m8 52h18v2h-18z" fill="#c10000"/><path d="m12 58v-4h-4v9h18v-2h-11a3 3 0 0 1 -3-3z" fill="#5a6313"/><path d="m8 32h4v20h-4z" fill="#c10000"/><path d="m12 26a7.22 7.22 0 0 1 2.87-5.69 5.888 5.888 0 0 0 2.114-4.31h-3.984v-.3a5.922 5.922 0 0 1 -2.13 4.61 7.22 7.22 0 0 0 -2.87 5.69v4h4z" fill="#5a6313"/><path d="m16.984 16c0-.1.016-.2.016-.3v-3.7h-4v4z" fill="#2c2c2c"/><path d="m15 5h4v2h-4z" fill="#c48958"/><path d="m15 1h4v2h-4z" fill="#c48958"/><path d="m14 9a1 1 0 0 0 -1 1v2h4v-3z" fill="#5a6313"/><path d="m18 7h-4a1 1 0 0 0 -1 1v2a1 1 0 0 1 1-1h3v-1a1 1 0 0 1 1-1z" fill="#6e7a17"/><path d="m8 52h4v2h-4z" fill="#a10000"/><path d="m8 30h4v2h-4z" fill="#a10000"/><g fill="#f6fafd"><ellipse cx="51" cy="24" rx=".825" ry="1.148" transform="matrix(.707 -.707 .707 .707 -2.026 43.11)"/><ellipse cx="23" cy="25" rx=".825" ry="1.148" transform="matrix(.707 -.707 .707 .707 -10.942 23.597)"/><ellipse cx="51" cy="14" rx=".825" ry="1.148" transform="matrix(.707 -.707 .707 .707 5.047 40.179)"/><ellipse cx="23" cy="47" rx=".825" ry="1.148" transform="matrix(.707 -.707 .707 .707 -26.503 30.046)"/><ellipse cx="51.003" cy="19.987" rx="1.642" ry="2.286" transform="matrix(.707 -.707 .707 .707 .813 41.935)"/><ellipse cx="22.746" cy="22.5" rx=".413" ry=".574" transform="matrix(.707 -.707 .707 .707 -9.248 22.685)"/></g><path d="m23.756 19.529a4.878 4.878 0 0 1 -1.756-3.829v-7.7a1.993 1.993 0 0 0 -1-1.722v-5.278a1 1 0 0 0 -1-1h-6a1 1 0 0 0 -1 1v5.278a1.993 1.993 0 0 0 -1 1.722v7.7a4.878 4.878 0 0 1 -1.756 3.833 8.223 8.223 0 0 0 -3.244 6.467v7h2v-2h13v-2h-13v-3a6.15 6.15 0 0 1 2.5-4.916 6.755 6.755 0 0 0 2.375-4.084h6.25a6.75 6.75 0 0 0 2.375 4.084 6.15 6.15 0 0 1 2.5 4.916v3h-1v2h1v18h2v-23a8.223 8.223 0 0 0 -3.244-6.471zm-3.756-11.529v3h-6v-3zm-1-6v4h-4v-4zm-5 11h6v2h-6z"/><path d="m7 35h2v2h-2z"/><path d="m25 53h-16v-14h-2v24a1 1 0 0 0 1 1h18a1 1 0 0 0 1-1v-12h-2zm-16 9v-7h16v7z"/><path d="m57 26h-2c0 6.953-4.626 12-11 12a10.7 10.7 0 0 1 -6.042-1.829l-1.125 1.654a12.468 12.468 0 0 0 1.483.859l-.023.023c.4.4.835.782 1.281 1.172 1.761 1.543 3.426 3 3.426 6.121v15h2v-15c0-3.121 1.665-4.578 3.426-6.121.446-.39.883-.774 1.281-1.172l-.032-.032c4.406-2.191 7.325-6.915 7.325-12.675zm-13 15.921a9.54 9.54 0 0 0 -1.481-2.012 12.334 12.334 0 0 0 2.958 0 9.576 9.576 0 0 0 -1.477 2.012z"/><path d="m36.8 35.258a10.926 10.926 0 0 1 -1.6-1.829l-1.64 1.144a12.894 12.894 0 0 0 1.9 2.165z"/><path d="m33 26a27.608 27.608 0 0 1 1.223-8h14.777v-2h-14.1c.54-1.456 1.136-2.8 1.722-4h14.757c.581 1.19 1.185 2.529 1.73 4h-2.109v2h2.773a28.3 28.3 0 0 1 1.156 6.074l1.994-.148a35.471 35.471 0 0 0 -4.023-13.373 1 1 0 0 0 -.9-.553h-16a1 1 0 0 0 -.9.553 34.071 34.071 0 0 0 -4.1 15.447 15.435 15.435 0 0 0 1.326 6.409l1.822-.825a13.443 13.443 0 0 1 -1.148-5.584z"/><path d="m46.05 58.051-.1 2a18.148 18.148 0 0 1 5.667.949 22.5 22.5 0 0 1 -7.617 1 22.5 22.5 0 0 1 -7.617-1 18.148 18.148 0 0 1 5.667-.951l-.1-2c-3.627.185-7.95.851-7.95 2.951 0 2.783 7.654 3 10 3s10-.217 10-3c0-2.1-4.323-2.766-7.95-2.949z"/><path d="m19 21v2c2.708 0 3 2.8 3 4h2c0-3.7-1.916-6-5-6z"/></g></svg>