<?xml version="1.0" encoding="iso-8859-1"?>
<!-- Generator: Adobe Illustrator 19.0.0, SVG Export Plug-In . SVG Version: 6.00 Build 0)  -->
<svg version="1.1" id="Capa_1" xmlns="http://www.w3.org/2000/svg" xmlns:xlink="http://www.w3.org/1999/xlink" x="0px" y="0px"
	 viewBox="0 0 512 512" style="enable-background:new 0 0 512 512;" xml:space="preserve">
<path style="fill:#FFFFFF;" d="M425.377,499.5c0,2.75-2.25,5-5,5h-76.233c-2.75,0-5-2.25-5-5v-11.307c0-2.75,2.25-5,5-5h76.233
	c2.75,0,5,2.25,5,5V499.5z"/>
<g style="opacity:0.1;">
	<path style="fill:#231F20;" d="M366.767,499.5v-11.307c0-2.75,2.25-5,5-5h-27.623c-2.75,0-5,2.25-5,5V499.5c0,2.75,2.25,5,5,5
		h27.623C369.017,504.5,366.767,502.25,366.767,499.5z"/>
</g>
<path style="fill:#FFFFFF;" d="M438.157,292.91c-0.936-0.918-2.196-1.432-3.508-1.432H329.87c-0.814,0-1.599,0.219-2.308,0.589
	c0.434,0.226,0.846,0.495,1.2,0.843c15.467,15.154,23.985,35.418,23.985,57.059c0,22.898-9.698,43.561-25.185,58.139
	c14.306,13.466,33.547,21.743,54.697,21.743c44.048,0,79.883-35.835,79.883-79.882C462.143,328.328,453.624,308.065,438.157,292.91z
	"/>
<path style="fill:#EF5A50;" d="M461.796,342.616H352.403c0.22,2.43,0.345,4.881,0.345,7.353c0,22.898-9.698,43.561-25.185,58.139
	c14.306,13.466,33.547,21.743,54.697,21.743c44.048,0,79.883-35.835,79.883-79.882C462.143,347.497,462.017,345.046,461.796,342.616
	z"/>
<path style="fill:#289E48;" d="M192.983,349.969c0-14.23,3.705-27.854,10.625-39.832v-54.584c0-33.717-21.828-62.412-52.086-72.752
	V66.248c0,2.75-2.25,5-5,5h-39.581c-2.75,0-5-2.25-5-5v116.553c-30.258,10.34-52.084,39.035-52.084,72.751v244.226
	c0,2.869,2.325,4.722,5.193,4.722h143.364c2.869,0,5.193-1.853,5.193-4.722V389.699
	C196.863,377.987,192.983,364.427,192.983,349.969z"/>
<path style="fill:#FFBB4A;" d="M203.852,309.714h-32.977c0.614,1.758,0.238,3.793-1.16,5.193l-39.447,39.446
	c-1.944,1.945-5.126,1.945-7.07,0L83.75,314.907c-1.399-1.399-1.775-3.435-1.161-5.193H49.857v121.594h153.751v-41.609l0,0
	c-6.745-11.711-10.625-25.271-10.625-39.73C192.983,335.571,196.773,321.794,203.852,309.714z"/>
<path style="fill:#FFFFFF;" d="M272.865,429.851c-44.048,0-79.882-35.835-79.882-79.882c0-21.641,8.518-41.904,23.984-57.059
	c0.936-0.918,2.195-1.432,3.509-1.432h104.778c1.311,0,2.572,0.514,3.508,1.432c15.467,15.154,23.985,35.418,23.985,57.059
	C352.748,394.016,316.914,429.851,272.865,429.851z"/>
<path style="opacity:0.1;fill:#231F20;enable-background:new    ;" d="M106.941,71.248c-2.75,0-5-2.25-5-5v116.553
	c-30.258,10.34-52.084,39.035-52.084,72.751v244.226c0,2.869,2.325,4.722,5.193,4.722H71V268.052
	c0-30.73,19.571-58.065,48.701-68.019c2.023-0.691,3.383-2.593,3.383-4.731V71.248H106.941z"/>
<path style="fill:#A67C52;" d="M151.523,66.248c0,2.75-2.25,5-5,5h-39.581c-2.75,0-5-2.25-5-5V12.5c0-2.75,2.25-5,5-5h39.581
	c2.75,0,5,2.25,5,5V66.248z"/>
<path id="SVGCleanerId_0" style="fill:#C73627;" d="M192.983,349.969c0,44.047,35.834,79.882,79.882,79.882
	c44.049,0,79.883-35.835,79.883-79.882c0-2.472-0.126-4.922-0.346-7.353H193.328C193.108,345.046,192.983,347.497,192.983,349.969z"
	/>
<path style="fill:#A67C52;" d="M151.523,66.248c0,2.75-2.25,5-5,5h-39.581c-2.75,0-5-2.25-5-5V12.5c0-2.75,2.25-5,5-5h39.581
	c2.75,0,5,2.25,5,5V66.248z"/>
<g style="opacity:0.1;">
	<path style="fill:#231F20;" d="M123.419,66.248V12.5c0-2.75,2.25-5,5-5h-21.478c-2.75,0-5,2.25-5,5v53.748c0,2.75,2.25,5,5,5
		h21.478C125.669,71.248,123.419,68.998,123.419,66.248z"/>
</g>
<path style="fill:#FFFFFF;" d="M130.268,354.353c-1.944,1.945-5.126,1.945-7.07,0L83.75,314.907
	c-1.945-1.944-1.945-5.126-0.001-7.071l39.448-39.446c1.944-1.945,5.126-1.945,7.07,0l39.447,39.446
	c1.944,1.945,1.944,5.126,0,7.071L130.268,354.353z"/>
<path style="fill:#FEDC34;" d="M130.268,354.353c-1.944,1.945-5.126,1.945-7.07,0L83.75,314.907
	c-1.945-1.944-1.945-5.126-0.001-7.071l39.448-39.446c1.944-1.945,5.126-1.945,7.07,0l39.447,39.446
	c1.944,1.945,1.944,5.126,0,7.071L130.268,354.353z"/>
<g style="opacity:0.1;">
	<path style="fill:#231F20;" d="M105.577,314.907c-1.945-1.944-1.945-5.126-0.001-7.071l32.07-32.068l-7.379-7.378
		c-1.944-1.945-5.126-1.945-7.07,0l-39.448,39.446c-1.944,1.945-1.944,5.127,0.001,7.071l39.447,39.446
		c1.944,1.945,5.126,1.945,7.07,0l7.379-7.378L105.577,314.907z"/>
</g>
<path style="fill:#FFFFFF;" d="M315.982,499.5c0,2.75-2.25,5-5,5h-76.233c-2.75,0-5-2.25-5-5v-11.307c0-2.75,2.25-5,5-5h76.233
	c2.75,0,5,2.25,5,5V499.5z"/>
<g style="opacity:0.1;">
	<path style="fill:#231F20;" d="M256.767,499.5v-11.307c0-2.75,2.25-5,5-5h-27.018c-2.75,0-5,2.25-5,5V499.5c0,2.75,2.25,5,5,5
		h27.018C259.017,504.5,256.767,502.25,256.767,499.5z"/>
</g>
<g>
	<path id="SVGCleanerId_0_1_" style="fill:#C73627;" d="M192.983,349.969c0,44.047,35.834,79.882,79.882,79.882
		c44.049,0,79.883-35.835,79.883-79.882c0-2.472-0.126-4.922-0.346-7.353H193.328C193.108,345.046,192.983,347.497,192.983,349.969z
		"/>
</g>
<g style="opacity:0.1;">
	<path style="fill:#231F20;" d="M220,349.969c0-21.641,8.518-41.904,23.984-57.059c0.936-0.918,2.195-1.432,3.509-1.432h-27.017
		c-1.313,0-2.572,0.514-3.509,1.432c-15.467,15.154-23.984,35.418-23.984,57.059c0,44.047,35.834,79.882,79.882,79.882
		c4.605,0,9.114-0.414,13.508-1.166C248.74,422.246,220,389.411,220,349.969z"/>
</g>
<path style="fill:#FF9F3D;" d="M288.059,253.903c-1.492,0-2.802-0.996-3.199-2.436c-4.809-17.413-8.153-20.758-25.566-25.566
	c-1.439-0.397-2.436-1.706-2.436-3.199c0-1.493,0.997-2.803,2.436-3.2c17.413-4.808,20.758-8.153,25.566-25.566
	c0.397-1.438,1.707-2.436,3.199-2.436c1.494,0,2.803,0.997,3.201,2.436c4.807,17.413,8.152,20.759,25.566,25.566
	c1.438,0.397,2.435,1.707,2.435,3.2s-0.997,2.802-2.435,3.199c-17.414,4.809-20.76,8.153-25.566,25.566
	C290.861,252.907,289.553,253.903,288.059,253.903z"/>
<path style="fill:#FEDC34;" d="M365.655,169.6c-1.306,0-2.451-0.871-2.799-2.131c-4.208-15.236-7.135-18.163-22.371-22.371
	c-1.259-0.348-2.131-1.493-2.131-2.799c0-1.307,0.872-2.452,2.131-2.8c15.236-4.207,18.163-7.135,22.371-22.371
	c0.348-1.259,1.493-2.131,2.799-2.131c1.308,0,2.452,0.872,2.801,2.131c4.206,15.236,7.134,18.164,22.371,22.371
	c1.258,0.348,2.13,1.493,2.13,2.8s-0.872,2.451-2.13,2.799c-15.237,4.208-18.165,7.134-22.371,22.371
	C368.107,168.729,366.963,169.6,365.655,169.6z"/>
<path d="M469.643,349.969c0-23.672-9.317-45.839-26.235-62.414c-2.353-2.306-5.463-3.576-8.758-3.576H220.477
	c-3.296,0-6.406,1.27-8.758,3.575c-0.209,0.205-0.403,0.421-0.61,0.628v-32.629c0-34.262-20.716-64.927-52.086-77.932V138
	c0-4.142-3.358-7.5-7.5-7.5c-4.143,0-7.5,3.358-7.5,7.5v44.8c0,3.208,2.04,6.06,5.075,7.097
	c28.118,9.609,47.011,35.994,47.011,65.655v46.662H174.7l-39.129-39.127c-2.357-2.357-5.496-3.656-8.839-3.656
	c-3.343,0-6.482,1.298-8.838,3.655l-39.131,39.128H57.357v-46.662c0-29.661,18.892-56.045,47.01-65.654
	c3.034-1.037,5.074-3.89,5.074-7.097V78.748h34.581V99c0,4.142,3.357,7.5,7.5,7.5c4.142,0,7.5-3.358,7.5-7.5V12.5
	c0-6.893-5.608-12.5-12.5-12.5h-39.581c-6.893,0-12.5,5.607-12.5,12.5v165.121c-31.369,13.006-52.084,43.669-52.084,77.931v244.226
	c0,6.853,5.575,12.222,12.693,12.222h143.364c7.118,0,12.693-5.369,12.693-12.222v-88.047
	c14.163,14.162,33.152,23.492,54.257,25.294v38.668h-30.616c-6.893,0-12.5,5.607-12.5,12.5V499.5c0,6.893,5.607,12.5,12.5,12.5
	h76.233c6.893,0,12.5-5.607,12.5-12.5v-11.307c0-6.893-5.607-12.5-12.5-12.5h-30.617v-38.668c17.775-1.518,34.049-8.38,47.203-18.97
	c13.152,10.586,29.42,17.436,47.191,18.955v38.682h-30.616c-6.893,0-12.5,5.607-12.5,12.5V499.5c0,6.893,5.607,12.5,12.5,12.5
	h76.233c6.892,0,12.5-5.607,12.5-12.5v-11.307c0-6.893-5.608-12.5-12.5-12.5H389.76v-38.668
	C434.444,433.209,469.643,395.625,469.643,349.969z M109.441,15h34.581v48.748h-34.581V15z M308.482,497h-71.233v-6.307h71.233V497z
	 M417.877,497h-71.233v-6.307h71.233V497z M453.115,335.116H439c-4.143,0-7.5,3.358-7.5,7.5s3.357,7.5,7.5,7.5h15.639
	c-0.08,39.844-32.516,72.235-72.379,72.235c-16.43,0-31.58-5.524-43.739-14.786c13.487-15.356,21.689-35.462,21.726-57.45H397
	c4.143,0,7.5-3.358,7.5-7.5s-3.357-7.5-7.5-7.5h-38.025c-2.225-13.082-7.383-25.38-15.154-36.138h89.804
	C443.629,309.049,450.299,321.527,453.115,335.116z M221.501,298.978h102.728c10.005,10.071,16.675,22.549,19.491,36.138H203.608
	v-6.305C206.994,317.673,213.064,307.471,221.501,298.978z M126.732,275.461l35.911,35.911l-35.911,35.91L90.82,311.371
	L126.732,275.461z M57.357,497v-58.192H86c4.143,0,7.5-3.358,7.5-7.5s-3.357-7.5-7.5-7.5H57.357V317.214h18.875
	c0.577,1.09,1.318,2.1,2.215,2.996l39.446,39.445c2.356,2.357,5.496,3.656,8.839,3.656c3.343,0,6.482-1.298,8.838-3.655
	l39.448-39.446c0.905-0.906,1.642-1.918,2.21-2.996h14.592c-4.146,10.264-6.337,21.33-6.337,32.754
	c0,15.103,3.853,29.323,10.625,41.73v32.109H130c-4.143,0-7.5,3.358-7.5,7.5s3.357,7.5,7.5,7.5h66.108V497H57.357z M200.487,350.116
	h144.757c-0.08,39.844-32.516,72.235-72.379,72.235C233.004,422.351,200.567,389.96,200.487,350.116z"/>
<path d="M156.662,387.628c0-4.142-3.357-7.5-7.5-7.5h-44.86c-4.143,0-7.5,3.358-7.5,7.5s3.357,7.5,7.5,7.5h44.86
	C153.305,395.128,156.662,391.771,156.662,387.628z"/>
<path d="M257.297,233.131c14.891,4.112,16.221,5.442,20.333,20.333c1.291,4.675,5.579,7.939,10.429,7.939
	c4.848,0,9.136-3.263,10.431-7.94c4.11-14.89,5.44-16.22,20.336-20.333c4.672-1.292,7.936-5.581,7.936-10.428
	c0-4.849-3.264-9.137-7.938-10.43c-14.893-4.111-16.223-5.441-20.335-20.339c-1.294-4.671-5.582-7.934-10.429-7.934
	c-4.849,0-9.137,3.264-10.429,7.939c-4.112,14.892-5.442,16.222-20.334,20.334c-4.674,1.292-7.938,5.58-7.938,10.429
	C249.357,227.551,252.622,231.839,257.297,233.131z M288.059,207.688c3.332,7.399,7.614,11.683,15.015,15.015
	c-7.4,3.333-11.683,7.615-15.015,15.014c-3.332-7.399-7.614-11.682-15.014-15.014C280.444,219.37,284.727,215.087,288.059,207.688z"
	/>
<path d="M338.489,152.328c12.676,3.5,13.637,4.461,17.138,17.136c1.24,4.496,5.364,7.636,10.028,7.636
	c4.662,0,8.786-3.138,10.03-7.635c3.499-12.675,4.46-13.636,17.143-17.138c4.491-1.243,7.629-5.367,7.629-10.027
	c0-4.663-3.139-8.787-7.634-10.029c-12.678-3.5-13.639-4.461-17.14-17.144c-1.243-4.492-5.367-7.629-10.028-7.629
	c-4.663,0-8.787,3.139-10.028,7.634c-3.501,12.677-4.462,13.638-17.139,17.138c-4.494,1.242-7.634,5.366-7.634,10.029
	C330.854,146.96,333.993,151.084,338.489,152.328z M365.655,131.364c2.593,5.057,5.878,8.342,10.935,10.934
	c-5.057,2.593-8.343,5.878-10.935,10.934c-2.593-5.057-5.877-8.341-10.934-10.934C359.778,139.706,363.063,136.421,365.655,131.364z
	"/>
<g>
</g>
<g>
</g>
<g>
</g>
<g>
</g>
<g>
</g>
<g>
</g>
<g>
</g>
<g>
</g>
<g>
</g>
<g>
</g>
<g>
</g>
<g>
</g>
<g>
</g>
<g>
</g>
<g>
</g>
</svg>
