<svg height="512" viewBox="0 0 512 512" width="512" xmlns="http://www.w3.org/2000/svg"><g id="Filled"><g><path d="m56 136-4.56 14.82a260 260 0 0 0 8.086 175.458l20.474 49.722h16l20.474-49.722a260 260 0 0 0 8.086-175.458l-4.56-14.82z" fill="#fdc069"/><g><path d="m124.56 150.82-4.56-14.82h-64l-4.56 14.82a259.74 259.74 0 0 0 -6.389 25.18h85.9a259.74 259.74 0 0 0 -6.391-25.18z" fill="#fffcf9"/><path d="m45.051 176a259.906 259.906 0 0 0 -4.392 32h94.682a259.906 259.906 0 0 0 -4.392-32z" fill="#fff2e1"/></g><path d="m139.022 467.133-51.022-19.133-51.022 19.133a20 20 0 0 0 -12.978 18.727v2.14h128v-2.14a20 20 0 0 0 -12.978-18.727z" fill="#fffcf9"/><path d="m392 136-4.56 14.82a260 260 0 0 0 8.086 175.458l20.474 49.722h16l20.474-49.722a260 260 0 0 0 8.086-175.458l-4.56-14.82z" fill="#fdc069"/><g><path d="m460.56 150.82-4.56-14.82h-64l-4.56 14.82a259.74 259.74 0 0 0 -6.389 25.18h85.9a259.74 259.74 0 0 0 -6.391-25.18z" fill="#fffcf9"/><path d="m381.051 176a259.906 259.906 0 0 0 -4.392 32h94.682a259.906 259.906 0 0 0 -4.392-32z" fill="#fff2e1"/></g><path d="m475.022 467.133-51.022-19.133-51.022 19.133a20 20 0 0 0 -12.978 18.727v2.14h128v-2.14a20 20 0 0 0 -12.978-18.727z" fill="#fffcf9"/><path d="m280 112 6.766-76.9a10 10 0 0 0 -9.939-11.1h-41.654a10 10 0 0 0 -9.939 11.1l6.766 76.9z" fill="#fdc069"/><path d="m232 112-11.674 77.4a180.01 180.01 0 0 1 -21.262 65.089l-.412.742a180 180 0 0 0 -22.652 87.412v125.357a20 20 0 0 0 20 20h120a20 20 0 0 0 20-20v-125.357a180 180 0 0 0 -22.652-87.416l-.412-.742a180.01 180.01 0 0 1 -21.262-65.085l-11.674-77.4z" fill="#f15a57"/><g fill="#fdc069"><path d="m176 384h160v64h-160z"/><path d="m322.35 273.884-36.041 12.016a40 40 0 0 0 -60.618 0l-36.041-12.016a180.03 180.03 0 0 0 -11.942 44.016l43.975 14.658a40.011 40.011 0 0 0 68.634 0l43.975-14.658a180.03 180.03 0 0 0 -11.942-44.016z"/><path d="m221.832 179.407-1.506 9.989a179.924 179.924 0 0 1 -4.821 24.544 141.021 141.021 0 0 1 80.99 0 179.924 179.924 0 0 1 -4.821-24.544l-1.506-9.989a173.06 173.06 0 0 0 -68.336 0z"/></g><g><path d="m141.831 459.643-45.831-17.186v-58.457a8 8 0 0 0 7.4-4.954l20.474-49.723a268.644 268.644 0 0 0 8.336-180.856l-4.561-14.82a8 8 0 0 0 -7.649-5.647h-64a8 8 0 0 0 -7.646 5.647l-4.561 14.821a268.169 268.169 0 0 0 -4.44 141.4l15.556-3.736a252.052 252.052 0 0 1 -6.709-70.132h79.572a252.442 252.442 0 0 1 -18.7 107.231l-18.429 44.769h-5.286l-18.433-44.769c-2.9-7.047-5.514-14.313-7.763-21.592l-15.287 4.722c2.392 7.742 5.169 15.467 8.255 22.962l20.471 49.723a8 8 0 0 0 7.4 4.954v58.457l-45.831 17.186a28.13 28.13 0 0 0 -18.169 26.217v2.14a8 8 0 0 0 8 8h128a8 8 0 0 0 8-8v-2.14a28.13 28.13 0 0 0 -18.169-26.217zm-82.745-306.47 2.822-9.173h52.184l2.822 9.173q2.265 7.363 4.067 14.827h-65.965q1.806-7.461 4.07-14.827zm-9.657 46.827q.873-8.028 2.261-16h72.61q1.384 7.969 2.254 16zm-15.888 280a12.029 12.029 0 0 1 6.245-5.376l48.214-18.08 48.214 18.08a12.023 12.023 0 0 1 6.245 5.376z"/><path d="m64 232h16v16h-16z"/><path d="m96 264h16v16h-16z"/><path d="m477.831 459.643-45.831-17.186v-58.457a8 8 0 0 0 7.4-4.954l20.474-49.723a267.644 267.644 0 0 0 19.334-80.686l-15.949-1.274a251.607 251.607 0 0 1 -18.18 75.868l-18.436 44.769h-5.286l-18.433-44.769a252.442 252.442 0 0 1 -18.697-107.231h79.579q.354 7.908.21 15.854l16 .292a267.6 267.6 0 0 0 -11.807-83.679l-4.561-14.82a8 8 0 0 0 -7.648-5.647h-64a8 8 0 0 0 -7.646 5.647l-4.561 14.821a268.642 268.642 0 0 0 8.336 180.855l20.471 49.723a8 8 0 0 0 7.4 4.954v58.457l-45.831 17.186a28.13 28.13 0 0 0 -18.169 26.217v2.14a8 8 0 0 0 8 8h128a8 8 0 0 0 8-8v-2.14a28.13 28.13 0 0 0 -18.169-26.217zm-92.384-259.643q.869-8.025 2.254-16h72.616q1.389 7.962 2.264 16zm9.639-46.827 2.822-9.173h52.184l2.822 9.173q2.265 7.363 4.073 14.827h-65.968q1.803-7.46 4.067-14.827zm-25.545 326.827a12.029 12.029 0 0 1 6.245-5.376l48.214-18.08 48.214 18.08a12.023 12.023 0 0 1 6.245 5.376z"/><path d="m400 232h16v16h-16z"/><path d="m432 264h16v16h-16z"/><path d="m232 408h48v16h-48z"/><path d="m296 408h16v16h-16z"/><path d="m200 408h16v16h-16z"/><path d="m248 296h16v32h-16z"/><path d="m319.93 250.6a171.185 171.185 0 0 1 -20.317-62.2c-.009-.067-.017-.134-.028-.2l-11.533-76.45 6.677-75.868a18 18 0 0 0 -17.902-19.882h-41.654a18 18 0 0 0 -17.9 19.882l6.677 75.868-11.535 76.45c-.011.067-.019.134-.028.2a171.179 171.179 0 0 1 -20.318 62.2l-.411.741a188.461 188.461 0 0 0 -23.658 91.302v125.357a28.032 28.032 0 0 0 28 28h76v-16h-76a12.013 12.013 0 0 1 -12-12v-12h144v12a12.013 12.013 0 0 1 -12 12h-28v16h28a28.032 28.032 0 0 0 28-28v-125.357a188.464 188.464 0 0 0 -23.657-91.3zm8.07 92.043v33.357h-144v-33.357q0-7.027.576-14.018l31.916 10.638a48 48 0 0 0 79.016 0l31.916-10.638q.576 6.986.576 14.018zm-40.213-17.672a8 8 0 0 0 -4.328 3.471 32.011 32.011 0 0 1 -54.918 0 8 8 0 0 0 -4.328-3.471l-37.532-12.511a172.712 172.712 0 0 1 7.677-28.574l28.8 9.6a8 8 0 0 0 8.589-2.367 32 32 0 0 1 48.5 0 8 8 0 0 0 8.589 2.366l28.8-9.6a172.712 172.712 0 0 1 7.677 28.574zm-59.536-134.481.641-4.248a165.849 165.849 0 0 1 19.478-2.066l-.74-15.982c-5.417.25-10.848.749-16.24 1.488l7.494-49.682h34.232l7.494 49.682c-5.392-.739-10.823-1.238-16.24-1.488l-.74 15.982a165.849 165.849 0 0 1 19.478 2.066l.641 4.248q.792 6.3 1.994 12.5a148.287 148.287 0 0 0 -59.486 0q1.202-6.19 1.994-12.5zm5.431-157.823a1.951 1.951 0 0 1 1.491-.667h41.654a2 2 0 0 1 1.988 2.221c-.006.061-.012.121-.017.182l-6.125 69.597h-33.346l-6.127-69.6c0-.061-.011-.121-.017-.182a1.949 1.949 0 0 1 .499-1.551zm-27.625 225.7a187.494 187.494 0 0 0 15.943-37.95 132.529 132.529 0 0 1 67.994 0 187.507 187.507 0 0 0 15.945 37.951l.413.744q2.724 4.9 5.116 9.965l-22.925 7.642a48 48 0 0 0 -65.091 0l-22.926-7.642q2.392-5.061 5.117-9.967zm-22.057 181.633v-48h144v48z"/></g></g></g></svg>