<?xml version="1.0" encoding="iso-8859-1"?>
<!-- Generator: Adobe Illustrator 19.0.0, SVG Export Plug-In . SVG Version: 6.00 Build 0)  -->
<svg version="1.1" id="Capa_1" xmlns="http://www.w3.org/2000/svg" xmlns:xlink="http://www.w3.org/1999/xlink" x="0px" y="0px"
	 viewBox="0 0 512 512" style="enable-background:new 0 0 512 512;" xml:space="preserve">
<path style="fill:#00BD4F;" d="M208.494,218.33c-37.312,14.403-71.264,36.439-99.615,64.789l-90.728,90.728
	c-14.202,14.202-14.202,37.227,0,51.429l68.572,68.572c14.202,14.202,37.227,14.202,51.429,0l90.728-90.728
	c28.35-28.35,50.386-62.302,64.789-99.615l-16.873-68.303L208.494,218.33z"/>
<path style="fill:#00973C;" d="M276.881,283.802c-12.6,37.801-33.868,73.365-63.905,103.406c-0.001,0.001-0.003,0.002-0.004,0.003
	l-90.729,90.729c-5.419,5.418-14.189,5.419-19.609-0.001l-68.572-68.572c-7.067-7.067-17.662-8.439-26.112-4.138
	c1.152,7.339,4.547,14.394,10.201,20.048l68.572,68.572c14.202,14.202,37.227,14.202,51.429,0l90.728-90.728
	c28.35-28.351,50.386-62.302,64.789-99.615l-9.64-39.02c-2.558,6.275-4.944,12.7-7.144,19.299
	C276.885,283.791,276.883,283.796,276.881,283.802z"/>
<path style="fill:#FFCF5D;" d="M298.226,290.918c14.093-42.277,37.834-80.691,69.345-112.202l12.085-12.085
	c-4.97-4.97-29.314-29.314-34.286-34.286l-12.085,12.085c-31.511,31.511-69.925,55.252-112.202,69.345
	c-4.24,1.414-8.429,2.95-12.588,4.555c3.748,3.748,81.447,81.447,85.176,85.176C295.275,299.347,296.812,295.158,298.226,290.918z"
	/>
<g>
	<path style="fill:#FFB545;" d="M413.941,132.345c-4.97-4.97-29.314-29.314-34.286-34.286c-2.367-2.367-6.205-2.367-8.572,0
		l-34.286,34.286c-2.367,2.367-2.367,6.205,0,8.572c4.97,4.97,29.314,29.314,34.286,34.286c2.367,2.367,6.204,2.367,8.572,0
		l34.286-34.286C416.308,138.55,416.308,134.712,413.941,132.345z"/>
	<path style="fill:#FFB545;" d="M413.941,132.345c-1.781-1.781-6.051-6.052-11.023-11.023c-3.687,2.076-2.35,1.149-32.596,31.394
		c-5.478,0.184-10.833,2.349-15.149,6.577l0,0l0,0c-41.046,41.052-63.203,80.467-79.046,126.669
		c9.529,9.528,16.49,16.49,17.544,17.543c9.155-23.721,20.615-71.505,77.413-128.303c2.367,2.367,6.204,2.367,8.571,0l34.286-34.286
		C416.308,138.55,416.308,134.712,413.941,132.345z"/>
</g>
<path style="fill:#FFF9EB;" d="M200.491,358.054l-31.03-31.03l-15.515-15.515c-8.569-8.569-22.461-8.569-31.03,0L60.17,374.255
	c-8.569,8.569-8.569,22.461,0,31.03L75.686,420.8l31.03,31.03c8.569,8.569,22.461,8.569,31.03,0l62.746-62.746
	C209.06,380.515,209.06,366.623,200.491,358.054z"/>
<circle style="fill:#FF983B;" cx="251.08" cy="260.92" r="25"/>
<path style="fill:#CE795F;" d="M472.866,16.596l-24.148,26.79c-2.892,3.432-2.443,8.56,1.001,11.437l10.674,8.919
	c3.423,2.86,8.515,2.415,11.39-0.996l24.192-26.841L472.866,16.596z"/>
<path style="fill:#A05A4B;" d="M474.725,37.756c-10.043-8.391-13.254-19.32-7.636-25.986s16.984-5.415,27.026,2.976
	s13.254,19.32,7.636,25.986C496.134,47.398,484.768,46.147,474.725,37.756z"/>
<path d="M401.663,13.819c0.052,0.034,5.21,3.613,5.21,9.791c0,4.142,3.358,7.5,7.5,7.5s7.5-3.358,7.5-7.5
	c0-11.575-7.621-19.541-12.124-22.424c-3.489-2.234-8.127-1.215-10.36,2.273C397.157,6.948,398.175,11.586,401.663,13.819z"/>
<path d="M374.939,29.324c1.904,0.122,4.422,0.826,5.084,1.421c1.434,1.29,3.227,1.925,5.015,1.925c2.052,0,4.097-0.837,5.577-2.483
	c2.771-3.079,2.521-7.821-0.558-10.592c-5.05-4.545-12.789-5.169-14.289-5.249c-4.103-0.203-7.62,2.936-7.86,7.055
	C367.668,25.52,370.822,29.06,374.939,29.324z"/>
<path d="M498.097,97.548c-3.965-1.206-8.153,1.031-9.358,4.994c-1.205,3.963,1.031,8.152,4.994,9.358
	c1.541,0.468,4.027,1.808,4.556,2.589c1.45,2.141,3.812,3.294,6.216,3.294c1.448,0,2.911-0.418,4.2-1.292
	c3.429-2.323,4.326-6.986,2.003-10.416C506.897,100.45,499.534,97.985,498.097,97.548z"/>
<path d="M414.824,90.311c7.297-12.629,5.712-27.697-4.748-38.702c-5.173-5.442-12.08-8.439-19.449-8.439
	c-7.369,0-14.275,2.997-19.447,8.439c-8.932,9.397-8.932,22.523,0,31.921c2.854,3.002,7.601,3.122,10.603,0.269
	c3.002-2.854,3.123-7.601,0.269-10.603c-3.449-3.628-3.449-7.625,0-11.253c2.312-2.434,5.358-3.773,8.575-3.773
	s6.263,1.34,8.576,3.773c6.871,7.229,6.813,16.917-0.148,24.682c-2.104,2.347-5.749,6.633-9.335,10.895l-4.763-4.763
	c-5.287-5.287-13.891-5.285-19.18,0l-34.286,34.287c-5.105,5.106-5.265,13.293-0.511,18.612c0.159,0.195,0.328,0.384,0.508,0.565
	c0.01,0.01,0.021,0.019,0.032,0.029l28.967,28.968c-31.291,31.844-55.26,70.973-69.379,113.328
	c-0.147,0.444-0.299,0.892-0.452,1.343l-11.916-11.917c7.72-12.523,6.166-29.188-4.678-40.033c-6.139-6.14-14.3-9.52-22.981-9.52
	c-6.123,0-11.983,1.688-17.061,4.834c-3.188-3.188-6.135-6.135-8.753-8.753l-3.158-3.158c0.45-0.15,0.9-0.3,1.34-0.45
	c16.63-5.55,33.46-13.13,50.03-22.55c15.99-9.09,31.41-19.69,45.83-31.51c3.2-2.62,3.67-7.36,1.05-10.551
	c-1.43-1.75-3.55-2.75-5.81-2.75c-1.72,0-3.4,0.601-4.74,1.69c0,0.01-0.01,0.01-0.01,0.01c-27.91,22.9-60.26,41.16-91.09,51.431
	c-2.651,0.881-5.418,1.861-8.338,2.941l-0.025-0.025l-3.782,1.459c-0.261,0.1-0.51,0.192-0.774,0.294
	c-0.025,0.01-0.047,0.023-0.071,0.033c-38.588,14.907-72.953,37.264-102.142,66.452l-90.728,90.728
	C4.563,376.83,0,387.846,0,399.562s4.562,22.732,12.848,31.018l68.572,68.571C89.706,507.438,100.721,512,112.438,512
	s22.732-4.563,31.017-12.848l90.728-90.727c29.208-29.21,51.577-63.601,66.483-102.217l1.757-4.552l-0.028-0.028
	c1.08-2.917,2.06-5.683,2.945-8.337c13.626-40.878,36.914-78.593,67.352-109.087c0.883,0.177,1.779,0.269,2.676,0.269
	c3.473,0,6.945-1.321,9.59-3.966l34.283-34.285c2.563-2.562,3.974-5.967,3.974-9.589c0-3.623-1.41-7.028-3.971-9.59l-16.239-16.24
	c22.61-12.599,51.953-9.467,71.236,9.423c8.628,8.453,13.38,19.679,13.38,31.612s-4.751,23.16-13.38,31.612
	c-13.752,13.472-36.129,13.473-49.882,0c-2.959-2.899-7.707-2.851-10.606,0.109c-2.899,2.959-2.85,7.707,0.109,10.606
	c9.77,9.572,22.604,14.357,35.438,14.357c12.834,0,25.668-4.786,35.438-14.357c11.532-11.297,17.883-26.33,17.883-42.328
	s-6.351-31.029-17.883-42.326C465.805,90.964,439.11,84.575,414.824,90.311z M263.456,248.544c6.823,6.823,6.823,17.927,0,24.749
	c-6.822,6.824-17.925,6.824-24.748,0v0.001c-6.821-6.822-6.822-17.92-0.005-24.745c0.002-0.001,0.003-0.003,0.005-0.004
	c0.002-0.002,0.003-0.004,0.005-0.005c3.305-3.302,7.697-5.122,12.37-5.122C255.756,243.418,260.151,245.239,263.456,248.544z
	 M223.577,397.818l-90.728,90.728c-5.452,5.452-12.701,8.454-20.411,8.454s-14.959-3.002-20.411-8.455l-68.572-68.572
	c-5.452-5.452-8.455-12.7-8.455-20.411c0-7.71,3.002-14.959,8.455-20.41l90.728-90.728c26.574-26.574,57.672-47.183,92.491-61.306
	l16.749,16.748c-7.721,12.523-6.167,29.188,4.678,40.034v0.001c6.336,6.335,14.659,9.503,22.981,9.503
	c5.924,0,11.845-1.614,17.052-4.824l16.749,16.749C270.76,340.146,250.151,371.244,223.577,397.818z M375.368,168.884
	l-32.251-32.252l32.251-32.252l32.25,32.252L375.368,168.884z"/>
<path d="M444.909,60.58l10.673,8.919c2.909,2.431,6.457,3.617,9.987,3.617c4.403,0,8.779-1.846,11.853-5.425l13.701-15.203
	c6.566,0.186,12.395-2.215,16.361-6.922c3.378-4.009,4.909-9.029,4.429-14.519c-0.671-7.679-5.406-15.717-12.99-22.055
	c-0.001,0-0.001-0.001-0.001-0.001c-13.363-11.163-29.165-12.028-37.569-2.053c-3.663,4.345-5.125,9.981-4.238,15.931
	l-13.969,15.497c-0.057,0.062-0.111,0.125-0.165,0.188c-2.693,3.197-3.977,7.251-3.611,11.415
	C439.734,54.134,441.702,57.902,444.909,60.58z M454.414,48.268l16.481-18.284c1.826-2.024,2.408-4.881,1.522-7.459
	c-0.605-1.763-1.027-4.222,0.405-5.921c2.692-3.193,10.086-1.446,16.482,3.898c4.479,3.742,7.344,8.173,7.666,11.851
	c0.19,2.186-0.673,3.21-0.957,3.547c-1.575,1.87-4.36,1.771-6.419,1.358c-2.596-0.518-5.27,0.369-7.042,2.333L466.21,57.726
	c-0.056,0.062-0.109,0.124-0.163,0.188c-0.213,0.252-0.591,0.286-0.847,0.075l-10.675-8.92c-0.047-0.04-0.19-0.16-0.213-0.408
	C454.296,48.469,454.364,48.34,454.414,48.268z"/>
<path d="M159.249,306.206c-5.376-5.375-12.521-8.435-20.119-8.615c-0.061-0.001-0.121-0.002-0.181-0.002
	c-4.06,0-7.398,3.242-7.495,7.322c-0.098,4.141,3.179,7.577,7.32,7.676c3.726,0.088,7.23,1.589,9.868,4.227l46.545,46.545
	c2.728,2.728,4.23,6.354,4.23,10.213c0,3.857-1.502,7.483-4.23,10.21l-62.745,62.745c-2.729,2.729-6.355,4.231-10.212,4.231
	s-7.483-1.502-10.211-4.231l-46.544-46.543c-2.728-2.729-4.23-6.355-4.23-10.213s1.502-7.484,4.23-10.212l54.089-54.089
	c2.929-2.93,2.929-7.678,0-10.607c-2.928-2.927-7.677-2.929-10.606,0l-54.09,54.09c-5.561,5.561-8.623,12.955-8.623,20.818
	s3.062,15.257,8.624,20.819l46.544,46.543c5.561,5.562,12.954,8.625,20.818,8.625c7.863,0,15.257-3.062,20.819-8.624l62.744-62.745
	c5.562-5.56,8.624-12.952,8.624-20.817s-3.062-15.259-8.624-20.82L159.249,306.206z"/>
<g>
</g>
<g>
</g>
<g>
</g>
<g>
</g>
<g>
</g>
<g>
</g>
<g>
</g>
<g>
</g>
<g>
</g>
<g>
</g>
<g>
</g>
<g>
</g>
<g>
</g>
<g>
</g>
<g>
</g>
</svg>
