<svg id="Filled_Expand" height="512" viewBox="0 0 64 64" width="512" xmlns="http://www.w3.org/2000/svg" data-name="Filled Expand"><path d="m17 51a7.3025 7.3025 0 0 1 -7.1459-8.8069l2.1459-10.1931h10l2.1459 10.1931a7.3025 7.3025 0 0 1 -7.1459 8.8069z" fill="#ebf5fd"/><path d="m24.1459 42.1931-2.1459-10.1931h-2.9781l2.1021 9.9873a8.268 8.268 0 0 1 -4.1854 9.0092c.0208 0 .0406.0035.0614.0035a7.3026 7.3026 0 0 0 7.1459-8.8069z" fill="#dcedfa"/><path d="m17 51a7.3025 7.3025 0 0 1 -7.1459-8.8069l.8984-.4335a6.3161 6.3161 0 0 1 6.2475.4334 6.3157 6.3157 0 0 0 6.2474.4335l.8985-.4334a7.3025 7.3025 0 0 1 -7.1459 8.8069z" fill="#a52e32"/><path d="m24.1459 42.1931-.8985.4334a6.2907 6.2907 0 0 1 -1.97.5665 8.2395 8.2395 0 0 1 -4.3387 7.8035c.0208 0 .0406.0035.0614.0035a7.3026 7.3026 0 0 0 7.1458-8.8069z" fill="#8a272a"/><path d="m37 15.6849v-10.6849h8v10.6849a14.146 14.146 0 0 0 3.5 9.3151 14.146 14.146 0 0 1 3.5 9.3151v26.6849a2 2 0 0 1 -2 2h-18a2 2 0 0 1 -2-2v-26.6849a14.146 14.146 0 0 1 3.5-9.3151 14.146 14.146 0 0 0 3.5-9.3151z" fill="#f5dc3c"/><path d="m48.5906 25.1046a14.2313 14.2313 0 0 1 -3.5906-9.2346v-10.87h-2.87v12.0529a13.5689 13.5689 0 0 0 2.7982 8.47 14.1249 14.1249 0 0 1 3.0718 8.7922v26.6849a2 2 0 0 1 -2 2h4a2 2 0 0 0 2-2v-26.6849a14.1453 14.1453 0 0 0 -3.4094-9.2105z" fill="#f3d12f"/><rect fill="#f5dc3c" height="6" rx="1" transform="matrix(-1 0 0 -1 82 8)" width="10" x="36" y="1"/><path d="m45 1h-8a1 1 0 0 0 -1 1v2a1 1 0 0 1 1-1h8a1 1 0 0 1 1 1v-2a1 1 0 0 0 -1-1z" fill="#f7e367"/><path d="m50.4692 27.9357c-1.6848-.5912-2.7692-1.4357-5.8557-1.4357-4.74 0-4.74 2-9.48 2a10.3818 10.3818 0 0 1 -3.6082-.5547 14.1362 14.1362 0 0 0 -1.5253 6.3698v26.6849a2 2 0 0 0 2 2h18a2 2 0 0 0 2-2v-6l-4-9 4-10v-1.6849a14.137 14.137 0 0 0 -1.5308-6.3794z" fill="#4b5b61"/><path d="m36 37 2-2 2 2v-8h-4z" fill="#37464b"/><path d="m38 32a5 5 0 0 0 5-5c0-.1377-.03-.2671-.0405-.402-3.1651.3992-3.7146 1.902-7.8256 1.902a12.41 12.41 0 0 1 -1.923-.14 4.985 4.985 0 0 0 4.7891 3.64z" fill="#37464b"/><path d="m34 37 2-2 2 2v-8h-4z" fill="#f5dc3c"/><path d="m42.96 26.598a4.9854 4.9854 0 1 0 -9.7491 1.762 12.41 12.41 0 0 0 1.923.14c4.111 0 4.6605-1.5028 7.8261-1.902z" fill="#f3d12f"/><circle cx="36" cy="27" fill="#a52e32" r="4"/><path d="m50.4692 27.9357a14.5844 14.5844 0 0 0 -4.817-1.3993 14.1338 14.1338 0 0 1 2.3478 7.7787v26.6849a2 2 0 0 1 -2 2h4a2 2 0 0 0 2-2v-6l-4-9 4-10v-1.6849a14.137 14.137 0 0 0 -1.5308-6.3794z" fill="#37464b"/><path d="m52 36h-9v19h9" fill="#ebf5fd"/><path d="m48 36h4v19h-4z" fill="#dcedfa"/><path d="m37 7h8v2h-8z" fill="#f3d12f"/><path d="m42 7h3v2h-3z" fill="#ebb919"/><path d="m22.9785 31.7939a1 1 0 0 0 -.9785-.7939h-10a1 1 0 0 0 -.9785.7939l-2.1455 10.1934a8.2975 8.2975 0 0 0 7.124 9.9497v10.063h-2a1 1 0 0 0 0 2h6a1 1 0 0 0 0-2h-2v-10.063a8.2975 8.2975 0 0 0 7.124-9.95zm-10.167 1.2061h8.377l1.8172 8.6333-.1932.0933a5.339 5.339 0 0 1 -5.2578-.3653 7.3517 7.3517 0 0 0 -6.3206-.8672zm9.083 14.6689a6.2953 6.2953 0 0 1 -11.133-4.8032l.426-.2055a5.3345 5.3345 0 0 1 5.2578.3652 7.2838 7.2838 0 0 0 6.8532.66 6.27 6.27 0 0 1 -1.404 3.9835z"/><path d="m49.2529 24.3418a13.1471 13.1471 0 0 1 -3.2529-8.6572v-7.9629a1.9938 1.9938 0 0 0 1-1.7217v-4a2.0027 2.0027 0 0 0 -2-2h-8a2.0027 2.0027 0 0 0 -2 2v4a1.9938 1.9938 0 0 0 1 1.7217v7.9629a13.1068 13.1068 0 0 1 -1.843 6.6775 4.9916 4.9916 0 0 0 -3.1332 4.4025 15.1469 15.1469 0 0 0 -2.0238 7.5508v26.6846a3.0033 3.0033 0 0 0 3 3h18a3.0033 3.0033 0 0 0 3-3v-26.6846a15.1437 15.1437 0 0 0 -3.7471-9.9736zm-12.2529-22.3418h8v4h-8l-.002-4zm1 13.6846v-7.6846h6v7.6846a15.1476 15.1476 0 0 0 3.7471 9.9736c.0749.0856.1394.1782.2118.2654a11.9783 11.9783 0 0 0 -3.3456-.4236 11.5349 11.5349 0 0 0 -3.7112.5315 4.9925 4.9925 0 0 0 -4.3245-3.9731 15.0752 15.0752 0 0 0 1.4224-6.3738zm-2 8.3154a3 3 0 1 1 -3 3 3.0033 3.0033 0 0 1 3-3zm1 7.8989v2.687l-.293-.2929a.9994.9994 0 0 0 -1.414 0l-.293.2929v-2.687a4.9961 4.9961 0 0 0 2 0zm14 22.1011h-7v-17h7zm0-19h-8a1 1 0 0 0 -1 1v19a1 1 0 0 0 1 1h8v5a1.0006 1.0006 0 0 1 -1 1h-18a1.0006 1.0006 0 0 1 -1-1v-26.6846a13.1388 13.1388 0 0 1 .8277-4.5724 5.0205 5.0205 0 0 0 1.1723 1.2314v6.0256a1 1 0 0 0 1.707.707l1.293-1.2929 1.293 1.2929a1 1 0 0 0 1.707-.707v-6.0256a4.99 4.99 0 0 0 1.8436-2.7924 9.2687 9.2687 0 0 1 3.77-.682 9.667 9.667 0 0 1 4.3652.9209c.2485.1048.51.2035.7681.3035a13.1379 13.1379 0 0 1 1.2531 5.591z"/></svg>