<?xml version="1.0" encoding="iso-8859-1"?>
<!-- Generator: Adobe Illustrator 19.0.0, SVG Export Plug-In . SVG Version: 6.00 Build 0)  -->
<svg version="1.1" id="Layer_1" xmlns="http://www.w3.org/2000/svg" xmlns:xlink="http://www.w3.org/1999/xlink" x="0px" y="0px"
	 viewBox="0 0 512.001 512.001" style="enable-background:new 0 0 512.001 512.001;" xml:space="preserve">
<path style="fill:#D3C437;" d="M453.493,252.064v17.441c0,18.808-15.248,34.045-34.045,34.045h-17.453v-17.441
	c0-18.796,15.248-34.045,34.056-34.045H453.493z"/>
<path style="fill:#F95428;" d="M407.151,343.818c4.478,0,8.945-1.16,12.952-3.479c8.428-4.868,17.579-7.165,26.57-7.165
	c20.852,0,40.888,12.309,49.385,33.229c4.731,11.654,7.062,23.929,7.062,36.157c0,18.819-5.534,37.512-16.328,53.599l-9.346,13.928
	c-6.464,9.634-17.855,14.732-29.348,13.147l-13.928-1.918c-17.935-2.48-36.111-2.48-54.047,0l-13.928,1.918
	c-11.482,1.585-22.872-3.514-29.337-13.147l-9.358-13.928c-0.207-0.31-0.413-0.62-0.62-0.93c0.666-2.319,1.137-4.719,1.366-7.199
	l10.001-106.049c8.692-5.718,18.923-8.807,29.371-8.807c8.991,0,18.142,2.296,26.57,7.165c4.007,2.319,8.485,3.479,12.952,3.479
	L407.151,343.818L407.151,343.818z"/>
<path style="fill:#E24324;" d="M375.119,470.087l-9.346-13.928c-10.793-16.087-16.328-34.78-16.328-53.599
	c0-12.228,2.331-24.503,7.062-36.157c5.807-14.295,17.002-24.566,30.163-29.64c-6.222-2.409-12.675-3.589-19.052-3.589
	c-20.852,0-40.888,12.309-49.385,33.229c-4.731,11.654-7.062,23.929-7.062,36.157c0,18.819,5.534,37.512,16.328,53.599l9.346,13.928
	c6.464,9.634,17.855,14.732,29.348,13.147l13.928-1.918c2.329-0.322,4.661-0.598,6.996-0.836
	C382.356,478.181,378.181,474.652,375.119,470.087z"/>
<path style="fill:#995C0D;" d="M310.276,181.231h-14.054c-17.12,0-31.002-13.882-31.002-31.002V70.393h-27.856h-69.111h-0.011
	v22.677v35.262v21.896c0,0.095,0.003,0.2,0.003,0.299c-0.161,16.982-13.975,30.703-30.994,30.703h-14.054
	c-23.125,0-41.244,19.899-39.074,42.932l11.103,117.818l10.001,106.049c0.23,2.48,0.7,4.88,1.366,7.199
	c4.742,16.477,19.91,28.292,37.627,28.292h26.122h66.256h52.654c17.717,0,32.885-11.815,37.627-28.292
	c0.666-2.319,1.137-4.719,1.366-7.199l10.001-106.049l11.103-117.818C351.52,201.129,333.401,181.231,310.276,181.231z"/>
<path style="fill:#B27214;" d="M282.236,181.231h-9.841c-11.989,0-21.709-13.882-21.709-31.002V99.561H231.18h-48.403v28.771v21.896
	c0,0.095,0.002,0.2,0.002,0.299c-0.113,16.982-9.785,30.703-21.704,30.703h-9.841c-16.193,0-28.881,19.899-27.361,42.932
	l7.775,117.818l7.003,106.049c0.161,2.48,0.49,4.88,0.956,7.199c3.321,16.477,13.942,28.292,26.348,28.292h18.291h46.395h36.87
	c12.406,0,23.027-11.815,26.348-28.292c0.466-2.319,0.796-4.719,0.956-7.199l7.003-106.049l7.775-117.818
	C311.116,201.129,298.43,181.231,282.236,181.231z"/>
<polygon style="fill:#F7B239;" points="180.7,286.12 181.848,264.212 313.284,264.212 302.95,388.22 175.338,388.22 "/>
<polygon style="fill:#995C0D;" points="279.079,28.828 279.079,70.393 265.22,70.393 168.242,70.393 154.394,70.393 154.394,28.828 
	"/>
<polygon style="fill:#B27214;" points="251.907,28.828 251.907,70.393 244.089,70.393 189.377,70.393 181.564,70.393 
	181.564,28.828 "/>
<polygon style="fill:#E09B2D;" points="180.7,286.12 175.338,388.22 170.343,483.521 144.209,483.521 61.239,483.521 58.38,429.13 
	50.882,286.12 "/>
<path style="fill:#F7B239;" d="M153.907,286.12l-4.255,85.236l-3.244,65.115c-0.403,8.091-7.081,14.445-15.183,14.445h-6.277H59.101
	l-2.269-45.407l-5.95-119.389h103.025V286.12z"/>
<path style="fill:#995C0D;" d="M168.242,93.071v35.262h-35.25c-10.081,0-18.28,8.198-18.28,18.28c0,7.222,2.813,14.008,7.911,19.118
	l15.489,15.478c-0.287,0.023-0.586,0.023-0.873,0.023h-14.054c-9.783,0-18.67,3.559-25.502,9.415
	c-5.844-5.844-10.391-12.711-13.492-20.197s-4.742-15.581-4.742-23.837c0-29.567,23.975-53.541,53.541-53.541H168.242z"/>
<g>
	<path style="fill:#333333;" d="M504.305,362.989c-9.523-23.449-32.04-38.601-57.363-38.601c-10.032,0-19.974,2.495-28.905,7.231
		c0.049-2.102-0.013-4.363-0.249-6.763c-0.374-3.797-1.217-8.181-2.876-12.865h4.8c23.521,0,42.656-19.136,42.656-42.656v-17.444
		c0-4.756-3.856-8.612-8.612-8.612h-17.444c-22.755,0-41.404,17.911-42.594,40.375c-0.211-0.165-0.415-0.331-0.629-0.495
		c-3.774-2.893-9.18-2.18-12.074,1.595c-2.893,3.774-2.179,9.18,1.595,12.074c17.137,13.138,18.855,28.24,18.102,36.838
		c-0.667-0.277-1.319-0.595-1.949-0.959c-9.422-5.443-20.1-8.32-30.878-8.32c-6.633,0-13.16,1.062-19.376,3.109l9.682-102.702
		c1.262-13.386-3.206-26.765-12.255-36.707c-9.049-9.942-21.949-15.644-35.391-15.644H296.49c-12.346,0-22.39-10.045-22.39-22.39
		V78.83h5.249c4.756,0,8.612-3.856,8.612-8.612V28.654c0-4.756-3.856-8.612-8.612-8.612H154.655c-4.756,0-8.612,3.856-8.612,8.612
		v41.564c0,4.756,3.856,8.612,8.612,8.612h5.244v5.448H133.26c-34.275,0-62.16,27.884-62.16,62.16
		c0,16.087,5.338,31.344,15.147,43.785c-7.497,9.284-11.271,21.111-10.531,33.053H48.315c-2.362,0-4.62,0.97-6.246,2.683
		c-1.626,1.713-2.477,4.02-2.353,6.378l2.361,44.996H22.333c-6.283,0-12.308,2.667-16.532,7.318
		c-4.224,4.65-6.301,10.905-5.699,17.158l8.786,91.229c2.203,22.868,19.515,40.666,41.565,43.995l2.453,46.765
		c0.24,4.574,4.019,8.16,8.6,8.16h82.972h26.135h118.908c15.943,0,30.08-7.703,38.766-19.761l1.688,2.513
		c7.254,10.812,19.585,17.239,32.427,17.239c1.74,0,3.489-0.118,5.236-0.359l13.934-1.919c17.149-2.371,34.538-2.371,51.693,0.001
		l13.926,1.918c14.652,2.02,29.44-4.605,37.675-16.879l9.348-13.928c11.637-17.344,17.788-37.537,17.788-58.397
		C511.999,388.822,509.411,375.567,504.305,362.989z M163.266,37.266h107.472v24.341H163.266V37.266z M410.879,285.936
		c0-14.024,11.41-25.433,25.433-25.433h8.832v8.832c0,14.024-11.41,25.433-25.433,25.433h-8.832V285.936z M141.581,172.056
		l-12.595-12.584c-3.479-3.488-5.395-8.118-5.395-13.038c0-5.329,4.335-9.665,9.665-9.665H159.9v13.286
		C159.899,161.008,151.986,170.133,141.581,172.056z M133.26,101.502h26.639v18.044h-26.644c-14.826,0-26.888,12.062-26.888,26.888
		c0,9.512,3.702,18.462,10.434,25.211l1.133,1.132c-6.587,0.769-12.924,2.9-18.608,6.216c-7.13-9.309-11.005-20.631-11.005-32.555
		C88.323,121.66,108.483,101.502,133.26,101.502z M174.73,240.5l-1.932,36.835H59.323L57.39,240.5H174.73z M190.29,272.65h113.904
		l-8.899,106.784H184.687L190.29,272.65z M26.031,391.389l-8.786-91.228c-0.188-1.96,0.736-3.301,1.304-3.927
		s1.815-1.674,3.783-1.674H42.98l6.541,124.707C36.903,415.869,27.344,405.013,26.031,391.389z M144.478,474.736H69.677
		l-9.452-180.178h111.667l-9.452,180.178L144.478,474.736L144.478,474.736z M289.521,474.736H179.688l4.096-78.079h119.435
		c4.479,0,8.21-3.433,8.582-7.896l10.334-124.007c0.2-2.4-0.614-4.774-2.245-6.546s-3.929-2.781-6.337-2.781h-122.36l1.211-23.087
		c0.124-2.358-0.727-4.665-2.353-6.378c-1.626-1.713-3.884-2.683-6.246-2.683H92.975l-0.009-0.095
		c-0.82-8.698,1.966-17.045,7.845-23.504c5.875-6.454,13.916-10.009,22.644-10.009h14.054c21.843,0,39.613-17.771,39.613-39.613
		V78.833h79.755v71.224c0,21.843,17.771,39.613,39.613,39.613h14.054c8.731,0,16.777,3.556,22.654,10.015
		c5.879,6.459,8.664,14.803,7.846,23.498L319.94,447.052C318.455,462.833,305.376,474.736,289.521,474.736z M479.91,451.187
		l-9.348,13.928c-4.594,6.846-12.847,10.541-21.023,9.414l-13.922-1.916c-18.715-2.588-37.693-2.588-56.4,0l-13.931,1.918
		c-8.167,1.125-16.414-2.569-21.011-9.419l-7.87-11.713c0.301-1.55,0.533-3.129,0.683-4.734l9.585-101.685
		c6.518-3.51,13.772-5.368,21.213-5.368c7.757,0,15.455,2.078,22.256,6.006c5.242,3.034,11.212,4.638,17.277,4.638
		c6.053,0,12.023-1.603,17.259-4.634c6.807-3.932,14.504-6.01,22.263-6.01c18.28,0,34.533,10.934,41.406,27.857
		c4.266,10.51,6.429,21.585,6.429,32.918C494.776,419.816,489.635,436.691,479.91,451.187z"/>
	<path style="fill:#333333;" d="M233.316,305.948c-3.363-3.363-8.816-3.363-12.178,0l-7.916,7.916l-7.916-7.916
		c-3.363-3.363-8.816-3.363-12.178,0c-3.363,3.363-3.363,8.815,0,12.178l7.916,7.916l-7.916,7.916
		c-3.363,3.363-3.363,8.815,0,12.178c1.681,1.682,3.886,2.523,6.089,2.523s4.408-0.84,6.089-2.523l7.916-7.916l7.916,7.916
		c1.681,1.682,3.886,2.523,6.089,2.523s4.408-0.84,6.089-2.523c3.363-3.363,3.363-8.815,0-12.178l-7.916-7.916l7.916-7.916
		C236.679,314.764,236.679,309.311,233.316,305.948z"/>
	<path style="fill:#333333;" d="M286.478,305.948c-3.363-3.363-8.816-3.363-12.178,0l-7.916,7.916l-7.916-7.916
		c-3.363-3.363-8.816-3.363-12.178,0c-3.363,3.363-3.363,8.815,0,12.178l7.916,7.916l-7.916,7.916
		c-3.363,3.363-3.363,8.815,0,12.178c1.681,1.682,3.886,2.523,6.089,2.523s4.408-0.84,6.089-2.523l7.916-7.916l7.916,7.916
		c1.681,1.682,3.886,2.523,6.089,2.523c2.203,0,4.408-0.84,6.089-2.523c3.363-3.363,3.363-8.815,0-12.178l-7.916-7.916l7.916-7.916
		C289.841,314.764,289.841,309.311,286.478,305.948z"/>
	<circle style="fill:#333333;" cx="137.877" cy="326.037" r="8.612"/>
	<circle style="fill:#333333;" cx="96.541" cy="362.78" r="8.612"/>
	<circle style="fill:#333333;" cx="133.766" cy="416.746" r="8.612"/>
	<circle style="fill:#333333;" cx="90.8" cy="439.607" r="8.612"/>
</g>
<g>
</g>
<g>
</g>
<g>
</g>
<g>
</g>
<g>
</g>
<g>
</g>
<g>
</g>
<g>
</g>
<g>
</g>
<g>
</g>
<g>
</g>
<g>
</g>
<g>
</g>
<g>
</g>
<g>
</g>
</svg>
