<?xml version="1.0" encoding="iso-8859-1"?>
<!-- Generator: Adobe Illustrator 19.0.0, SVG Export Plug-In . SVG Version: 6.00 Build 0)  -->
<svg version="1.1" id="Capa_1" xmlns="http://www.w3.org/2000/svg" xmlns:xlink="http://www.w3.org/1999/xlink" x="0px" y="0px"
	 viewBox="0 0 512 512" style="enable-background:new 0 0 512 512;" xml:space="preserve">
<path style="fill:#FFE1A0;" d="M360.21,157.134l-32.065-42.753c-5.203-6.938-8.016-15.376-8.016-24.048v-26.72H95.677v26.72
	c0,8.672-2.813,17.111-8.016,24.048l-32.065,42.753c-5.203,6.938-8.016,15.376-8.016,24.048v291.253
	c0,17.708,14.356,32.065,32.065,32.065h256.516c17.709,0,32.065-14.356,32.065-32.065V181.183
	C368.226,172.51,365.413,164.072,360.21,157.134z"/>
<path style="fill:#F7D291;" d="M95.677,63.613v26.72c0,8.672-2.813,17.111-8.016,24.048l-32.065,42.753
	c-5.203,6.938-8.016,15.376-8.016,24.048v291.253c0,17.709,14.356,32.065,32.065,32.065h94.59
	c-12.396,0-22.445-14.356-22.445-32.065V181.183c0-8.672,1.969-17.111,5.611-24.048l22.445-42.753
	c1.073-2.043,2.18-4.331,3.208-6.542c2.89-6.217,9.162-10.158,16.018-10.158h121.057V63.613H95.677z"/>
<rect x="47.581" y="183.85" style="fill:#FF8087;" width="328.66" height="272.55"/>
<rect x="47.581" y="183.85" style="fill:#E6646E;" width="104.21" height="272.55"/>
<path style="fill:#FF8087;" d="M320.129,7.5H95.677c-8.854,0-16.032,7.178-16.032,16.032v32.065c0,8.854,7.178,16.032,16.032,16.032
	h224.452c8.854,0,16.032-7.178,16.032-16.032V23.532C336.161,14.678,328.983,7.5,320.129,7.5z"/>
<circle style="fill:#F7D291;" cx="207.9" cy="320.13" r="96.19"/>
<path style="fill:#E6646E;" d="M95.677,7.5c-8.854,0-16.032,7.178-16.032,16.032v32.065c0,8.854,7.179,16.032,16.032,16.032h82.165
	V7.5H95.677z"/>
<path style="fill:#F5B97D;" d="M151.79,242.106c-24.241,17.465-40.081,45.864-40.081,78.023s15.84,60.557,40.081,78.023V242.106z"/>
<path style="fill:#EAF3FF;" d="M419.702,317.503L430.992,40.88c0.678-16.608-11.31-31.776-27.866-33.252
	c-18.792-1.676-34.344,13.497-33.592,31.911l11.346,277.965c0.324,7.93-3.162,15.669-9.663,20.222
	c-20.804,14.574-35.055,44.292-35.055,78.597c0,48.699,28.712,88.177,64.129,88.177s64.129-39.478,64.129-88.177
	c0-34.306-14.251-64.023-35.055-78.597C422.864,333.171,419.378,325.433,419.702,317.503z"/>
<path style="fill:#DCEBFF;" d="M360.21,416.323c0-34.306,14.251-64.023,35.055-78.598c6.501-4.554,9.987-12.292,9.663-20.222
	L393.581,39.538c-0.536-13.151,7.312-24.528,18.649-29.415c-2.841-1.256-5.85-2.206-9.104-2.496
	c-18.792-1.676-34.345,13.497-33.593,31.911l11.346,277.965c0.324,7.931-3.162,15.668-9.663,20.222
	c-20.804,14.574-35.055,44.292-35.055,78.598c0,48.699,28.712,88.177,64.129,88.177c4.114,0,8.126-0.585,12.024-1.603
	C382.651,495.152,360.21,459.365,360.21,416.323z"/>
<path style="fill:#FFE1A0;" d="M403.126,7.627c-18.792-1.676-34.345,13.497-33.593,31.911l7.854,192.414h45.807l7.799-191.072
	C431.67,24.271,419.683,9.103,403.126,7.627z"/>
<path style="fill:#F7D291;" d="M412.23,10.123c-2.84-1.256-5.85-2.206-9.104-2.496c-18.792-1.676-34.345,13.497-33.593,31.911
	l7.854,192.414h24.048l-7.854-192.414C393.045,26.387,400.893,15.01,412.23,10.123z"/>
<path style="fill:#B67F5F;" d="M207.903,376.242L207.903,376.242c-17.709,0-32.065-14.356-32.065-32.064v-8.016h64.129v8.016
	C239.968,361.886,225.612,376.242,207.903,376.242z"/>
<path style="fill:#CD916E;" d="M178.217,356.202h59.373c1.508-3.718,2.378-7.765,2.378-12.024v-8.016h-64.129v8.016
	C175.839,348.436,176.709,352.483,178.217,356.202z"/>
<path d="M328.145,497h-248.5C66.1,497,55.08,485.98,55.08,472.436v-8.532h249.016c4.142,0,7.5-3.358,7.5-7.5s-3.358-7.5-7.5-7.5
	H55.081V191.355h289.097c4.142,0,7.5-3.358,7.5-7.5s-3.358-7.5-7.5-7.5H55.459c0.805-5.311,2.906-10.412,6.137-14.721l32.064-42.752
	c6.137-8.182,9.516-18.32,9.516-28.548V79.129h160.838c4.142,0,7.5-3.358,7.5-7.5s-3.358-7.5-7.5-7.5H95.677
	c-4.705,0-8.532-3.828-8.532-8.532V23.532c0-4.705,3.828-8.532,8.532-8.532h224.452c4.705,0,8.532,3.828,8.532,8.532v32.064
	c0,4.705-3.828,8.532-8.532,8.532h-24.047c-4.142,0-7.5,3.358-7.5,7.5s3.358,7.5,7.5,7.5h16.547v11.205
	c0,10.227,3.379,20.366,9.516,28.548l16.032,21.376c1.474,1.965,3.726,3,6.006,3c1.566,0,3.145-0.489,4.494-1.5
	c3.313-2.485,3.985-7.186,1.5-10.5l-16.032-21.376c-4.202-5.603-6.516-12.545-6.516-19.548V77.896
	c9.308-3.139,16.032-11.946,16.032-22.3V23.532C343.661,10.557,333.104,0,320.129,0H95.677C82.702,0,72.145,10.557,72.145,23.532
	v32.064c0,10.354,6.724,19.16,16.032,22.3v12.437c0,7.003-2.314,13.946-6.516,19.548l-32.064,42.752
	c-6.137,8.183-9.516,18.321-9.516,28.548v291.253c0,21.816,17.749,39.564,39.564,39.564h248.5c4.142,0,7.5-3.358,7.5-7.5
	S332.286,497,328.145,497z"/>
<path d="M433.667,331.583c-4.218-2.955-6.698-8.233-6.472-13.774l11.291-276.623c0.866-21.195-14.374-39.217-34.693-41.029
	c-11.039-0.985-21.934,2.808-29.905,10.405c-7.978,7.603-12.296,18.276-11.847,29.282l11.345,277.965
	c0.226,5.541-2.254,10.819-6.472,13.774c-23.595,16.529-38.252,49-38.252,84.74c0,25.125,7.18,48.835,20.218,66.762
	C362.44,501.731,380.698,512,400.29,512s37.851-10.269,51.412-28.916c13.037-17.926,20.217-41.636,20.217-66.762
	C471.919,380.583,457.262,348.112,433.667,331.583z M384.234,21.421c4.39-4.184,10.016-6.422,16.033-6.422
	c0.725,0,1.457,0.033,2.192,0.098c12.13,1.082,21.568,12.511,21.039,25.477l-7.505,183.878h-31.406l-7.56-185.22
	C376.754,32.538,379.381,26.046,384.234,21.421z M400.29,497c-31.226,0-56.629-36.192-56.629-80.677
	c0-30.925,12.208-58.688,31.858-72.455c8.487-5.945,13.292-15.916,12.853-26.67l-3.173-77.746h30.182l-3.173,77.745
	c-0.439,10.755,4.366,20.726,12.853,26.671c19.651,13.767,31.858,41.53,31.858,72.455C456.919,460.808,431.516,497,400.29,497z"/>
<path d="M104.209,320.129c0,57.177,46.517,103.694,103.694,103.694s103.693-46.517,103.693-103.694s-46.516-103.693-103.693-103.693
	S104.209,262.952,104.209,320.129z M296.596,320.129c0,48.906-39.788,88.694-88.693,88.694s-88.694-39.788-88.694-88.694
	c0-38.625,24.821-71.557,59.349-83.698c-1.416,3.58-2.203,7.475-2.203,11.553c0,17.396,14.152,31.548,31.548,31.548
	c8.962,0,17.532-3.832,23.512-10.513c2.763-3.086,2.5-7.828-0.586-10.59c-3.084-2.762-7.827-2.5-10.59,0.586
	c-3.138,3.506-7.634,5.517-12.335,5.517c-9.125,0-16.548-7.423-16.548-16.548s7.423-16.548,16.548-16.548
	C256.809,231.436,296.596,271.223,296.596,320.129z"/>
<path d="M239.968,328.661h-64.129c-4.142,0-7.5,3.358-7.5,7.5v8.016c0,21.816,17.749,39.564,39.564,39.564
	s39.564-17.749,39.564-39.564v-8.016C247.468,332.019,244.11,328.661,239.968,328.661z M232.468,344.177
	c0,13.545-11.02,24.564-24.564,24.564s-24.564-11.02-24.564-24.564v-0.516h49.129v0.516H232.468z"/>
<path d="M177.641,308.296c2.319,3.432,6.981,4.334,10.414,2.014c3.432-2.319,4.333-6.981,2.014-10.414
	c-4.789-7.086-13.105-11.316-22.246-11.316c-9.142,0-17.458,4.23-22.247,11.317c-2.319,3.432-1.417,8.094,2.015,10.414
	c1.288,0.87,2.748,1.287,4.192,1.287c2.407,0,4.772-1.157,6.221-3.302c1.965-2.909,5.727-4.715,9.818-4.715
	C171.913,303.581,175.675,305.388,177.641,308.296z"/>
<path d="M235.769,310.311c3.433,2.318,8.094,1.417,10.414-2.015c1.965-2.909,5.727-4.715,9.818-4.715s7.853,1.807,9.818,4.715
	c1.449,2.145,3.813,3.302,6.221,3.302c1.444,0,2.905-0.417,4.192-1.287c3.432-2.319,4.334-6.981,2.015-10.414
	c-4.789-7.086-13.105-11.317-22.247-11.317s-17.458,4.23-22.247,11.317C231.435,303.33,232.336,307.992,235.769,310.311z"/>
<g>
</g>
<g>
</g>
<g>
</g>
<g>
</g>
<g>
</g>
<g>
</g>
<g>
</g>
<g>
</g>
<g>
</g>
<g>
</g>
<g>
</g>
<g>
</g>
<g>
</g>
<g>
</g>
<g>
</g>
</svg>
