<svg enable-background="new 0 0 60 53.273" height="512" viewBox="0 0 60 53.273" width="512" xmlns="http://www.w3.org/2000/svg"><path d="m59 21.5c0 2.94-1.43 5.42-3.39 6.22l.72 22.39c.04 1.18-.91 2.16-2.1 2.16-1.18 0-2.13-.98-2.09-2.16l.72-22.39c-1.96-.8-3.39-3.28-3.39-6.22 0-3.59 2.13-6.5 4.76-6.5 2.64 0 4.77 2.91 4.77 6.5z" fill="#f4edea"/><path d="m6.07 16h3.85l.82 6.59c0 1.64-1.33 2.97-2.96 2.97h-.55l.78 24.02c.04 1.21-.93 2.21-2.14 2.21s-2.18-1-2.14-2.21l.78-24.02h-.55c-1.63 0-2.96-1.33-2.96-2.97l.82-6.59z" fill="#f4edea"/><path d="m38.016 17.037c7.531 3.663 10.666 12.735 7.003 20.267-1.209 2.486-2.994 4.484-5.133 5.924l-8.791-12.696 2.202-14.907c1.598.202 3.187.667 4.719 1.412z" fill="#d35454"/><path d="m15.208 26.772 12.561 6.11 8.274 11.949c-4.088 2.763-9.488 3.329-14.244 1.016-7.089-3.448-10.039-11.987-6.591-19.075z" fill="#38bc56"/><path d="m28.583 12.019-2.065 13.981-12.518-6.088c2.737-5.627 8.697-8.644 14.583-7.893z" fill="#f7d300"/><g fill="#3a0d33"><path d="m60 21.501c0-4.136-2.587-7.501-5.768-7.501s-5.767 3.365-5.767 7.501c0 2.989 1.33 5.633 3.372 6.831l-.701 21.742c-.027.846.282 1.647.87 2.255.589.608 1.379.943 2.226.943s1.638-.335 2.227-.943c.588-.608.897-1.409.87-2.255l-.701-21.742c2.042-1.198 3.372-3.842 3.372-6.831zm-4.772 5.298c-.386.159-.633.541-.62.958l.722 22.382c.01.3-.1.583-.308.799-.418.431-1.161.432-1.579 0-.208-.215-.318-.499-.308-.799l.722-22.382c.013-.417-.234-.799-.62-.958-1.632-.669-2.772-2.849-2.772-5.298 0-2.982 1.725-5.501 3.767-5.501 2.043 0 3.768 2.519 3.768 5.501 0 2.45-1.14 4.629-2.772 5.298z"/><path d="m55.159 22.534c-.154.773-.56 1.453-1.112 1.864-.443.33-.534.957-.204 1.399.196.263.498.402.803.402.208 0 .417-.065.597-.198.957-.714 1.625-1.806 1.878-3.076.108-.542-.243-1.068-.785-1.176s-1.069.244-1.177.785z"/><path d="m10.848 15.359c-.068-.549-.571-.938-1.116-.869-.548.068-.937.568-.869 1.116l.876 7.043c-.029 1.059-.895 1.911-1.956 1.911h-.549c-.005 0-.01.003-.015.003-.006 0-.011-.003-.017-.003-.063.002-.117.029-.177.042-.066.014-.134.019-.194.046-.06.026-.106.07-.159.107-.052.037-.11.066-.154.111-.045.047-.073.106-.108.161-.034.053-.076.1-.1.159-.025.062-.028.131-.04.199-.011.059-.035.113-.035.175 0 .006.003.01.003.016s-.003.01-.003.016l.779 24.013c.009.316-.106.615-.324.84-.433.446-1.206.445-1.638 0-.218-.225-.333-.523-.324-.837l.779-24.016c0-.006-.003-.01-.003-.016s.003-.01.003-.016c0-.062-.025-.116-.035-.175-.012-.067-.015-.137-.04-.199-.024-.059-.066-.106-.1-.159-.036-.055-.063-.114-.108-.161-.044-.046-.102-.075-.154-.111-.053-.037-.099-.081-.159-.107-.06-.027-.128-.031-.194-.046-.06-.013-.114-.04-.177-.042-.006 0-.011.003-.017.003-.005 0-.01-.003-.015-.003h-.551c-1.061 0-1.927-.852-1.957-1.911l.877-7.043c.068-.548-.32-1.047-.869-1.116-.548-.071-1.047.32-1.116.869l-.884 7.111c-.006.041-.008.082-.008.124 0 2.021 1.523 3.676 3.475 3.917l-.747 23.035c-.025.861.29 1.675.889 2.292.596.614 1.396.952 2.254.952.857 0 1.657-.338 2.253-.952.599-.616.914-1.43.889-2.294l-.747-23.033c1.953-.242 3.475-1.896 3.475-3.917 0-.042-.002-.083-.008-.124z"/><path d="m6.066 24.453c.552 0 1-.448 1-1v-7.97c0-.552-.448-1-1-1s-1 .448-1 1v7.97c0 .552.448 1 1 1z"/><path d="m43.463 12.844c.166.106.352.156.536.156.331 0 .654-.164.845-.463l7-11c.296-.466.159-1.085-.307-1.381s-1.084-.159-1.381.307l-7 11c-.296.466-.159 1.084.307 1.381z"/><path d="m42.772 6.909c1.529 0 2.773-1.244 2.773-2.773s-1.244-2.772-2.773-2.772-2.772 1.243-2.772 2.772 1.244 2.773 2.772 2.773zm0-3.545c.426 0 .773.347.773.772 0 .426-.347.773-.773.773-.425 0-.772-.346-.772-.773 0-.426.347-.772.772-.772z"/><path d="m49 9.228c0 1.528 1.244 2.772 2.772 2.772s2.773-1.244 2.773-2.773-1.244-2.773-2.773-2.773-2.772 1.245-2.772 2.774zm3.545 0c0 .426-.347.773-.773.773-.425-.001-.772-.348-.772-.773 0-.426.347-.773.772-.773.427 0 .773.346.773.773z"/><path d="m38.454 16.138c-1.603-.779-3.295-1.286-5.031-1.505-.541-.068-1.035.308-1.115.846l-2.202 14.907c-.037.251.023.507.167.715l8.791 12.696c.194.28.506.431.823.431.192 0 .386-.055.558-.17 2.335-1.572 4.228-3.756 5.473-6.316 1.888-3.883 2.152-8.269.742-12.348-1.409-4.08-4.324-7.368-8.206-9.256zm5.666 20.729c-.945 1.943-2.315 3.639-3.993 4.952l-7.984-11.531 1.996-13.513c1.181.235 2.334.625 3.44 1.163 3.402 1.654 5.957 4.535 7.192 8.109 1.234 3.575 1.003 7.417-.651 10.82z"/><path d="m28.591 32.312c-.098-.141-.23-.255-.385-.33l-12.561-6.109c-.498-.242-1.095-.035-1.337.462-1.784 3.668-2.033 7.812-.701 11.667s4.086 6.96 7.754 8.745c2.108 1.025 4.391 1.531 6.669 1.531 3.008 0 6.006-.883 8.573-2.618.221-.15.374-.382.423-.645.049-.262-.009-.534-.161-.753zm-6.355 12.635c-3.188-1.55-5.581-4.25-6.739-7.599-1.048-3.033-.97-6.271.205-9.224l11.393 5.542 7.527 10.871c-3.784 2.154-8.441 2.33-12.386.41z"/><path d="m13.562 20.811 12.518 6.088c.138.067.288.101.438.101.161 0 .321-.039.467-.116.282-.149.476-.423.522-.738l2.066-13.981c.039-.266-.03-.536-.192-.75s-.404-.354-.67-.388c-6.477-.828-12.749 2.568-15.609 8.448-.243.496-.036 1.094.46 1.336zm13.877-7.891-1.711 11.583-10.358-5.037c2.488-4.267 7.158-6.796 12.069-6.546z"/><path d="m22 15h2v2h-2z"/><path d="m22 8h2v2h-2z"/><path d="m22 4h2v2h-2z"/><path d="m26 4h2v2h-2z"/><path d="m30 4h2v2h-2z"/><path d="m34 4h2v2h-2z"/></g></svg>