<svg id="Capa_1" enable-background="new 0 0 511.937 511.937" height="512" viewBox="0 0 511.937 511.937" width="512" xmlns="http://www.w3.org/2000/svg"><path d="m489.979 187.536h-376.38c1.071-44.646 3.223-89.303 6.437-133.95 1.401-19.486 16.437-35.223 35.841-37.509 97.275-11.463 194.549-11.463 291.824 0 19.404 2.286 34.44 18.023 35.841 37.509 3.213 44.647 5.356 89.304 6.437 133.95z" fill="#d57e4b"/><path d="m133.677 149.954c0 44.433 18.72 84.47 48.667 112.74 29.948-28.27 48.667-68.307 48.667-112.74s-18.719-84.47-48.667-112.739c-29.948 28.268-48.667 68.306-48.667 112.739z" fill="#fcb143"/><path d="m163.554 149.954c0 44.43 7.23 84.473 18.786 112.744-29.95-28.271-48.663-68.314-48.663-112.744s18.713-84.474 48.663-112.744c-11.556 28.27-18.786 68.313-18.786 112.744z" fill="#fa9801"/><circle cx="182.344" cy="106.868" fill="#453e43" r="16.243"/><path d="m253.127 149.954c0 44.433 18.72 84.47 48.667 112.74 29.948-28.27 48.667-68.307 48.667-112.74s-18.719-84.47-48.667-112.739c-29.947 28.268-48.667 68.306-48.667 112.739z" fill="#fcb143"/><path d="m283.005 149.954c0 44.43 7.23 84.473 18.785 112.744-29.95-28.271-48.663-68.314-48.663-112.744s18.713-84.474 48.663-112.744c-11.555 28.27-18.785 68.313-18.785 112.744z" fill="#fa9801"/><circle cx="301.794" cy="106.868" fill="#453e43" r="16.243"/><path d="m372.577 149.954c0 44.433 18.72 84.47 48.667 112.74 29.948-28.27 48.667-68.307 48.667-112.74s-18.719-84.47-48.667-112.739c-29.947 28.268-48.667 68.306-48.667 112.739z" fill="#fcb143"/><path d="m402.455 149.954c0 44.43 7.23 84.473 18.785 112.744-29.95-28.271-48.663-68.314-48.663-112.744s18.714-84.474 48.664-112.744c-11.556 28.27-18.786 68.313-18.786 112.744z" fill="#fa9801"/><circle cx="421.245" cy="106.868" fill="#453e43" r="16.243"/><path d="m483.542 458.381c-1.401 19.486-16.437 35.223-35.841 37.509-97.275 11.452-194.549 11.452-291.824 0-19.404-2.287-34.44-18.023-35.841-37.509-5.974-83.124-8.27-166.248-6.88-249.371h377.255c1.401 83.123-.895 166.247-6.869 249.371z" fill="#c21925"/><path d="m459.854 243.903c.309 70.909-2.07 141.849-7.127 212.264-.34 4.686-3.965 8.486-8.631 9.043-47.221 5.562-95.102 8.373-142.302 8.373-47.211 0-95.091-2.812-142.302-8.373-4.665-.556-8.301-4.357-8.641-9.043-5.057-70.415-7.436-141.355-7.127-212.264" fill="#fa2a3b"/><path d="m492.674 149.637h-381.765c-5.543 0-10.037 4.494-10.037 10.037v74.193c0 5.543 4.494 10.037 10.037 10.037h381.765c5.543 0 10.037-4.494 10.037-10.037v-74.193c.001-5.543-4.493-10.037-10.037-10.037z" fill="#f0ecef"/><path d="m502.706 198.969v34.893c0 5.551-4.491 10.042-10.032 10.042h-381.766c-5.541 0-10.042-4.491-10.042-10.042v-34.893c0 5.541 4.501 10.042 10.042 10.042h381.766c5.541-.001 10.032-4.501 10.032-10.042z" fill="#d5ced5"/><path d="m330.253 368.938c-29.852 0-56.751 12.577-75.745 32.697 18.993 20.12 45.892 32.697 75.745 32.697 29.852 0 56.751-12.577 75.744-32.697-18.992-20.12-45.892-32.697-75.744-32.697z" fill="#f0ecef"/><path d="m330.253 389.011c-29.851 0-56.753 4.857-75.747 12.621 18.994-20.122 45.897-32.694 75.747-32.694s56.753 12.572 75.747 32.694c-18.994-7.763-45.896-12.621-75.747-12.621z" fill="#d5ced5"/><path d="m254.512 401.633c-14.903 15.788-34.677 26.932-56.933 31 6.344-8.981 12.194-19.383 17.436-31-5.242-11.607-11.092-22.02-17.436-31 22.256 4.068 42.03 15.212 56.933 31z" fill="#f0ecef"/><path d="m182.344 83.125c-13.092 0-23.743 10.651-23.743 23.743s10.651 23.743 23.743 23.743 23.743-10.651 23.743-23.743-10.651-23.743-23.743-23.743zm0 32.486c-4.821 0-8.743-3.922-8.743-8.743s3.922-8.743 8.743-8.743 8.743 3.922 8.743 8.743-3.922 8.743-8.743 8.743z"/><path d="m301.794 83.125c-13.092 0-23.743 10.651-23.743 23.743s10.651 23.743 23.743 23.743 23.743-10.651 23.743-23.743-10.651-23.743-23.743-23.743zm0 32.486c-4.821 0-8.743-3.922-8.743-8.743s3.922-8.743 8.743-8.743 8.743 3.922 8.743 8.743-3.922 8.743-8.743 8.743z"/><path d="m421.244 83.125c-13.092 0-23.743 10.651-23.743 23.743s10.651 23.743 23.743 23.743 23.743-10.651 23.743-23.743-10.651-23.743-23.743-23.743zm0 32.486c-4.821 0-8.743-3.922-8.743-8.743s3.922-8.743 8.743-8.743 8.743 3.922 8.743 8.743-3.922 8.743-8.743 8.743z"/><path d="m496.01 142.462c-1.192-29.804-2.853-59.842-4.986-89.41-1.655-23.043-19.506-41.725-42.441-44.42-12.374-1.46-25.021-2.763-37.59-3.873-4.1-.368-7.766 2.684-8.13 6.811-.364 4.126 2.685 7.766 6.812 8.13 12.423 1.097 24.922 2.385 37.154 3.828 15.799 1.856 28.094 14.725 29.234 30.601 2.1 29.105 3.737 58.666 4.919 88.006h-3.765c-1.973-42.183-19.845-81.142-50.824-110.379-2.889-2.727-7.406-2.727-10.295 0-30.984 29.244-48.86 68.203-50.834 110.379h-7.496c-1.973-42.183-19.845-81.142-50.824-110.379-2.889-2.727-7.406-2.727-10.295 0-30.986 29.244-48.861 68.203-50.835 110.379h-7.496c-1.973-42.182-19.845-81.141-50.824-110.379-2.889-2.729-7.406-2.727-10.295 0-30.986 29.244-48.862 68.203-50.835 110.379h-3.786c1.175-29.103 2.828-58.666 4.936-88.008 1.141-15.874 13.437-28.742 29.239-30.599 74.058-8.735 149.155-10.772 223.204-6.054 4.131.264 7.697-2.875 7.961-7.008.264-4.134-2.874-7.698-7.008-7.962-74.952-4.775-150.96-2.714-225.911 6.127-22.939 2.696-40.791 21.377-42.446 44.421-2.142 29.813-3.818 59.853-5.001 89.414-8.069 1.573-14.182 8.688-14.182 17.211v29.593h-13.846c-4.143 0-7.5 3.358-7.5 7.5 0 15.245-12.402 27.647-27.647 27.647s-27.648-12.403-27.648-27.647 12.403-27.647 27.648-27.647c4.143 0 7.5-3.358 7.5-7.5s-3.357-7.5-7.5-7.5c-23.517 0-42.648 19.131-42.648 42.647s19.132 42.647 42.648 42.647c20.958 0 38.434-15.195 41.987-35.147h7.007v29.601c0 7.697 4.996 14.237 11.912 16.588-.118 59.195 1.642 119.209 5.276 178.509.244 3.978 3.547 7.041 7.479 7.041.154 0 .31-.004.466-.014 4.134-.253 7.28-3.81 7.027-7.944-3.596-58.681-5.346-118.064-5.249-176.648h15.928c-.113 68.436 2.288 137.463 7.161 205.307.6 8.26 7.006 14.967 15.244 15.949 47.453 5.59 95.626 8.424 143.179 8.424 47.543 0 95.716-2.834 143.19-8.426 8.222-.98 14.624-7.687 15.224-15.953 4.872-67.838 7.274-136.866 7.161-205.301h15.929c.12 68.468-2.306 137.877-7.235 206.439-1.141 15.865-13.437 28.734-29.236 30.599-96.239 11.328-193.835 11.327-290.074 0-15.802-1.865-28.099-14.734-29.239-30.6-.296-4.131-3.896-7.223-8.018-6.943-4.132.297-7.24 3.887-6.943 8.019 1.654 23.032 19.504 41.713 42.444 44.421 48.702 5.732 97.746 8.598 146.791 8.598s98.092-2.866 146.795-8.599c22.938-2.708 40.787-21.389 42.441-44.421 4.978-69.232 7.417-139.325 7.272-208.455 6.916-2.349 11.912-8.891 11.912-16.591v-74.194c.001-8.531-6.12-15.651-14.198-17.214zm-5.226 93.938c-.012 0-.023 0-.034 0-.018 0-.035.003-.053.003h-377.827c-.018 0-.035-.003-.053-.003-.022 0-.044.003-.066.003h-1.839c-1.401 0-2.541-1.136-2.541-2.531v-74.194c0-1.401 1.14-2.542 2.541-2.542h381.767c1.396 0 2.531 1.14 2.531 2.542v74.194c0 1.396-1.136 2.531-2.531 2.531h-1.835c-.021-.001-.04-.003-.06-.003zm-69.538-188.641c24.785 25.719 39.123 58.764 40.958 94.376h-81.928c1.838-35.607 16.18-68.652 40.97-94.376zm-119.45 0c24.785 25.719 39.122 58.764 40.958 94.376h-81.928c1.838-35.607 16.18-68.652 40.97-94.376zm-119.45 0c24.785 25.72 39.122 58.765 40.958 94.376h-81.928c1.838-35.607 16.179-68.652 40.97-94.376zm262.901 407.865c-.08 1.107-.938 2.006-2.027 2.136-46.885 5.522-94.467 8.322-141.426 8.322-46.969 0-94.551-2.8-141.414-8.32-1.106-.132-1.968-1.031-2.048-2.132-4.847-67.482-7.235-136.149-7.122-204.227h301.159c.113 68.077-2.276 136.744-7.122 204.221z"/><path d="m205.826 297.036h191.926c4.143 0 7.5-3.358 7.5-7.5s-3.357-7.5-7.5-7.5h-191.926c-4.143 0-7.5 3.358-7.5 7.5s3.358 7.5 7.5 7.5z"/><path d="m205.826 330.59h191.926c4.143 0 7.5-3.358 7.5-7.5s-3.357-7.5-7.5-7.5h-191.926c-4.143 0-7.5 3.358-7.5 7.5s3.358 7.5 7.5 7.5z"/><path d="m191.257 436.67c1.394 2.183 3.791 3.464 6.32 3.464.447 0 .898-.041 1.35-.123 20.944-3.829 40.004-13.413 55.574-27.84 20.676 19.179 47.29 29.66 75.752 29.66 31.027 0 59.863-12.447 81.198-35.048 2.728-2.89 2.728-7.407 0-10.297-21.335-22.602-50.172-35.049-81.198-35.049-28.46 0-55.073 10.481-75.75 29.659-15.571-14.428-34.631-24.013-55.576-27.841-3.002-.546-6.029.773-7.67 3.342s-1.563 5.875.196 8.364c5.483 7.762 10.623 16.722 15.304 26.673-4.67 9.936-9.81 18.895-15.305 26.672-1.758 2.489-1.836 5.795-.195 8.364zm138.996-60.232c24.398 0 47.235 8.896 65.062 25.197-17.826 16.301-40.662 25.197-65.062 25.197-24.398 0-47.234-8.896-65.062-25.197 17.828-16.302 40.665-25.197 65.062-25.197zm-86.427 25.195c-8.761 8.005-18.777 14.25-29.669 18.526 2.689-4.889 5.259-10.046 7.693-15.441.886-1.962.886-4.21-.001-6.172-2.438-5.398-5.008-10.554-7.695-15.44 10.893 4.276 20.911 10.521 29.672 18.527z"/><path d="m354.859 406.049c2.791 1.837 6.523 1.606 9.062-.561 2.303-1.965 3.182-5.256 2.194-8.112-.991-2.865-3.685-4.902-6.72-5.057-3.132-.16-6.098 1.74-7.297 4.624-1.365 3.288-.165 7.11 2.761 9.106z"/></svg>