<svg height="512" viewBox="0 0 60 60" width="512" xmlns="http://www.w3.org/2000/svg"><g id="Page-1" fill="none" fill-rule="evenodd"><g id="005---Canned-Fruit" fill-rule="nonzero"><path id="Shape" d="m45 9c0 1.6-1.32 3.1-3.38 4.22-.3001041-.2371517-.7091964-.2823411-1.0538262-.1164082s-.5644168.5139159-.5661738.8964082v.02c-4.1 1.85-10.18 2.98-17 2.98-12.15 0-22-3.58-22-8s9.85-8 22-8 22 3.58 22 8z" fill="#7f8e94"/><path id="Shape" d="m23 1c-.5 0-1 .008-1.5.021 11.45.279 20.5 3.743 20.5 7.979 0 1.6-1.32 3.1-3.38 4.22-.3001041-.2371517-.7091964-.2823411-1.0538262-.1164082s-.5644168.5139159-.5661738.8964082v.02c-3.839 1.732-9.424 2.82-15.717 2.953.567.016 1.138.027 1.717.027 6.82 0 12.9-1.13 17-2.98v-.02c.001757-.3824923.221544-.7304753.5661738-.8964082s.7537221-.1207435 1.0538262.1164082c2.06-1.12 3.38-2.62 3.38-4.22 0-4.42-9.85-8-22-8z" fill="#545c60"/><path id="Shape" d="m38 31s-6.8 6.71-7.05 16.35c-2 2.87-4.82 4.65-7.95 4.65-3.48 0-6.57-2.2-8.59-5.63-7.88-1.22-13.41-4.06-13.41-7.37v-20c0 3.42 5.89 6.33 14.17 7.47 1.7265613-2.6759532 4.6478962-4.3436884 7.83-4.47 3.1821038.1263116 6.1034387 1.7940468 7.83 4.47 1.6539398-.2197411 3.2934602-.5369599 4.91-.95z" fill="#ffeb3a"/><path id="Shape" d="m35.3 57.6c-4.0272017.9685848-8.1581397 1.4387729-12.3 1.4-12.15 0-22-3.58-22-8v-12c0 3.31 5.53 6.15 13.41 7.37 2.02 3.43 5.11 5.63 8.59 5.63 3.13 0 5.95-1.78 7.95-4.65-.0399084 1.440911.0706908 2.8820522.33 4.3.4525971 2.4567527 1.9096219 4.6132943 4.02 5.95z" fill="#f44335"/><ellipse id="Oval" cx="11.5" cy="8" fill="#9e9e9e" rx="4.5" ry="2"/><path id="Shape" d="m58.66 51.65c-.7954719 4.2654195-4.5210436 7.3560462-8.86 7.35h-9.67c-4.3369253.0060391-8.0596292-3.085698-8.85-7.35-.2593092-1.4179478-.3699084-2.859089-.33-4.3.25-9.64 7.05-16.35 7.05-16.35h13.94s8.89 8.76 6.72 20.65z" fill="#ffdc00"/><path id="Shape" d="m51.94 31h-3s8.89 8.76 6.72 20.65c-.7954719 4.2654195-4.5210436 7.3560462-8.86 7.3500089l3-.0000089c4.3389564.0060462 8.0645281-3.0845805 8.86-7.35 2.17-11.89-6.72-20.65-6.72-20.65z" fill="#fec108"/><path id="Shape" d="m33.8 20.8 1.94 4.72c-1.6165398.4130401-3.2560602.7302589-4.91.95-1.7265613-2.6759532-4.6478962-4.3436884-7.83-4.47-3.1821038.1263116-6.1034387 1.7940468-7.83 4.47-8.28-1.14-14.17-4.05-14.17-7.47v-10c0 4.42 9.85 8 22 8 6.82 0 12.9-1.13 17-2.98v6.98l-5-1.55c-.3705935-.1077006-.7700845.007462-1.0264799.2959068-.2563954.2884447-.3239269.6986825-.1735201 1.0540932z" fill="#f44335"/><path id="Shape" d="m56.2 20.8-4.26 10.2h-13.94l-2.26-5.48-1.94-4.72c-.1504068-.3554107-.0828753-.7656485.1735201-1.0540932.2563954-.2884448.6558864-.4036074 1.0264799-.2959068l5 1.55v-7c.001757-.3824923.221544-.7304753.5661738-.8964082s.7537221-.1207435 1.0538262.1164082c.0730976.0566586.137162.1240948.19.2l3.19 4.58 3.19-4.58c.2535376-.3502219.703439-.4978388 1.115178-.3659003.411739.1319384.6920542.5135474.694822.9459003v7l5-1.55c.3705935-.1077006.7700845.007462 1.0264799.2959068.2563954.2884447.3239269.6986825.1735201 1.0540932z" fill="#60a917"/><path id="Shape" d="m47 21 3-.93v-6.07c-.0027678-.4323529-.283083-.8139619-.694822-.9459003-.411739-.1319385-.8616404.0156784-1.115178.3659003l-1.19 1.709z" fill="#549414"/><path id="Shape" d="m55 19.45-1.811.562c.1124403.2498522.1164223.5351065.011.788l-4.26 10.2h3l4.26-10.2c.1504068-.3554107.0828753-.7656485-.1735201-1.0540932-.2563954-.2884448-.6558864-.4036074-1.0264799-.2959068z" fill="#549414"/><g fill="#000"><path id="Shape" d="m23 60c2.4874938.0044882 4.9726761-.1518377 7.44-.468.3544075-.0464445.6571157-.2784351.7940973-.6085833.1369816-.3301481.0874258-.7082964-.13-.992-.2174259-.2837036-.5696898-.4298613-.9240973-.3834167-2.3810328.305857-4.7794079.4568411-7.18.452-12.375 0-21-3.689-21-7v-8.221c2.27 2.009 6.37 3.614 11.8 4.506 2.284 3.639 5.617 5.715 9.2 5.715 1.6161966-.0041304 3.2037615-.4268609 4.608-1.227.4821446-.269515.6545149-.8788554.385-1.361-.269515-.4821446-.8788554-.6545149-1.361-.385-1.1062115.6328204-2.3575821.9680582-3.632.973-2.988 0-5.8-1.873-7.728-5.137-.1522029-.2585815-.412473-.4351541-.709-.481-7.397-1.146-12.563-3.77-12.563-6.382v-16.207c2.433 2.158 6.977 3.834 13.034 4.668.3664602.0502226.7307134-.1059409.947-.406 1.886-2.615 4.378-4.055 7.019-4.055s5.133 1.44 7.019 4.055c.2157322.2962865.575284.4521306.939.407l.924-.131c.5371259-.083746.9089665-.581239.8371915-1.1200951-.0717749-.5388562-.5608718-.9216733-1.1011915-.8619049l-.344.048c-1.9173195-2.6804218-4.9796381-4.3078106-8.274-4.397-3.2945408.0901996-6.3565274 1.718719-8.273 4.4-8.359-1.255-12.727-4.142-12.727-6.4v-6.152c3.841 3.369 12.618 5.152 21 5.152 3.0170255.0101124 6.0300075-.2216297 9.01-.693.5379269-.0956143.8995386-.6052684.8121112-1.1445864-.0874275-.539318-.5915267-.908634-1.1321112-.8294136-2.8742491.4536787-5.7801825.6767233-8.69.667-12.375 0-21-3.689-21-7s8.625-7 21-7 21 3.689 21 7c-.0065077.3687151-.1040686.73010269-.284 1.052-.2584692.4882197-.0722197 1.0935307.416 1.352.4882197.2584692 1.0935307.0722197 1.352-.416.3329414-.6101206.5101806-1.29297251.516-1.988 0-5.846-11.85-9-23-9s-23 3.154-23 9v42c0 5.846 11.85 9 23 9z"/><path id="Shape" d="m16.73 7c-1.688-2.9-10.73-2.572-10.73 1 0 1.97 2.767 3 5.5 3 2.225 0 4.472-.683 5.231-2h5.269c.5522847 0 1-.44771525 1-1s-.4477153-1-1-1zm-5.23 2c-2.2 0-3.412-.74-3.5-.979.088-.281 1.3-1.021 3.5-1.021 2.145 0 3.354.705 3.494 1-.14.3-1.349 1-3.494 1z"/><path id="Shape" d="m42.627 12.839c-.5053135-.7068401-1.4091989-1.0065553-2.2367241-.7416652-.8275251.2648902-1.3893513 1.0337787-1.3902759 1.9026652v5.642l-3.729-1.152c-.7384694-.2124261-1.5333447.0170181-2.0450155.5903025-.5116707.5732844-.6496493 1.3890253-.3549845 2.0986975l3.955 9.6c-1.875 2.061-8.507 10.248-6.536 21.05.8744005 4.7441294 5.0169791 8.1837198 9.841 8.171h9.674c4.8219489.0115328 8.9625232-3.4261792 9.838-8.168 1.955-10.717-4.559-18.862-6.491-21l3.972-9.647c.2961968-.7125231.1560779-1.5318824-.3600602-2.1054879-.5161381-.5736054-1.3162156-.799125-2.0559398-.5795121l-3.708 1.144v-5.644c.0000623-.8718547-.564664-1.6432926-1.3957796-1.9066888s-1.7370943.0419475-2.2392204.7546888l-2.365 3.401zm15.286 36.861-2.683-1.476 2.713-1.5c.0647268.9913464.0546985 1.9861599-.03 2.976zm-25.884.033c-.0886725-1.0120413-.0983685-2.0294526-.029-3.043l2.775 1.531zm6.139-17.433 4.98 3.2-5.084 3.264-3.158-1.741c.9180988-1.6847382 2.0114915-3.2678448 3.262-4.723zm6.832 4.381 4.942 3.172-4.942 2.728-4.943-2.726zm-8.85 3.305-3.365 2.161c.3263735-1.1418378.7361416-2.2581719 1.226-3.34zm-3.631 4.708 5.622-3.61 4.787 2.64-6.083 3.357zm12.481.171 6.092 3.36-6.084 3.357-6.087-3.361zm2.07-1.142 4.787-2.642 5.627 3.619-4.324 2.382zm6.777-3.74 2.09-1.154c.4776145 1.0589011.8786439 2.1507037 1.2 3.267zm-1.913-1.229-5.084-3.262 4.94-3.172c1.2470358 1.4534645 2.3370814 3.0345668 3.252 4.717zm-6.934-4.454-3.591-2.3h7.179zm-12.653 17.545 4.5-2.485 6.092 3.365-7.191 3.969c-1.7176019-1.1161931-2.9364334-2.8539508-3.401-4.849zm7.784 6.155c-.7115575.0002275-1.4200245-.0935847-2.107-.279l6.982-3.854 6.951 3.839c-.700698.1950578-1.4246588.2939632-2.152.294zm14.092-1.327-7.148-3.948 6.085-3.359 4.44 2.447c-.4566379 1.9949506-1.6665857 3.7362434-3.377 4.86zm-8.4-38.1 3.177-4.573v7c-.0003381.3186236.1511813.6183364.4079641.806973.2567827.1886365.5880882.2436143.8920359.148027l4.98-1.538-3.95 9.583h-12.661l-3.969-9.593 5 1.548c.3039477.0955873.6352532.0406095.8920359-.148027.2567828-.1886366.4083022-.4883494.4079641-.806973v-7.008l3.182 4.579c.1869251.2688001.4935943.4290718.821.4290718s.6340749-.1602717.821-.4290718z"/></g></g></g></svg>