<svg id="Capa_1" enable-background="new 0 0 511.176 511.176" height="512" viewBox="0 0 511.176 511.176" width="512" xmlns="http://www.w3.org/2000/svg"><g><g><g id="XMLID_686_"><g><path d="m391.628 196.862v231.65h-272.15v-152.07-246.07c0-12.63 10.24-22.87 22.87-22.87h167.78c3.29 0 5.96 2.67 5.96 5.96v14.05c0 21.75 17.64 39.39 39.39 39.39h30.19c3.29 0 5.96 2.67 5.96 5.96z" fill="#b87d72"/></g></g><path d="m180.018 30.372c0-12.63 10.24-22.87 22.87-22.87h-60.54c-12.63 0-22.87 10.24-22.87 22.87v246.07 152.07h60.54v-152.07z" fill="#ab695d"/><g id="XMLID_712_"><path d="m240.553 243.038v-18.511c0-3.724-3.019-6.744-6.744-6.744h-77.592c-3.724 0-6.744 3.019-6.744 6.744v43.669h91.079v-25.158z" fill="#ab695d"/></g><path d="m180.018 217.783h-23.8c-3.724 0-6.744 3.019-6.744 6.744v43.669h30.544z" fill="#935b50"/><g id="XMLID_713_"><g><path d="m404.768 196.022c.46-.14.93-.19 1.38-.16l-2.65 3.44-74.12 99.22c-3.38 4.54-8.88 6.98-14.51 6.47l-206.94-18.87v-.58c0-1.62 1.07-3.05 2.62-3.5z" fill="#e94444"/></g></g><path d="m161.452 267.159-50.904 14.883c-1.55.45-2.62 1.88-2.62 3.5v.58l206.94 18.87c5.63.51 11.13-1.93 14.51-6.47l11.225-15.026z" fill="#d83131"/><path d="m410.048 199.972v273.13c0 16.89-13.69 30.57-30.57 30.57h-240.98c-16.88 0-30.57-13.68-30.57-30.57v-186.98l206.94 18.87c5.63.51 11.13-1.93 14.51-6.47l74.12-99.22 2.65-3.44c2.11.1 3.9 1.84 3.9 4.11z" fill="#ee6161"/><g><path d="m268.257 464.847c-52.916 0-95.813-42.897-95.813-95.813v-77.03l-64.516-5.883v186.98c0 16.883 13.687 30.57 30.57 30.57h240.98c16.883 0 30.57-13.687 30.57-30.57v-8.255h-141.791z" fill="#e94444"/></g><path d="m355.899 448.135h-199.623c-8.409 0-15.226-6.817-15.226-15.226v-64.402c0-8.409 6.817-15.226 15.226-15.226h199.623c8.409 0 15.226 6.817 15.226 15.226v64.402c0 8.409-6.817 15.226-15.226 15.226z" fill="#fed402"/><path d="m156.276 448.135h57.906c-25.201-17.261-41.739-46.247-41.739-79.1v-15.755h-16.168c-8.409 0-15.226 6.817-15.226 15.226v64.402c.001 8.41 6.818 15.227 15.227 15.227z" fill="#fac600"/><g><g id="XMLID_689_"><g><path d="m361.628 133.042v48c0 3.72-3.01 6.74-6.74 6.74h-77.59c-3.73 0-6.74-3.02-6.74-6.74v-48c0-3.73 3.01-6.75 6.74-6.75h77.59c3.73 0 6.74 3.02 6.74 6.75z" fill="#ab695d"/><path d="m240.558 133.042v48c0 3.72-3.02 6.74-6.75 6.74h-77.59c-3.72 0-6.74-3.02-6.74-6.74v-48c0-3.73 3.02-6.75 6.74-6.75h77.59c3.73 0 6.75 3.02 6.75 6.75z" fill="#ab695d"/><path d="m180.018 126.292h-23.8c-3.72 0-6.74 3.02-6.74 6.75v48c0 3.72 3.02 6.74 6.74 6.74h23.8z" fill="#935b50"/><path d="m240.558 44.242v45.31c0 3.72-3.02 6.74-6.75 6.74h-77.59c-3.72 0-6.74-3.02-6.74-6.74v-45.31c0-3.72 3.02-6.74 6.74-6.74h77.59c3.73 0 6.75 3.02 6.75 6.74z" fill="#ab695d"/><path d="m180.018 37.502h-23.8c-3.72 0-6.74 3.02-6.74 6.74v45.31c0 3.72 3.02 6.74 6.74 6.74h23.8z" fill="#935b50"/></g><g><g id="XMLID_691_"><g><path d="m361.628 67.902v21.65c0 3.72-3.01 6.74-6.74 6.74h-77.59c-3.73 0-6.74-3.02-6.74-6.74v-45.31c0-3.72 3.01-6.74 6.74-6.74h39.08.99c4.42 16.92 19.81 29.4 38.11 29.4h6.15z" fill="#ab695d"/></g></g></g></g></g></g><g><path d="m409.495 190.675c-2.955-2.214-6.684-2.89-10.229-1.854l-.133.039v-115.999c0-7.424-6.04-13.463-13.463-13.463h-30.19c-17.582 0-31.886-14.305-31.886-31.887v-14.047c-.001-7.424-6.041-13.464-13.465-13.464h-167.779c-16.75 0-30.376 13.627-30.376 30.376v242.441l-6.921 2.024c-4.723 1.378-8.021 5.776-8.021 10.697v187.565c0 20.993 17.079 38.072 38.071 38.072h240.971c20.993 0 38.071-17.079 38.071-38.072v-273.13c0-3.694-1.695-7.082-4.65-9.298zm-55.363-116.311v14.431h-76.079v-43.794h33.936c6.788 16.818 23.052 28.821 42.143 29.363zm-227.158-43.988c0-8.479 6.897-15.376 15.376-15.376h166.243v12.512c0 .835.024 1.665.067 2.489h-31.363c-7.854 0-14.244 6.39-14.244 14.243v45.307c0 7.854 6.39 14.244 14.244 14.244h77.592c7.854 0 14.244-6.39 14.244-14.244v-15.153h15v118.846l-70.146 20.509c-3.976 1.162-6.256 5.327-5.094 9.303 1.163 3.977 5.332 6.26 9.303 5.094l69.587-20.345-64.409 86.234c-1.811 2.424-4.811 3.751-7.823 3.485l-178.851-16.308 106.063-31.011.03-.009 44.72-13.075c3.976-1.162 6.256-5.327 5.094-9.303s-5.329-6.258-9.303-5.094l-35.25 10.306v-8.504c0-7.854-6.39-14.244-14.244-14.244h-77.592c-7.854 0-14.244 6.39-14.244 14.244v39.519l-15 4.386zm106.079 207.041-76.079 22.244v-34.377h76.079zm143.02 258.759h-240.97c-12.722 0-23.071-10.351-23.071-23.072v-179.075l202.157 18.433c.708.064 1.414.097 2.118.097 7.434 0 14.602-3.541 19.085-9.544l63.753-85.355v255.444c0 12.721-10.35 23.072-23.072 23.072z"/><path d="m355.899 345.78h-199.623c-12.531 0-22.726 10.194-22.726 22.726v64.402c0 12.531 10.195 22.727 22.726 22.727h35.486c4.142 0 7.5-3.357 7.5-7.5s-3.358-7.5-7.5-7.5h-35.486c-4.26 0-7.726-3.466-7.726-7.727v-64.402c0-4.26 3.466-7.726 7.726-7.726h199.623c4.26 0 7.726 3.466 7.726 7.726v64.402c0 4.261-3.466 7.727-7.726 7.727h-132.174c-4.142 0-7.5 3.357-7.5 7.5s3.358 7.5 7.5 7.5h132.174c12.531 0 22.726-10.195 22.726-22.727v-64.402c0-12.531-10.194-22.726-22.726-22.726z"/><path d="m156.218 195.283h77.592c7.854 0 14.244-6.39 14.244-14.244v-48c0-7.854-6.39-14.244-14.244-14.244h-77.592c-7.854 0-14.244 6.39-14.244 14.244v48c0 7.855 6.39 14.244 14.244 14.244zm.756-61.488h76.079v46.488h-76.079z"/><path d="m277.297 195.283h77.592c7.854 0 14.244-6.39 14.244-14.244v-48c0-7.854-6.39-14.244-14.244-14.244h-77.592c-7.854 0-14.244 6.39-14.244 14.244v48c0 7.855 6.39 14.244 14.244 14.244zm.756-61.488h76.079v46.488h-76.079z"/><path d="m156.218 103.795h39.328c4.142 0 7.5-3.357 7.5-7.5s-3.358-7.5-7.5-7.5h-38.572v-43.794h76.079v43.794h-5.545c-4.142 0-7.5 3.357-7.5 7.5s3.358 7.5 7.5 7.5h6.301c7.854 0 14.244-6.39 14.244-14.244v-45.307c0-7.854-6.39-14.243-14.244-14.243h-77.592c-7.854 0-14.244 6.39-14.244 14.243v45.307c.001 7.854 6.391 14.244 14.245 14.244z"/></g></g></svg>