<svg id="Capa_1" enable-background="new 0 0 512 512" height="512" viewBox="0 0 512 512" width="512" xmlns="http://www.w3.org/2000/svg"><g><g><g><path d="m319.47 239.5v241.26c0 13.111-10.629 23.74-23.74 23.74h-94.46c-13.111 0-23.74-10.629-23.74-23.74v-241.26c0-9.36 1.98-18.48 5.69-26.84s9.16-15.95 16.1-22.22c13.88-12.53 21.8-30.36 21.8-49.06v-103.73c0-1.983 1.607-3.59 3.59-3.59h47.57c1.983 0 3.59 1.607 3.59 3.59v103.73c0 9.35 1.98 18.48 5.7 26.84s9.16 15.95 16.11 22.22c13.87 12.54 21.79 30.36 21.79 49.06z" fill="#fdb441"/><path d="m297.68 190.44c-6.95-6.27-12.39-13.86-16.11-22.22s-5.7-17.49-5.7-26.84v-103.73c0-1.983-1.607-3.59-3.59-3.59h-20.886c1.983 0 3.59 1.607 3.59 3.59v103.73c0 9.35 1.98 18.48 5.7 26.84s9.16 15.95 16.11 22.22c13.87 12.54 21.79 30.36 21.79 49.06v241.26c0 13.111-10.629 23.74-23.74 23.74h20.886c13.111 0 23.74-10.629 23.74-23.74v-241.26c0-18.7-7.92-36.52-21.79-49.06z" fill="#fea613"/><path d="m267.021 7.5h-37.047c-1.983 0-3.59 1.607-3.59 3.59v22.971h44.227v-22.971c0-1.983-1.607-3.59-3.59-3.59z" fill="#d8ab8c"/><path d="m267.021 7.5h-20.886c1.983 0 3.59 1.607 3.59 3.59v22.971h20.886v-22.971c0-1.983-1.607-3.59-3.59-3.59z" fill="#c38778"/><path d="m275.875 37.651v75.869l-54.754 9.454v-85.323c0-1.983 1.607-3.59 3.59-3.59h47.574c1.983 0 3.59 1.607 3.59 3.59z" fill="#685e68"/><path d="m272.285 34.061h-20.886c1.983 0 3.59 1.607 3.59 3.59v79.475l20.886-3.606v-75.869c0-1.983-1.607-3.59-3.59-3.59z" fill="#554e56"/><path d="m252.87 269.2v163.93c0 8.57-6.95 15.52-15.52 15.52h-59.82v-194.97h59.82c8.57 0 15.52 6.95 15.52 15.52z" fill="#fee45a"/><path d="m237.35 253.68h-20.886c8.57 0 15.52 6.95 15.52 15.52v163.93c0 8.57-6.95 15.52-15.52 15.52h20.886c8.57 0 15.52-6.95 15.52-15.52v-163.93c0-8.57-6.95-15.52-15.52-15.52z" fill="#fedf30"/></g><g><path d="m476.41 265.592v215.168c0 13.111-10.629 23.74-23.74 23.74h-109.46c-13.111 0-23.74-10.629-23.74-23.74v-215.168c0-9.36 1.98-18.48 5.69-26.84s9.16-15.95 16.1-22.22c13.88-12.53 21.8-30.36 21.8-49.06v-122.675c0-5.93 4.807-10.737 10.737-10.737h48.275c5.93 0 10.737 4.807 10.737 10.737v122.675c0 9.35 1.98 18.48 5.7 26.84s9.16 15.95 16.11 22.22c13.871 12.54 21.791 30.36 21.791 49.06z" fill="#d8ab8c"/><path d="m454.62 216.532c-6.95-6.27-12.39-13.86-16.11-22.22s-5.7-17.49-5.7-26.84v-122.675c0-5.93-4.807-10.737-10.737-10.737h-20.886c5.93 0 10.737 4.807 10.737 10.737v122.675c0 9.35 1.98 18.48 5.7 26.84s9.16 15.95 16.11 22.22c13.87 12.54 21.79 30.36 21.79 49.06v215.168c0 13.111-10.629 23.74-23.74 23.74h20.886c13.111 0 23.74-10.629 23.74-23.74v-215.168c0-18.7-7.92-36.52-21.79-49.06z" fill="#c38778"/><path d="m476.41 265.592v5.95l-70.925 21.539c-4.919 1.494-10.171 1.494-15.09 0l-70.925-21.539v-5.95c0-9.36 1.98-18.48 5.69-26.84s9.16-15.95 16.1-22.22c13.88-12.53 21.8-30.36 21.8-49.06v-88.952h69.75v88.952c0 9.35 1.98 18.48 5.7 26.84s9.16 15.95 16.11 22.22c13.87 12.54 21.79 30.36 21.79 49.06z" fill="#ecf4ff"/><path d="m454.62 216.532c-6.95-6.27-12.39-13.86-16.11-22.22s-5.7-17.49-5.7-26.84v-88.952h-20.886v88.952c0 9.35 1.98 18.48 5.7 26.84s9.16 15.95 16.11 22.22c13.87 12.54 21.79 30.36 21.79 49.06v12.293l20.886-6.343v-5.95c0-18.7-7.92-36.52-21.79-49.06z" fill="#ddeafb"/><ellipse cx="397.94" cy="394.563" fill="#ecf4ff" rx="32.498" ry="59.175"/><path d="m397.94 335.387c-3.655 0-7.164 1.115-10.443 3.14 12.823 7.922 22.055 30.008 22.055 56.035s-9.232 48.113-22.055 56.035c3.279 2.026 6.788 3.14 10.443 3.14 17.948 0 32.498-26.494 32.498-59.175s-14.55-59.175-32.498-59.175z" fill="#ddeafb"/><g style="fill:none;stroke:#000;stroke-width:15;stroke-linecap:round;stroke-linejoin:round;stroke-miterlimit:10"><path d=""/><path d=""/></g></g><g><path d="m177.53 188.928v291.832c0 13.111-10.629 23.74-23.74 23.74h-94.46c-13.111 0-23.74-10.629-23.74-23.74v-291.832c0-9.36 1.98-18.48 5.69-26.84s9.16-15.95 16.1-22.22c13.88-12.53 21.8-30.36 21.8-49.06v-74.167c0-1.983 1.607-3.59 3.59-3.59h47.57c1.983 0 3.59 1.607 3.59 3.59v74.167c0 9.35 1.98 18.48 5.7 26.84s9.16 15.95 16.11 22.22c13.87 12.54 21.79 30.36 21.79 49.06z" fill="#02905d"/><path d="m155.74 139.868c-6.95-6.27-12.39-13.86-16.11-22.22s-5.7-17.49-5.7-26.84v-74.167c0-1.983-1.607-3.59-3.59-3.59h-20.886c1.983 0 3.59 1.607 3.59 3.59v74.167c0 9.35 1.98 18.48 5.7 26.84s9.16 15.95 16.11 22.22c13.87 12.54 21.79 30.36 21.79 49.06v291.832c0 13.111-10.629 23.74-23.74 23.74h20.886c13.111 0 23.74-10.629 23.74-23.74v-291.832c0-18.7-7.92-36.52-21.79-49.06z" fill="#017b4e"/><path d="m132.288 72.708h-51.455c-8.859 0-16.041-7.182-16.041-16.041v-1.527c0-8.859 7.182-16.041 16.041-16.041h51.455c8.859 0 16.041 7.182 16.041 16.041v1.527c0 8.859-7.182 16.041-16.041 16.041z" fill="#fb5858"/><path d="m132.288 39.098h-19.335c8.859 0 16.041 7.182 16.041 16.042v1.527c0 8.859-7.182 16.041-16.041 16.041h19.335c8.859 0 16.042-7.182 16.042-16.041v-1.527c-.001-8.86-7.183-16.042-16.042-16.042z" fill="#f44545"/><path d="m177.53 386.162-141.94 32.268v-170.551l141.94-32.268z" fill="#fb5858"/><path d="m156.644 220.359v170.551l20.886-4.748v-170.551z" fill="#f44545"/></g></g><g><path d="m459.644 210.963c-11.517-10.293-19.349-26.428-19.334-43.491v-14.712c0-4.142-3.358-7.5-7.5-7.5s-7.5 3.358-7.5 7.5v14.712c-.023 19.671 8.42 40.456 24.28 54.623 12.018 10.986 19.281 26.593 19.32 43.886l-65.604 19.923c-3.511 1.065-7.222 1.065-10.731 0l-65.604-19.923c-.065-15.237 6.233-32.287 19.315-43.882 15.075-13.564 24.304-33.907 24.275-54.627v-81.452h54.75v31.074c0 4.142 3.358 7.5 7.5 7.5s7.5-3.358 7.5-7.5v-72.297c0-10.056-8.181-18.237-18.237-18.237h-48.275c-10.056 0-18.237 8.181-18.237 18.237v33.723 88.953c0 16.553-7.044 32.406-19.328 43.495-4.188 3.784-7.865 7.988-11.041 12.548-3.296-14.766-11.087-28.336-22.487-38.644-11.528-10.345-19.384-26.516-19.334-43.491l.004-103.729c0-3.976-2.111-7.46-5.264-9.418v-17.144c0-6.115-4.975-11.09-11.09-11.09h-37.047c-6.115 0-11.09 4.975-11.09 11.09v17.142c-3.153 1.958-5.264 5.442-5.264 9.418v.001 103.729c0 16.554-7.044 32.406-19.328 43.495-3.429 3.098-6.508 6.484-9.262 10.107 2.805-57.444-45.763-62.341-43.6-104.172v-12.45c8.453-3.576 14.399-11.953 14.399-21.693.705-9.289-5.547-19.627-14.399-23.221v-16.806c0-6.115-4.975-11.09-11.09-11.09h-47.571c-6.115 0-11.09 4.975-11.09 11.09v16.81c-8.301 3.366-14.98 13.06-14.389 23.217 0 9.737 5.941 18.111 14.389 21.69v12.453c0 16.553-7.044 32.405-19.328 43.495-14.712 13.162-24.354 33.597-24.262 54.625v229.5c.04 4.231 3.902 8.476 9.163 7.313l132.777-30.185v85.202c0 8.955-7.285 16.24-16.24 16.24h-94.46c-8.955 0-16.24-7.285-16.24-16.24v-28.021c0-4.142-3.358-7.5-7.5-7.5s-7.5 3.358-7.5 7.5v28.021c0 17.226 14.014 31.24 31.24 31.24h94.46c9.494 0 18.006-4.262 23.74-10.967 5.734 6.705 14.246 10.967 23.74 10.967h94.46c9.494 0 18.006-4.262 23.74-10.967 5.734 6.705 14.246 10.967 23.74 10.967h109.46c17.226 0 31.24-14.014 31.24-31.24v-215.168c0-20.774-8.842-40.683-24.266-54.629zm-85.846-169.403h48.275c1.785 0 3.237 1.452 3.237 3.237v26.223h-54.75v-26.223c0-1.785 1.453-3.237 3.238-3.237zm-145.178.001h39.75v65.644l-39.75 6.864zm34.491-26.561v11.56h-29.227v-11.56zm-182.278 50.208c-10.327.079-12.008-17.763 0-18.61h51.455c4.71 0 8.542 3.832 8.542 8.542.592 4.212-2.77 9.787-8.542 10.069h-51.455zm45.598-44.658v11.048h-39.75v-11.048zm-78.296 144.582c3.345-7.535 8.146-14.162 14.271-19.695 15.427-13.927 24.275-33.837 24.275-54.627v-10.602h39.75v10.602c.065 51.124 45.74 57.793 43.6 98.12v20.694l-126.941 28.859c.924-17.439-3.233-57.415 5.045-73.351zm-5.045 243.901v-155.167l126.94-28.858v155.168zm252.64 87.967h-94.46c-8.955 0-16.24-7.285-16.24-16.24v-24.61h52.32c12.693 0 23.02-10.327 23.02-23.02v-105.316c0-4.142-3.358-7.5-7.5-7.5s-7.5 3.358-7.5 7.5v105.316c0 4.422-3.598 8.02-8.02 8.02h-52.32v-179.97h52.32c4.422 0 8.02 3.598 8.02 8.021v22.365c0 4.142 3.358 7.5 7.5 7.5s7.5-3.358 7.5-7.5v-22.366c0-12.693-10.327-23.021-23.02-23.021h-52.32c-1.285-17.855 4.922-37.422 19.315-50.172 15.427-13.926 24.275-33.837 24.275-54.627v-12.09l39.75-6.863v18.953c-.142 19.498 8.707 40.846 24.28 54.624 12.278 11.101 19.319 26.955 19.319 43.497v241.26c.001 8.954-7.284 16.239-16.239 16.239zm156.94 0h-109.46c-8.955 0-16.24-7.285-16.24-16.24v-199.102l61.246 18.599c5.072 1.426 11.515 2.241 19.448 0l61.246-18.599v199.102c0 8.955-7.285 16.24-16.24 16.24z"/><path d="m397.94 327.887c-22.429 0-39.998 29.287-39.998 66.675s17.569 66.676 39.998 66.676 39.998-29.288 39.998-66.676-17.569-66.675-39.998-66.675zm0 118.351c-11.824 0-24.998-21.223-24.998-51.676s13.174-51.675 24.998-51.675 24.998 21.222 24.998 51.675-13.174 51.676-24.998 51.676z"/><path d="m381.002 237.951c-4.142 0-7.5 3.358-7.5 7.5s3.358 7.5 7.5 7.5h33.877c4.142 0 7.5-3.358 7.5-7.5s-3.358-7.5-7.5-7.5z"/><path d="m138.149 331.168c-4.142 0-7.5 3.358-7.5 7.5 0 12.731-10.357 23.089-23.089 23.089s-23.088-10.357-23.088-23.089c0-4.142-3.358-7.5-7.5-7.5s-7.5 3.358-7.5 7.5c0 21.002 17.086 38.089 38.089 38.089s38.089-17.086 38.089-38.089c-.001-4.142-3.359-7.5-7.501-7.5z"/><path d="m107.56 257.284c-21.002 0-38.089 17.086-38.089 38.089 0 4.142 3.358 7.5 7.5 7.5s7.5-3.358 7.5-7.5c0-12.731 10.357-23.089 23.089-23.089s23.089 10.357 23.089 23.089c0 4.142 3.358 7.5 7.5 7.5s7.5-3.358 7.5-7.5c0-21.003-17.086-38.089-38.089-38.089z"/></g></g></svg>