<svg id="country" enable-background="new 0 0 300 300" height="512" viewBox="0 0 300 300" width="512" xmlns="http://www.w3.org/2000/svg"><g><circle cx="173.805" cy="122" fill="#e6ebce" r="86"/><g fill="#4c241d"><circle cx="83.528" cy="237.597" r="4.276"/><path d="m209.805 116c-7.719 0-14-6.281-14-14s6.281-14 14-14 14 6.281 14 14-6.282 14-14 14zm0-20c-3.309 0-6 2.691-6 6s2.691 6 6 6 6-2.691 6-6-2.692-6-6-6z"/><path d="m130.008 208.219c-1.023 0-2.047-.391-2.828-1.172l-12-12c-1.562-1.562-1.562-4.094 0-5.656s4.094-1.562 5.656 0l12 12c1.562 1.562 1.562 4.094 0 5.656-.781.781-1.805 1.172-2.828 1.172z"/><path d="m118.008 208.219c-1.023 0-2.047-.391-2.828-1.172-1.562-1.562-1.562-4.094 0-5.656l12-12c1.563-1.562 4.094-1.562 5.656 0s1.562 4.094 0 5.656l-12 12c-.781.781-1.805 1.172-2.828 1.172z"/></g><g><path d="m210.166 147.992c-18.984-2.109-28.448-9.076-34.362-16.941v46.919c11.481 9.087 20.56 21.356 18.507 35.73-2.444 17.111-8.61 18.491-18.507 17.894v28.406h11.892c.232-.67.393-1.419.393-2.348 0-12 3.715-17.652 11.715-17.652s26.368-11.529 21.767-29.579c-2.209-8.667-15.482-18.769-7.482-22.769s18 10 22 10l6-10c-4-4-42-26-42-26s4 0 12-4z" fill="#e66353"/><path d="m187.697 264h-11.893c-2.209 0-4-1.791-4-4v-28.406c0-1.104.455-2.156 1.258-2.912.803-.754 1.883-1.162 2.982-1.08 7.568.447 12.137.736 14.309-14.469 1.967-13.773-8.176-25.018-17.031-32.025-.959-.76-1.518-1.914-1.518-3.137v-46.92c0-1.721 1.1-3.248 2.732-3.795 1.625-.545 3.432.018 4.465 1.391 4.176 5.555 11.996 13.191 31.605 15.371 1.732.191 3.141 1.484 3.482 3.193l1.924 9.66c.352 1.768-.523 3.553-2.135 4.359-1.316.658-2.539 1.219-3.666 1.695 11.92 7 31.523 18.717 34.705 21.898 1.299 1.297 1.547 3.312.602 4.887l-6 10c-.723 1.205-2.025 1.941-3.43 1.941-2.854 0-5.328-2.016-8.754-4.807-3.641-2.967-8.637-7.035-11.457-5.615-.344.172-.453.287-.453.289.041.918 2.561 4.588 4.066 6.783 2.439 3.553 4.961 7.225 5.957 11.131 2.062 8.1.391 15.938-4.84 22.666-6.006 7.73-15.201 11.9-20.805 11.9-2.695 0-7.715 0-7.715 13.652 0 1.271-.201 2.469-.613 3.658-.556 1.612-2.074 2.692-3.777 2.692zm-7.892-8h4.309c.398-13.273 5.672-20 15.691-20 3.203 0 10.021-3.061 14.488-8.809 3.709-4.775 4.855-10.084 3.402-15.781-.643-2.527-2.756-5.605-4.799-8.582-3.213-4.682-6.248-9.104-5.102-13.547.4-1.547 1.506-3.707 4.506-5.207 7.455-3.727 15.059 2.473 20.088 6.57.676.549 1.465 1.191 2.191 1.75l2.254-3.756c-6.846-4.713-25.502-15.855-38.748-23.525-1.566-.906-2.328-2.75-1.859-4.498s2.055-2.963 3.863-2.963c-.041 0 2.484-.133 7.465-2.293l-.75-3.762c-11.293-1.611-20.113-5.072-27-10.65v35.117c14.002 11.619 20.383 24.797 18.467 38.201-2.365 16.559-8.594 21.062-18.467 21.396v20.339z" fill="#4c241d"/></g><g><g><path d="m107.805 124.407c9.8 15.688 25.19 34.472 36.285 37.245 7.787 1.947 20.83 7.703 31.715 16.318v-46.919c-5.301-7.05-7.756-14.821-11.538-20.493-8-12-36.177-16.906-28.177-36.906s22 6 26-14 0-8-20-16-16 4-32 0c-.811-.203-1.553-.337-2.285-.461z" fill="#fff"/><path d="m175.805 181.971c-.885 0-1.762-.293-2.482-.863-10.18-8.057-22.791-13.721-30.203-15.574-16.172-4.043-35.08-33.203-38.707-39.008-.396-.635-.607-1.369-.607-2.119v-81.216c0-1.178.518-2.295 1.418-3.055.898-.76 2.092-1.086 3.246-.891.83.141 1.674.295 2.594.525 5.822 1.463 8.018.463 10.805-.787 5.15-2.318 10.02-3.721 21.709.953 6.871 2.75 11.674 2.914 14.852 3.023 2.938.1 5.713.195 7.609 2.59 2.256 2.852 1.584 6.844-.025 14.887-1.035 5.174-2.828 8.373-5.645 10.064-3.629 2.178-7.559.994-10.723.043-5.053-1.518-7.145-2.148-9.84 4.594-3.83 9.574 2.643 14.33 13.52 21.299 5.438 3.482 11.059 7.084 14.271 11.902 1.75 2.625 3.172 5.523 4.676 8.59 1.92 3.914 3.904 7.959 6.73 11.717.521.693.803 1.537.803 2.404v46.92c0 1.533-.877 2.934-2.258 3.602-.554.269-1.15.4-1.743.4zm-64-58.719c9.637 15.186 23.932 32.189 33.256 34.52 6.9 1.727 17.15 6.076 26.744 12.391v-37.809c-2.852-4.027-4.895-8.189-6.715-11.9-1.385-2.822-2.693-5.49-4.15-7.676-2.283-3.424-6.969-6.426-11.93-9.604-10.299-6.596-23.115-14.807-16.635-31.008 5.416-13.533 14.621-10.768 19.572-9.283 1.479.445 3.711 1.117 4.301.76.111-.066 1.119-.773 1.92-4.775.375-1.879 1.16-5.807 1.303-7.857-.42-.023-.893-.039-1.316-.055-3.508-.119-9.379-.32-17.551-3.588-9.455-3.785-12.105-2.598-15.453-1.088-2.977 1.338-6.594 2.963-13.346 1.822z" fill="#4c241d"/></g><g><path d="m138.993 223.589-8.416 18.285 5.143 10.9 19.885 2.139c3.954 1.318 8.827 3.361 13.587 5.088h6.612v-28.407z" fill="#fff"/><path d="m175.805 264h-6.611c-.465 0-.926-.082-1.363-.24-2.049-.742-4.117-1.543-6.127-2.32-2.467-.955-4.838-1.875-6.961-2.598l-19.449-2.092c-1.387-.148-2.596-1.01-3.189-2.27l-5.143-10.9c-.504-1.068-.51-2.307-.016-3.379l8.416-18.285c.785-1.707 2.668-2.633 4.482-2.236l36.811 8.006c1.84.4 3.15 2.027 3.15 3.908v28.406c0 2.209-1.791 4-4 4zm-5.905-8h1.904v-21.184l-30.521-6.637-6.293 13.672 3.391 7.186 17.652 1.898c.285.029.566.092.838.182 2.328.777 4.971 1.797 7.721 2.861 1.742.674 3.531 1.368 5.308 2.022z" fill="#4c241d"/></g></g><g><path d="m107.805 43.191c-13.698-2.316-13.918 8.664-17.715 12.461-4 4-12 4-20-4s-24 4-24 12 8 16 0 32 12 12 12 12l21.437-13.066 15.409 8.478c1.286 4.07 8.536 14.407 12.869 21.343z" fill="#a9ba5a"/><path d="m107.805 128.406c-1.354 0-2.648-.689-3.393-1.881-1.164-1.865-2.543-3.979-3.959-6.148-4.223-6.477-7.266-11.232-8.715-14.506l-12.109-6.664-19.457 11.861c-.4.242-.838.414-1.297.506-2.021.404-12.342 2.125-16.834-3.758-2.609-3.416-2.451-8.109.471-13.953 4.865-9.73 3.045-15.746 1.283-21.562-.838-2.77-1.705-5.635-1.705-8.648 0-7.012 7.248-14.205 14.258-17.107 6.422-2.658 12.465-1.828 16.57 2.279 6.021 6.018 11.768 6.57 14.344 4 .541-.543 1.189-1.832 1.816-3.078 2.387-4.75 6.381-12.717 19.393-10.498 1.926.324 3.334 1.992 3.334 3.943v81.215c0 1.785-1.182 3.354-2.898 3.846-.366.102-.735.153-1.102.153zm-28.278-37.82c.664 0 1.326.164 1.928.496l15.408 8.479c.9.494 1.576 1.318 1.887 2.299.521 1.648 2.701 5.268 5.055 8.967v-63.96c-4.404.152-5.734 2.801-7.578 6.471-.912 1.814-1.854 3.689-3.309 5.143-5.215 5.217-15.473 6.189-25.656-4-2.221-2.219-5.496-1.521-7.854-.545-5.162 2.138-9.318 7.064-9.318 9.716 0 1.83.631 3.916 1.363 6.33 1.9 6.279 4.504 14.879-1.785 27.459-1.713 3.424-1.604 5.08-1.27 5.518.877 1.154 4.98 1.398 8.254.885l20.793-12.674c.639-.389 1.36-.584 2.082-.584z" fill="#4c241d"/></g><g><path d="m79.805 208 4-32-20-12s-8 12-4 24 20 20 20 20z" fill="#a9ba5a"/><path d="m79.805 212c-.613 0-1.225-.141-1.789-.422-.713-.357-17.533-8.896-22.006-22.312-4.566-13.699 4.096-26.928 4.467-27.484 1.182-1.775 3.553-2.314 5.387-1.211l20 12c1.357.814 2.107 2.354 1.91 3.926l-4 32c-.16 1.289-.938 2.418-2.082 3.031-.589.314-1.239.472-1.887.472zm-14.454-42.408c-1.768 3.908-3.92 10.641-1.752 17.143 2.014 6.043 8.146 11.367 12.996 14.684l2.916-23.328z" fill="#4c241d"/></g></g></svg>