<svg height="425pt" viewBox="-87 0 425 425.32523" width="425pt" xmlns="http://www.w3.org/2000/svg"><path d="m96.523438 307.199219c0 22.621093-18.339844 40.960937-40.960938 40.960937s-40.960938-18.339844-40.960938-40.960937c0-22.621094 18.339844-40.960938 40.960938-40.960938s40.960938 18.339844 40.960938 40.960938zm0 0" fill="#00e7ff"/><path d="m178.75 105.621094c-5.046875-2.105469-8.964844-3.785156-10.46875-4.539063-6.085938-3.042969-36.519531-27.386719-48.691406-42.605469-12.171875-15.214843-30.433594-24.34375-39.5625-24.34375s-51.734375 24.34375-51.734375 24.34375 3.042969 39.5625 0 54.777344c-3.042969 15.21875-21.300781 27.390625-21.300781 27.390625s18.257812 30.429688 18.257812 42.605469c0 12.171875 30.429688 33.472656 30.429688 33.472656l12.175781 12.175782v24.34375s0 85.210937 6.085937 97.382812c6.085938 12.171875 18.257813 57.824219 30.429688 63.910156 12.171875 6.085938 24.347656 9.128906 27.390625-21.304687 3.042969-30.429688 6.085937-42.605469 6.085937-42.605469l24.34375-30.429688-3.042968-12.175781s9.128906 0 21.304687-9.128906c12.171875-9.128906-3.042969-30.429687 15.214844-42.605469 18.261719-12.171875 24.347656-15.214844 24.347656-15.214844s9.128906-69.992187 21.300781-88.253906c7.917969-11.875-3.472656-21.175781-12.410156-26.226562" fill="#fff"/><path d="m117.035156 425.324219c-6.339844 0-12.308594-2.984375-15.714844-4.683594-10.253906-5.128906-17.667968-24.027344-27.019531-50.167969-2.5-6.988281-4.859375-13.589844-6.464843-16.796875-6.480469-12.957031-6.808594-85.933593-6.808594-100.433593v-21.515626l-9.753906-9.753906c-8.351563-5.894531-32.851563-24.421875-32.851563-38.722656 0-7.078125-10.105469-27.125-17.289063-39.089844-1.871093-3.121094-.957031-7.160156 2.0625-9.1875 4.425782-2.980468 16.375-12.921875 18.398438-23.054687 2.347656-11.726563.714844-42.171875-.113281-52.914063-.199219-2.632812 1.128906-5.148437 3.421875-6.453125 13.285156-7.59375 45.246094-25.246093 55.125-25.246093 11.488281 0 31.421875 10.066406 44.894531 26.90625 11.785156 14.734374 41.40625 38.261718 46.414063 40.769531 1.425781.710937 5.191406 2.316406 10.03125 4.339843 3.488281 1.445313 5.136718 5.441407 3.679687 8.917969-1.4375 3.496094-5.464844 5.140625-8.917969 3.679688-5.253906-2.175781-9.328125-3.945313-10.886718-4.71875-6.820313-3.414063-38.28125-28.578125-50.988282-44.453125-11.601562-14.507813-28.195312-21.789063-34.226562-21.789063-4.707032.28125-26.066406 10.921875-44.632813 21.339844.707031 10.914063 2.191407 39.28125-.414062 52.300781-2.457031 12.308594-12.710938 22.515625-19.066407 27.816406 5.714844 10.09375 16.160157 30.027344 16.160157 40.839844 0 4.5 13.121093 17.785156 27.519531 27.878906.328125.226563.632812.488282.914062.765626l12.171876 12.175781c1.28125 1.277343 2.003906 3.011719 2.003906 4.824219v24.347656c0 41.09375 2.003906 87.613281 5.367187 94.328125 1.972657 3.945312 4.351563 10.601562 7.105469 18.300781 4.585938 12.820312 14.125 39.480469 20.273438 42.554688 3.726562 1.867187 8.988281 4.179687 11.378906 2.859374 1.066406-.585937 4.65625-3.664062 6.160156-18.734374 3.054688-30.574219 6.125-43.066407 6.261719-43.585938.230469-.945312.671875-1.839844 1.285156-2.605469l22.234375-27.785156-2.222656-8.886719c-.511719-2.039062-.050782-4.203125 1.242187-5.863281s3.28125-2.625 5.378907-2.625c-.039063 0 7.300781-.332031 17.207031-7.765625 2.457031-1.839844 2.679687-5.140625 2.613281-12.234375-.089844-9.21875-.214844-21.839844 12.910156-30.59375 11.441406-7.628906 18.246094-11.769531 21.828125-13.832031 2.140625-15.488282 10.40625-70.460938 21.925781-87.742188 1.761719-2.640625 1.628907-4.34375 1.375-5.40625-.808593-3.390625-4.988281-7.433594-11.460937-11.085937-3.28125-1.859375-4.441406-6.019531-2.585937-9.304688 1.867187-3.289062 6.03125-4.414062 9.304687-2.589843 10.195313 5.761718 16.261719 12.425781 18.023437 19.8125 1.285157 5.402343.144532 10.980468-3.296874 16.148437-9.257813 13.894531-17.726563 66.320313-20.210938 85.347656-.292969 2.25-1.6875 4.210938-3.714844 5.226563-.046875.019531-6.195312 3.171875-23.613281 14.785156-6.640625 4.425781-6.921875 10.140625-6.832031 19.097656.070312 7.628906.164062 17.113282-8.074219 23.289063-6.632813 4.980469-12.566406 7.597656-17.03125 8.980469l1.300781 5.199218c.519532 2.066406.039063 4.261719-1.289062 5.929688l-23.367188 29.199218c-.832031 3.925782-3.226562 16.425782-5.605468 40.25-1.601563 15.949219-5.78125 25.269532-13.160157 29.335938-2.734375 1.5-5.585937 2.074219-8.359375 2.074219zm0 0" fill="#602f75"/><path d="m192.09375 177.492188c0-6.28125-15.28125-11.378907-34.132812-11.378907-18.851563 0-34.132813 5.097657-34.132813 11.378907 0 6.285156 15.28125 11.378906 34.132813 11.378906 18.851562 0 34.132812-5.09375 34.132812-11.378906zm0 0" fill="#ea3457"/><path d="m157.960938 195.699219c-18.890626 0-40.957032-4.765625-40.957032-18.207031 0-13.4375 22.066406-18.207032 40.957032-18.207032 18.894531 0 40.960937 4.769532 40.960937 18.207032 0 13.441406-22.066406 18.207031-40.960937 18.207031zm-25.839844-18.207031c3.792968 2.023437 12.800781 4.554687 25.839844 4.554687 13.042968 0 22.046874-2.53125 25.839843-4.554687-3.792969-2.019532-12.796875-4.550782-25.839843-4.550782-13.039063 0-22.046876 2.53125-25.839844 4.550782zm53.492187 1.328124h.070313zm0 0" fill="#ea3457"/><path d="m157.960938 6.828125c-33.101563 0-59.941407 26.835937-59.941407 59.941406 0 33.101563 59.941407 103.898438 59.941407 103.898438s59.941406-70.796875 59.941406-103.898438c0-33.105469-26.835938-59.941406-59.941406-59.941406zm0 83.25c-15.082032 0-27.304688-12.226563-27.304688-27.308594s12.222656-27.304687 27.304688-27.304687c15.082031 0 27.308593 12.222656 27.308593 27.304687s-12.226562 27.308594-27.308593 27.308594zm0 0" fill="#ffe600"/><path d="m157.960938 177.492188c-2.007813 0-3.914063-.886719-5.207032-2.410157-6.304687-7.449219-61.558594-73.710937-61.558594-108.316406 0-36.8125 29.953126-66.765625 66.765626-66.765625s66.769531 29.953125 66.769531 66.765625c0 34.605469-55.253907 100.867187-61.5625 108.316406-1.292969 1.523438-3.199219 2.410157-5.207031 2.410157zm0-163.839844c-29.285157 0-53.113282 23.828125-53.113282 53.113281 0 22.726563 34.554688 70.195313 53.113282 93.175781 18.5625-22.980468 53.113281-70.445312 53.113281-93.175781 0-29.285156-23.824219-53.113281-53.113281-53.113281zm0 83.253906c-18.816407 0-34.132813-15.3125-34.132813-34.132812 0-18.820313 15.316406-34.132813 34.132813-34.132813 18.820312 0 34.132812 15.3125 34.132812 34.132813 0 18.820312-15.3125 34.132812-34.132812 34.132812zm0-54.613281c-11.292969 0-20.480469 9.1875-20.480469 20.480469 0 11.292968 9.1875 20.480468 20.480469 20.480468 11.292968 0 20.480468-9.1875 20.480468-20.480468 0-11.292969-9.1875-20.480469-20.480468-20.480469zm0 0" fill="#602f75"/></svg>