<svg id="Layer_1" enable-background="new 0 0 512 512" height="512" viewBox="0 0 512 512" width="512" xmlns="http://www.w3.org/2000/svg"><g><g><path d="m189.58 325.439h146.5l6.297-5.145c-1.602-38.69-12.585-76.612-30.324-111.133-3.491-6.794-6.969-14.697-10.236-23.819l-2.904-2.071h-72.5l-2.511 2.071c-3.267 9.122-6.745 17.025-10.236 23.819-17.801 34.642-28.791 72.71-30.339 111.541z" fill="#8479c2"/><path d="m242.182 253.761 4.796-15.143c5.726-18.078 9.836-36.599 12.311-55.345h-32.875l-2.511 2.071c-3.267 9.122-6.745 17.025-10.236 23.819-17.801 34.642-28.791 72.71-30.339 111.541l6.253 4.736h38.557c1.961-24.319 6.66-48.367 14.044-71.679z" fill="#6e60b8"/><path d="m283.79 75.808-2.147-1.744h-38.438l-1.275 1.744c-1.301 48.338-8.819 83.825-18.028 109.535 7.263 14.131 21.976 23.804 38.957 23.804 16.981 0 31.694-9.673 38.957-23.804-9.207-25.71-16.725-61.196-18.026-109.535z" fill="#ffa90f"/><path d="m243.205 74.064-1.275 1.744c-1.301 48.338-8.819 83.825-18.028 109.535 6.109 11.884 17.495 20.59 31.059 23.066 4.725-22.155 7.118-44.772 7.118-67.483v-66.862z" fill="#fc8900"/><path d="m183.109 331.354v156.949c0 8.912 8.224 16.136 17.136 16.136h62.615 62.615c8.912 0 17.136-7.224 17.136-16.136v-156.949c0-3.692-.082-7.379-.234-11.059h-159.035c-.152 3.68-.233 7.367-.233 11.059z" fill="#b3e59f"/><path d="m183.342 320.295c-.152 3.68-.234 7.367-.234 11.059v156.949c0 8.912 8.224 16.136 17.136 16.136h26.836v-152.986c0-10.417.505-20.815 1.505-31.158z" fill="#95d6a4"/><path d="m306.921 350.295h-88.123c-2.59 0-4.689 2.1-4.689 4.689v55.038c0 2.59 2.1 4.689 4.689 4.689h88.123c2.59 0 4.689-2.1 4.689-4.689v-55.038c.001-2.589-2.099-4.689-4.689-4.689z" fill="#95d6a4"/><path d="m253.066 410.022v-55.038c0-2.59 2.1-4.689 4.689-4.689h-38.957c-2.59 0-4.689 2.1-4.689 4.689v55.038c0 2.59 2.1 4.689 4.689 4.689h38.957c-2.589.001-4.689-2.099-4.689-4.689z" fill="#66b394"/><path d="m280.557 7.439h-12.165c-4.007 1.71-6.817 5.684-6.817 10.316v48.224c0 4.632 2.81 8.606 6.817 10.316h12.165c6.035 0 10.928-4.893 10.928-10.928v-47c0-6.035-4.893-10.928-10.928-10.928z" fill="#ffc365"/><path d="m262.86 65.367v-47c0-6.035 4.893-10.928 10.928-10.928h-28.625c-6.035 0-10.928 4.893-10.928 10.928v47c0 6.035 4.893 10.928 10.928 10.928h28.625c-6.036 0-10.928-4.893-10.928-10.928z" fill="#ffa90f"/><path d="m170.382 247.224c-17.229-69.08-25.542-129.474-29.55-170.964l-1.319-1.338h-49.189l-.939 1.338c-4.008 41.491-12.321 101.885-29.549 170.964-2.182 8.749-4.091 17.556-5.748 26.407l3.863 4.166h113.667l4.512-4.166c-1.657-8.851-3.567-17.659-5.748-26.407z" fill="#8479c2"/><path d="m95.885 247.224c17.229-69.079 25.541-129.473 29.549-170.964l.939-1.338h-36.049l-.939 1.338c-4.008 41.491-12.321 101.885-29.549 170.964-2.182 8.749-4.091 17.556-5.748 26.407l3.863 4.166h36.049l-3.863-4.166c1.657-8.851 3.566-17.659 5.748-26.407z" fill="#6e60b8"/><path d="m51.951 464.046-5.842 5.249v24.377c0 5.947 4.821 10.767 10.767 10.767h116.466c5.947 0 10.767-4.821 10.767-10.767v-24.377l-4.158-5.249z" fill="#8479c2"/><path d="m82.158 493.672v-24.377l5.842-5.249h-36.049l-5.842 5.249v24.377c0 5.947 4.821 10.767 10.767 10.767h36.049c-5.947 0-10.767-4.82-10.767-10.767z" fill="#6e60b8"/><path d="m46.109 360.247v109.048h138v-109.048c0-29.073-2.636-58.078-7.979-86.616h-122.042c-5.343 28.538-7.979 57.542-7.979 86.616z" fill="#ffc365"/><path d="m90.137 273.63h-36.05c-5.343 28.538-7.979 57.543-7.979 86.616v109.048h36.049v-109.047c.001-29.074 2.637-58.078 7.98-86.617z" fill="#ffa90f"/><g><path d="m442.825 178.105c-9.584-7.906-15.888-18.984-17.466-31.12l-2.991-2.879h-37.5l-3.271 2.879c-1.578 12.135-7.882 23.213-17.466 31.12-13.753 11.346-22.521 28.518-22.521 47.74v18.061l6.59 6.034h110l7.144-6.034v-18.061c.002-19.222-8.766-36.394-22.519-47.74z" fill="#8479c2"/><path d="m377.701 245.912c0-14.551 4.93-28.673 13.987-40.062 7.634-9.601 11.79-21.505 11.79-33.771v-27.973h-18.61l-3.271 2.879c-1.578 12.135-7.882 23.213-17.466 31.12-13.753 11.346-22.521 28.518-22.521 47.74v18.061l6.59 6.034h29.5v-4.028z" fill="#6e60b8"/><path d="m465.345 439.882-4.477-5.877h-112.333l-6.924 5.877v43.846c0 11.438 9.273 20.711 20.711 20.711h82.312c11.438 0 20.711-9.273 20.711-20.711z" fill="#8479c2"/><path d="m377.701 434.005h-29.167l-6.924 5.877v43.846c0 11.438 9.273 20.711 20.711 20.711h15.379v-70.434z" fill="#6e60b8"/><path d="m341.611 243.905h123.734v195.977h-123.734z" fill="#dbedff"/><path d="m341.611 243.905v195.977h36.09v-193.97c0-.67.021-1.338.042-2.007z" fill="#b5dcff"/><path d="m427.583 308.41h-48.21c-2.925 0-5.297 2.372-5.297 5.297v87.573c0 2.925 2.372 5.297 5.297 5.297h48.21c2.925 0 5.297-2.372 5.297-5.297v-87.573c0-2.925-2.371-5.297-5.297-5.297z" fill="#b5dcff"/><path d="m403.478 401.28v-87.573c0-2.925 2.372-5.297 5.297-5.297h-29.402c-2.925 0-5.297 2.372-5.297 5.297v87.573c0 2.925 2.372 5.297 5.297 5.297h29.402c-2.925 0-5.297-2.372-5.297-5.297z" fill="#8bcaff"/><path d="m424.958 141.002v-95.313l-2.632-2.938h-37.938l-2.391 2.938v95.313c0 2.017-.145 4.012-.401 5.982 6.149 4.457 13.705 7.092 21.881 7.092s15.731-2.635 21.881-7.092c-.255-1.969-.4-3.964-.4-5.982z" fill="#ffa90f"/><path d="m403.478 154.077v-111.325h-19.089l-2.391 2.938v95.313c0 2.017-.145 4.012-.401 5.982 6.15 4.457 13.706 7.092 21.881 7.092z" fill="#fc8900"/><path d="m426.278 7.439h-14.761c-2.488.846-5.281 3.196-5.281 5.971v26.309c0 2.774 2.793 5.125 5.281 5.971h14.761c3.424 0 6.2-2.776 6.2-6.2v-25.85c0-3.425-2.776-6.201-6.2-6.201z" fill="#ffc365"/><path d="m407.346 39.489v-25.849c0-3.424 2.776-6.2 6.2-6.2h-32.867c-3.424 0-6.2 2.776-6.2 6.2v25.85c0 3.424 2.776 6.2 6.2 6.2h32.867c-3.425-.001-6.2-2.776-6.2-6.201z" fill="#ffa90f"/></g><path d="m146.477 370.795h-62.737c-2.585 0-4.68 2.096-4.68 4.68v55.011c0 2.585 2.096 4.681 4.68 4.681h62.738c2.585 0 4.68-2.096 4.68-4.681v-55.011c0-2.584-2.096-4.68-4.681-4.68z" fill="#ffa90f"/><path d="m112.01 430.486v-55.01c0-2.585 2.096-4.681 4.681-4.681h-32.951c-2.585 0-4.681 2.096-4.681 4.681v55.01c0 2.585 2.096 4.68 4.681 4.68h32.951c-2.586.001-4.681-2.095-4.681-4.68z" fill="#fc8900"/><path d="m135.556 7.439h-40.895c-4.36 0-7.928 3.567-7.928 7.928v55c0 4.36 3.567 7.928 7.928 7.928h40.895c4.36 0 7.928-3.567 7.928-7.928v-55c0-4.36-3.568-7.928-7.928-7.928z" fill="#b3e59f"/><path d="m113.484 70.367v-55c0-4.36 3.567-7.928 7.928-7.928h-26.75c-4.36 0-7.928 3.567-7.928 7.928v55c0 4.36 3.567 7.928 7.928 7.928h26.75c-4.361 0-7.928-3.567-7.928-7.928z" fill="#95d6a4"/></g><g><path d="m473.118 483.789c0-10.283 0-248.51 0-257.883 0-20.779-9.202-40.288-25.248-53.525-8.261-6.815-13.485-16.197-14.8-26.287-.001-.004 0-.009-.001-.014-.477-3.665-.338 3.163-.338-94.319 4.454-2.264 7.52-6.881 7.52-12.21v-25.851c0-7.554-6.146-13.7-13.7-13.7h-45.6c-7.555 0-13.7 6.146-13.7 13.7v25.85c0 5.33 3.066 9.947 7.521 12.211 0 97.434.14 90.642-.339 94.315-.001.01 0 .021-.002.032-1.318 10.084-6.542 19.46-14.799 26.272-16.046 13.237-25.248 32.747-25.248 53.526v16.05c-4.259-12.399-9.394-24.497-15.387-36.16-18.854-36.694-25.804-84.331-27.28-125.534 4.562-3.358 7.54-8.748 7.54-14.834v-47c.001-10.161-8.266-18.428-18.427-18.428h-35.395c-10.161 0-18.428 8.267-18.428 18.428v47c0 6.086 2.978 11.476 7.54 14.834-1.476 41.225-8.431 88.851-27.28 125.534-10.642 20.71-18.594 42.783-23.691 65.496-1.644-8.678-3.519-17.292-5.646-25.822-17.025-68.261-25.186-127.904-29.063-166.834 1.504-2.38 2.388-5.19 2.388-8.208v-55c.002-8.507-6.919-15.428-15.426-15.428h-40.894c-8.507 0-15.428 6.921-15.428 15.428v55c0 3.017.884 5.826 2.387 8.206-3.877 38.93-12.037 98.574-29.063 166.835-9.469 37.966-13.949 77.003-13.949 114.838v133.425c0 10.073 8.194 18.267 18.267 18.267h116.466c4.818 0 9.193-1.888 12.46-4.946 3.997 3.096 9.007 4.946 14.443 4.946h125.23c6.916 0 13.146-2.985 17.472-7.735 5.058 4.789 11.877 7.735 19.375 7.735h82.312c15.556.001 28.211-12.655 28.211-28.21zm-123.734-232.323h108.734v180.977h-108.734c0-6.347 0-174.656 0-180.977zm68.39-108.328c-4.295 2.299-9.074 3.5-14.023 3.5s-9.728-1.2-14.022-3.499c.063-1.555.043 4.593.043-89.888h27.96c-.001 94.483-.02 88.336.042 89.887zm-35.523-128.138h43v23.25h-.02-42.96-.021v-23.25zm-13.074 168.951c8.365-6.901 14.437-15.782 17.739-25.587 5.302 2.155 10.989 3.273 16.835 3.273s11.533-1.119 16.836-3.274c3.302 9.805 9.373 18.686 17.739 25.587 12.578 10.378 19.793 25.67 19.793 41.955v10.561h-108.735v-10.561c0-16.285 7.214-31.577 19.793-41.954zm-119.742-100.096h27.396c1.398 33.765 6.156 69.149 17.035 100.849-14.193 22.659-47.272 22.662-61.467 0 10.879-31.696 15.638-67.079 17.036-100.849zm-7.427-65.427c0-1.89 1.538-3.428 3.428-3.428h35.395c1.89 0 3.428 1.538 3.428 3.428v47c0 1.943-1.614 3.428-3.428 3.428h-35.395c-1.816 0-3.428-1.486-3.428-3.428zm-21.398 194.223c1.936-3.768 3.772-7.676 5.518-11.71 20.11 21.021 53.894 21.025 74.008 0 1.746 4.034 3.582 7.942 5.518 11.71 15.964 31.067 25.531 65.376 28.052 100.205h-141.148c2.521-34.829 12.089-69.138 28.052-100.205zm-166.728 147.657c0-26.421 2.235-52.818 6.752-79.117h109.494c.018.106.038.211.056.317 4.541 26.373 6.698 53.039 6.698 78.8v101.548h-123zm40.625-344.88c0-.22.208-.428.428-.428h40.895c.22 0 .428.208.428.428v55c0 .103-.048.201-.119.278-.012.011-.026.019-.038.03-.06.053-.11.077-.154.093-.038.013-.076.026-.116.026h-40.896c-.041 0-.079-.014-.117-.026-.044-.017-.094-.04-.154-.093-.011-.01-.025-.018-.036-.028-.072-.078-.12-.177-.12-.28v-55zm1.726 70.427h38.296c4.143 39.436 12.424 97.388 28.848 163.244 1.412 5.66 2.701 11.362 3.893 17.092h-103.777c1.192-5.73 2.481-11.431 3.893-17.092 16.424-65.855 24.705-123.807 28.847-163.244zm80.649 407.878c0 1.801-1.466 3.267-3.268 3.267h-116.466c-1.801 0-3.267-1.466-3.267-3.267v-16.877h123c.001 9.595.001 7.182.001 16.877zm157.502-5.369c0 4.762-3.874 8.636-8.636 8.636h-125.23c-4.762 0-8.636-3.874-8.636-8.636 0-5.078 0-121.114 0-128.057v-28.893c0-1.187.01-2.373.027-3.559h142.448c.017 1.186.027 2.373.027 3.559zm110.523 8.636h-82.312c-7.285 0-13.212-5.927-13.212-13.211v-36.346h108.734v36.346c.001 7.284-5.926 13.211-13.21 13.211z"/><path d="m146.75 363.355h-62.737c-6.717 0-12.181 5.464-12.181 12.181v55.011c0 6.716 5.464 12.18 12.181 12.18h62.737c6.717 0 12.181-5.464 12.181-12.18v-55.011c0-6.716-5.464-12.181-12.181-12.181zm-2.819 64.372h-57.099v-49.372h57.099z"/><path d="m101.882 344.349h27c4.143 0 7.5-3.358 7.5-7.5s-3.357-7.5-7.5-7.5h-27c-4.143 0-7.5 3.358-7.5 7.5s3.357 7.5 7.5 7.5z"/><path d="m307.194 342.855h-26.562c-4.143 0-7.5 3.358-7.5 7.5s3.357 7.5 7.5 7.5h23.751v49.417h-82.502v-49.417h23.751c4.143 0 7.5-3.358 7.5-7.5s-3.357-7.5-7.5-7.5h-26.562c-6.722 0-12.189 5.468-12.189 12.189v55.038c0 6.721 5.468 12.189 12.189 12.189h88.123c6.722 0 12.189-5.468 12.189-12.189v-55.038c.002-6.72-5.466-12.189-12.188-12.189z"/><path d="m427.856 300.97h-48.21c-7.057 0-12.797 5.741-12.797 12.797v87.573c0 7.056 5.74 12.797 12.797 12.797h48.21c7.057 0 12.797-5.741 12.797-12.797v-26.286c0-4.142-3.357-7.5-7.5-7.5s-7.5 3.358-7.5 7.5v24.083h-43.803v-83.167h43.804v24.084c0 4.142 3.357 7.5 7.5 7.5s7.5-3.358 7.5-7.5v-26.287c-.001-7.056-5.741-12.797-12.798-12.797z"/></g></g></svg>