<svg height="512" viewBox="0 0 64 64" width="512" xmlns="http://www.w3.org/2000/svg"><g id="Fill_Outline" data-name="Fill Outline"><g id="Color"><path d="m23 3 3 2h4l2 7 4-4 4-4 5-1 4 4-1 6 4 4 3 7-1 5-3 5-5-2-2 4-7 3 7 5 5 7-1 3-6 1v5h-7l-8-1-4 .2-6 1.8-3-5 5-8h-8l-5-3-3-7 1-5 3-3 1-3-1-3 7-3-2-3 3-3v-4l3-2 2 2 2-5z" fill="#656b76"/><path d="m44.621 18.676a6 6 0 1 0 -11.692 2.7c1.124 4.871 8.071 6.624 8.071 6.624s4.746-4.452 3.621-9.324z" fill="#464a51"/><path d="m42 56v4h-7l-8-1-4 .2-6 1.8-3-5 5-8h-8l-5-3-3-7 1-5 3-3 1-3-1-3 7-3-2-3 3-3v-4l3-2 2 2 2-5 1-3 3 2h3l-2 5-2-2-1 6v2l-5 1 2 4-6 3v2l-1 3-3 3-1 5 4 5 4 3 8 2-5 6 5 3 4-3.8 4 2.8z" fill="#464a51"/><path d="m37 39 7 5 5 7-1 3-6 1v5h-7l-8-1-4 .2-6 1.8-3-5 5-8h-8l-5-3-3-7z" fill="#fcbc04"/><path d="m34 55-4-2.8-4 3.8-5-3 .833-1h6.167a3 3 0 0 0 3-3v-10.176l-16-.471v4.4l-1-.753-3.01-3.77-7.99-.23 3 7 5 3h8l-5 8 3 5 6-1.8 4-.2 8 1h7v-4z" fill="#e59730"/><path d="m55 24-1 5-3 5-5-2-2 4-7 3 4.2 3h-36.49l-1.71-4 1-5 3-3 1-3-1-3 4.67-2h42.47z" fill="#f8664f"/><path d="m33.125 22c1.546 4.392 7.875 6 7.875 6a13.806 13.806 0 0 0 3.569-6z" fill="#cc5144"/><path d="m19 22-4 2v2l-1 3-3 3-1 5 4 5h-9.29l-1.71-4 1-5 3-3 1-3-1-3 4.67-2z" fill="#cc5144"/><path d="m15 32h16a0 0 0 0 1 0 0v15a3 3 0 0 1 -3 3h-10a3 3 0 0 1 -3-3v-15a0 0 0 0 1 0 0z" fill="#f7f754"/><path d="m31 34v4h2a2 2 0 0 1 2 2 2 2 0 0 1 -2 2h-2v4h2a6 6 0 0 0 6-6 6 6 0 0 0 -6-6z" fill="#f7f754"/><path d="m39 40a6 6 0 0 1 -6 6h-2v-4h2a2.015 2.015 0 0 0 2-2 2.006 2.006 0 0 0 -2-2h-2v-2h1a5.982 5.982 0 0 1 5.16 2.95 2.053 2.053 0 0 0 1.76 1.05z" fill="#f9e109"/><path d="m28 47h3a3 3 0 0 1 -3 3h-10a3 3 0 0 1 -3-3v-15h16a2.991 2.991 0 0 1 -4.84 2.36 3.972 3.972 0 0 1 -2.16.64 4.091 4.091 0 0 1 -1-.14v1.14a2 2 0 0 1 -4 0v-2.18a3.142 3.142 0 0 1 -1-.63v3.81a10 10 0 0 0 10 10z" fill="#f9e109"/><path d="m28 28a3.035 3.035 0 0 0 -.526.053 3.971 3.971 0 0 0 -6.345-.829 2.985 2.985 0 0 0 -4.045 2.1 2 2 0 1 0 .661 2.636 2.97 2.97 0 0 0 1.255.856v2.184a2 2 0 0 0 4 0v-1.141a3.848 3.848 0 0 0 3.164-.5 2.964 2.964 0 0 0 1.836.641 3 3 0 0 0 0-6z" fill="#e9f1f2"/><path d="m31 31a2.991 2.991 0 0 1 -4.84 2.36 3.972 3.972 0 0 1 -2.16.64 4.091 4.091 0 0 1 -1-.14v1.14a2 2 0 0 1 -4 0v-2.18a3.055 3.055 0 0 1 -1.26-.86 1.972 1.972 0 0 1 -1.74 1.04 2 2 0 1 1 1.08-3.68 2.983 2.983 0 0 1 .93-1.55 1.77 1.77 0 0 0 -.01.23 3 3 0 0 0 3 3 2.944 2.944 0 0 0 1.38-.35 3.948 3.948 0 0 0 3.78-.29 2.989 2.989 0 0 0 4.44-.86 3.026 3.026 0 0 1 .4 1.5z" fill="#d0d8da"/><path d="m41 13a6 6 0 0 0 -6 6c0 5 6 9 6 9s6-4 6-9a6 6 0 0 0 -6-6zm0 8a2 2 0 1 1 2-2 2 2 0 0 1 -2 2z" fill="#f9e109"/><path d="m37.11 18.18a6.285 6.285 0 0 1 .14-2.91 5.119 5.119 0 0 1 .61-1.37 5.969 5.969 0 0 0 -2.86 5.1c0 5 6 9 6 9a16.686 16.686 0 0 0 5.29-5.97c-3.24 1.98-8.35.68-9.18-3.85z" fill="#fcbc04"/></g><g id="Outline_copy" fill="#323232" data-name="Outline copy"><path d="m55.919 23.606-3-7a1 1 0 0 0 -.212-.313l-3.636-3.636.915-5.492a1 1 0 0 0 -.279-.872l-4-4a1 1 0 0 0 -.9-.273l-5 1a.991.991 0 0 0 -.511.273l-6.8 6.8-1.535-5.368a1 1 0 0 0 -.961-.725h-3.7l-2.745-1.832a1 1 0 0 0 -1.5.516l-.98 2.944-1.44 3.593-.928-.928a1 1 0 0 0 -1.262-.125l-3 2a1 1 0 0 0 1.11 1.664l2.318-1.545 1.42 1.42a1 1 0 0 0 1.636-.335l2.02-5.056.586-1.758 1.91 1.274a1.006 1.006 0 0 0 .555.168h3.246l1.793 6.275a1 1 0 0 0 1.668.432l7.786-7.786 4.178-.836 3.258 3.258-.915 5.492a1 1 0 0 0 .279.872l3.863 3.864 1.47 3.429h-4.9a7.72 7.72 0 0 0 .274-2 7.008 7.008 0 0 0 -7-7 6.929 6.929 0 0 0 -3.013.688 1 1 0 0 0 .862 1.8 4.99 4.99 0 0 1 7.151 4.512c0 3.555-3.593 6.675-5 7.761-1.407-1.086-5-4.206-5-7.761a4.955 4.955 0 0 1 .492-2.15 1 1 0 0 0 -1.8-.863 6.942 6.942 0 0 0 -.692 3.013 7.72 7.72 0 0 0 .271 2h-16.601a1 1 0 0 0 0 2h17.4a18.139 18.139 0 0 0 5.375 5.832 1 1 0 0 0 1.11 0 18.139 18.139 0 0 0 5.375-5.832h6.554l.6 1.394a1 1 0 1 0 1.838-.788z"/><path d="m54.378 27.11a1 1 0 0 0 -1.178.79l-.147.739-2.473 4.121-4.21-1.684a1 1 0 0 0 -1.266.482l-1.834 3.667-3.987 1.709a7 7 0 0 0 -6.283-3.934h-1v-2a4.033 4.033 0 0 0 -4.022-4 4.966 4.966 0 0 0 -7.1-.9 3.929 3.929 0 0 0 -.878-.1 3.975 3.975 0 0 0 -3.487 2.044 3 3 0 1 0 -.513 5.956 2.977 2.977 0 0 0 1.846-.644c.051.033.1.064.154.094v1.55a3 3 0 0 0 6 0 4.946 4.946 0 0 0 2.122-.479 3.911 3.911 0 0 0 1.878.479 3.959 3.959 0 0 0 2-.556v12.556a2 2 0 0 1 -2 2h-10a2 2 0 0 1 -2-2v-10.277a1 1 0 0 0 -2 0v4.277h-8.626l-1.332-3.108.879-4.4 2.786-2.786a1.013 1.013 0 0 0 .242-.391l1-3a1 1 0 0 0 0-.632l-.709-2.126 6.154-2.638a1 1 0 0 0 .438-1.474l-1.545-2.318 2.42-2.42a1 1 0 0 0 -1.414-1.414l-3 3a1 1 0 0 0 -.125 1.262l1.333 2-5.895 2.526a1 1 0 0 0 -.555 1.235l.895 2.684-.82 2.46-2.833 2.833a.991.991 0 0 0 -.273.511l-1 5a1 1 0 0 0 .061.59l3 7a1 1 0 0 0 .4.463l5 3a1 1 0 0 0 .519.143h3.556a4.01 4.01 0 0 0 1.663 1.563l-3.067 4.907a1 1 0 0 0 -.009 1.045l3 5a1 1 0 0 0 .857.485 1.012 1.012 0 0 0 .287-.042l5.884-1.765 3.792-.193 7.913.989a.861.861 0 0 0 .124.011h7a1 1 0 0 0 1-1v-4.153l5.164-.861a1 1 0 0 0 .784-.67l1-3a.994.994 0 0 0 -.135-.9l-5-7a.947.947 0 0 0 -.232-.232l-1.69-1.208a1 1 0 1 0 -1.162 1.626l1.554 1.112 4.608 6.45-.649 1.946-5.406.9a1 1 0 0 0 -.836.99v4h-5.938l-7.938-.992a.845.845 0 0 0 -.174-.008l-4 .2a1 1 0 0 0 -.237.04l-5.255 1.577-2.286-3.808 3.128-5.009h9.7a4 4 0 0 0 4-4h1a7.008 7.008 0 0 0 7-7 7.084 7.084 0 0 0 -.1-1.154l4.5-1.927a1 1 0 0 0 .5-.472l1.588-3.177 4.146 1.659a1 1 0 0 0 1.228-.414l3-5a.992.992 0 0 0 .123-.319l.182-.909a1 1 0 0 0 -.789-1.177zm-43.101 19.89-4.485-2.691-.561-1.309h7.769v4zm20.723-8h1a1 1 0 0 1 0 2h-1zm-4-6a1.981 1.981 0 0 1 -1.221-.432 1 1 0 0 0 -1.158-.051 2.852 2.852 0 0 1 -2.37.374 1 1 0 0 0 -1.251.967v1.142a1 1 0 0 1 -2 0v-2.184a1 1 0 0 0 -.665-.942 2 2 0 0 1 -.835-.574 1 1 0 0 0 -.754-.344.928.928 0 0 0 -.106.006 1 1 0 0 0 -.77.512.987.987 0 0 1 -.87.526 1 1 0 1 1 .54-1.838 1 1 0 0 0 1.518-.614 2.012 2.012 0 0 1 2.693-1.4 1 1 0 0 0 1.1-.231 2.973 2.973 0 0 1 4.756.624 1 1 0 0 0 1.048.5 1.912 1.912 0 0 1 .345-.041 2 2 0 0 1 0 4zm5 12h-1v-2h1a3 3 0 0 0 0-6h-1v-2h1a5 5 0 0 1 0 10z"/><path d="m20 46v-6a1 1 0 0 0 -2 0v6a1 1 0 0 0 2 0z"/><path d="m24 46v-6a1 1 0 0 0 -2 0v6a1 1 0 0 0 2 0z"/><path d="m28 46v-6a1 1 0 0 0 -2 0v6a1 1 0 0 0 2 0z"/><path d="m44 19a3 3 0 1 0 -3 3 3 3 0 0 0 3-3zm-4 0a1 1 0 1 1 1 1 1 1 0 0 1 -1-1z"/></g></g></svg>