<svg id="Capa_1" enable-background="new 0 0 511.154 511.154" height="512" viewBox="0 0 511.154 511.154" width="512" xmlns="http://www.w3.org/2000/svg"><g><g><path d="m121.609 324.355c-4.185 0-7.577-3.393-7.577-7.577v-14.66c0-4.185 3.393-7.577 7.577-7.577h77.188v29.81z" fill="#fdd79b"/><circle cx="373.758" cy="305.556" fill="#fdd79b" r="39.387"/><circle cx="347.995" cy="274.765" fill="#e19974" r="39.513"/><path d="m202.217 64.462h44.123v305.729h-44.123z" fill="#fef0ae"/><path d="m491.883 113.261h-184.731l-4.661 8.511c-8.462 15.454-24.679 25.062-42.298 25.062h-106.92v-106.847h106.92c17.619 0 33.836 9.609 42.298 25.062l4.661 8.511h184.731c5.513 0 9.983 4.469 9.983 9.983v19.735c-.001 5.514-4.47 9.983-9.983 9.983z" fill="#f9f3f1"/><g><path d="m212.429 31.15c0-9.364-7.591-16.956-16.956-16.956-9.364 0-16.956 7.591-16.956 16.956v339.042h33.911v-339.042z" fill="#fee97d"/></g><path d="m315.967 284.85-9.595-.827-65.326-4.132-44.989 4.979c-19.41 16.82-31.71 41.65-31.71 69.3 0 50.55 41.13 91.67 91.68 91.67s91.68-41.12 91.68-91.67c0-27.66-12.31-52.5-31.74-69.32z" fill="#fff5c6"/><path d="m256.025 414.844c-33.458 0-60.679-27.221-60.679-60.679 0-33.459 27.221-60.68 60.679-60.68s60.679 27.221 60.679 60.68-27.221 60.679-60.679 60.679z" fill="#fef0ae"/><circle cx="256.025" cy="354.165" fill="#fee97d" r="27.679"/><path d="m402.136 362.62-56.989-28.958-49.367 4.388-26.343 13.7c-16.251 16.552-26.153 39.42-25.923 64.827.072 7.892 1.003 15.555 2.887 22.867h177.585c1.884-7.312 2.874-14.975 2.887-22.867.02-11.557-2.106-22.555-6.016-32.687z" fill="#fff5c6"/><path d="m334.831 477.418c-33.458 0-60.679-27.221-60.679-60.679 0-33.459 27.221-60.68 60.679-60.68s60.679 27.221 60.679 60.68c0 33.458-27.221 60.679-60.679 60.679z" fill="#fef0ae"/><circle cx="334.831" cy="416.739" fill="#fee97d" r="27.679"/><path d="m243.037 352.41-18.759-3.952-57.201-7.108-45.105 12.816-30.854 29.374c-3.893 10.163-6.033 21.186-6.033 32.702 0 10.168 1.667 19.953 4.737 29.101h173.885c3.07-9.147 4.737-18.933 4.737-29.101-.001-24.864-9.283-47.3-25.407-63.832z" fill="#fff5c6"/><path d="m177.011 477.418c-33.458 0-60.679-27.221-60.679-60.679 0-33.459 27.221-60.68 60.679-60.68s60.679 27.221 60.679 60.68c0 33.458-27.221 60.679-60.679 60.679z" fill="#fef0ae"/><circle cx="177.011" cy="416.739" fill="#fee97d" r="27.679"/><path d="m462.215 454.619-23.751 35.411c-2.509 3.741-6.718 5.986-11.222 5.986h-344.805c-4.505 0-8.713-2.245-11.222-5.986l-23.751-35.411-18.369-30.648 450.019-2.802z" fill="#f9f3f1"/><path d="m136.994 490.03-23.751-35.411-18.369-30.648 384.032-2.391.208-.411-450.019 2.802 18.369 30.648 23.751 35.411c2.509 3.741 6.718 5.986 11.222 5.986h65.779c-4.504 0-8.713-2.245-11.222-5.986z" fill="#f3eae6"/><g id="XMLID_409_"><g><path d="m315.967 284.85-1.38 1.64-12.8 12.03c-8.66 8.13-21.73 9.35-31.74 2.95-8.52-5.44-19.42-5.44-27.94 0-10.01 6.4-23.08 5.18-31.73-2.95l-12.81-12.04-1.51-1.61c16.1-13.94 37.07-22.38 59.97-22.38 22.89 0 43.85 8.43 59.94 22.36z" fill="#f37c7c"/></g></g><g id="XMLID_407_"><g><path d="m243.037 352.41-2.1 1.5c-11.44 8.18-25.01 12.41-38.72 12.41-7.2 0-14.44-1.16-21.43-3.54-16.48-5.6-34.5-4.53-50.2 2.99l-39.47 17.77c13.22-34.57 46.73-59.19 85.89-59.19 25.9 0 49.33 10.77 66.03 28.06z" fill="#f37c7c"/></g></g><g id="XMLID_404_"><g><path d="m420.857 383.89-38.29-18.12c-9.06-4.34-18.9-6.53-28.77-6.53-7.22 0-14.46 1.17-21.43 3.54-20.31 6.9-42.7 3.6-60.15-8.87l-2.1-1.5-.68-.66c16.66-16.9 39.82-27.4 65.39-27.4 39.3 0 72.91 24.78 86.03 59.54z" fill="#f37c7c"/></g></g><path d="m161.562 238.939c-9.364 0-16.956-7.591-16.956-16.956v-190.833c0-9.364 7.591-16.956 16.956-16.956 9.364 0 16.956 7.591 16.956 16.956v190.834c-.001 9.364-7.592 16.955-16.956 16.955z" fill="#fef0ae"/><path d="m127.65 159.283c-9.364 0-16.956-7.591-16.956-16.956v-111.177c0-9.364 7.591-16.956 16.956-16.956 9.364 0 16.956 7.591 16.956 16.956v111.177c0 9.365-7.591 16.956-16.956 16.956z" fill="#fee97d"/><path d="m473.332 454.619h-435.984c-16.616 0-30.085-13.47-30.085-30.085v-3.868c0-5.335 4.325-9.661 9.661-9.661h478.154c4.606 0 8.34 3.734 8.34 8.34v5.189c-.001 16.616-13.471 30.085-30.086 30.085z" fill="#f3eae6"/><path d="m77.351 424.534v-3.868c0-5.335 4.325-9.661 9.661-9.661h-70.089c-5.335 0-9.661 4.325-9.661 9.661v3.868c0 16.616 13.47 30.085 30.085 30.085h70.088c-16.614 0-30.084-13.469-30.084-30.085z" fill="#efe2dd"/></g><g><path d="m501.865 105.761h-54.139c-4.142 0-7.5 3.357-7.5 7.5s3.358 7.5 7.5 7.5h54.139c4.142 0 7.5-3.357 7.5-7.5s-3.358-7.5-7.5-7.5z"/><path d="m498.964 404.45h-65.428c-3.114-26.376-16.457-49.448-35.892-65.284 11.351-7.517 18.554-19.867 18.554-33.286 0-15.772-9.761-29.986-24.754-36.731-2.953-19.85-21.305-35.188-43.448-35.188-22.622 0-41.296 16.007-43.626 36.481-14.724-8.23-31.227-12.553-48.295-12.553-.747 0-1.49.026-2.235.042v-103.596h6.353c20.366 0 39.094-11.097 48.876-28.961l2.526-4.613h104.168c4.142 0 7.5-3.357 7.5-7.5s-3.358-7.5-7.5-7.5h-108.612c-2.74 0-5.262 1.494-6.579 3.898l-4.66 8.511c-7.149 13.055-20.836 21.165-35.72 21.165h-40.264v-91.848h40.264c14.884 0 28.571 8.109 35.72 21.165l4.661 8.511c1.316 2.403 3.838 3.897 6.578 3.897h194.714c4.142 0 7.5-3.357 7.5-7.5s-3.358-7.5-7.5-7.5h-190.27l-2.526-4.613c-9.781-17.863-28.51-28.96-48.876-28.96h-40.264v-1.338c0-13.484-10.971-24.455-24.456-24.455-6.579 0-12.555 2.616-16.956 6.857-4.4-4.241-10.376-6.857-16.956-6.857s-12.557 2.617-16.957 6.859c-4.4-4.241-10.375-6.859-16.954-6.859-13.485 0-24.456 10.971-24.456 24.455v1.338h-24.975c-4.142 0-7.5 3.357-7.5 7.5s3.358 7.5 7.5 7.5h24.976v19.617h-24.976c-4.142 0-7.5 3.357-7.5 7.5s3.358 7.5 7.5 7.5h24.976v22.164h-24.976c-4.142 0-7.5 3.357-7.5 7.5s3.358 7.5 7.5 7.5h24.976v20.065h-24.976c-4.142 0-7.5 3.357-7.5 7.5s3.358 7.5 7.5 7.5h28.139c4.203 7.424 12.17 12.449 21.293 12.449 3.351 0 6.546-.678 9.456-1.904v11.572c0 4.143 3.358 7.5 7.5 7.5s7.5-3.357 7.5-7.5v-145.301c0-5.214 4.242-9.455 9.456-9.455s9.456 4.241 9.456 9.455v190.834c0 5.214-4.242 9.455-9.456 9.455s-9.456-4.241-9.456-9.455v-13.57c0-4.143-3.358-7.5-7.5-7.5s-7.5 3.357-7.5 7.5v13.57c0 13.484 10.971 24.455 24.456 24.455 3.351 0 6.545-.678 9.456-1.903v42.505h-49.408c-8.313 0-15.077 6.764-15.077 15.077v14.66c0 8.313 6.764 15.077 15.077 15.077h2.819c-24.922 15.531-42.484 41.815-46.119 72.596h-11.169c-4.142 0-7.5 3.357-7.5 7.5s3.358 7.5 7.5 7.5h429.012v6.028c0 12.453-10.131 22.585-22.585 22.585h-435.984c-12.454 0-22.585-10.131-22.585-22.584v-4.567c0-.806.655-1.461 1.46-1.461h18.72c4.142 0 7.5-3.357 7.5-7.5s-3.358-7.5-7.5-7.5h-18.72c-9.076-.001-16.46 7.384-16.46 16.46v4.567c0 20.725 16.86 37.585 37.585 37.585h6.117l13.389 19.962c9.002 13.422 24.025 21.435 40.186 21.435h315.603c16.161 0 31.184-8.013 40.186-21.435l13.389-19.962h7.117c20.725 0 37.585-16.86 37.585-37.585v-8.838c-.003-6.721-5.471-12.19-12.193-12.19zm-371.314-252.667c-5.214 0-9.456-4.242-9.456-9.456v-111.178c0-5.214 4.242-9.455 9.456-9.455s9.456 4.241 9.456 9.455v111.178c0 5.214-4.242 9.456-9.456 9.456zm273.607 252.667c-1.716-9.739-5.512-18.8-10.978-26.672l24.644 11.799c1.585 4.778 2.765 9.746 3.48 14.872h-17.146zm-32.878 0c-4.901-14.063-18.163-23.746-33.548-23.746s-28.646 9.683-33.548 23.746h-17.54c2.888-12.366 10.258-23.466 20.718-30.936 10.128.892 20.461-.286 30.321-3.635 5.685-1.931 11.535-2.965 17.383-3.132 17.2 6.032 29.813 20.307 33.797 37.703zm-16.695 0h-33.706c3.734-5.347 9.92-8.746 16.853-8.746s13.119 3.4 16.853 8.746zm-100.425 0c2.262-16.212 9.09-30.879 19.121-42.725 4.992 3.263 10.319 5.879 15.853 7.831-9.19 9.6-15.452 21.773-17.806 34.894zm-40.7 0c-4.901-14.063-18.163-23.746-33.548-23.746s-28.646 9.683-33.548 23.746h-17.582c3.988-17.415 16.621-31.698 33.846-37.72 6.267.044 12.552 1.078 18.646 3.149 9.471 3.218 19.379 4.424 29.122 3.724 10.394 7.467 17.724 18.535 20.603 30.847zm-16.695 0h-33.706c3.734-5.347 9.92-8.746 16.853-8.746s13.119 3.4 16.853 8.746zm3.628-107.744 7.745 7.278c6.384 5.998 14.613 9.08 22.906 9.08 6.216 0 12.47-1.733 18.004-5.269 6.033-3.854 13.83-3.854 19.862 0 12.917 8.252 29.741 6.686 40.911-3.812l7.743-7.275c6.104 5.88 11.363 12.688 15.509 20.256-17.867.823-34.529 6.354-48.745 15.407-6.604-6.753-15.635-10.635-25.353-10.635-9.848 0-18.968 3.968-25.587 10.867-14.415-9.214-31.133-14.722-48.523-15.607 4.15-7.581 9.414-14.402 15.528-20.29zm206.38 70.95-18.068-8.651c-17.569-8.414-37.403-9.594-55.849-3.329-16.154 5.489-33.897 3.646-48.541-4.79.776-.634 1.562-1.253 2.361-1.859.042-.025.085-.044.127-.07.452-.279.863-.6 1.234-.952 13.961-10.167 31.144-16.15 49.696-16.15 28.479-.001 53.739 14.085 69.04 35.801zm-148.02-11.832c-3.962-5.144-8.391-9.864-13.218-14.097 3.675-3.188 8.394-4.99 13.441-4.99 4.919 0 9.539 1.717 13.177 4.767-4.921 4.316-9.411 9.113-13.4 14.32zm-13.999 6.499c1.874 2.241 3.635 4.589 5.279 7.036-3.423 6.401-6.173 13.225-8.141 20.385-3.146-7.302-7.564-14.037-13.045-19.846 5.543-1.868 10.888-4.4 15.907-7.575zm159.344-56.443c0 10.333-7.099 19.713-17.584 23.723-11.017-6.203-23.327-10.367-36.416-11.987-.304-.697-.61-1.392-.929-2.08.575.021 1.151.033 1.727.033 20.123 0 37.114-12.67 42.264-29.88 6.763 4.814 10.938 12.201 10.938 20.191zm-53.202-56.919c15.921 0 28.874 11.575 28.874 25.804s-12.953 25.805-28.874 25.805c-4.144 0-8.258-.808-12.01-2.345-4.603-6.216-9.932-11.889-15.908-16.92-.628-2.135-.956-4.326-.956-6.539 0-14.23 12.953-25.805 28.874-25.805zm-45.123 38.244-6.222 5.847c-6.161 5.789-15.439 6.654-22.564 2.103-10.938-6.987-25.073-6.987-36.013 0-7.125 4.551-16.403 3.686-22.563-2.103l-6.224-5.848c13.614-9.105 29.834-14.315 46.789-14.315 16.959 0 33.182 5.209 46.797 14.316zm-64.032-132.87v105.063c-6.478 1.134-12.806 2.904-18.911 5.296v-110.359zm-43.367-132.641c5.214 0 9.456 4.241 9.456 9.455v240.943c-1.984 1.197-3.937 2.457-5.848 3.798-4.695 3.297-9.052 6.968-13.064 10.95v-255.691c0-5.213 4.242-9.455 9.456-9.455zm-73.864 295.16c-.042 0-.077-.034-.077-.077v-14.66c0-.043.035-.077.077-.077h49.408v3.851c-2.132 3.524-4.042 7.192-5.732 10.981-17.063-.011-43.676-.018-43.676-.018zm55.402 15c19.83 0 38.875 7.145 53.855 19.544-14.472 8.007-31.835 9.657-47.667 4.277-18.447-6.267-38.28-5.083-55.848 3.329l-20.018 9.584c15.225-22.243 40.793-36.734 69.678-36.734zm-80.328 58.465 24.236-11.604c-5.122 7.65-8.686 16.38-10.334 25.735h-17.146c.678-4.862 1.781-9.58 3.244-14.131zm343.924 84.351c-6.212 9.261-16.578 14.79-27.729 14.79h-315.602c-11.151 0-21.517-5.529-27.729-14.79l-7.785-11.606h386.629z"/></g></g></svg>