<?xml version="1.0" encoding="iso-8859-1"?>
<!-- Generator: Adobe Illustrator 19.0.0, SVG Export Plug-In . SVG Version: 6.00 Build 0)  -->
<svg version="1.1" id="Capa_1" xmlns="http://www.w3.org/2000/svg" xmlns:xlink="http://www.w3.org/1999/xlink" x="0px" y="0px"
	 viewBox="0 0 511.994 511.994" style="enable-background:new 0 0 511.994 511.994;" xml:space="preserve">
<path style="fill:#F0DBC2;" d="M313.117,33.508L313.117,33.508c15.419,16.495,37.217,25.528,59.786,24.765l0,0
	c43.161-1.466,79.336,32.34,80.802,75.509c0.061,1.761,0.061,3.532,0,5.293l0,0c-0.764,22.569,8.269,44.367,24.765,59.786l0,0
	c31.559,29.494,33.234,78.98,3.74,110.539c-1.206,1.284-2.456,2.534-3.74,3.74l0,0c-16.495,15.419-25.528,37.217-24.765,59.786l0,0
	c1.466,43.161-32.34,79.336-75.509,80.802c-1.761,0.061-3.532,0.061-5.293,0l0,0c-22.569-0.764-44.367,8.269-59.786,24.765l0,0
	c-29.494,31.559-78.98,33.234-110.539,3.74c-1.284-1.206-2.534-2.456-3.74-3.74l0,0c-15.419-16.495-37.217-25.528-59.786-24.765l0,0
	c-43.161,1.466-79.336-32.34-80.802-75.509c-0.061-1.761-0.061-3.532,0-5.293l0,0c0.764-22.57-8.269-44.367-24.765-59.786l0,0
	c-31.559-29.494-33.234-78.98-3.74-110.539c1.206-1.284,2.456-2.534,3.74-3.74l0,0c16.495-15.419,25.528-37.217,24.765-59.786l0,0
	c-1.466-43.161,32.34-79.336,75.509-80.802c1.761-0.061,3.532-0.061,5.293,0l0,0c22.569,0.764,44.367-8.269,59.786-24.765l0,0
	c29.494-31.559,78.98-33.234,110.539-3.74C310.67,30.966,311.911,32.215,313.117,33.508z"/>
<g>
	<path style="fill:#D68033;" d="M475.364,121.504c-9.623,0-18.569,4.955-23.671,13.12l-35.186,56.298l17.354,17.354l56.298-35.186
		c13.077-8.174,17.051-25.39,8.877-38.466C493.933,126.459,484.987,121.504,475.364,121.504z"/>
	<path style="fill:#D68033;" d="M134.6,451.716c-13.077,8.174-17.051,25.39-8.877,38.466c8.174,13.077,25.39,17.051,38.466,8.877
		c3.592-2.247,6.629-5.284,8.877-8.877l35.186-56.298l-17.354-17.354L134.6,451.716z"/>
</g>
<rect x="152.853" y="263.309" transform="matrix(-0.7071 0.7071 -0.7071 -0.7071 754.1666 312.4052)" style="fill:#F09E3E;" width="319.059" height="98.173"/>
<rect x="172.376" y="310.443" transform="matrix(-0.7071 0.7071 -0.7071 -0.7071 801.3004 331.9293)" style="fill:#F09235;" width="319.059" height="42.952"/>
<g>
	
		<rect x="201.711" y="152.146" transform="matrix(-0.7071 0.7071 -0.7071 -0.7071 507.9551 210.4683)" style="fill:#E6CCAF;" width="17.354" height="116.577"/>
	
		<rect x="255.976" y="134.957" transform="matrix(-0.7071 0.7071 -0.7071 -0.7071 577.5888 116.5632)" style="fill:#E6CCAF;" width="17.354" height="85.895"/>
	
		<rect x="169.204" y="221.72" transform="matrix(-0.7071 0.7071 -0.7071 -0.7071 490.8104 326.0352)" style="fill:#E6CCAF;" width="17.354" height="85.895"/>
	
		<rect x="138.768" y="296.511" transform="matrix(-0.7071 0.7071 -0.7071 -0.7071 478.7245 443.8136)" style="fill:#E6CCAF;" width="17.354" height="49.087"/>
	
		<rect x="312.381" y="122.964" transform="matrix(-0.7071 0.7071 -0.7071 -0.7071 652.384 24.7893)" style="fill:#E6CCAF;" width="17.354" height="49.087"/>
</g>
<path d="M438.902,107.733l15.801-7.167c-14.482-32.071-46.926-52.211-82.095-50.961c-20.07,0.72-39.473-7.315-53.157-22.023
	C286.695-7.474,231.724-9.34,196.668,23.417c-1.44,1.345-2.829,2.733-4.165,4.165c-13.719,14.656-33.095,22.682-53.157,22.014
	c-47.959-1.631-88.152,35.932-89.775,83.891c-0.069,1.961-0.069,3.922,0,5.892c0.677,20.062-7.35,39.438-22.014,53.148
	c-35.056,32.757-36.913,87.735-4.156,122.791c1.336,1.432,2.725,2.82,4.156,4.156c14.665,13.71,22.691,33.086,22.014,53.148
	c-1.258,35.169,18.882,67.613,50.961,82.087l7.176-15.793c-25.667-11.601-41.772-37.555-40.783-65.704
	c0.85-25.077-9.181-49.295-27.507-66.424c-28.053-26.214-29.546-70.207-3.332-98.261c1.076-1.145,2.187-2.256,3.332-3.332
	c18.326-17.129,28.357-41.347,27.507-66.416c-1.302-38.379,28.756-70.546,67.136-71.847c1.571-0.052,3.141-0.052,4.712,0
	c25.069,0.842,49.287-9.189,66.416-27.515c13.094-14.135,31.516-22.127,50.788-22.04l0,0c19.272-0.087,37.703,7.914,50.797,22.058
	c17.12,18.335,41.338,28.375,66.415,27.507C401.338,65.944,427.301,82.057,438.902,107.733z"/>
<path d="M445.037,373.222c1.293,38.379-28.765,70.546-67.144,71.839c-1.571,0.052-3.132,0.052-4.703,0
	c-25.069-0.85-49.287,9.189-66.416,27.516c-24.93,26.552-66.086,29.442-94.478,6.629l-10.925,13.484
	c35.481,28.513,86.928,24.904,118.08-8.278c13.693-14.691,33.086-22.717,53.157-22.014c47.959,1.623,88.152-35.941,89.775-83.9
	c0.069-1.961,0.069-3.922,0-5.874c-0.677-20.062,7.35-39.438,22.014-53.148c33.173-31.16,36.774-82.599,8.269-118.08l-13.484,10.933
	c22.804,28.392,19.914,69.548-6.638,94.469C454.217,323.927,444.186,348.145,445.037,373.222z"/>
<path d="M475.364,112.827c-12.625-0.026-24.357,6.473-31.03,17.19l-29.407,47.022l-18.318-18.318c-3.384-3.384-8.885-3.384-12.27,0
	L158.732,384.329c-3.384,3.384-3.384,8.885,0,12.27l18.283,18.352l-47.048,29.407c-17.138,10.716-22.335,33.295-11.619,50.423
	c10.716,17.138,33.295,22.335,50.423,11.619c4.703-2.942,8.677-6.916,11.619-11.619l29.442-47.022l18.318,18.318
	c3.384,3.384,8.885,3.384,12.27,0l225.608-225.608c3.384-3.384,3.384-8.885,0-12.27l-18.283-18.344l47.048-29.407
	c17.138-10.708,22.344-33.286,11.636-50.423C499.738,119.309,487.989,112.81,475.364,112.827z M165.734,485.583
	c-5.666,8.99-17.545,11.671-26.535,6.005c-8.99-5.666-11.671-17.545-6.005-26.535c1.527-2.421,3.584-4.477,6.005-6.005
	l50.441-31.524l7.593,7.593L165.734,485.583z M234.284,447.647l-57.148-57.148L390.474,177.16l57.148,57.148L234.284,447.647z
	 M485.559,165.758l-50.441,31.524l-7.593-7.593l31.498-50.467c5.666-8.99,17.545-11.671,26.535-6.005
	c8.99,5.666,11.671,17.545,6.005,26.535C490.037,162.174,487.98,164.222,485.559,165.758z"/>
<rect x="201.711" y="152.146" transform="matrix(-0.7071 0.7071 -0.7071 -0.7071 507.9551 210.4683)" width="17.354" height="116.577"/>
<rect x="255.976" y="134.957" transform="matrix(-0.7071 0.7071 -0.7071 -0.7071 577.5888 116.5632)" width="17.354" height="85.895"/>
<rect x="169.204" y="221.72" transform="matrix(-0.7071 0.7071 -0.7071 -0.7071 490.8104 326.0352)" width="17.354" height="85.895"/>
<rect x="138.768" y="296.511" transform="matrix(-0.7071 0.7071 -0.7071 -0.7071 478.7245 443.8136)" width="17.354" height="49.087"/>
<rect x="312.381" y="122.964" transform="matrix(-0.7071 0.7071 -0.7071 -0.7071 652.384 24.7893)" width="17.354" height="49.087"/>
<g>
</g>
<g>
</g>
<g>
</g>
<g>
</g>
<g>
</g>
<g>
</g>
<g>
</g>
<g>
</g>
<g>
</g>
<g>
</g>
<g>
</g>
<g>
</g>
<g>
</g>
<g>
</g>
<g>
</g>
</svg>
