<svg height="512" viewBox="0 0 256 256" width="512" xmlns="http://www.w3.org/2000/svg"><g id="Layer_1"><g><g><path d="m238.395 180.635-11.973 14.947c-.872 1.088-2.528 1.088-3.399-.001l-11.952-14.935c.849-2.95 1.927-5.737 3.114-8.306 1.568-3.386 3.309-6.368 4.931-8.839 2.645-4.05 8.589-4.05 11.245 0 1.611 2.471 3.353 5.454 4.921 8.839 1.186 2.558 2.264 5.345 3.113 8.295z" fill="#13bf6d"/><path d="m238.395 180.635-11.973 14.947c-.872 1.088-2.528 1.088-3.399-.001l-11.952-14.935c.849-2.95 1.927-5.737 3.114-8.306 3.65 4.559 1.497 1.869 10.538 13.172l10.559-13.172c1.186 2.558 2.264 5.345 3.113 8.295z" fill="#139c6e"/><path d="m228.075 224.191c-2.515.435-5.138.381-7.805-.229-2.166-10.451-10.265-19.464-19.965-24.167-.512-2.765-.719-5.672-.599-8.6.206-5.135 1.415-10.365 3.743-15.066.714-1.443 2.668-1.684 3.673-.426l3.949 4.943 11.952 14.935c.871 1.089 2.527 1.089 3.399.001l11.973-14.947 3.953-4.932c.997-1.244 2.951-1.032 3.659.397 9.629 19.446.011 45.073-17.932 48.091z" fill="#f2e1d7"/><path d="m228.075 224.191c-2.515.435-5.138.381-7.805-.229-2.166-10.451-10.265-19.464-19.965-24.167-.512-2.765-.719-5.672-.599-8.6 14.99 5.617 26.159 19.051 28.369 32.996z" fill="#d6c0b3"/><path d="m192.393 226.256-19.064 1.668c-1.992-2.341-3.712-4.79-5.182-7.196-1.949-3.179-3.462-6.292-4.616-9.003-1.905-4.452 1.383-9.395 6.227-9.362 2.95.022 6.412.229 10.091.806 2.787.425 5.704 1.067 8.633 2.003l5.796 18.256c.423 1.329-.496 2.707-1.885 2.828z" fill="#13bf6d"/><path d="m192.393 226.256-19.064 1.668c-1.992-2.341-3.712-4.79-5.182-7.196 5.803-.503 2.371-.204 16.808-1.47-4.386-13.836-3.344-10.553-5.106-16.09 2.787.425 5.704 1.067 8.633 2.003l5.796 18.256c.423 1.33-.496 2.708-1.885 2.829z" fill="#139c6e"/><path d="m217.363 240.857c-10.944 16.431-40.42 11.015-52.025-9.121-.797-1.382.112-3.126 1.701-3.264l6.29-.547 19.064-1.668c1.389-.122 2.307-1.499 1.885-2.828l-5.796-18.256-1.913-6.013c-.486-1.526.784-3.029 2.372-2.824 3.774.489 7.633 1.632 11.363 3.459 9.699 4.703 17.799 13.716 19.965 24.167 1.242 5.976.382 11.953-2.906 16.895z" fill="#f2e1d7"/><path d="m75.07 26.264c0 10.05-11.52 18.43-25.99 20.39-15.1 2.02-29.49-3.28-35.69-11.47-2.06-2.7-3.22-5.73-3.22-8.92 0-11.49 15.11-20.82 32.45-20.82 17.34 0 32.45 9.33 32.45 20.82z" fill="#b34f33"/><path d="m56.31 83.304c-8.14 8.14-25.42 4.04-37.68-8.22-11.04-11.04-15.45-26.15-10.28-34.99 1.209-2.116 2.998-3.805 5.04-4.91 6.2 8.19 20.59 13.49 35.69 11.47 1.87 1.98 3.52 4.07 4.96 6.23 7.4 11.1 8.89 23.79 2.27 30.42z" fill="#b34f33"/><path d="m54.04 52.884c-16.1 3.56-36.06-.94-45.69-12.79 1.209-2.116 2.998-3.805 5.04-4.91 6.2 8.19 20.59 13.49 35.69 11.47 1.87 1.98 3.52 4.07 4.96 6.23z" fill="#823a26"/><path d="m187.95 97.979v12.355c0 3.591-2.911 6.503-6.503 6.503h-106.906c-3.591 0-6.503-2.911-6.503-6.503v-12.355c0-10.774 8.734-19.508 19.508-19.508h80.895c10.775-.001 19.509 8.733 19.509 19.508z" fill="#b34f33"/><path d="m175.624 107.019c-1.37 0-2.5-1.13-2.5-2.5v-6.54c0-2.58-2.1-4.68-4.68-4.69-1.381 0-2.5-1.12-2.5-2.5 0-1.37 1.119-2.5 2.5-2.5 5.33.01 9.68 4.35 9.68 9.69l.01 6.54c0 1.369-1.13 2.5-2.51 2.5z" fill="#ffcbc3"/><path d="m177.086 116.835v25.396c0 31.299-18.225 47.429-35.045 58.555-8.712 5.779-20.036 5.779-28.748.012-16.795-11.115-35.045-27.257-35.045-58.568v-25.396h98.838z" fill="#f0c020"/><path d="m133.158 191.889c-.762-1.151-.445-2.703.706-3.464 1.002-.663 1.999-1.337 2.986-2.027 1.131-.789 2.69-.514 3.48.62.79 1.132.513 2.691-.619 3.481-1.022.713-2.053 1.411-3.09 2.096-1.15.763-2.702.446-3.463-.706zm11.152-7.906c-.903-1.044-.789-2.623.256-3.526 12.074-10.441 17.698-22.587 17.698-38.226v-10.217c0-1.381 1.119-2.5 2.5-2.5s2.5 1.119 2.5 2.5v10.217c0 17.198-6.174 30.546-19.429 42.008-1.043.902-2.622.789-3.525-.256z" fill="#f8e5b0"/><path d="m78.249 116.835h98.837v8.626h-98.837z" fill="#cf941c"/><path d="m137.098 78.47h-18.208v-15.106c0-6.898 2.74-13.514 7.618-18.392l2.592-2.592c3.555-3.555 9.319-3.556 12.875 0 3.556 3.555 3.556 9.32 0 12.876l-4.877 4.877z" fill="#f0c020"/><path d="m102.224 102.019c-1.38 0-2.5-1.12-2.5-2.5v-.92c0-1.38 1.12-2.51 2.5-2.51s2.5 1.13 2.5 2.51v.92c0 1.379-1.12 2.5-2.5 2.5z" fill="#823a26"/><path d="m127.664 105.408c-1.37 0-2.49-1.12-2.49-2.5v-.93c0-1.38 1.12-2.5 2.49-2.5 1.38 0 2.5 1.12 2.5 2.5v.93c0 1.381-1.12 2.5-2.5 2.5z" fill="#823a26"/><path d="m150.004 97.188c-1.38 0-2.5-1.12-2.5-2.5v-.92c0-1.38 1.12-2.5 2.5-2.5s2.5 1.12 2.5 2.5v.92c0 1.38-1.12 2.5-2.5 2.5z" fill="#823a26"/><g fill="#cf941c"><path d="m100.884 145.249c-1.38 0-2.5-1.12-2.5-2.5v-1.03c0-1.38 1.12-2.5 2.5-2.5s2.5 1.12 2.5 2.5v1.03c0 1.379-1.12 2.5-2.5 2.5z"/><path d="m140.934 141.309c-1.38 0-2.5-1.12-2.5-2.5v-1.03c0-1.38 1.12-2.5 2.5-2.5s2.5 1.12 2.5 2.5v1.03c0 1.38-1.12 2.5-2.5 2.5z"/><path d="m117.524 161.888c-1.381 0-2.5-1.13-2.5-2.51v-1.02c0-1.38 1.119-2.5 2.5-2.5 1.369 0 2.5 1.12 2.5 2.5v1.02c0 1.38-1.13 2.51-2.5 2.51z"/><path d="m129.664 180.939c-1.38 0-2.5-1.12-2.5-2.5v-1.03c0-1.38 1.12-2.5 2.5-2.5s2.5 1.12 2.5 2.5v1.03c0 1.379-1.12 2.5-2.5 2.5z"/></g><g><path d="m15.91 190.651c-7.455-3.537-10.631-12.447-7.094-19.902s12.447-10.631 19.902-7.094c5.341 2.534 14.234 15.242 18.846 22.244 1.412 2.144.055 5.015-2.499 5.278-8.34.855-23.812 2.008-29.155-.526z" fill="#f2e1d7"/></g><g><path d="m32.779 241.302c-7.23 3.976-16.314 1.337-20.29-5.893s-1.337-16.314 5.893-20.29c5.181-2.849 20.689-2.623 29.066-2.266 2.565.109 4.099 2.89 2.817 5.115-4.185 7.264-12.305 20.485-17.486 23.334z" fill="#f2e1d7"/></g><g><path d="m88.953 236.404c-1.093 8.178-8.609 13.922-16.787 12.829s-13.922-8.609-12.829-16.787c.783-5.86 10.172-18.206 15.431-24.735 1.611-1.999 4.759-1.583 5.788.769 3.361 7.68 9.181 22.063 8.397 27.924z" fill="#f2e1d7"/></g><path d="m223.037 46.242c-4.53 1.35-8.04 5.06-9.09 9.71-2.27.68-4.8.74-7.14.11-5.68-1.48-9.86-6.64-9.86-12.78 0-7.29 5.92-13.21 13.22-13.21 5.84 0 10.79 3.79 12.54 9.04.76 2.3.88 4.75.33 7.13z" fill="#f0c020"/><path d="m223.037 46.242c-4.53 1.35-8.04 5.06-9.09 9.71-2.27.68-4.8.74-7.14.11 1.19-8.45 7.61-15.24 15.9-16.95.76 2.3.88 4.75.33 7.13z" fill="#cf941c"/><path d="m240.037 58.912c0 7.3-5.92 13.21-13.22 13.21-8.684 0-14.802-8.187-12.87-16.17 1.05-4.65 4.56-8.36 9.09-9.71 8.421-2.526 17 3.795 17 12.67z" fill="#f0c020"/><circle cx="235.403" cy="19.845" fill="#f0c020" r="13.215"/></g><path d="m36.634 20.338c1.403 0 2.573-1.187 2.5-2.63-.08-1.37-1.21-2.44-2.63-2.37-1.405.084-2.442 1.258-2.36 2.63.06 1.33 1.16 2.37 2.49 2.37z"/><path d="m16.864 76.849c11.918 11.875 31.186 18.243 41.21 8.22 9.21-9.21 4.38-25.773-4.273-36.76 11.85-2.732 23.773-10.536 23.773-22.04 0-13.216-16.46-23.32-34.95-23.32-18.201 0-34.93 9.885-34.95 23.32-.008 2.817.777 5.619 2.269 8.225-10.876 8.682-6.913 28.47 6.921 42.355zm40.959-2.257c-4.004-8.718-12.868-18.692-19.935-25.24.006.001.012.001.019.001 3.041.28 6.56.335 10.197-.065 5.92 6.643 11.011 16.58 9.719 25.304zm-42.557-41.08c14.151 5.184 41.152 5.046 54.729-.008-10.95 14.764-43.927 14.61-54.729.008zm11.797-12.214c1.376-.209 2.295-1.496 2.091-2.85-.2-1.33-1.5-2.3-2.851-2.09-4.414.674-8.121 1.577-11.067 2.679 5.601-7.572 17.521-11.098 27.417-11.098 10.319 0 21.964 3.82 27.351 11.103-6.965-2.54-15.873-3.535-23.281-3.793-1.39-.04-2.54 1.03-2.59 2.42-.04 1.37 1.04 2.53 2.42 2.58 6.966.238 24.108 2.152 26 6.03-3.938 7.539-54.139 8.314-59.87-.01 1.398-2.486 10.68-4.425 14.38-4.971zm-14.139 17.201c3.968 4.232 9.446 7.149 14.938 8.869 16.201 12.593 27.695 29.94 26.668 34.151-8.314 2.367-42.905-31.861-42.349-42.353.232-.23.503-.466.743-.667zm34.682 46.327c-18.108 2.689-41.411-20.591-38.712-38.701 6.178 13.43 25.201 32.497 38.712 38.701z"/><path d="m248.244 174.988c-1.498-3.034-5.698-3.537-7.851-.85l-1.082 1.35c-1.613-4.269-3.9-8.837-6.858-13.35-3.639-5.575-11.816-5.571-15.43 0-2.704 4.095-5.072 8.599-6.869 13.351l-1.081-1.351c-2.129-2.667-6.341-2.217-7.87.88-2.968 6.023-4.451 13.23-3.915 20.794-2.625-.947-5.31-1.608-8.026-1.954-.01 0-.01 0-.01 0-3.24-.507-6.146 2.688-5.07 6.07l.516 1.623c-4.513-1.032-9.539-1.638-14.846-1.682-6.951 0-11.17 6.872-8.619 12.84 1.986 4.665 4.402 9.087 7.292 13.121l-1.702.149c-3.515.33-5.331 4.101-3.65 7.01 12.263 21.308 44.041 27.605 56.271 9.26v-.01c2.772-4.164 4.243-9.356 3.762-15.33 22.531 1.557 36.425-28.928 25.038-51.921zm-27.04-10.119c1.662-2.536 5.372-2.556 7.07 0 3.112 4.789 5.629 9.8 7.341 15.235l-10.891 13.595-10.871-13.588c1.696-5.4 4.238-10.489 7.351-15.242zm-55.36 45.902c-1.226-2.877.879-5.843 3.768-5.911 4.345-.102 11.248.684 16.882 2.332l5.281 16.607-17.346 1.516c-3.563-4.398-6.367-9.339-8.585-14.544zm49.45 28.687c-.01.01-.01.01-.01.01-9.759 14.626-36.591 9.724-47.53-8.55l24.86-2.17c2.945-.267 4.957-3.145 4.05-6.07-8.206-25.831-4.561-14.358-7.561-23.8 21.077 3.055 35.894 25.929 26.191 40.58zm7.03-17.66c-2.677-10.071-10.384-18.723-19.761-23.66-1.004-6.767-.084-14.162 2.921-20.48 5.97 7.464 9.675 12.096 15.59 19.49 1.828 2.289 5.381 2.377 7.3 0l15.61-19.49c9.808 20.669-3.332 46.805-21.66 44.14z"/><path d="m65.534 97.979v12.36c0 4.96 4.04 9 9.01 9h1.2v22.89c0 9.01 1.5 17.41 4.46 24.98.481 1.249 1.888 1.928 3.229 1.42 1.29-.51 1.92-1.96 1.42-3.24-2.76-7.08-4.1-14.66-4.109-23.16v-22.89h93.84v22.89c-.019 26.171-12.658 42.415-33.92 56.47-7.849 5.213-18.09 5.239-25.99.02-5.45-3.61-13.46-9.3-19.979-16.99-.851-1.01-2.511-1.15-3.521-.29-1.056.891-1.176 2.489-.29 3.52 6.93 8.18 15.32 14.15 21.03 17.93 9.44 6.234 21.846 6.389 31.51-.02 22.57-14.928 36.196-32.699 36.16-60.64v-22.89h1.86c4.96 0 9-4.04 9.01-9v-12.36c-.01-12.13-9.88-22.01-22.01-22.01h-28.851v-14.8l4.15-4.15c4.523-4.524 4.549-11.839 0-16.41-4.439-4.438-11.782-4.627-16.41 0l-2.59 2.59c-5.378 5.399-8.351 12.618-8.351 20.16v12.61h-28.85c-12.128-.001-22.008 9.88-22.008 22.01zm55.86-34.621c0-6.28 2.44-12.18 6.881-16.62l2.59-2.59c2.583-2.583 6.759-2.581 9.34 0 2.566 2.545 2.598 6.742 0 9.34l-4.88 4.87c-.46.47-.73 1.11-.73 1.77v15.84h-13.2v-12.61zm-33.85 17.61h80.9c9.359.02 16.989 7.65 17.01 17.01v12.36c-.01 2.2-1.8 4-4.01 4h-106.9c-2.21 0-4-1.8-4.01-4v-12.36c.02-9.359 7.65-16.99 17.01-17.01z"/><path d="m88.244 177.388c1.18-.71 1.55-2.25.84-3.43-.751-1.242-2.319-1.534-3.43-.85-1.181.71-1.561 2.25-.851 3.43.763 1.259 2.344 1.525 3.441.85z"/><path d="m45.324 193.658c4.429-.466 6.763-5.394 4.33-9.14-4.006-6.061-13.398-19.91-19.87-23.12-8.719-4.155-19.127-.38-23.23 8.28-4.149 8.755-.357 19.139 8.28 23.23 6.533 2.976 23.318 1.485 30.49.75zm-34.25-21.84c2.794-5.902 10.042-8.961 16.569-5.91 4.852 2.11 14.912 16.937 17.83 21.36.386.594.003 1.358-.67 1.42-5.275.544-23.117 2.127-27.819-.3-5.957-2.812-8.959-10.126-5.91-16.57z"/><path d="m33.984 243.488c6.254-3.574 14.833-18.002 18.449-24.27 2.203-3.85-.413-8.664-4.88-8.86-7.107-.323-24.108-.797-30.38 2.57-8.342 4.59-11.564 15.12-6.88 23.69 4.66 8.453 15.314 11.498 23.691 6.87zm-14.4-26.179c4.677-2.689 22.354-2.185 27.76-1.96.659.012 1.104.748.75 1.38-2.627 4.561-11.831 20.036-16.52 22.38-6.166 3.381-13.657.986-16.891-4.9-3.364-6.079-1.037-13.64 4.901-16.9z"/><path d="m72.813 206.148c-4.531 5.616-14.879 18.858-15.96 25.97-1.275 9.341 5.287 18.303 14.98 19.59 9.254 1.321 18.252-5.219 19.593-14.918.959-6.939-5.771-22.878-8.583-29.312-1.774-4.06-7.242-4.819-10.03-1.33zm13.661 29.94c-.899 6.69-7.13 11.57-13.979 10.67-6.878-.917-11.647-7.371-10.681-13.97.524-5.282 11.598-19.408 14.9-23.51.432-.522 1.251-.462 1.55.21 2.348 5.339 8.88 20.846 8.21 26.6z"/><path d="m211.106 58.965c.031 8.634 7.067 15.654 15.707 15.654 8.671 0 15.721-7.05 15.721-15.71 0-8.976-7.58-16.226-16.662-15.686-.02-8.7-7.08-15.641-15.708-15.654-8.66.01-15.72 7.05-15.72 15.71.013 8.955 7.495 16.226 16.662 15.686zm15.707-10.777c5.9.01 10.711 4.82 10.721 10.72-.01 5.9-4.82 10.7-10.721 10.71-5.89-.01-10.699-4.81-10.71-10.71.001-5.921 4.791-10.72 10.71-10.72zm-16.649-15.62c.013-.065.01-.066.01 0 6.395 0 11.315 5.567 10.64 11.81-4.292 1.78-7.481 5.359-8.869 9.47-6.564 1.094-12.5-3.964-12.5-10.57.009-5.89 4.819-10.699 10.719-10.71z"/><path d="m235.404 4.128c-8.67 0-15.721 7.05-15.721 15.72 0 8.66 7.051 15.71 15.721 15.71 8.659 0 15.71-7.05 15.71-15.71 0-8.67-7.051-15.72-15.71-15.72zm0 26.431c-5.9-.01-10.71-4.81-10.721-10.71.011-5.9 4.82-10.71 10.721-10.72 5.899.01 10.699 4.82 10.71 10.72-.01 5.9-4.81 10.699-10.71 10.71z"/></g></g></svg>