<svg id="Capa_1" enable-background="new 0 0 512 512" height="512" viewBox="0 0 512 512" width="512" xmlns="http://www.w3.org/2000/svg"><g><path d="m351 225.667h-59.593c-35.759 0-64.852-29.092-64.852-64.852v-59.593h59.593c35.759 0 64.852 29.092 64.852 64.852z" fill="#7fe680"/><g><path d="m415.223 236.334h-93.223v-93.224c0-53.363 43.414-96.776 96.776-96.776h93.224v93.223c0 53.362-43.414 96.777-96.777 96.777z" fill="#0dca71"/><g><path d="m319.157 163.257h121.84v30h-121.84z" fill="#06995e" transform="matrix(.707 -.707 .707 .707 -14.725 320.965)"/></g></g><g><g><path d="m438.111 260.378h-211.556l-13.222 102.644 13.222 102.644c58.494 0 113.719-9.862 155.501-27.769 45.82-19.637 71.055-47.302 71.055-77.898v-84.622c0-8.283-6.716-14.999-15-14.999z" fill="#ae6f41"/><path d="m15 260.378c-8.284 0-15 6.716-15 15v84.622c0 30.596 25.234 58.261 71.054 77.898 41.782 17.907 97.007 27.769 155.501 27.769v-205.289z" fill="#c57a44"/></g><g><path d="m382.056 191.435c-41.782-17.907-97.007-27.769-155.501-27.769l-23.889 113.667 23.889 97.667c58.494 0 113.719-9.862 155.501-27.769 45.82-19.637 71.055-47.302 71.055-77.898s-25.234-58.261-71.055-77.898z" fill="#d88a55"/><path d="m71.054 191.435c-45.82 19.637-71.054 47.302-71.054 77.898s25.234 58.261 71.054 77.898c41.782 17.907 97.007 27.769 155.501 27.769v-211.333c-58.494 0-113.719 9.861-155.501 27.768z" fill="#ea9b58"/></g><g><path d="m104.389 238.334h30v30h-30z" fill="#c57a44"/><path d="m318.722 238.334h30v30h-30z" fill="#ae6f41"/></g><path d="m196.555 217h30v30h-30z" fill="#c57a44"/><path d="m226.555 281h30v30h-30z" fill="#ae6f41"/></g></g></svg>