<svg height="512pt" viewBox="-81 0 512 512" width="512pt" xmlns="http://www.w3.org/2000/svg"><path d="m343.136719 96.359375v319.28125c0 25.738281-20.871094 46.609375-46.621094 46.609375h-242.398437c-25.75 0-46.621094-20.871094-46.621094-46.609375v-319.28125c0-25.738281 20.871094-46.609375 46.621094-46.609375h242.398437c25.75 0 46.621094 20.871094 46.621094 46.609375zm0 0" fill="#23e5ed"/><path d="m343.136719 96.359375v319.28125c0 25.738281-20.871094 46.609375-46.621094 46.609375h-31.460937c25.75 0 46.621093-20.871094 46.621093-46.609375v-319.28125c0-25.738281-20.871093-46.609375-46.621093-46.609375h31.460937c25.75 0 46.621094 20.871094 46.621094 46.609375zm0 0" fill="#1ebfc7"/><path d="m343.136719 163.320312v252.320313c0 25.738281-20.871094 46.609375-46.621094 46.609375h-242.398437c-25.75 0-46.621094-20.871094-46.621094-46.609375v-208.011719c53.460937-43.308594 125.710937-69.878906 205.230468-69.878906 34.679688 0 67.988282 5.058594 98.949219 14.359375 10.78125 3.230469 21.28125 6.980469 31.460938 11.210937zm0 0" fill="#6378cc"/><path d="m343.136719 163.320312v252.320313c0 25.738281-20.871094 46.609375-46.621094 46.609375h-31.460937c25.75 0 46.621093-20.871094 46.621093-46.609375v-263.53125c10.78125 3.230469 21.28125 6.980469 31.460938 11.210937zm0 0" fill="#2f44b4"/><path d="m90.691406 365.0625c1.351563 9.632812-.179687 19.15625-5.070312 27.453125-13.652344 23.160156-48.292969 28.148437-78.125 11.578125v-108.675781c5.375-5.390625 12.757812-11.210938 22.605468-16.027344 3.886719-1.90625 8.296876 1.417969 7.574219 5.683594l-3.980469 23.394531c7.539063 1.730469 15.136719 4.695312 22.417969 8.984375 6.863281 4.050781 12.847657 8.917969 17.839844 14.296875l18.226563-14.554688c3.378906-2.699218 8.417968-.453124 8.640624 3.871094 1.152344 22.753906-6.652343 38.273438-10.128906 43.996094zm0 0" fill="#ffbd48"/><path d="m323.695312 54.976562h-296.757812c-10.734375 0-19.4375-8.703124-19.4375-19.4375v-18.097656c0-5.492187 4.449219-9.941406 9.941406-9.941406h315.75c5.492188 0 9.941406 4.449219 9.941406 9.941406v18.097656c0 10.734376-8.703124 19.4375-19.4375 19.4375zm0 0" fill="#d5eff7"/><path d="m26.9375 457.023438h296.757812c10.734376 0 19.4375 8.703124 19.4375 19.4375v18.097656c0 5.492187-4.453124 9.941406-9.941406 9.941406h-315.75c-5.492187 0-9.941406-4.449219-9.941406-9.941406v-18.097656c0-10.734376 8.703125-19.4375 19.4375-19.4375zm0 0" fill="#d5eff7"/><path d="m286.457031 218.277344h-29.191406c-10.414063 0-18.859375-8.445313-18.859375-18.863282v-93.796874c0-5.957032 4.832031-10.789063 10.792969-10.789063h23.207031c13.71875 0 24.84375 11.121094 24.84375 24.84375v87.8125c0 5.960937-4.832031 10.792969-10.792969 10.792969zm0 0" fill="#fff0d0"/><path d="m201.085938 172.261719c0 43.613281-35.355469 78.96875-78.96875 78.96875-43.613282 0-78.96875-35.355469-78.96875-78.96875s35.355468-78.972657 78.96875-78.972657c43.613281 0 78.96875 35.359376 78.96875 78.972657zm0 0" fill="#ffbd48"/><path d="m139.476562 127.640625c-6.847656 6.847656-10.722656 15.035156-10.96875 21.816406-9.679687-1.445312-22.660156 3.800781-33.25 14.390625-14.449218 14.449219-18.96875 33.359375-10.089843 42.238282 8.878906 8.878906 27.792969 4.363281 42.238281-10.085938 10.59375-10.59375 15.835938-23.574219 14.394531-33.253906 6.78125-.246094 14.964844-4.117188 21.816407-10.96875zm0 0" fill="#fff0d0"/><path d="m276.054688 395.855469h-137.195313c-8.328125 0-15.078125-6.75-15.078125-15.078125v-18.710938c0-8.328125 6.75-15.078125 15.078125-15.078125h137.195313c8.328124 0 15.078124 6.75 15.078124 15.078125v18.710938c0 8.328125-6.75 15.078125-15.078124 15.078125zm0 0" fill="#23e5ed"/><path d="m343.132812 231.828125c-4.144531 0-7.5 3.359375-7.5 7.5v89.339844c0 4.144531 3.355469 7.5 7.5 7.5 4.140626 0 7.5-3.355469 7.5-7.5v-89.339844c0-4.140625-3.359374-7.5-7.5-7.5zm0 0"/><path d="m336.0625 59.453125c8.644531-4.488281 14.570312-13.519531 14.570312-23.914063v-18.097656c0-9.617187-7.824218-17.441406-17.441406-17.441406h-315.75c-9.617187 0-17.441406 7.824219-17.441406 17.441406v18.097656c0 10.394532 5.921875 19.425782 14.566406 23.914063-9.207031 9.902344-14.566406 23.078125-14.566406 36.910156v28.304688c0 4.144531 3.359375 7.5 7.5 7.5s7.5-3.355469 7.5-7.5v-28.304688c0-13.875 7.457031-26.835937 19.457031-33.828125.035157-.019531.0625-.042968.09375-.058594h281.539063c.058594.035157.113281.078126.171875.113282 11.949219 7 19.371093 19.941406 19.371093 33.773437v55.933594c-10.070312-3.792969-20.40625-7.132813-30.882812-9.960937v-22.664063c0-17.835937-14.511719-32.347656-32.34375-32.347656h-23.207031c-10.085938 0-18.292969 8.207031-18.292969 18.292969v25.09375c-10.96875-.546876-22.089844-.597657-33.058594-.148438-14.742187-26.667969-43.160156-44.773438-75.730468-44.773438-47.675782 0-86.46875 38.792969-86.46875 86.472657 0 2.101562.082031 4.1875.230468 6.253906-7.171875 4.367187-14.152344 9.019531-20.878906 13.914063v-35.101563c0-4.140625-3.355469-7.5-7.5-7.5-4.140625 0-7.5 3.359375-7.5 7.5v258.308594c0 14.007812 5.265625 27.058593 14.523438 36.933593-8.621094 4.496094-14.523438 13.515626-14.523438 23.890626v18.097656c0 9.617187 7.824219 17.441406 17.441406 17.441406h315.75c9.617188 0 17.441406-7.824219 17.441406-17.441406v-18.097656c0-10.394532-5.925781-19.429688-14.570312-23.917969 9.207031-9.90625 14.570312-23.09375 14.570312-36.90625v-54.308594c0-4.140625-3.355468-7.5-7.5-7.5-4.144531 0-7.5 3.359375-7.5 7.5v54.308594c0 13.773437-7.375 26.6875-19.25 33.703125-.097656.058594-.183593.125-.277343.183594h-281.632813c-.203125-.152344-.414062-.292969-.636718-.429688-11.730469-7.125-18.753907-19.539062-18.828126-33.230469 9.527344 3.65625 19.238282 5.433594 28.511719 5.433594 20.558594 0 38.980469-8.71875 48.5625-24.972656 5.160157-8.757813 7.335938-18.964844 6.34375-29.667969 4.164063-7.59375 11.011719-23.699219 9.882813-45.972656-.246094-4.816406-3.136719-9.039063-7.539063-11.019532-4.410156-1.984374-9.496093-1.34375-13.269531 1.671876l-13.015625 10.390624c-4.414063-4.027343-9.292969-7.621093-14.566406-10.734374-5.652344-3.332032-11.578125-5.992188-17.6875-7.953126l2.84375-16.714843c.808593-4.769531-1.101563-9.527344-4.980469-12.425781-3.867188-2.890626-8.957031-3.367188-13.285156-1.246094-4.144532 2.027344-8.085938 4.320312-11.808594 6.859375v-68.273438c7.480469-5.90625 15.371094-11.511719 23.558594-16.726562 9.839844 36.929687 43.570312 64.21875 83.558594 64.21875 47.679687 0 86.472656-38.792969 86.472656-86.46875 0-9.390625-1.511719-18.433594-4.292969-26.902344 8.863281-.214844 17.789063-.089844 26.609375.371094v53.683593c0 14.535157 11.824219 26.363282 26.359375 26.363282h29.191406c10.085938 0 18.292969-8.207032 18.292969-18.292969v-49.582031c10.507812 2.984375 20.851562 6.492187 30.882812 10.476562v38.289063c0 4.144531 3.355469 7.5 7.5 7.5 4.140626 0 7.5-3.355469 7.5-7.5v-110.304688c0-13.824219-5.363281-27.003906-14.570312-36.910156zm-.429688 435.105469c0 1.347656-1.097656 2.441406-2.441406 2.441406h-27.351562v-16.90625c0-4.144531-3.359375-7.5-7.5-7.5-4.144532 0-7.5 3.355469-7.5 7.5v16.90625h-34.210938v-16.90625c0-4.144531-3.355468-7.5-7.5-7.5-4.144531 0-7.5 3.355469-7.5 7.5v16.90625h-34.207031v-16.90625c0-4.144531-3.359375-7.5-7.5-7.5-4.144531 0-7.5 3.355469-7.5 7.5v16.90625h-34.207031v-16.90625c0-4.144531-3.359375-7.5-7.5-7.5-4.144532 0-7.5 3.355469-7.5 7.5v16.90625h-34.210938v-16.90625c0-4.144531-3.359375-7.5-7.5-7.5s-7.5 3.355469-7.5 7.5v16.90625h-34.207031v-16.90625c0-4.144531-3.359375-7.5-7.5-7.5-4.144531 0-7.5 3.355469-7.5 7.5v16.90625h-27.355469c-1.347656 0-2.441406-1.09375-2.441406-2.441406v-18.097656c0-6.582032 5.355469-11.9375 11.9375-11.9375h296.757812c6.582032 0 11.9375 5.355468 11.9375 11.9375zm-306.082031-206.421875-3.246093 19.074219c-.667969 3.917968 1.839843 7.679687 5.714843 8.566406 7.039063 1.621094 13.867188 4.359375 20.28125 8.136718 6.082031 3.589844 11.515625 7.941407 16.152344 12.9375 2.671875 2.878907 7.113281 3.210938 10.179687.757813l14.800782-11.820313c-.039063 18.3125-6.300782 30.691407-9.152344 35.375-.898438 1.480469-1.257812 3.226563-1.019531 4.941407 1.160156 8.261719-.257813 16.078125-4.101563 22.601562-10.921875 18.527344-38.738281 23.066407-64.160156 10.828125v-100.90625c4.335938-3.992187 9.207031-7.515625 14.550781-10.492187zm92.566407-44.40625c-39.40625 0-71.46875-32.0625-71.46875-71.46875 0-39.410157 32.0625-71.472657 71.46875-71.472657 39.410156 0 71.46875 32.0625 71.46875 71.472657 0 39.40625-32.058594 71.46875-71.46875 71.46875zm167.632812-36.246094c0 1.816406-1.480469 3.292969-3.292969 3.292969h-29.191406c-6.261719 0-11.359375-5.097656-11.359375-11.363282v-93.796874c0-1.8125 1.480469-3.289063 3.292969-3.289063h23.207031c9.5625 0 17.34375 7.777344 17.34375 17.34375zm-274.75-190.042969c0-1.347656 1.09375-2.441406 2.441406-2.441406h27.355469v16.90625c0 4.144531 3.355469 7.5 7.5 7.5 4.140625 0 7.5-3.355469 7.5-7.5v-16.90625h34.207031v16.90625c0 4.144531 3.355469 7.5 7.5 7.5 4.140625 0 7.5-3.355469 7.5-7.5v-16.90625h34.207032v16.90625c0 4.144531 3.359374 7.5 7.5 7.5 4.144531 0 7.5-3.355469 7.5-7.5v-16.90625h34.210937v16.90625c0 4.144531 3.355469 7.5 7.5 7.5 4.140625 0 7.5-3.355469 7.5-7.5v-16.90625h34.207031v16.90625c0 4.144531 3.355469 7.5 7.5 7.5 4.140625 0 7.5-3.355469 7.5-7.5v-16.90625h34.207032v16.90625c0 4.144531 3.359374 7.5 7.5 7.5 4.144531 0 7.5-3.355469 7.5-7.5v-16.90625h27.355468c1.34375 0 2.4375 1.09375 2.4375 2.441406v18.097656c0 6.582032-5.351562 11.9375-11.9375 11.9375h-296.753906c-6.582031 0-11.9375-5.355468-11.9375-11.9375zm0 0"/><path d="m297.25 246.253906h-50.019531c-4.144531 0-7.5 3.355469-7.5 7.5 0 4.140625 3.355469 7.5 7.5 7.5h50.019531c4.140625 0 7.5-3.359375 7.5-7.5 0-4.144531-3.359375-7.5-7.5-7.5zm0 0"/><path d="m297.25 267.773438h-50.019531c-4.144531 0-7.5 3.359374-7.5 7.5 0 4.140624 3.355469 7.5 7.5 7.5h50.019531c4.140625 0 7.5-3.359376 7.5-7.5 0-4.140626-3.359375-7.5-7.5-7.5zm0 0"/><path d="m304.75 296.792969c0-4.140625-3.359375-7.5-7.5-7.5h-22.171875c-4.140625 0-7.5 3.359375-7.5 7.5 0 4.144531 3.359375 7.5 7.5 7.5h22.171875c4.140625 0 7.5-3.355469 7.5-7.5zm0 0"/><path d="m144.78125 122.335938c-1.40625-1.40625-3.3125-2.199219-5.304688-2.199219-1.988281 0-3.894531.792969-5.300781 2.199219-5.894531 5.894531-10.046875 12.730468-11.972656 19.519531-10.726563.960937-22.523437 6.960937-32.25 16.6875-7.953125 7.953125-13.558594 17.460937-15.78125 26.769531-2.496094 10.457031-.421875 19.960938 5.695313 26.078125 4.542968 4.542969 10.703124 6.726563 17.558593 6.726563 11.230469 0 24.332031-5.859376 35.289063-16.816407 9.726562-9.726562 15.722656-21.523437 16.6875-32.25 6.785156-1.921875 13.625-6.074219 19.519531-11.96875 2.929687-2.929687 2.929687-7.679687 0-10.605469zm-3.257812 32.917968c-2.132813.078125-4.128907 1.0625-5.496094 2.703125-1.363282 1.640625-1.960938 3.789063-1.644532 5.898438.941407 6.308593-2.492187 17.054687-12.277343 26.839843-11.941407 11.9375-26.546875 15.171876-31.632813 10.085938-2.347656-2.34375-2.972656-6.714844-1.714844-11.984375 1.566407-6.550781 5.867188-13.710937 11.800782-19.644531 8.757812-8.757813 18.285156-12.425782 24.710937-12.425782.753907 0 1.464844.050782 2.128907.148438 2.113281.3125 4.257812-.285156 5.898437-1.648438 1.644531-1.363281 2.625-3.363281 2.707031-5.496093.097656-2.765625 1.257813-6.714844 4.011719-10.945313l12.457031 12.457032c-4.230468 2.75-8.183594 3.910156-10.949218 4.011718zm0 0"/><path d="m276.054688 339.488281h-137.195313c-12.449219 0-22.578125 10.128907-22.578125 22.578125v18.707032c0 12.453124 10.128906 22.582031 22.578125 22.582031h137.195313c12.449218 0 22.578124-10.128907 22.578124-22.582031v-18.707032c0-12.449218-10.128906-22.578125-22.578124-22.578125zm7.578124 41.289063c0 4.175781-3.398437 7.578125-7.578124 7.578125h-137.195313c-4.179687 0-7.578125-3.402344-7.578125-7.578125v-18.710938c0-4.175781 3.398438-7.578125 7.578125-7.578125h137.195313c4.179687 0 7.578124 3.402344 7.578124 7.578125zm0 0"/></svg>