<svg height="512" viewBox="0 0 128 128" width="512" xmlns="http://www.w3.org/2000/svg"><g><path d="m112.484 12.923a5.221 5.221 0 0 0 -7.169 2.144l-18.515 35.433 7.238 4.033 20.392-34.389a5.222 5.222 0 0 0 -1.946-7.221z" fill="#6bcbe2"/><path d="m97.864 44.353-4.412-2.453a11.465 11.465 0 0 0 -15.595 4.43l-13.842 24.845 24.441 13.617 13.844-24.845a11.465 11.465 0 0 0 -4.436-15.594z" fill="#f1768e"/><path d="m93.161 50.087-2.11-1.176a5.484 5.484 0 0 0 -7.46 2.122l-13.201 23.694 11.691 6.514 13.2-23.695a5.483 5.483 0 0 0 -2.12-7.459z" fill="#6bcbe2"/><path d="m86.772 56.211a28.314 28.314 0 0 0 -16.2 4.647 10.566 10.566 0 0 0 .8-4.015c0-6.965-6.923-12.624-15.458-12.624s-15.445 5.659-15.445 12.624a10.284 10.284 0 0 0 .369 2.729 20.651 20.651 0 0 0 -5.638-.772c-8.346 0-15.111 4.774-15.111 10.664s6.766 10.678 15.111 10.678a20.052 20.052 0 0 0 7.492-1.4 50.526 50.526 0 0 0 16.123 2.358 57.82 57.82 0 0 0 11.033-1.012c4.057 3.172 10.127 5.185 16.924 5.185 12.2 0 22.108-6.5 22.108-14.532s-9.906-14.53-22.108-14.53z" fill="#ffcc6a"/><path d="m26.5 108.913a9.605 9.605 0 0 0 9.194 6.825h56.606a9.605 9.605 0 0 0 9.194-6.825l6.366-21.047h-87.723z" fill="#79b272"/><path d="m117.261 70.742h-106.522a2.814 2.814 0 0 0 -2.639 3.788l3.674 9.949a5.181 5.181 0 0 0 4.861 3.387h94.73a5.181 5.181 0 0 0 4.861-3.387l3.674-9.949a2.814 2.814 0 0 0 -2.639-3.788z" fill="#90cb8a"/><g fill="#ffcc6a"><path d="m64 102.359c-2.761 0-5 1.754-5 3.917s2.239 3.916 5 3.916 5-1.753 5-3.916-2.239-3.917-5-3.917z"/><path d="m70.066 96.65a1.75 1.75 0 1 0 1.75 1.75 1.751 1.751 0 0 0 -1.75-1.75z"/><path d="m57.934 96.65a1.75 1.75 0 1 0 1.75 1.75 1.75 1.75 0 0 0 -1.75-1.75z"/><path d="m64 93.412a1.75 1.75 0 1 0 1.75 1.75 1.749 1.749 0 0 0 -1.75-1.75z"/></g></g><g><path d="m78.82 113.99h-7a1.75 1.75 0 0 0 0 3.5h7a1.75 1.75 0 0 0 0-3.5z"/><path d="m117.26 68.99h-6.76c-.53-3.494-2.654-6.706-6.126-9.275a13.149 13.149 0 0 0 -2.69-14.627l14.253-24.043a6.968 6.968 0 1 0 -12.165-6.786l-12.953 24.777a13.13 13.13 0 0 0 -14.487 6.441l-3.97 7.117c-3.062-8.242-14.062-12.343-23.339-8.916a1.75 1.75 0 1 0 1.214 3.283c10.563-3.908 22.418 4.092 18.721 13.239a1.75 1.75 0 0 0 2.639 2.08c7.627-5.443 21.131-5.88 29.577-.526 3.165 2 5.136 4.527 5.739 7.232h-85.037c.377-4.695 6.2-8.44 13.324-8.44a19.083 19.083 0 0 1 5.166.7 1.749 1.749 0 0 0 2.162-2.144 8.662 8.662 0 0 1 -.308-2.27 9.375 9.375 0 0 1 2.808-6.573 1.75 1.75 0 0 0 -2.516-2.434 12.981 12.981 0 0 0 -3.792 9.015c0 .161 0 .322.01.482a22.9 22.9 0 0 0 -3.53-.272c-9.077 0-16.481 5.315-16.827 11.94h-7.633a4.564 4.564 0 0 0 -4.282 6.145l3.673 9.959a6.982 6.982 0 0 0 6.5 4.526h2.211l5.984 19.8a11.3 11.3 0 0 0 10.874 8.07h29.12a1.75 1.75 0 0 0 0-3.5h-29.12a7.82 7.82 0 0 1 -7.525-5.586l-5.675-18.784h83l-5.675 18.78a7.819 7.819 0 0 1 -7.525 5.59h-6.48a1.75 1.75 0 0 0 0 3.5h6.48a11.3 11.3 0 0 0 10.875-8.073l5.984-19.8h2.211a6.985 6.985 0 0 0 6.5-4.535l3.669-9.948a4.564 4.564 0 0 0 -4.281-6.147zm-10.388-53.111a3.467 3.467 0 1 1 6.053 3.378l-14.034 23.675c-.06-.036-.118-.076-.179-.11l-4.412-2.463c-.059-.032-.117-.056-.175-.088zm-12.695 39.387a34.375 34.375 0 0 0 -10.577-.658l1.517-2.719a3.759 3.759 0 0 1 5.083-1.451l2.113 1.181a3.646 3.646 0 0 1 1.864 3.647zm7.181 2.561a27.028 27.028 0 0 0 -3.771-1.616 7.184 7.184 0 0 0 -3.573-7.648l-2.114-1.182a7.258 7.258 0 0 0 -9.84 2.8l-2.86 5.13a29.517 29.517 0 0 0 -5.3 1.717l5.491-9.844a9.658 9.658 0 0 1 11.759-4.414 53.973 53.973 0 0 1 7.211 4.021 9.661 9.661 0 0 1 2.997 11.036zm16.9 16.1-3.667 9.942a3.466 3.466 0 0 1 -3.221 2.254h-94.74a3.463 3.463 0 0 1 -3.218-2.246l-3.67-9.951a1.063 1.063 0 0 1 1-1.433h106.518a1.063 1.063 0 0 1 1 1.433z"/><path d="m64 100.609c-3.722 0-6.75 2.542-6.75 5.667s3.028 5.666 6.75 5.666 6.75-2.542 6.75-5.666-3.028-5.667-6.75-5.667zm0 7.833c-1.731 0-3.25-1.012-3.25-2.166 0-1.175 1.488-2.167 3.25-2.167s3.25.992 3.25 2.167c0 1.154-1.519 2.166-3.25 2.166z"/><path d="m70.066 96.65a1.75 1.75 0 1 0 1.75 1.75 1.751 1.751 0 0 0 -1.75-1.75z"/><path d="m57.934 96.65a1.75 1.75 0 1 0 1.75 1.75 1.75 1.75 0 0 0 -1.75-1.75z"/><circle cx="64" cy="95.162" r="1.75"/></g></svg>