<svg id="Layer_5" enable-background="new 0 0 64 64" height="512" viewBox="0 0 64 64" width="512" xmlns="http://www.w3.org/2000/svg"><g><g><g><path d="m48.19 54c2.93 0 5.78-.77 8.26-2.2l.01.01-.97 6.76c-.28 1.97-1.97 3.43-3.96 3.43h-13.06c-1.99 0-3.68-1.46-3.96-3.43l-.65-4.57z" fill="#cf9e76"/></g><g><path d="m55.26 43.58c-2.18-1.03-4.6-1.58-7.07-1.58h-16.05l-1.14-8h28l-1.54 10.81-.01.01c-.7-.47-1.43-.89-2.19-1.24z" fill="#cf9e76"/></g><g><path d="m62 29v4c0 .55-.45 1-1 1h-2-28-2c-.55 0-1-.45-1-1v-4c0-.55.45-1 1-1h2.12 5.88 3 10 10 1c.55 0 1 .45 1 1z" fill="#d3a06c"/></g><g><path d="m37 13-5.17 2.07-4.83 1.93v-10c.64-.64 1.51-1 2.41-1h.59z" fill="#aab2bd"/></g><g><path d="m40 22v6h-3l-5.17-12.93 5.17-2.07 3 8.5z" fill="#69d6f4"/></g><g><path d="m31.83 15.07 5.17 12.93h-5.88l-4.12-11z" fill="#ff826e"/></g><g><path d="m50 18v10h-10v-6-.5-3.5-4-4-4-4h12v11.8l.08.04z" fill="#e6e9ed"/></g><g><path d="m56.45 10.89 3.55 7.11h-10l2.08-4.16 1.47-2.95c.28-.54.84-.89 1.45-.89s1.17.35 1.45.89z" fill="#aab2bd"/></g><g><path d="m50 18h10v10h-10z" fill="#fcd770"/></g><g><path d="m28 51c1.66 0 3-1.34 3-3h30c-1.29 1.55-2.83 2.83-4.55 3.8-2.48 1.43-5.33 2.2-8.26 2.2h-14.33-7.76c-.37 0-.74.03-1.1.11v-.01-6.1c0 1.66 1.34 3 3 3z" fill="#ccd1d9"/></g><g><path d="m26.1 42h6.04 16.05c2.47 0 4.89.55 7.07 1.58.76.35 1.49.77 2.19 1.24 1.32.87 2.52 1.94 3.55 3.18h-30c0-1.66-1.34-3-3-3s-3 1.34-3 3v-6.1-.01c.36.08.73.11 1.1.11z" fill="#e6e9ed"/></g><g><circle cx="28" cy="48" fill="#a0d468" r="3"/></g><g><path d="m25 54.1v.01c-.96.17-1.87.58-2.64 1.2l-4.46 3.57c-1.26 1.01-2.68 1.79-4.18 2.32-1.5.52-3.1.8-4.72.8-1.94 0-3.68-.78-4.95-2.05s-2.05-3.01-2.05-4.95c0-3.87 3.13-7 7-7h16zm-11 .9c0-1.66-1.34-3-3-3h-2c-.83 0-1.58.34-2.12.88s-.88 1.29-.88 2.12c0 1.66 1.34 3 3 3h2c.83 0 1.58-.34 2.12-.88s.88-1.29.88-2.12z" fill="#b4dd7f"/></g><g><path d="m25 41.9v6.1h-16c-1.94 0-3.68-.78-4.95-2.05s-2.05-3.01-2.05-4.95.78-3.68 2.05-4.95 3.01-2.05 4.95-2.05c3.24 0 6.38 1.1 8.9 3.12l4.46 3.57c.77.62 1.68 1.03 2.64 1.2zm-11-.9c0-.83-.34-1.58-.88-2.12s-1.29-.88-2.12-.88h-2c-1.66 0-3 1.34-3 3 0 .83.34 1.58.88 2.12s1.29.88 2.12.88h2c1.66 0 3-1.34 3-3z" fill="#b4dd7f"/></g></g><g><path d="m5 55c0 2.206 1.794 4 4 4h2c2.206 0 4-1.794 4-4s-1.794-4-4-4h-2c-2.206 0-4 1.794-4 4zm8 0c0 1.103-.897 2-2 2h-2c-1.103 0-2-.897-2-2s.897-2 2-2h2c1.103 0 2 .897 2 2z"/><path d="m11 37h-2c-2.206 0-4 1.794-4 4s1.794 4 4 4h2c2.206 0 4-1.794 4-4s-1.794-4-4-4zm0 6h-2c-1.103 0-2-.897-2-2s.897-2 2-2h2c1.103 0 2 .897 2 2s-.897 2-2 2z"/><path d="m61 27v-9.236l-3.658-7.316c-.446-.893-1.343-1.448-2.342-1.448-.792 0-1.51.359-2 .949v-8.949h-14v14.662l-1.132-3.209-7.454-7.453h-1c-1.179 0-2.288.459-3.121 1.293l-.293.293v10.595l3.682 9.819h-.682c-1.103 0-2 .897-2 2v4c0 1.103.897 2 2 2h1.133l.857 6h-4.886c-1.131 0-2.24-.389-3.124-1.096l-4.452-3.562c-2.694-2.155-6.077-3.342-9.528-3.342-4.411 0-8 3.589-8 8 0 3.008 1.669 5.634 4.13 7-2.461 1.366-4.13 3.992-4.13 7 0 4.411 3.589 8 8 8 3.451 0 6.834-1.187 9.529-3.343l4.452-3.562c.884-.706 1.993-1.095 3.123-1.095h6.885l.53 3.708c.35 2.447 2.478 4.292 4.95 4.292h13.062c2.472 0 4.6-1.845 4.95-4.292l.897-6.278c1.641-1 3.127-2.273 4.391-3.79l.533-.64-.534-.64c-.958-1.149-2.054-2.141-3.238-2.998l1.337-9.362h1.133c1.103 0 2-.897 2-2v-4c0-1.103-.897-2-2-2zm-6.553-15.659c.211-.421.895-.421 1.105 0l2.83 5.659h-6.764zm4.553 7.659v8h-8v-8zm-18 4h6v-2h-6v-2h4v-2h-4v-2h6v-2h-6v-2h4v-2h-4v-2h6v-2h-6v-2h10v10.764l-2 4v9.236h-8zm-2-1.329v5.329h-1.323l-4.549-11.374 3.276-1.31zm-11-14.213c.409-.294.907-.458 1.414-.458h.172l5.634 5.635-7.22 2.888zm.28 10.107 2.99-1.196 4.253 10.631h-3.704zm-4.28 35.776c-.818.259-1.592.652-2.268 1.193l-4.452 3.562c-2.342 1.873-5.282 2.904-8.28 2.904-3.309 0-6-2.691-6-6s2.691-6 6-6h15zm0-6.341h-15c-3.309 0-6-2.691-6-6s2.691-6 6-6c2.998 0 5.938 1.031 8.28 2.904l4.452 3.562c.676.541 1.45.934 2.268 1.193zm30.501 11.424c-.21 1.469-1.487 2.576-2.97 2.576h-13.062c-1.483 0-2.76-1.107-2.97-2.576l-.489-3.424h13.18c2.45 0 4.824-.522 7.01-1.467zm-6.311-5.424h-22.086c-.035 0-.069.008-.104.009v-1.565c.591.344 1.268.556 2 .556 1.858 0 3.411-1.28 3.858-3h26.781c-2.855 2.56-6.553 4-10.449 4zm-22.19-5c0-1.103.897-2 2-2s2 .897 2 2-.897 2-2 2-2-.897-2-2zm32.639-1h-26.781c-.447-1.72-2-3-3.858-3-.732 0-1.409.212-2 .556v-1.565c.035.001.069.009.104.009h22.086c3.896 0 7.594 1.44 10.449 4zm-26.486-12h25.694l-1.17 8.194c-2.571-1.41-5.472-2.194-8.487-2.194h-15.18zm-3.153-2v-4h32l.001 4z"/></g></g></svg>